<svg xmlns="http://www.w3.org/2000/svg" xmlns:xlink="http://www.w3.org/1999/xlink" width="407" height="418.5" viewBox="0 0 407 418.5">
  <defs>
    <clipPath id="clip-path">
      <rect id="Rectángulo_6971" data-name="Rectángulo 6971" width="386.65" height="406.488" fill="none"/>
    </clipPath>
  </defs>
  <g id="Grupo_87752" data-name="Grupo 87752" transform="translate(4857 8579.5)">
    <g id="Grupo_87749" data-name="Grupo 87749" transform="translate(-4845 -8579.5)">
      <path id="Trazado_111885" data-name="Trazado 111885" d="M366.749,389.808H21.54V16.56H366.749Zm-344.46-.75H366V17.31H22.289Z" fill="#191919"/>
      <g id="Grupo_87744" data-name="Grupo 87744">
        <g id="Grupo_87743" data-name="Grupo 87743" clip-path="url(#clip-path)">
          <path id="Trazado_111886" data-name="Trazado 111886" d="M344.668,389.457l-.748-.047L365.972,32.478c-4.182.365-8.084.531-11.7.532-32.655,0-43.233-13.475-44.7-15.606L228.8,51.916c.648,4.478,8.535,59.76,9.139,102.29.629,44.4-43.261,55.638-43.705,55.746l-.08.02-.081-.016c-24.144-4.765-39.642-12.723-47.381-24.328-7.218-10.825-7.086-23.5-6.333-35.554,1.514-24.221,18.562-92.347,19.869-97.54L79.941,17.469c-6.295,33.683-21.675,47.757-33.5,53.63a45.32,45.32,0,0,1-24.587,4.69l.115-.742a44.543,44.543,0,0,0,24.176-4.639c11.709-5.83,26.964-19.851,33.143-53.54l.085-.465,81.733,35.7-.078.308c-.183.724-18.362,72.72-19.925,97.711-1.641,26.261,1.22,48.834,53.028,59.082,2.092-.549,43.662-12.074,43.054-54.987-.625-44.083-9.087-101.9-9.173-102.476l-.042-.286.265-.114,81.63-34.879.167.287c.111.19,11.573,18.985,56.3,14.944l.435-.039-.027.435Z" fill="#191919"/>
          <path id="Trazado_111887" data-name="Trazado 111887" d="M216.585,389.48,194.153,212.64l-21.34,176.838-.745-.09,21.7-179.845a.375.375,0,0,1,.371-.331h0a.376.376,0,0,1,.372.329l22.813,179.845Z" fill="#191919"/>
          <rect id="Rectángulo_6959" data-name="Rectángulo 6959" width="0.75" height="179.846" transform="translate(193.769 209.587)" fill="#191919"/>
          <rect id="Rectángulo_6960" data-name="Rectángulo 6960" width="344.459" height="1" transform="translate(21.915 209.088)" fill="#191919"/>
          <path id="Trazado_111888" data-name="Trazado 111888" d="M91.353,280.753a52.319,52.319,0,1,1,52.319-52.319,52.379,52.379,0,0,1-52.319,52.319m0-103.888a51.569,51.569,0,1,0,51.569,51.569,51.628,51.628,0,0,0-51.569-51.569" fill="#191919"/>
          <rect id="Rectángulo_6961" data-name="Rectángulo 6961" width="0.75" height="103.888" transform="translate(90.978 176.491)" fill="#191919"/>
          <rect id="Rectángulo_6962" data-name="Rectángulo 6962" width="0.75" height="192.652" transform="translate(228.371 16.936)" fill="#191919"/>
          <rect id="Rectángulo_6963" data-name="Rectángulo 6963" width="0.75" height="192.652" transform="translate(159.674 16.936)" fill="#191919"/>
          <rect id="Rectángulo_6964" data-name="Rectángulo 6964" width="0.75" height="192.652" transform="translate(138.608 17.244)" fill="#191919"/>
          <path id="Trazado_111889" data-name="Trazado 111889" d="M310.248,363.225V138.343H311V359.411l7.5-18.339.693.283Z" fill="#191919"/>
          <path id="Trazado_111890" data-name="Trazado 111890" d="M23.859,75.418a1.945,1.945,0,1,1-1.945-1.945,1.945,1.945,0,0,1,1.945,1.945" fill="#191919"/>
          <path id="Trazado_111891" data-name="Trazado 111891" d="M23.859,17.133a1.945,1.945,0,1,1-1.945-1.945,1.945,1.945,0,0,1,1.945,1.945" fill="#191919"/>
          <path id="Trazado_111892" data-name="Trazado 111892" d="M81.648,17.133A1.945,1.945,0,1,1,79.7,15.188a1.945,1.945,0,0,1,1.945,1.945" fill="#191919"/>
          <path id="Trazado_111893" data-name="Trazado 111893" d="M140.663,17.133a1.945,1.945,0,1,1-1.945-1.945,1.945,1.945,0,0,1,1.945,1.945" fill="#191919"/>
          <path id="Trazado_111894" data-name="Trazado 111894" d="M161.994,17.133a1.945,1.945,0,1,1-1.945-1.945,1.945,1.945,0,0,1,1.945,1.945" fill="#191919"/>
          <path id="Trazado_111895" data-name="Trazado 111895" d="M230.69,17.133a1.945,1.945,0,1,1-1.945-1.945,1.945,1.945,0,0,1,1.945,1.945" fill="#191919"/>
          <path id="Trazado_111896" data-name="Trazado 111896" d="M230.69,51.882a1.945,1.945,0,1,1-1.945-1.945,1.945,1.945,0,0,1,1.945,1.945" fill="#191919"/>
          <path id="Trazado_111897" data-name="Trazado 111897" d="M161.994,51.882a1.945,1.945,0,1,1-1.945-1.945,1.945,1.945,0,0,1,1.945,1.945" fill="#191919"/>
          <path id="Trazado_111898" data-name="Trazado 111898" d="M230.69,130.807a1.945,1.945,0,1,1-1.945-1.945,1.945,1.945,0,0,1,1.945,1.945" fill="#191919"/>
          <path id="Trazado_111899" data-name="Trazado 111899" d="M238.772,130.807a1.945,1.945,0,1,1-1.945-1.945,1.945,1.945,0,0,1,1.945,1.945" fill="#191919"/>
          <path id="Trazado_111900" data-name="Trazado 111900" d="M311.2,17.133a1.945,1.945,0,1,1-1.945-1.945,1.945,1.945,0,0,1,1.945,1.945" fill="#191919"/>
          <path id="Trazado_111901" data-name="Trazado 111901" d="M368.319,17.133a1.945,1.945,0,1,1-1.945-1.945,1.945,1.945,0,0,1,1.945,1.945" fill="#191919"/>
          <path id="Trazado_111902" data-name="Trazado 111902" d="M368.319,31.913a1.945,1.945,0,1,1-1.945-1.945,1.945,1.945,0,0,1,1.945,1.945" fill="#191919"/>
          <path id="Trazado_111903" data-name="Trazado 111903" d="M368.319,140.288a1.945,1.945,0,1,1-1.945-1.945,1.945,1.945,0,0,1,1.945,1.945" fill="#191919"/>
          <path id="Trazado_111904" data-name="Trazado 111904" d="M368.319,209.588a1.945,1.945,0,1,1-1.945-1.945,1.945,1.945,0,0,1,1.945,1.945" fill="#191919"/>
          <path id="Trazado_111905" data-name="Trazado 111905" d="M230.69,209.588a1.945,1.945,0,1,1-1.945-1.945,1.945,1.945,0,0,1,1.945,1.945" fill="#191919"/>
          <path id="Trazado_111906" data-name="Trazado 111906" d="M196.089,209.588a1.945,1.945,0,1,1-1.945-1.945,1.945,1.945,0,0,1,1.945,1.945" fill="#191919"/>
          <path id="Trazado_111907" data-name="Trazado 111907" d="M161.994,209.588a1.945,1.945,0,1,1-1.945-1.945,1.945,1.945,0,0,1,1.945,1.945" fill="#191919"/>
          <path id="Trazado_111908" data-name="Trazado 111908" d="M140.619,209.588a1.945,1.945,0,1,1-1.945-1.945,1.945,1.945,0,0,1,1.945,1.945" fill="#191919"/>
          <path id="Trazado_111909" data-name="Trazado 111909" d="M93.3,209.588a1.945,1.945,0,1,1-1.945-1.945,1.945,1.945,0,0,1,1.945,1.945" fill="#191919"/>
          <path id="Trazado_111910" data-name="Trazado 111910" d="M23.859,209.588a1.945,1.945,0,1,1-1.945-1.945,1.945,1.945,0,0,1,1.945,1.945" fill="#191919"/>
          <path id="Trazado_111911" data-name="Trazado 111911" d="M23.859,389.433a1.945,1.945,0,1,1-1.945-1.945,1.945,1.945,0,0,1,1.945,1.945" fill="#191919"/>
          <path id="Trazado_111912" data-name="Trazado 111912" d="M174.386,389.433a1.945,1.945,0,1,1-1.945-1.945,1.945,1.945,0,0,1,1.945,1.945" fill="#191919"/>
          <path id="Trazado_111913" data-name="Trazado 111913" d="M196.089,389.433a1.945,1.945,0,1,1-1.945-1.945,1.945,1.945,0,0,1,1.945,1.945" fill="#191919"/>
          <path id="Trazado_111914" data-name="Trazado 111914" d="M218.9,389.433a1.945,1.945,0,1,1-1.945-1.945,1.945,1.945,0,0,1,1.945,1.945" fill="#191919"/>
          <path id="Trazado_111915" data-name="Trazado 111915" d="M346.178,389.433a1.945,1.945,0,1,1-1.945-1.945,1.945,1.945,0,0,1,1.945,1.945" fill="#191919"/>
          <path id="Trazado_111916" data-name="Trazado 111916" d="M368.319,389.433a1.945,1.945,0,1,1-1.945-1.945,1.945,1.945,0,0,1,1.945,1.945" fill="#191919"/>
          <path id="Trazado_111917" data-name="Trazado 111917" d="M230.69,185.131a1.945,1.945,0,1,1-1.945-1.945,1.945,1.945,0,0,1,1.945,1.945" fill="#191919"/>
          <rect id="Rectángulo_6965" data-name="Rectángulo 6965" width="2.432" height="2.432" transform="translate(319.148 24.598)" fill="#191919"/>
          <rect id="Rectángulo_6966" data-name="Rectángulo 6966" width="2.432" height="2.432" transform="translate(48.027 68.318)" fill="#191919"/>
          <rect id="Rectángulo_6967" data-name="Rectángulo 6967" width="2.432" height="2.432" transform="translate(140.05 142.903)" fill="#191919"/>
          <rect id="Rectángulo_6968" data-name="Rectángulo 6968" width="2.432" height="2.432" transform="translate(140.05 171.039)" fill="#191919"/>
          <rect id="Rectángulo_6969" data-name="Rectángulo 6969" width="2.432" height="2.432" transform="translate(158.834 196.306)" fill="#191919"/>
          <rect id="Rectángulo_6970" data-name="Rectángulo 6970" width="103.888" height="0.75" transform="translate(39.409 228.059)" fill="#191919"/>
          <path id="Trazado_111918" data-name="Trazado 111918" d="M6.732,10.811H5.37V1.78l-2.732,1V1.553L6.52.1h.212Z"/>
          <path id="Trazado_111919" data-name="Trazado 111919" d="M10.575,5.464,11.117.147h5.464V1.4H12.267l-.322,2.908a3.434,3.434,0,0,1,1.779-.462,2.943,2.943,0,0,1,2.315.964,3.774,3.774,0,0,1,.857,2.6,3.645,3.645,0,0,1-.89,2.6,3.244,3.244,0,0,1-2.487.948,3.369,3.369,0,0,1-2.307-.784,3.129,3.129,0,0,1-1.018-2.167h1.282a2.149,2.149,0,0,0,.652,1.38,2.025,2.025,0,0,0,1.391.465A1.833,1.833,0,0,0,15,9.207a2.7,2.7,0,0,0,.538-1.78,2.481,2.481,0,0,0-.582-1.718,1.983,1.983,0,0,0-1.55-.648,2.239,2.239,0,0,0-1.391.388l-.359.293Z"/>
          <path id="Trazado_111920" data-name="Trazado 111920" d="M75.039,10.811H73.677V1.78l-2.732,1V1.553L74.827.1h.212Z"/>
          <path id="Trazado_111921" data-name="Trazado 111921" d="M83.451,6.123a3.31,3.31,0,0,1-1.014.813,2.754,2.754,0,0,1-1.293.308,2.85,2.85,0,0,1-1.608-.454,2.958,2.958,0,0,1-1.058-1.278,4.364,4.364,0,0,1-.373-1.821,4.437,4.437,0,0,1,.406-1.926A2.99,2.99,0,0,1,79.665.454,3.286,3.286,0,0,1,81.408,0,2.977,2.977,0,0,1,83.9,1.183a5.159,5.159,0,0,1,.912,3.226v.4A6.892,6.892,0,0,1,83.583,9.35a4.73,4.73,0,0,1-3.713,1.468h-.264V9.668h.286a3.733,3.733,0,0,0,2.578-.874,3.74,3.74,0,0,0,.981-2.671m-2.087,0a2.093,2.093,0,0,0,1.256-.417,2.472,2.472,0,0,0,.839-1.033V4.131a3.725,3.725,0,0,0-.579-2.168,1.769,1.769,0,0,0-2.9-.151,2.824,2.824,0,0,0-.542,1.806,2.939,2.939,0,0,0,.523,1.8,1.657,1.657,0,0,0,1.4.707"/>
          <path id="Trazado_111922" data-name="Trazado 111922" d="M138.533,10.811h-6.987V9.837l3.691-4.1a8.729,8.729,0,0,0,1.131-1.512,2.523,2.523,0,0,0,.312-1.205,1.914,1.914,0,0,0-.5-1.37,1.77,1.77,0,0,0-1.348-.534,2.093,2.093,0,0,0-1.571.575,2.192,2.192,0,0,0-.56,1.6h-1.355a3.145,3.145,0,0,1,.948-2.38A3.514,3.514,0,0,1,134.827,0a3.374,3.374,0,0,1,2.351.781,2.659,2.659,0,0,1,.864,2.076q0,1.575-2.007,3.75l-2.856,3.1h5.354Z"/>
          <path id="Trazado_111923" data-name="Trazado 111923" d="M146.206,10.811h-6.987V9.837l3.691-4.1a8.729,8.729,0,0,0,1.131-1.512,2.523,2.523,0,0,0,.312-1.205,1.914,1.914,0,0,0-.5-1.37,1.77,1.77,0,0,0-1.348-.534,2.093,2.093,0,0,0-1.571.575,2.192,2.192,0,0,0-.56,1.6h-1.355a3.145,3.145,0,0,1,.948-2.38A3.513,3.513,0,0,1,142.5,0a3.374,3.374,0,0,1,2.351.781,2.659,2.659,0,0,1,.864,2.076q0,1.575-2.007,3.75l-2.856,3.1h5.354Z"/>
          <path id="Trazado_111924" data-name="Trazado 111924" d="M159.274,10.811h-1.362V1.78l-2.732,1V1.553L159.062.1h.212Z"/>
          <path id="Trazado_111925" data-name="Trazado 111925" d="M168.961,2.93a2.48,2.48,0,0,1-.421,1.421,2.861,2.861,0,0,1-1.139.974,3.068,3.068,0,0,1,1.322,1.047,2.638,2.638,0,0,1,.487,1.56,2.787,2.787,0,0,1-.933,2.2,4.093,4.093,0,0,1-4.922,0,2.8,2.8,0,0,1-.927-2.2,2.712,2.712,0,0,1,.473-1.56,2.935,2.935,0,0,1,1.307-1.054,2.8,2.8,0,0,1-1.121-.974,2.517,2.517,0,0,1-.41-1.414,2.756,2.756,0,0,1,.864-2.138,3.67,3.67,0,0,1,4.552,0,2.748,2.748,0,0,1,.868,2.138M167.855,7.9a1.966,1.966,0,0,0-.568-1.459,2.014,2.014,0,0,0-1.483-.563A1.907,1.907,0,0,0,163.783,7.9a1.894,1.894,0,0,0,.538,1.428,2.4,2.4,0,0,0,2.992,0,1.889,1.889,0,0,0,.542-1.424m-2.036-6.791a1.749,1.749,0,0,0-1.292.5,1.811,1.811,0,0,0-.495,1.344,1.809,1.809,0,0,0,.487,1.315,1.934,1.934,0,0,0,2.6,0,1.809,1.809,0,0,0,.487-1.315,1.807,1.807,0,0,0-.505-1.326,1.727,1.727,0,0,0-1.282-.513"/>
          <path id="Trazado_111926" data-name="Trazado 111926" d="M7.192,81.009H.2v-.974l3.691-4.1a8.728,8.728,0,0,0,1.131-1.512,2.523,2.523,0,0,0,.312-1.2,1.914,1.914,0,0,0-.505-1.37,1.77,1.77,0,0,0-1.348-.534,2.093,2.093,0,0,0-1.571.575,2.192,2.192,0,0,0-.56,1.6H0a3.145,3.145,0,0,1,.948-2.38A3.514,3.514,0,0,1,3.486,70.2a3.374,3.374,0,0,1,2.351.781A2.659,2.659,0,0,1,6.7,73.055q0,1.575-2.007,3.75L1.838,79.9H7.192Z"/>
          <path id="Trazado_111927" data-name="Trazado 111927" d="M14.565,76.461A6.2,6.2,0,0,1,13.752,80a2.892,2.892,0,0,1-2.542,1.157,2.911,2.911,0,0,1-2.526-1.132,5.883,5.883,0,0,1-.85-3.38V74.835a6.062,6.062,0,0,1,.813-3.494A2.916,2.916,0,0,1,11.2,70.2a2.94,2.94,0,0,1,2.534,1.1,5.85,5.85,0,0,1,.835,3.4ZM13.21,74.608a4.974,4.974,0,0,0-.483-2.509,1.667,1.667,0,0,0-1.531-.787A1.64,1.64,0,0,0,9.68,72.1,4.839,4.839,0,0,0,9.189,74.5v2.168a5.041,5.041,0,0,0,.5,2.553,1.66,1.66,0,0,0,1.519.824,1.64,1.64,0,0,0,1.491-.776,4.876,4.876,0,0,0,.509-2.447Z"/>
          <path id="Trazado_111928" data-name="Trazado 111928" d="M93.112,170.972H86.125V170l3.691-4.1a8.729,8.729,0,0,0,1.131-1.512,2.523,2.523,0,0,0,.312-1.205,1.914,1.914,0,0,0-.505-1.37,1.77,1.77,0,0,0-1.348-.534,2.093,2.093,0,0,0-1.571.575,2.192,2.192,0,0,0-.56,1.6H85.92a3.145,3.145,0,0,1,.948-2.38,3.514,3.514,0,0,1,2.538-.909,3.374,3.374,0,0,1,2.351.781,2.659,2.659,0,0,1,.864,2.076q0,1.575-2.007,3.75l-2.856,3.1h5.354Z"/>
          <path id="Trazado_111929" data-name="Trazado 111929" d="M100.265,163.091a2.48,2.48,0,0,1-.421,1.421,2.861,2.861,0,0,1-1.139.974,3.063,3.063,0,0,1,1.322,1.048,2.633,2.633,0,0,1,.487,1.56,2.785,2.785,0,0,1-.933,2.2,4.093,4.093,0,0,1-4.922,0,2.8,2.8,0,0,1-.927-2.2,2.708,2.708,0,0,1,.473-1.56,2.93,2.93,0,0,1,1.307-1.055,2.8,2.8,0,0,1-1.121-.974,2.515,2.515,0,0,1-.41-1.414,2.756,2.756,0,0,1,.864-2.138,3.67,3.67,0,0,1,4.552,0,2.748,2.748,0,0,1,.868,2.138m-1.106,4.974a1.964,1.964,0,0,0-.568-1.458,2.011,2.011,0,0,0-1.483-.564,1.907,1.907,0,0,0-2.021,2.022,1.893,1.893,0,0,0,.538,1.428,2.4,2.4,0,0,0,2.992,0,1.889,1.889,0,0,0,.542-1.424m-2.036-6.79a1.748,1.748,0,0,0-1.292.494,2.045,2.045,0,0,0-.008,2.659,1.934,1.934,0,0,0,2.6,0,2,2,0,0,0-.018-2.64,1.723,1.723,0,0,0-1.282-.513"/>
          <path id="Trazado_111930" data-name="Trazado 111930" d="M174.108,61.187h-6.987v-.974l3.691-4.1a8.729,8.729,0,0,0,1.131-1.512,2.523,2.523,0,0,0,.312-1.2,1.914,1.914,0,0,0-.505-1.37,1.77,1.77,0,0,0-1.348-.534,2.093,2.093,0,0,0-1.571.575,2.192,2.192,0,0,0-.56,1.6h-1.355a3.145,3.145,0,0,1,.948-2.38,3.514,3.514,0,0,1,2.538-.909,3.374,3.374,0,0,1,2.351.781,2.659,2.659,0,0,1,.864,2.076q0,1.575-2.007,3.75l-2.856,3.1h5.354Z"/>
          <path id="Trazado_111931" data-name="Trazado 111931" d="M179.247,61.187h-1.362V52.156l-2.732,1V51.929l3.882-1.457h.212Z"/>
          <path id="Trazado_111932" data-name="Trazado 111932" d="M214.9,138.344h-1.362v-9.031l-2.732,1v-1.231l3.882-1.457h.212Z"/>
          <path id="Trazado_111933" data-name="Trazado 111933" d="M222.57,138.344h-1.362v-9.031l-2.732,1v-1.231l3.882-1.457h.212Z"/>
          <path id="Trazado_111934" data-name="Trazado 111934" d="M248.987,138.344h-1.362v-9.031l-2.733,1v-1.231l3.882-1.457h.213Z"/>
          <path id="Trazado_111935" data-name="Trazado 111935" d="M259.194,138.344h-6.987v-.974l3.691-4.1a8.728,8.728,0,0,0,1.131-1.512,2.521,2.521,0,0,0,.311-1.205,1.913,1.913,0,0,0-.5-1.37,1.77,1.77,0,0,0-1.348-.534,2.093,2.093,0,0,0-1.571.575,2.193,2.193,0,0,0-.561,1.6H252a3.142,3.142,0,0,1,.948-2.38,3.514,3.514,0,0,1,2.538-.909,3.376,3.376,0,0,1,2.351.781,2.659,2.659,0,0,1,.864,2.076q0,1.575-2.007,3.75l-2.856,3.1h5.354Z"/>
          <path id="Trazado_111936" data-name="Trazado 111936" d="M190.883,194.922l.542-5.317h5.464v1.252h-4.314l-.322,2.908a3.437,3.437,0,0,1,1.779-.462,2.943,2.943,0,0,1,2.315.964,3.774,3.774,0,0,1,.857,2.6,3.645,3.645,0,0,1-.89,2.6,3.244,3.244,0,0,1-2.487.948,3.365,3.365,0,0,1-2.306-.784,3.126,3.126,0,0,1-1.019-2.167h1.282a2.149,2.149,0,0,0,.652,1.38,2.025,2.025,0,0,0,1.391.465,1.833,1.833,0,0,0,1.484-.644,2.7,2.7,0,0,0,.538-1.78,2.481,2.481,0,0,0-.582-1.718,1.983,1.983,0,0,0-1.549-.648,2.24,2.24,0,0,0-1.392.388l-.359.293Z"/>
          <path id="Trazado_111937" data-name="Trazado 111937" d="M374.264,144.935h1.019a2.238,2.238,0,0,0,1.508-.505,1.687,1.687,0,0,0,.549-1.326,1.654,1.654,0,0,0-1.867-1.875,1.941,1.941,0,0,0-1.4.5,1.755,1.755,0,0,0-.524,1.329h-1.354a2.717,2.717,0,0,1,.926-2.1,3.373,3.373,0,0,1,2.355-.839,3.334,3.334,0,0,1,2.365.8,2.882,2.882,0,0,1,.858,2.219,2.339,2.339,0,0,1-.452,1.348,2.718,2.718,0,0,1-1.226.974,2.616,2.616,0,0,1,1.358.923,2.556,2.556,0,0,1,.481,1.575,2.907,2.907,0,0,1-.938,2.277,3.509,3.509,0,0,1-2.439.843,3.6,3.6,0,0,1-2.443-.813,2.7,2.7,0,0,1-.941-2.146h1.362a1.744,1.744,0,0,0,.55,1.347,2.089,2.089,0,0,0,1.472.506,2.052,2.052,0,0,0,1.5-.513,1.977,1.977,0,0,0,.519-1.472,1.792,1.792,0,0,0-.571-1.428,2.489,2.489,0,0,0-1.647-.513h-1.019Z"/>
          <path id="Trazado_111938" data-name="Trazado 111938" d="M378.014,216.172h1.479v1.1h-1.479v2.476h-1.363v-2.476H371.8v-.8l4.776-7.391h1.442Zm-4.679,0h3.316v-5.229l-.161.292Z"/>
          <path id="Trazado_111939" data-name="Trazado 111939" d="M379.282,400.683H372.3v-.974l3.691-4.1a8.728,8.728,0,0,0,1.131-1.513,2.521,2.521,0,0,0,.311-1.2,1.909,1.909,0,0,0-.5-1.369,1.767,1.767,0,0,0-1.348-.535,2.093,2.093,0,0,0-1.571.575,2.2,2.2,0,0,0-.561,1.6H372.09a3.142,3.142,0,0,1,.948-2.381,3.513,3.513,0,0,1,2.538-.909,3.376,3.376,0,0,1,2.351.781,2.659,2.659,0,0,1,.864,2.076q0,1.575-2.007,3.75l-2.856,3.1h5.354Z"/>
          <path id="Trazado_111940" data-name="Trazado 111940" d="M343.5,400.35h1.017a2.238,2.238,0,0,0,1.508-.505,1.686,1.686,0,0,0,.55-1.326,1.654,1.654,0,0,0-1.868-1.875,1.937,1.937,0,0,0-1.4.5,1.75,1.75,0,0,0-.525,1.329h-1.355a2.714,2.714,0,0,1,.927-2.105,3.373,3.373,0,0,1,2.354-.839,3.336,3.336,0,0,1,2.366.8,2.88,2.88,0,0,1,.858,2.219,2.34,2.34,0,0,1-.452,1.348,2.712,2.712,0,0,1-1.225.975,2.623,2.623,0,0,1,1.358.922,2.568,2.568,0,0,1,.479,1.575,2.91,2.91,0,0,1-.938,2.278,3.511,3.511,0,0,1-2.438.842,3.605,3.605,0,0,1-2.443-.813,2.7,2.7,0,0,1-.941-2.146h1.362a1.743,1.743,0,0,0,.549,1.347,2.091,2.091,0,0,0,1.473.506,2.053,2.053,0,0,0,1.5-.512,1.981,1.981,0,0,0,.521-1.473,1.789,1.789,0,0,0-.572-1.428,2.493,2.493,0,0,0-1.648-.513H343.5Z"/>
          <path id="Trazado_111941" data-name="Trazado 111941" d="M356.188,406.342H349.2v-.974l3.691-4.1a8.8,8.8,0,0,0,1.132-1.513,2.533,2.533,0,0,0,.311-1.2,1.91,1.91,0,0,0-.505-1.369,1.767,1.767,0,0,0-1.348-.535,2.09,2.09,0,0,0-1.57.575,2.2,2.2,0,0,0-.561,1.6H349a3.143,3.143,0,0,1,.949-2.381,3.511,3.511,0,0,1,2.537-.909,3.379,3.379,0,0,1,2.352.781,2.659,2.659,0,0,1,.864,2.076q0,1.575-2.007,3.75l-2.857,3.1h5.354Z"/>
          <path id="Trazado_111942" data-name="Trazado 111942" d="M217.87,400.35h1.018a2.238,2.238,0,0,0,1.508-.505,1.686,1.686,0,0,0,.55-1.326,1.654,1.654,0,0,0-1.868-1.875,1.942,1.942,0,0,0-1.4.5,1.753,1.753,0,0,0-.524,1.329H215.8a2.714,2.714,0,0,1,.927-2.105,3.373,3.373,0,0,1,2.354-.839,3.336,3.336,0,0,1,2.366.8,2.882,2.882,0,0,1,.857,2.219,2.338,2.338,0,0,1-.451,1.348,2.72,2.72,0,0,1-1.226.975,2.619,2.619,0,0,1,1.358.922,2.562,2.562,0,0,1,.48,1.575,2.91,2.91,0,0,1-.938,2.278,3.51,3.51,0,0,1-2.438.842,3.6,3.6,0,0,1-2.443-.813,2.7,2.7,0,0,1-.941-2.146h1.362a1.743,1.743,0,0,0,.549,1.347,2.091,2.091,0,0,0,1.473.506,2.053,2.053,0,0,0,1.5-.512,1.98,1.98,0,0,0,.52-1.473,1.792,1.792,0,0,0-.571-1.428,2.492,2.492,0,0,0-1.648-.513H217.87Z"/>
          <path id="Trazado_111943" data-name="Trazado 111943" d="M230.259,401.794a6.2,6.2,0,0,1-.813,3.537,3.378,3.378,0,0,1-5.068.025,5.883,5.883,0,0,1-.85-3.38v-1.808a6.063,6.063,0,0,1,.814-3.495,2.913,2.913,0,0,1,2.548-1.142,2.943,2.943,0,0,1,2.535,1.1,5.857,5.857,0,0,1,.834,3.4ZM228.9,399.94a4.974,4.974,0,0,0-.483-2.509,1.666,1.666,0,0,0-1.531-.787,1.643,1.643,0,0,0-1.516.784,4.842,4.842,0,0,0-.491,2.409v2.168a5.041,5.041,0,0,0,.5,2.553,1.661,1.661,0,0,0,1.52.824,1.636,1.636,0,0,0,1.49-.776,4.874,4.874,0,0,0,.509-2.446Z"/>
          <path id="Trazado_111944" data-name="Trazado 111944" d="M194.714,406.341h-1.362v-9.03l-2.733,1v-1.231l3.882-1.457h.213Z"/>
          <path id="Trazado_111945" data-name="Trazado 111945" d="M199.9,400.35h1.019a2.238,2.238,0,0,0,1.508-.505,1.686,1.686,0,0,0,.549-1.326,1.654,1.654,0,0,0-1.867-1.875,1.946,1.946,0,0,0-1.4.5,1.756,1.756,0,0,0-.524,1.329h-1.354a2.717,2.717,0,0,1,.926-2.105,3.377,3.377,0,0,1,2.355-.839,3.334,3.334,0,0,1,2.365.8,2.883,2.883,0,0,1,.858,2.219,2.34,2.34,0,0,1-.452,1.348,2.72,2.72,0,0,1-1.226.975,2.615,2.615,0,0,1,1.358.922,2.556,2.556,0,0,1,.481,1.575,2.91,2.91,0,0,1-.938,2.278,3.513,3.513,0,0,1-2.439.842,3.6,3.6,0,0,1-2.443-.813,2.7,2.7,0,0,1-.941-2.146H199.1a1.744,1.744,0,0,0,.55,1.347,2.089,2.089,0,0,0,1.472.506,2.056,2.056,0,0,0,1.5-.512,1.98,1.98,0,0,0,.519-1.473,1.792,1.792,0,0,0-.571-1.428,2.49,2.49,0,0,0-1.647-.513H199.9Z"/>
          <path id="Trazado_111946" data-name="Trazado 111946" d="M167.238,400.35h1.018a2.239,2.239,0,0,0,1.509-.505,1.689,1.689,0,0,0,.549-1.326,1.654,1.654,0,0,0-1.868-1.875,1.945,1.945,0,0,0-1.4.5,1.756,1.756,0,0,0-.524,1.329h-1.355a2.718,2.718,0,0,1,.927-2.105,3.373,3.373,0,0,1,2.354-.839,3.336,3.336,0,0,1,2.366.8,2.882,2.882,0,0,1,.857,2.219,2.338,2.338,0,0,1-.451,1.348,2.72,2.72,0,0,1-1.226.975,2.619,2.619,0,0,1,1.358.922,2.562,2.562,0,0,1,.48,1.575,2.91,2.91,0,0,1-.937,2.278,3.513,3.513,0,0,1-2.439.842,3.6,3.6,0,0,1-2.443-.813,2.7,2.7,0,0,1-.941-2.146h1.362a1.74,1.74,0,0,0,.55,1.347,2.089,2.089,0,0,0,1.472.506,2.052,2.052,0,0,0,1.5-.512,1.976,1.976,0,0,0,.52-1.473,1.792,1.792,0,0,0-.571-1.428,2.491,2.491,0,0,0-1.648-.513h-1.018Z"/>
          <path id="Trazado_111947" data-name="Trazado 111947" d="M177.394,406.341h-1.362v-9.03l-2.732,1v-1.231l3.882-1.457h.212Z"/>
          <path id="Trazado_111948" data-name="Trazado 111948" d="M233.027,214.74v1.151h-.249a3.567,3.567,0,0,0-2.519.937,3.9,3.9,0,0,0-1.084,2.556,2.89,2.89,0,0,1,2.3-.967,2.765,2.765,0,0,1,2.223.982,4.3,4.3,0,0,1-.066,5.17,3.09,3.09,0,0,1-2.406.99,3.043,3.043,0,0,1-2.483-1.176,4.655,4.655,0,0,1-.952-3.028v-.521a7.013,7.013,0,0,1,1.256-4.5,4.614,4.614,0,0,1,3.739-1.594Zm-1.779,4.8a2.279,2.279,0,0,0-2.1,1.465v.5a3.5,3.5,0,0,0,.593,2.124,1.78,1.78,0,0,0,1.48.806,1.725,1.725,0,0,0,1.439-.674,3.24,3.24,0,0,0-.007-3.541,1.7,1.7,0,0,0-1.41-.678"/>
          <path id="Trazado_111949" data-name="Trazado 111949" d="M163.444,225.412h-1.362v-9.031l-2.732,1v-1.231l3.882-1.458h.212Z"/>
          <path id="Trazado_111950" data-name="Trazado 111950" d="M173.549,215.51l-4.417,9.9h-1.42l4.4-9.55h-5.771v-1.114h7.207Z"/>
          <path id="Trazado_111951" data-name="Trazado 111951" d="M153.749,239.684h-6.987v-.974l3.691-4.1a8.728,8.728,0,0,0,1.131-1.513,2.523,2.523,0,0,0,.312-1.2,1.91,1.91,0,0,0-.5-1.369,1.767,1.767,0,0,0-1.348-.535,2.093,2.093,0,0,0-1.571.575,2.2,2.2,0,0,0-.56,1.6h-1.355a3.146,3.146,0,0,1,.948-2.381,3.513,3.513,0,0,1,2.538-.909,3.374,3.374,0,0,1,2.351.781,2.659,2.659,0,0,1,.864,2.076q0,1.575-2.007,3.75l-2.856,3.1h5.354Z"/>
          <path id="Trazado_111952" data-name="Trazado 111952" d="M161.32,229.782l-4.417,9.9h-1.42l4.4-9.55h-5.771V229.02h7.207Z"/>
          <path id="Trazado_111953" data-name="Trazado 111953" d="M103,245.276H96.008V244.3l3.691-4.1a8.728,8.728,0,0,0,1.131-1.512,2.523,2.523,0,0,0,.312-1.205,1.912,1.912,0,0,0-.5-1.37,1.766,1.766,0,0,0-1.348-.534,2.089,2.089,0,0,0-1.571.575,2.192,2.192,0,0,0-.56,1.6H95.8a3.144,3.144,0,0,1,.948-2.38,3.514,3.514,0,0,1,2.538-.909,3.374,3.374,0,0,1,2.351.781,2.659,2.659,0,0,1,.864,2.076q0,1.575-2.007,3.75l-2.856,3.1H103Z"/>
          <path id="Trazado_111954" data-name="Trazado 111954" d="M104.3,239.929l.542-5.317h5.464v1.252H106l-.322,2.908a3.434,3.434,0,0,1,1.779-.462,2.94,2.94,0,0,1,2.315.964,3.772,3.772,0,0,1,.857,2.6,3.647,3.647,0,0,1-.89,2.6,3.244,3.244,0,0,1-2.487.948,3.374,3.374,0,0,1-2.307-.784,3.13,3.13,0,0,1-1.018-2.168H105.2a2.152,2.152,0,0,0,.652,1.381,2.025,2.025,0,0,0,1.391.465,1.831,1.831,0,0,0,1.484-.645,2.7,2.7,0,0,0,.538-1.779,2.481,2.481,0,0,0-.582-1.718,1.983,1.983,0,0,0-1.55-.648,2.239,2.239,0,0,0-1.391.388l-.359.293Z"/>
          <path id="Trazado_111955" data-name="Trazado 111955" d="M27.843,234.026H20.856v-.975l3.691-4.1a8.728,8.728,0,0,0,1.131-1.512,2.523,2.523,0,0,0,.312-1.205,1.912,1.912,0,0,0-.5-1.37,1.766,1.766,0,0,0-1.348-.534,2.089,2.089,0,0,0-1.571.575,2.192,2.192,0,0,0-.56,1.6H20.651a3.144,3.144,0,0,1,.948-2.38,3.514,3.514,0,0,1,2.538-.909,3.374,3.374,0,0,1,2.351.781,2.659,2.659,0,0,1,.864,2.076q0,1.575-2.007,3.75l-2.856,3.1h5.354Z"/>
          <path id="Trazado_111956" data-name="Trazado 111956" d="M33.846,223.354v1.151H33.6a3.568,3.568,0,0,0-2.52.937A3.9,3.9,0,0,0,29.993,228a2.891,2.891,0,0,1,2.3-.967,2.763,2.763,0,0,1,2.223.982,4.3,4.3,0,0,1-.066,5.17,3.087,3.087,0,0,1-2.406.99A3.045,3.045,0,0,1,29.561,233a4.655,4.655,0,0,1-.952-3.028v-.521a7.013,7.013,0,0,1,1.256-4.5,4.614,4.614,0,0,1,3.739-1.594Zm-1.78,4.8a2.279,2.279,0,0,0-2.1,1.465v.5a3.5,3.5,0,0,0,.594,2.124,1.777,1.777,0,0,0,1.479.806,1.723,1.723,0,0,0,1.439-.674,3.235,3.235,0,0,0-.007-3.541,1.7,1.7,0,0,0-1.41-.678"/>
          <path id="Trazado_111957" data-name="Trazado 111957" d="M91.168,299.443H84.181v-.974l3.691-4.1A8.729,8.729,0,0,0,89,292.855a2.523,2.523,0,0,0,.312-1.205,1.91,1.91,0,0,0-.505-1.369,1.767,1.767,0,0,0-1.348-.535,2.093,2.093,0,0,0-1.571.575,2.2,2.2,0,0,0-.56,1.6H83.976a3.146,3.146,0,0,1,.948-2.381,3.514,3.514,0,0,1,2.538-.909,3.374,3.374,0,0,1,2.351.781,2.659,2.659,0,0,1,.864,2.076q0,1.575-2.007,3.75l-2.856,3.1h5.354Z"/>
          <path id="Trazado_111958" data-name="Trazado 111958" d="M97.046,294.756a3.31,3.31,0,0,1-1.014.813,2.742,2.742,0,0,1-1.293.308,2.842,2.842,0,0,1-1.608-.454,2.958,2.958,0,0,1-1.058-1.278,4.364,4.364,0,0,1-.373-1.821,4.432,4.432,0,0,1,.406-1.925,2.987,2.987,0,0,1,1.154-1.312A3.286,3.286,0,0,1,95,288.633a2.977,2.977,0,0,1,2.494,1.183,5.159,5.159,0,0,1,.912,3.226v.4a6.892,6.892,0,0,1-1.231,4.545,4.723,4.723,0,0,1-3.713,1.468H93.2V298.3h.286a3.226,3.226,0,0,0,3.559-3.545m-2.087,0a2.093,2.093,0,0,0,1.256-.417,2.465,2.465,0,0,0,.839-1.033v-.542a3.725,3.725,0,0,0-.579-2.168,1.769,1.769,0,0,0-2.9-.151,2.824,2.824,0,0,0-.542,1.806,2.939,2.939,0,0,0,.523,1.8,1.657,1.657,0,0,0,1.4.707"/>
          <path id="Trazado_111959" data-name="Trazado 111959" d="M148.723,205.86h-6.987v-.974l3.691-4.1a8.767,8.767,0,0,0,1.131-1.512,2.523,2.523,0,0,0,.312-1.205,1.912,1.912,0,0,0-.5-1.37,1.767,1.767,0,0,0-1.348-.535,2.093,2.093,0,0,0-1.571.575,2.2,2.2,0,0,0-.56,1.6h-1.355a3.148,3.148,0,0,1,.948-2.381,3.517,3.517,0,0,1,2.538-.908,3.379,3.379,0,0,1,2.351.78,2.661,2.661,0,0,1,.864,2.076q0,1.575-2.007,3.75l-2.856,3.1h5.354Z"/>
          <path id="Trazado_111960" data-name="Trazado 111960" d="M151.378,199.869H152.4a2.239,2.239,0,0,0,1.509-.505,1.69,1.69,0,0,0,.549-1.326,1.654,1.654,0,0,0-1.868-1.875,1.94,1.94,0,0,0-1.4.5,1.755,1.755,0,0,0-.524,1.329H149.3a2.718,2.718,0,0,1,.927-2.1,3.812,3.812,0,0,1,4.72-.041,2.881,2.881,0,0,1,.857,2.219,2.338,2.338,0,0,1-.451,1.348,2.718,2.718,0,0,1-1.226.974,2.62,2.62,0,0,1,1.358.923,2.562,2.562,0,0,1,.48,1.575,2.906,2.906,0,0,1-.937,2.277,3.508,3.508,0,0,1-2.439.842,3.6,3.6,0,0,1-2.443-.812,2.7,2.7,0,0,1-.941-2.146h1.362a1.74,1.74,0,0,0,.55,1.347,2.089,2.089,0,0,0,1.472.506,2.048,2.048,0,0,0,1.5-.513,1.974,1.974,0,0,0,.52-1.472,1.792,1.792,0,0,0-.571-1.428,2.491,2.491,0,0,0-1.648-.513h-1.018Z"/>
          <path id="Trazado_111961" data-name="Trazado 111961" d="M77.676,203.114H70.689v-.974l3.691-4.1a8.728,8.728,0,0,0,1.131-1.512,2.523,2.523,0,0,0,.312-1.205,1.914,1.914,0,0,0-.5-1.37,1.77,1.77,0,0,0-1.348-.534,2.093,2.093,0,0,0-1.571.575,2.192,2.192,0,0,0-.56,1.6H70.484a3.145,3.145,0,0,1,.948-2.38,3.514,3.514,0,0,1,2.538-.909,3.374,3.374,0,0,1,2.351.781,2.659,2.659,0,0,1,.864,2.076q0,1.575-2.007,3.75l-2.856,3.1h5.354Z"/>
          <path id="Trazado_111962" data-name="Trazado 111962" d="M84.081,199.532h1.48v1.106h-1.48v2.476H82.719v-2.476H77.863v-.8l4.775-7.391h1.443Zm-4.68,0h3.318V194.3l-.161.292Z"/>
          <path id="Trazado_111963" data-name="Trazado 111963" d="M4.1,215.179H2.736v-9.031l-2.732,1v-1.231l3.882-1.458H4.1Z"/>
          <path id="Trazado_111964" data-name="Trazado 111964" d="M13.038,211.6h1.48V212.7h-1.48v2.476H11.676V212.7H6.82v-.8l4.775-7.39h1.443Zm-4.68,0h3.318v-5.229l-.161.292Z"/>
          <path id="Trazado_111965" data-name="Trazado 111965" d="M4.1,396.969H2.736v-9.03l-2.732,1v-1.231l3.882-1.457H4.1Z"/>
          <path id="Trazado_111966" data-name="Trazado 111966" d="M12.635,386.3v1.15h-.249a3.569,3.569,0,0,0-2.52.937,3.9,3.9,0,0,0-1.083,2.557,2.888,2.888,0,0,1,2.3-.967,2.765,2.765,0,0,1,2.224.982,4.3,4.3,0,0,1-.066,5.17,3.09,3.09,0,0,1-2.407.989,3.041,3.041,0,0,1-2.482-1.176,4.65,4.65,0,0,1-.953-3.028v-.52a7.018,7.018,0,0,1,1.257-4.5,4.613,4.613,0,0,1,3.738-1.593Zm-1.779,4.8a2.275,2.275,0,0,0-2.1,1.465v.5a3.5,3.5,0,0,0,.594,2.124,1.778,1.778,0,0,0,1.479.806,1.725,1.725,0,0,0,1.44-.674,3.237,3.237,0,0,0-.007-3.542,1.706,1.706,0,0,0-1.41-.677"/>
          <path id="Trazado_111967" data-name="Trazado 111967" d="M289.862,242.029v-6.4h2.092a2.427,2.427,0,0,1,1.566.43,1.553,1.553,0,0,1,.526,1.275,1.3,1.3,0,0,1-.255.793,1.651,1.651,0,0,1-.694.534,1.483,1.483,0,0,1,.819.552,1.582,1.582,0,0,1,.3.968,1.711,1.711,0,0,1-.558,1.354,2.309,2.309,0,0,1-1.578.492Zm.844-3.67h1.274a1.332,1.332,0,0,0,.885-.277.928.928,0,0,0,.332-.753.916.916,0,0,0-.307-.769,1.51,1.51,0,0,0-.936-.24h-1.248Zm0,.677v2.3H292.1a1.344,1.344,0,0,0,.929-.305,1.074,1.074,0,0,0,.341-.842q0-1.155-1.257-1.156Z"/>
          <path id="Trazado_111968" data-name="Trazado 111968" d="M297.823,242.029a1.726,1.726,0,0,1-.115-.5,1.812,1.812,0,0,1-1.353.589,1.679,1.679,0,0,1-1.153-.4,1.288,1.288,0,0,1-.452-1.009,1.345,1.345,0,0,1,.566-1.154,2.658,2.658,0,0,1,1.588-.411h.791v-.374a.912.912,0,0,0-.255-.678,1.025,1.025,0,0,0-.751-.253,1.191,1.191,0,0,0-.73.219.652.652,0,0,0-.3.533h-.817a1.118,1.118,0,0,1,.253-.688,1.706,1.706,0,0,1,.686-.525,2.3,2.3,0,0,1,.951-.194,1.881,1.881,0,0,1,1.288.411,1.484,1.484,0,0,1,.483,1.131v2.189a2.687,2.687,0,0,0,.167,1.042v.07Zm-1.35-.62a1.431,1.431,0,0,0,.726-.2,1.2,1.2,0,0,0,.5-.515v-.975h-.637q-1.494,0-1.494.875a.739.739,0,0,0,.255.6.974.974,0,0,0,.654.215"/>
          <path id="Trazado_111969" data-name="Trazado 111969" d="M302.1,240.767a.6.6,0,0,0-.248-.512,2.406,2.406,0,0,0-.866-.314,4.1,4.1,0,0,1-.98-.317,1.384,1.384,0,0,1-.536-.439,1.049,1.049,0,0,1-.174-.606,1.235,1.235,0,0,1,.494-.989,1.937,1.937,0,0,1,1.264-.4,1.988,1.988,0,0,1,1.312.417,1.326,1.326,0,0,1,.5,1.068h-.818a.736.736,0,0,0-.284-.576,1.062,1.062,0,0,0-.714-.241,1.11,1.11,0,0,0-.694.193.608.608,0,0,0-.25.505.493.493,0,0,0,.232.444,2.856,2.856,0,0,0,.842.286,4.351,4.351,0,0,1,.986.325,1.447,1.447,0,0,1,.561.455,1.123,1.123,0,0,1,.182.648,1.216,1.216,0,0,1-.509,1.022,2.138,2.138,0,0,1-1.324.385,2.39,2.39,0,0,1-1.01-.2,1.639,1.639,0,0,1-.688-.564,1.36,1.36,0,0,1-.248-.785h.813a.841.841,0,0,0,.327.648,1.268,1.268,0,0,0,.806.24,1.308,1.308,0,0,0,.741-.187.574.574,0,0,0,.279-.5"/>
          <path id="Trazado_111970" data-name="Trazado 111970" d="M305.5,242.117a2.081,2.081,0,0,1-1.574-.635,2.36,2.36,0,0,1-.606-1.7v-.15a2.863,2.863,0,0,1,.269-1.262,2.117,2.117,0,0,1,.756-.871,1.906,1.906,0,0,1,1.053-.314,1.779,1.779,0,0,1,1.441.61,2.646,2.646,0,0,1,.515,1.749v.339h-3.222a1.687,1.687,0,0,0,.412,1.136,1.288,1.288,0,0,0,1,.433,1.416,1.416,0,0,0,.729-.176,1.83,1.83,0,0,0,.522-.466l.5.387a2,2,0,0,1-1.793.919m-.1-4.263a1.082,1.082,0,0,0-.826.358,1.736,1.736,0,0,0-.413,1h2.382v-.061a1.55,1.55,0,0,0-.334-.96,1.02,1.02,0,0,0-.809-.341"/>
          <path id="Trazado_111971" data-name="Trazado 111971" d="M313.986,242.029h-.817V236.61l-1.64.6v-.739l2.329-.875h.128Z"/>
          <path id="Trazado_111972" data-name="Trazado 111972" d="M319.93,239.3a3.722,3.722,0,0,1-.488,2.123,2.026,2.026,0,0,1-3.041.016,3.534,3.534,0,0,1-.51-2.028v-1.086a3.626,3.626,0,0,1,.489-2.1,2.061,2.061,0,0,1,3.049-.024,3.5,3.5,0,0,1,.5,2.041Zm-.813-1.111a2.984,2.984,0,0,0-.29-1.505,1,1,0,0,0-.918-.473.986.986,0,0,0-.91.47,2.908,2.908,0,0,0-.294,1.446v1.3a3.014,3.014,0,0,0,.3,1.532,1,1,0,0,0,.912.494.984.984,0,0,0,.894-.466,2.921,2.921,0,0,0,.3-1.468Z"/>
          <path id="Trazado_111973" data-name="Trazado 111973" d="M322.352,239.431a6.765,6.765,0,0,1,.267-1.907,5.492,5.492,0,0,1,.793-1.661,3.367,3.367,0,0,1,1.093-1.055l.167.536a3.5,3.5,0,0,0-1.051,1.5,6.511,6.511,0,0,0-.452,2.264l0,.373a6.549,6.549,0,0,0,.62,2.944,3.523,3.523,0,0,0,.887,1.169l-.167.5a3.494,3.494,0,0,1-1.116-1.09,6.111,6.111,0,0,1-1.037-3.573"/>
          <path id="Trazado_111974" data-name="Trazado 111974" d="M327.6,242.029h-.817V236.61l-1.639.6v-.739l2.329-.875h.127Z"/>
          <path id="Trazado_111975" data-name="Trazado 111975" d="M331.489,239.475a6.778,6.778,0,0,1-.257,1.879,5.537,5.537,0,0,1-.786,1.659,3.454,3.454,0,0,1-1.11,1.081l-.171-.5a3.548,3.548,0,0,0,1.088-1.61,6.994,6.994,0,0,0,.419-2.424v-.141a7.237,7.237,0,0,0-.194-1.716,5.8,5.8,0,0,0-.538-1.421,3.28,3.28,0,0,0-.775-.98l.171-.5a3.439,3.439,0,0,1,1.105,1.072,5.589,5.589,0,0,1,.787,1.658,6.959,6.959,0,0,1,.261,1.937"/>
          <path id="Trazado_111976" data-name="Trazado 111976" d="M233.46.908l-4.417,9.9h-1.421l4.4-9.55h-5.771V.146h7.207Z"/>
          <path id="Trazado_111977" data-name="Trazado 111977" d="M310.333,6.123a3.3,3.3,0,0,1-1.015.813,2.747,2.747,0,0,1-1.292.308,2.85,2.85,0,0,1-1.608-.454,2.958,2.958,0,0,1-1.058-1.278,4.365,4.365,0,0,1-.374-1.821,4.451,4.451,0,0,1,.406-1.926A3,3,0,0,1,306.547.454,3.287,3.287,0,0,1,308.29,0a2.974,2.974,0,0,1,2.493,1.183,5.153,5.153,0,0,1,.912,3.226v.4a6.9,6.9,0,0,1-1.23,4.545,4.732,4.732,0,0,1-3.713,1.468h-.264V9.668h.285a3.729,3.729,0,0,0,2.578-.874,3.745,3.745,0,0,0,.982-2.671m-2.087,0a2.1,2.1,0,0,0,1.256-.417,2.472,2.472,0,0,0,.839-1.033V4.131a3.732,3.732,0,0,0-.579-2.168,1.77,1.77,0,0,0-2.9-.151,2.83,2.83,0,0,0-.542,1.806,2.939,2.939,0,0,0,.524,1.8,1.657,1.657,0,0,0,1.4.707"/>
          <path id="Trazado_111978" data-name="Trazado 111978" d="M224.15,49.592a2.48,2.48,0,0,1-.421,1.421,2.868,2.868,0,0,1-1.139.974,3.054,3.054,0,0,1,1.321,1.048,2.627,2.627,0,0,1,.488,1.56,2.786,2.786,0,0,1-.934,2.2,4.093,4.093,0,0,1-4.922,0,2.8,2.8,0,0,1-.927-2.2,2.715,2.715,0,0,1,.473-1.56A2.938,2.938,0,0,1,219.4,51.98a2.788,2.788,0,0,1-1.121-.974,2.508,2.508,0,0,1-.411-1.414,2.756,2.756,0,0,1,.865-2.138,3.669,3.669,0,0,1,4.551,0,2.745,2.745,0,0,1,.869,2.138m-1.106,4.974a1.964,1.964,0,0,0-.568-1.458,2.011,2.011,0,0,0-1.483-.564,1.907,1.907,0,0,0-2.021,2.022,1.893,1.893,0,0,0,.538,1.428,2.4,2.4,0,0,0,2.992,0,1.889,1.889,0,0,0,.542-1.424m-2.036-6.79a1.75,1.75,0,0,0-1.293.494,2.049,2.049,0,0,0-.008,2.659,1.936,1.936,0,0,0,2.6,0,2,2,0,0,0-.019-2.64,1.721,1.721,0,0,0-1.281-.513"/>
          <path id="Trazado_111979" data-name="Trazado 111979" d="M376.744,20.78h-1.362V11.749l-2.733,1V11.522l3.882-1.457h.213Z"/>
          <path id="Trazado_111980" data-name="Trazado 111980" d="M376.744,45.107h-1.362V36.076l-2.733,1V35.849l3.882-1.457h.213Z"/>
          <path id="Trazado_111981" data-name="Trazado 111981" d="M386.649,40.559a6.2,6.2,0,0,1-.812,3.538,3.378,3.378,0,0,1-5.068.025,5.883,5.883,0,0,1-.85-3.38V38.933a6.062,6.062,0,0,1,.813-3.494,3.44,3.44,0,0,1,5.083-.04,5.843,5.843,0,0,1,.834,3.4ZM385.3,38.706a4.974,4.974,0,0,0-.483-2.509,1.667,1.667,0,0,0-1.532-.787,1.639,1.639,0,0,0-1.515.784,4.828,4.828,0,0,0-.491,2.409v2.168a5.053,5.053,0,0,0,.5,2.553,1.661,1.661,0,0,0,1.52.824,1.637,1.637,0,0,0,1.49-.776,4.864,4.864,0,0,0,.51-2.447Z"/>
        </g>
      </g>
    </g>
    <g id="Elipse_5928" data-name="Elipse 5928" transform="translate(-4857 -8388)" fill="none" stroke="#bf3976" stroke-width="2">
      <circle cx="19" cy="19" r="19" stroke="none"/>
      <circle cx="19" cy="19" r="18" fill="none"/>
    </g>
    <g id="Elipse_5920" data-name="Elipse 5920" transform="translate(-4789 -8400)" fill="none" stroke="#bf3976" stroke-width="2">
      <circle cx="19" cy="19" r="19" stroke="none"/>
      <circle cx="19" cy="19" r="18" fill="none"/>
    </g>
    <g id="Elipse_5921" data-name="Elipse 5921" transform="translate(-4763 -8362)" fill="none" stroke="#bf3976" stroke-width="2">
      <circle cx="19" cy="19" r="19" stroke="none"/>
      <circle cx="19" cy="19" r="18" fill="none"/>
    </g>
    <g id="Elipse_5919" data-name="Elipse 5919" transform="translate(-4694 -8199)" fill="none" stroke="#bf3976" stroke-width="2">
      <circle cx="19" cy="19" r="19" stroke="none"/>
      <circle cx="19" cy="19" r="18" fill="none"/>
    </g>
    <g id="Elipse_5943" data-name="Elipse 5943" transform="translate(-4668 -8199)" fill="none" stroke="#bf3976" stroke-width="2">
      <circle cx="19" cy="19" r="19" stroke="none"/>
      <circle cx="19" cy="19" r="18" fill="none"/>
    </g>
    <g id="Elipse_5944" data-name="Elipse 5944" transform="translate(-4641 -8199)" fill="none" stroke="#bf3976" stroke-width="2">
      <circle cx="19" cy="19" r="19" stroke="none"/>
      <circle cx="19" cy="19" r="18" fill="none"/>
    </g>
    <g id="Elipse_5945" data-name="Elipse 5945" transform="translate(-4517 -8199)" fill="none" stroke="#bf3976" stroke-width="2">
      <circle cx="19" cy="19" r="19" stroke="none"/>
      <circle cx="19" cy="19" r="18" fill="none"/>
    </g>
    <g id="Elipse_5946" data-name="Elipse 5946" transform="translate(-4488 -8204)" fill="none" stroke="#bf3976" stroke-width="2">
      <circle cx="19" cy="19" r="19" stroke="none"/>
      <circle cx="19" cy="19" r="18" fill="none"/>
    </g>
  </g>
</svg>
