<svg id="Grupo_87772" data-name="Grupo 87772" xmlns="http://www.w3.org/2000/svg" xmlns:xlink="http://www.w3.org/1999/xlink" width="326.811" height="313.62" viewBox="0 0 326.811 313.62">
  <defs>
    <clipPath id="clip-path">
      <rect id="Rect치ngulo_6991" data-name="Rect치ngulo 6991" width="326.811" height="313.62" fill="none"/>
    </clipPath>
  </defs>
  <g id="Grupo_87771" data-name="Grupo 87771" clip-path="url(#clip-path)">
    <path id="Trazado_112113" data-name="Trazado 112113" d="M172.359,156.81A2.358,2.358,0,1,1,170,154.452a2.358,2.358,0,0,1,2.358,2.358"/>
    <path id="Trazado_112114" data-name="Trazado 112114" d="M15.925,156.81a2.358,2.358,0,1,1-2.358-2.358,2.358,2.358,0,0,1,2.358,2.358"/>
    <path id="Trazado_112115" data-name="Trazado 112115" d="M170,313.62c-86.465,0-156.81-70.345-156.81-156.81S83.536,0,170,0s156.81,70.344,156.81,156.81S256.466,313.62,170,313.62M170,.75C83.949.75,13.941,70.758,13.941,156.81S83.949,312.87,170,312.87s156.06-70.008,156.06-156.06S256.053.75,170,.75"/>
    <path id="Trazado_112116" data-name="Trazado 112116" d="M170,262.59a105.78,105.78,0,1,1,105.78-105.78A105.9,105.9,0,0,1,170,262.59m0-210.81a105.03,105.03,0,1,0,105.03,105.03A105.149,105.149,0,0,0,170,51.78"/>
    <rect id="Rect치ngulo_6990" data-name="Rect치ngulo 6990" width="156.435" height="0.75" transform="translate(13.566 156.435)"/>
    <path id="Trazado_112117" data-name="Trazado 112117" d="M208.412,216.805V96.523h.75V213.84l6.855-12.688.661.357Z"/>
    <path id="Trazado_112118" data-name="Trazado 112118" d="M6.234,172.046H.177V171.2l3.2-3.554a7.665,7.665,0,0,0,.982-1.312,2.186,2.186,0,0,0,.27-1.044,1.656,1.656,0,0,0-.44-1.187,1.527,1.527,0,0,0-1.168-.463,1.813,1.813,0,0,0-1.361.5,1.91,1.91,0,0,0-.485,1.386H0a2.729,2.729,0,0,1,.822-2.062,3.051,3.051,0,0,1,2.2-.787,2.932,2.932,0,0,1,2.039.676,2.309,2.309,0,0,1,.748,1.8A5.287,5.287,0,0,1,4.07,168.4l-2.477,2.685H6.234Z"/>
    <path id="Trazado_112119" data-name="Trazado 112119" d="M54.646,172.046h-1.18V164.22l-2.368.869v-1.066l3.364-1.264h.184Z"/>
    <path id="Trazado_112120" data-name="Trazado 112120" d="M167.126,168.1a5.387,5.387,0,0,1-.7,3.066,2.928,2.928,0,0,1-4.393.022,5.092,5.092,0,0,1-.736-2.929v-1.569a5.249,5.249,0,0,1,.7-3.027,2.981,2.981,0,0,1,4.4-.035,5.069,5.069,0,0,1,.724,2.949Zm-1.175-1.606a4.309,4.309,0,0,0-.418-2.174,1.442,1.442,0,0,0-1.327-.682,1.422,1.422,0,0,0-1.314.679,4.2,4.2,0,0,0-.425,2.088v1.879a4.37,4.37,0,0,0,.434,2.212,1.439,1.439,0,0,0,1.318.714,1.421,1.421,0,0,0,1.292-.672,4.217,4.217,0,0,0,.44-2.121Z"/>
    <path id="Trazado_112121" data-name="Trazado 112121" d="M229.262,140.585a3.4,3.4,0,0,1-1.082,2.263,3.548,3.548,0,0,1-2.422.8,3.259,3.259,0,0,1-2.625-1.174,4.727,4.727,0,0,1-.986-3.143v-.889a5.256,5.256,0,0,1,.46-2.265,3.44,3.44,0,0,1,1.3-1.5,3.638,3.638,0,0,1,1.956-.524,3.338,3.338,0,0,1,2.361.823,3.44,3.44,0,0,1,1.035,2.275h-1.225a2.659,2.659,0,0,0-.689-1.6,2.086,2.086,0,0,0-1.482-.5,2.182,2.182,0,0,0-1.832.864,3.967,3.967,0,0,0-.663,2.459v.9a4.072,4.072,0,0,0,.629,2.4,2.029,2.029,0,0,0,1.758.889,2.354,2.354,0,0,0,1.559-.46,2.561,2.561,0,0,0,.72-1.6Z"/>
    <path id="Trazado_112122" data-name="Trazado 112122" d="M230.429,140.019a4.048,4.048,0,0,1,.4-1.814,2.951,2.951,0,0,1,1.1-1.244,3,3,0,0,1,1.616-.439,2.9,2.9,0,0,1,2.269.972,3.735,3.735,0,0,1,.866,2.583v.083a4.092,4.092,0,0,1-.384,1.8,2.909,2.909,0,0,1-1.1,1.241,3.043,3.043,0,0,1-1.641.444,2.892,2.892,0,0,1-2.262-.97,3.716,3.716,0,0,1-.867-2.572Zm1.18.141a2.938,2.938,0,0,0,.53,1.834,1.8,1.8,0,0,0,2.841-.01,3.208,3.208,0,0,0,.527-1.965,2.931,2.931,0,0,0-.537-1.831,1.7,1.7,0,0,0-1.424-.7,1.687,1.687,0,0,0-1.4.693,3.188,3.188,0,0,0-.533,1.98"/>
    <path id="Trazado_112123" data-name="Trazado 112123" d="M243.956,140.16a4.1,4.1,0,0,1-.718,2.525,2.3,2.3,0,0,1-1.941.959,2.52,2.52,0,0,1-1.969-.793v3.307h-1.174v-9.509h1.072l.058.762a2.418,2.418,0,0,1,1.993-.889,2.344,2.344,0,0,1,1.958.933,4.156,4.156,0,0,1,.721,2.6Zm-1.175-.134a3.039,3.039,0,0,0-.494-1.835,1.6,1.6,0,0,0-1.36-.672,1.726,1.726,0,0,0-1.6.945v3.282a1.728,1.728,0,0,0,1.613.939,1.584,1.584,0,0,0,1.342-.669,3.313,3.313,0,0,0,.5-1.99"/>
    <path id="Trazado_112124" data-name="Trazado 112124" d="M249.687,143.518a2.488,2.488,0,0,1-.165-.724,2.619,2.619,0,0,1-1.955.85,2.424,2.424,0,0,1-1.666-.574,1.859,1.859,0,0,1-.651-1.457,1.941,1.941,0,0,1,.816-1.666,3.852,3.852,0,0,1,2.295-.594H249.5v-.539a1.313,1.313,0,0,0-.37-.981,1.477,1.477,0,0,0-1.084-.364,1.715,1.715,0,0,0-1.054.316.939.939,0,0,0-.426.769h-1.18a1.614,1.614,0,0,1,.365-.993,2.481,2.481,0,0,1,.99-.759,3.319,3.319,0,0,1,1.374-.28,2.717,2.717,0,0,1,1.86.594,2.141,2.141,0,0,1,.7,1.634v3.162a3.858,3.858,0,0,0,.242,1.5v.1Zm-1.949-.9a2.068,2.068,0,0,0,1.048-.286,1.743,1.743,0,0,0,.718-.743v-1.409h-.921q-2.158,0-2.158,1.263a1.069,1.069,0,0,0,.368.863,1.409,1.409,0,0,0,.945.312"/>
    <path id="Trazado_112125" data-name="Trazado 112125" d="M226.018,157.518h-1.18v-7.826l-2.368.869v-1.066l3.364-1.264h.184Z"/>
    <path id="Trazado_112126" data-name="Trazado 112126" d="M235.254,153.576a5.387,5.387,0,0,1-.7,3.066,2.928,2.928,0,0,1-4.393.022,5.092,5.092,0,0,1-.736-2.929v-1.569a5.249,5.249,0,0,1,.7-3.027,2.981,2.981,0,0,1,4.4-.035,5.069,5.069,0,0,1,.724,2.949Zm-1.175-1.606a4.308,4.308,0,0,0-.418-2.174,1.442,1.442,0,0,0-1.327-.682,1.422,1.422,0,0,0-1.314.679,4.2,4.2,0,0,0-.425,2.088v1.879a4.37,4.37,0,0,0,.434,2.212,1.439,1.439,0,0,0,1.318.714,1.421,1.421,0,0,0,1.292-.672,4.217,4.217,0,0,0,.44-2.121Z"/>
    <path id="Trazado_112127" data-name="Trazado 112127" d="M222.234,167.765a9.81,9.81,0,0,1,.385-2.754,7.985,7.985,0,0,1,1.145-2.4,4.892,4.892,0,0,1,1.581-1.524l.241.776a5.062,5.062,0,0,0-1.52,2.17,9.4,9.4,0,0,0-.65,3.269l-.007.539a9.46,9.46,0,0,0,.9,4.254,5.094,5.094,0,0,0,1.282,1.688l-.241.717a5.03,5.03,0,0,1-1.613-1.574,8.825,8.825,0,0,1-1.5-5.161"/>
    <path id="Trazado_112128" data-name="Trazado 112128" d="M230.461,171.518h-1.18v-7.826l-2.368.869v-1.066l3.364-1.264h.184Z"/>
    <path id="Trazado_112129" data-name="Trazado 112129" d="M236.733,167.83a9.8,9.8,0,0,1-.372,2.713,8.01,8.01,0,0,1-1.136,2.4,4.979,4.979,0,0,1-1.6,1.562l-.247-.718a5.105,5.105,0,0,0,1.571-2.326,10.048,10.048,0,0,0,.6-3.5v-.2a10.418,10.418,0,0,0-.279-2.48,8.332,8.332,0,0,0-.777-2.053,4.727,4.727,0,0,0-1.12-1.415l.247-.718a4.975,4.975,0,0,1,1.6,1.549,8.042,8.042,0,0,1,1.137,2.393,10.041,10.041,0,0,1,.378,2.8"/>
  </g>
</svg>
