<svg xmlns="http://www.w3.org/2000/svg" xmlns:xlink="http://www.w3.org/1999/xlink" width="535.311" height="332.843" viewBox="0 0 535.311 332.843">
  <defs>
    <clipPath id="clip-path">
      <rect id="Rectángulo_6982" data-name="Rectángulo 6982" width="528.311" height="325.687" fill="none"/>
    </clipPath>
  </defs>
  <g id="Grupo_87767" data-name="Grupo 87767" transform="translate(2619.311 9035.5)">
    <g id="Grupo_87758" data-name="Grupo 87758" transform="translate(-2612.311 -9028.344)">
      <g id="Grupo_87757" data-name="Grupo 87757" clip-path="url(#clip-path)">
        <path id="Trazado_111982" data-name="Trazado 111982" d="M17.462,89.508l5.992,37.076h188l7.116-52.805s-21.952-1.724-43.285-25.99-32-31.2-52.532-31.2-37.6,10.4-51.465,31.2C71.29,47.789,47.1,80.029,17.462,89.508Z" transform="translate(-3.838 -3.646)" fill="none" stroke="#000" stroke-miterlimit="10" stroke-width="1"/>
        <rect id="Rectángulo_6972" data-name="Rectángulo 6972" width="201.11" height="109.995" transform="translate(13.624 12.943)" fill="none" stroke="#000" stroke-miterlimit="10" stroke-width="0.75"/>
        <rect id="Rectángulo_6973" data-name="Rectángulo 6973" width="199.872" height="110.081" transform="translate(11.337 203.286)" fill="none" stroke="#000" stroke-miterlimit="10" stroke-width="0.75"/>
        <path id="Trazado_111983" data-name="Trazado 111983" d="M2.358,319.258V355.52l98.425,15.109H133.16l88.927-12.95-3.453-53.1s-18.131-1.3-29.787-9.065-38.421-34.966-72.524-34.966-55.256,23.743-64.753,31.945A133.493,133.493,0,0,1,2.358,319.258Z" transform="translate(-0.518 -57.263)" fill="none" stroke="#000" stroke-miterlimit="10" stroke-width="0.75"/>
        <line id="Línea_205" data-name="Línea 205" x1="0.562" y1="1.868" transform="translate(132.08 311.499)" fill="none" stroke="#000" stroke-miterlimit="10" stroke-width="0.75"/>
        <line id="Línea_206" data-name="Línea 206" x1="13.135" y1="43.667" transform="translate(117.802 264.035)" fill="none" stroke="#000" stroke-miterlimit="10" stroke-width="0.75" stroke-dasharray="5.082 5.082"/>
        <path id="Trazado_111984" data-name="Trazado 111984" d="M149.933,335.451l-.562-1.868-.576,1.864" transform="translate(-32.702 -73.314)" fill="none" stroke="#000" stroke-miterlimit="10" stroke-width="0.75"/>
        <line id="Línea_207" data-name="Línea 207" x1="13.492" y2="43.674" transform="translate(101.428 265.93)" fill="none" stroke="#000" stroke-miterlimit="10" stroke-width="0.75" stroke-dasharray="5.094 5.094"/>
        <line id="Línea_208" data-name="Línea 208" x1="0.576" y2="1.864" transform="translate(100.265 311.503)" fill="none" stroke="#000" stroke-miterlimit="10" stroke-width="0.75"/>
        <path id="Trazado_111985" data-name="Trazado 111985" d="M154.763,346.3a7.666,7.666,0,1,1-7.666-7.667A7.666,7.666,0,0,1,154.763,346.3Z" transform="translate(-30.644 -74.424)" fill="none" stroke="#000" stroke-miterlimit="10" stroke-width="0.75"/>
        <rect id="Rectángulo_6974" data-name="Rectángulo 6974" width="148.358" height="52.695" transform="translate(310.854 70.243)" fill="none" stroke="#000" stroke-miterlimit="10" stroke-width="0.75"/>
        <path id="Trazado_111986" data-name="Trazado 111986" d="M398.417,90.03s62.767,10.893,69.51,11.412,78.848,4.15,78.848,4.15" transform="translate(-87.563 -19.787)" fill="none" stroke="#000" stroke-miterlimit="10" stroke-width="0.75"/>
        <path id="Trazado_111987" data-name="Trazado 111987" d="M276.128,15.666a1.84,1.84,0,1,1-1.84-1.84,1.84,1.84,0,0,1,1.84,1.84" transform="translate(-59.878 -3.039)"/>
        <path id="Trazado_111988" data-name="Trazado 111988" d="M154.145,15.666a1.84,1.84,0,1,1-1.84-1.84,1.84,1.84,0,0,1,1.84,1.84" transform="translate(-33.069 -3.039)"/>
        <path id="Trazado_111989" data-name="Trazado 111989" d="M18.784,15.666a1.84,1.84,0,1,1-1.84-1.84,1.84,1.84,0,0,1,1.84,1.84" transform="translate(-3.32 -3.039)"/>
        <path id="Trazado_111990" data-name="Trazado 111990" d="M18.784,56.215a1.84,1.84,0,1,1-1.84-1.84,1.84,1.84,0,0,1,1.84,1.84" transform="translate(-3.32 -11.95)"/>
        <path id="Trazado_111991" data-name="Trazado 111991" d="M18.784,109.3a1.84,1.84,0,1,1-1.84-1.84,1.84,1.84,0,0,1,1.84,1.84" transform="translate(-3.32 -23.617)"/>
        <path id="Trazado_111992" data-name="Trazado 111992" d="M276.128,56.215a1.84,1.84,0,1,1-1.84-1.84,1.84,1.84,0,0,1,1.84,1.84" transform="translate(-59.878 -11.95)"/>
        <path id="Trazado_111993" data-name="Trazado 111993" d="M276.128,88.918a1.84,1.84,0,1,1-1.84-1.84,1.84,1.84,0,0,1,1.84,1.84" transform="translate(-59.878 -19.138)"/>
        <path id="Trazado_111994" data-name="Trazado 111994" d="M276.128,157.05a1.84,1.84,0,1,1-1.84-1.84,1.84,1.84,0,0,1,1.84,1.84" transform="translate(-59.878 -34.112)"/>
        <path id="Trazado_111995" data-name="Trazado 111995" d="M267.268,157.05a1.84,1.84,0,1,1-1.84-1.84,1.84,1.84,0,0,1,1.84,1.84" transform="translate(-57.931 -34.112)"/>
        <path id="Trazado_111996" data-name="Trazado 111996" d="M154.145,157.05a1.84,1.84,0,1,1-1.84-1.84,1.84,1.84,0,0,1,1.84,1.84" transform="translate(-33.069 -34.112)"/>
        <path id="Trazado_111997" data-name="Trazado 111997" d="M18.784,157.05a1.84,1.84,0,1,1-1.84-1.84,1.84,1.84,0,0,1,1.84,1.84" transform="translate(-3.32 -34.112)"/>
        <path id="Trazado_111998" data-name="Trazado 111998" d="M15.852,260.031a1.84,1.84,0,1,1-1.84-1.84,1.84,1.84,0,0,1,1.84,1.84" transform="translate(-2.675 -56.744)"/>
        <path id="Trazado_111999" data-name="Trazado 111999" d="M272.025,260.031a1.84,1.84,0,1,1-1.84-1.84,1.84,1.84,0,0,1,1.84,1.84" transform="translate(-58.976 -56.744)"/>
        <path id="Trazado_112000" data-name="Trazado 112000" d="M15.852,401.12a1.84,1.84,0,1,1-1.84-1.84,1.84,1.84,0,0,1,1.84,1.84" transform="translate(-2.675 -87.753)"/>
        <path id="Trazado_112001" data-name="Trazado 112001" d="M3.68,381.754a1.84,1.84,0,1,1-1.84-1.84,1.84,1.84,0,0,1,1.84,1.84" transform="translate(0 -83.496)"/>
        <path id="Trazado_112002" data-name="Trazado 112002" d="M3.68,335.278a1.84,1.84,0,1,1-1.84-1.84,1.84,1.84,0,0,1,1.84,1.84" transform="translate(0 -73.282)"/>
        <path id="Trazado_112003" data-name="Trazado 112003" d="M285.3,384.112a1.84,1.84,0,1,1-1.84-1.84,1.84,1.84,0,0,1,1.84,1.84" transform="translate(-61.894 -84.015)"/>
        <path id="Trazado_112004" data-name="Trazado 112004" d="M280.588,316.776a1.84,1.84,0,1,1-1.84-1.84,1.84,1.84,0,0,1,1.84,1.84" transform="translate(-60.858 -69.216)"/>
        <path id="Trazado_112005" data-name="Trazado 112005" d="M223.6,289.989a1.84,1.84,0,1,1-1.84-1.84,1.84,1.84,0,0,1,1.84,1.84" transform="translate(-48.333 -63.329)"/>
        <path id="Trazado_112006" data-name="Trazado 112006" d="M195.782,272.458a1.84,1.84,0,1,1-1.84-1.84,1.84,1.84,0,0,1,1.84,1.84" transform="translate(-42.22 -59.476)"/>
        <path id="Trazado_112007" data-name="Trazado 112007" d="M150.578,260.031a1.84,1.84,0,1,1-1.84-1.84,1.84,1.84,0,0,1,1.84,1.84" transform="translate(-32.285 -56.744)"/>
        <path id="Trazado_112008" data-name="Trazado 112008" d="M104.965,271.309a1.84,1.84,0,1,1-1.84-1.84,1.84,1.84,0,0,1,1.84,1.84" transform="translate(-22.26 -59.223)"/>
        <path id="Trazado_112009" data-name="Trazado 112009" d="M77.95,289.989a1.84,1.84,0,1,1-1.84-1.84,1.84,1.84,0,0,1,1.84,1.84" transform="translate(-16.323 -63.329)"/>
        <path id="Trazado_112010" data-name="Trazado 112010" d="M272.025,401.12a1.84,1.84,0,1,1-1.84-1.84,1.84,1.84,0,0,1,1.84,1.84" transform="translate(-58.976 -87.753)"/>
        <path id="Trazado_112011" data-name="Trazado 112011" d="M171.327,401.12a1.84,1.84,0,1,1-1.84-1.84,1.84,1.84,0,0,1,1.84,1.84" transform="translate(-36.845 -87.753)"/>
        <path id="Trazado_112012" data-name="Trazado 112012" d="M150.578,401.12a1.84,1.84,0,1,1-1.84-1.84,1.84,1.84,0,0,1,1.84,1.84" transform="translate(-32.285 -87.753)"/>
        <path id="Trazado_112013" data-name="Trazado 112013" d="M129.83,401.12a1.84,1.84,0,1,1-1.84-1.84,1.84,1.84,0,0,1,1.84,1.84" transform="translate(-27.725 -87.753)"/>
        <path id="Trazado_112014" data-name="Trazado 112014" d="M26.464,157.05a1.84,1.84,0,1,1-1.84-1.84,1.84,1.84,0,0,1,1.84,1.84" transform="translate(-5.007 -34.112)"/>
        <rect id="Rectángulo_6975" data-name="Rectángulo 6975" width="2.053" height="2.053" transform="translate(151.406 23.642)"/>
        <rect id="Rectángulo_6976" data-name="Rectángulo 6976" width="2.053" height="2.053" transform="translate(84.112 23.642)"/>
        <rect id="Rectángulo_6977" data-name="Rectángulo 6977" width="2.053" height="2.053" transform="translate(170.435 43.238)"/>
        <rect id="Rectángulo_6978" data-name="Rectángulo 6978" width="2.053" height="2.053" transform="translate(195.362 63.146)"/>
        <rect id="Rectángulo_6979" data-name="Rectángulo 6979" width="2.053" height="2.053" transform="translate(35.437 72.866)"/>
        <rect id="Rectángulo_6980" data-name="Rectángulo 6980" width="2.053" height="2.053" transform="translate(65.881 43.238)"/>
        <line id="Línea_209" data-name="Línea 209" y2="110.31" transform="translate(119.236 12.627)" fill="none" stroke="#000" stroke-miterlimit="10" stroke-width="0.75"/>
        <line id="Línea_210" data-name="Línea 210" x1="200.785" transform="translate(13.625 44.265)" fill="none" stroke="#000" stroke-miterlimit="10" stroke-width="0.75"/>
        <path id="Trazado_112015" data-name="Trazado 112015" d="M116.036,56.733v67.319l3.112-7.354" transform="translate(-25.502 -12.469)" fill="none" stroke="#000" stroke-miterlimit="10" stroke-width="0.75"/>
        <path id="Trazado_112016" data-name="Trazado 112016" d="M85.25,302V368.31l3.14-7.11" transform="translate(-18.736 -66.373)" fill="none" stroke="#000" stroke-miterlimit="10" stroke-width="1"/>
        <path id="Trazado_112017" data-name="Trazado 112017" d="M393.146,319.258V355.52l98.425,15.109h32.377l88.927-12.95-3.453-53.1s-18.131-1.3-29.787-9.065-38.42-34.966-72.524-34.966-55.256,23.743-64.753,31.945A133.493,133.493,0,0,1,393.146,319.258Z" transform="translate(-86.404 -57.263)" fill="none" stroke="#000" stroke-miterlimit="10" stroke-width="0.75"/>
        <path id="Trazado_112018" data-name="Trazado 112018" d="M394.467,381.754a1.84,1.84,0,1,1-1.84-1.84,1.84,1.84,0,0,1,1.84,1.84" transform="translate(-85.886 -83.496)"/>
        <path id="Trazado_112019" data-name="Trazado 112019" d="M394.467,335.278a1.84,1.84,0,1,1-1.84-1.84,1.84,1.84,0,0,1,1.84,1.84" transform="translate(-85.886 -73.282)"/>
        <path id="Trazado_112020" data-name="Trazado 112020" d="M676.092,384.112a1.84,1.84,0,1,1-1.84-1.84,1.84,1.84,0,0,1,1.84,1.84" transform="translate(-147.781 -84.015)"/>
        <path id="Trazado_112021" data-name="Trazado 112021" d="M671.375,316.776a1.84,1.84,0,1,1-1.84-1.84,1.84,1.84,0,0,1,1.84,1.84" transform="translate(-146.744 -69.216)"/>
        <path id="Trazado_112022" data-name="Trazado 112022" d="M614.388,289.989a1.84,1.84,0,1,1-1.84-1.84,1.84,1.84,0,0,1,1.84,1.84" transform="translate(-134.22 -63.329)"/>
        <path id="Trazado_112023" data-name="Trazado 112023" d="M586.568,272.458a1.84,1.84,0,1,1-1.84-1.84,1.84,1.84,0,0,1,1.84,1.84" transform="translate(-128.106 -59.476)"/>
        <path id="Trazado_112024" data-name="Trazado 112024" d="M541.366,260.031a1.84,1.84,0,1,1-1.84-1.84,1.84,1.84,0,0,1,1.84,1.84" transform="translate(-118.171 -56.744)"/>
        <path id="Trazado_112025" data-name="Trazado 112025" d="M495.753,271.309a1.84,1.84,0,1,1-1.84-1.84,1.841,1.841,0,0,1,1.84,1.84" transform="translate(-108.146 -59.223)"/>
        <path id="Trazado_112026" data-name="Trazado 112026" d="M399.739,88.918a1.84,1.84,0,1,1-1.84-1.84,1.84,1.84,0,0,1,1.84,1.84" transform="translate(-87.045 -19.138)"/>
        <path id="Trazado_112027" data-name="Trazado 112027" d="M589.885,88.918a1.84,1.84,0,1,1-1.84-1.84,1.84,1.84,0,0,1,1.84,1.84" transform="translate(-128.835 -19.138)"/>
        <path id="Trazado_112028" data-name="Trazado 112028" d="M589.885,109.457a1.84,1.84,0,1,1-1.84-1.839,1.84,1.84,0,0,1,1.84,1.839" transform="translate(-128.835 -23.652)"/>
        <path id="Trazado_112029" data-name="Trazado 112029" d="M589.885,157.05a1.84,1.84,0,1,1-1.84-1.84,1.84,1.84,0,0,1,1.84,1.84" transform="translate(-128.835 -34.112)"/>
        <path id="Trazado_112030" data-name="Trazado 112030" d="M399.739,157.05a1.84,1.84,0,1,1-1.84-1.84,1.84,1.84,0,0,1,1.84,1.84" transform="translate(-87.045 -34.112)"/>
        <path id="Trazado_112031" data-name="Trazado 112031" d="M468.737,289.989a1.84,1.84,0,1,1-1.84-1.84,1.84,1.84,0,0,1,1.84,1.84" transform="translate(-102.209 -63.329)"/>
        <path id="Trazado_112032" data-name="Trazado 112032" d="M562.114,401.12a1.84,1.84,0,1,1-1.84-1.84,1.84,1.84,0,0,1,1.84,1.84" transform="translate(-122.731 -87.753)"/>
        <path id="Trazado_112033" data-name="Trazado 112033" d="M541.366,401.12a1.84,1.84,0,1,1-1.84-1.84,1.84,1.84,0,0,1,1.84,1.84" transform="translate(-118.171 -87.753)"/>
        <path id="Trazado_112034" data-name="Trazado 112034" d="M520.617,401.12a1.84,1.84,0,1,1-1.84-1.84,1.84,1.84,0,0,1,1.84,1.84" transform="translate(-113.611 -87.753)"/>
        <path id="Trazado_112035" data-name="Trazado 112035" d="M476.037,302V368.31l3.14-7.11" transform="translate(-104.622 -66.373)" fill="none" stroke="#000" stroke-miterlimit="10" stroke-width="1"/>
        <rect id="Rectángulo_6981" data-name="Rectángulo 6981" width="2.053" height="2.053" transform="translate(378.637 80.528)"/>
        <path id="Trazado_112036" data-name="Trazado 112036" d="M462.858,107.618v31.988l1.79-3.4" transform="translate(-101.726 -23.652)" fill="none" stroke="#000" stroke-miterlimit="10" stroke-width="0.75"/>
        <path id="Trazado_112037" data-name="Trazado 112037" d="M153.006,4.14a2.248,2.248,0,0,1-.686.55,1.868,1.868,0,0,1-.874.208,1.92,1.92,0,0,1-1.087-.307,2,2,0,0,1-.716-.864,2.944,2.944,0,0,1-.253-1.23,2.991,2.991,0,0,1,.275-1.3,2.015,2.015,0,0,1,.779-.886A2.228,2.228,0,0,1,151.624,0a2.015,2.015,0,0,1,1.687.8,3.492,3.492,0,0,1,.616,2.182v.267a4.661,4.661,0,0,1-.832,3.073,3.194,3.194,0,0,1-2.511.993h-.178V6.536h.193a2.521,2.521,0,0,0,1.743-.591,2.529,2.529,0,0,0,.664-1.806m-1.411,0a1.414,1.414,0,0,0,.849-.282,1.654,1.654,0,0,0,.567-.7V2.792a2.521,2.521,0,0,0-.391-1.465,1.2,1.2,0,0,0-1.961-.1,1.909,1.909,0,0,0-.366,1.22,1.989,1.989,0,0,0,.354,1.216,1.12,1.12,0,0,0,.948.477" transform="translate(-32.832 0)"/>
        <path id="Trazado_112038" data-name="Trazado 112038" d="M149.006,249.863a2.247,2.247,0,0,1-.686.55,1.867,1.867,0,0,1-.874.208,1.92,1.92,0,0,1-1.087-.307,2,2,0,0,1-.716-.865,2.944,2.944,0,0,1-.253-1.23,2.991,2.991,0,0,1,.275-1.3,2.015,2.015,0,0,1,.779-.886,2.228,2.228,0,0,1,1.179-.307,2.015,2.015,0,0,1,1.687.8,3.492,3.492,0,0,1,.616,2.181v.267a4.661,4.661,0,0,1-.832,3.073,3.194,3.194,0,0,1-2.511.993h-.178v-.778h.193a2.182,2.182,0,0,0,2.407-2.4m-1.411,0a1.413,1.413,0,0,0,.849-.282,1.654,1.654,0,0,0,.567-.7v-.367a2.521,2.521,0,0,0-.391-1.465,1.2,1.2,0,0,0-1.961-.1,1.909,1.909,0,0,0-.366,1.22,1.989,1.989,0,0,0,.354,1.216,1.12,1.12,0,0,0,.948.478" transform="translate(-31.953 -54.004)"/>
        <path id="Trazado_112039" data-name="Trazado 112039" d="M281.569,13.125h.688a1.509,1.509,0,0,0,1.021-.342,1.143,1.143,0,0,0,.371-.9,1.119,1.119,0,0,0-1.263-1.268,1.313,1.313,0,0,0-.948.339,1.186,1.186,0,0,0-.354.9h-.916a1.838,1.838,0,0,1,.627-1.424,2.577,2.577,0,0,1,3.192-.027,1.951,1.951,0,0,1,.579,1.5,1.583,1.583,0,0,1-.3.911,1.842,1.842,0,0,1-.829.659,1.767,1.767,0,0,1,.918.623,1.736,1.736,0,0,1,.325,1.065,1.965,1.965,0,0,1-.634,1.54,2.371,2.371,0,0,1-1.649.57,2.438,2.438,0,0,1-1.652-.549,1.824,1.824,0,0,1-.637-1.451h.921a1.177,1.177,0,0,0,.371.911,1.413,1.413,0,0,0,1,.342,1.386,1.386,0,0,0,1.015-.346,1.339,1.339,0,0,0,.352-1,1.211,1.211,0,0,0-.386-.966,1.688,1.688,0,0,0-1.115-.347h-.688Z" transform="translate(-61.56 -2.168)"/>
        <path id="Trazado_112040" data-name="Trazado 112040" d="M284.635,88.65a1.671,1.671,0,0,1-.285.961,1.931,1.931,0,0,1-.77.659,2.065,2.065,0,0,1,.894.708,1.784,1.784,0,0,1,.329,1.055,1.884,1.884,0,0,1-.632,1.49,2.768,2.768,0,0,1-3.328,0,1.894,1.894,0,0,1-.626-1.488,1.838,1.838,0,0,1,.319-1.055,1.99,1.99,0,0,1,.885-.713,1.894,1.894,0,0,1-.758-.659,1.7,1.7,0,0,1-.277-.956,1.861,1.861,0,0,1,.584-1.446,2.48,2.48,0,0,1,3.078,0,1.86,1.86,0,0,1,.587,1.446m-.747,3.363a1.329,1.329,0,0,0-.384-.985,1.362,1.362,0,0,0-1-.382,1.29,1.29,0,0,0-1.367,1.367,1.28,1.28,0,0,0,.364.966,1.626,1.626,0,0,0,2.023,0,1.278,1.278,0,0,0,.367-.964m-1.377-4.591a1.184,1.184,0,0,0-.875.335,1.382,1.382,0,0,0,0,1.8,1.307,1.307,0,0,0,1.757,0,1.354,1.354,0,0,0-.012-1.785,1.166,1.166,0,0,0-.867-.346" transform="translate(-61.585 -19.048)"/>
        <path id="Trazado_112041" data-name="Trazado 112041" d="M391.035,88.165h-3.021l-.679,1.887h-.981l2.754-7.211h.832l2.759,7.211h-.976Zm-2.734-.778h2.451l-1.228-3.373Z" transform="translate(-84.912 -18.207)"/>
        <path id="Trazado_112042" data-name="Trazado 112042" d="M593.945,112.227v-7.212h2.036a3.274,3.274,0,0,1,1.664.417,2.815,2.815,0,0,1,1.117,1.184,3.852,3.852,0,0,1,.4,1.763v.461a3.859,3.859,0,0,1-.394,1.787,2.762,2.762,0,0,1-1.124,1.179,3.492,3.492,0,0,1-1.7.421Zm.951-6.434v5.656h1a2.176,2.176,0,0,0,1.711-.683,2.827,2.827,0,0,0,.612-1.949v-.421a2.872,2.872,0,0,0-.577-1.911,2.053,2.053,0,0,0-1.637-.691Z" transform="translate(-130.535 -23.08)"/>
        <path id="Trazado_112043" data-name="Trazado 112043" d="M534.33,116H531.2v2.555h3.63v.778h-4.581v-7.211h4.532v.777H531.2v2.323h3.125Z" transform="translate(-116.538 -24.641)"/>
        <path id="Trazado_112044" data-name="Trazado 112044" d="M599.18,155.867a2.649,2.649,0,0,1-.845,1.766,2.762,2.762,0,0,1-1.889.623,2.541,2.541,0,0,1-2.048-.917,3.681,3.681,0,0,1-.77-2.451v-.694a4.094,4.094,0,0,1,.36-1.767,2.685,2.685,0,0,1,1.017-1.172,2.84,2.84,0,0,1,1.525-.408,2.6,2.6,0,0,1,1.842.642,2.681,2.681,0,0,1,.808,1.775h-.957a2.075,2.075,0,0,0-.537-1.251,1.627,1.627,0,0,0-1.157-.388,1.7,1.7,0,0,0-1.429.674,3.1,3.1,0,0,0-.518,1.919v.7a3.183,3.183,0,0,0,.492,1.869,1.584,1.584,0,0,0,1.372.694,1.838,1.838,0,0,0,1.216-.359,2,2,0,0,0,.561-1.251Z" transform="translate(-130.466 -33.152)"/>
        <path id="Trazado_112045" data-name="Trazado 112045" d="M387.249,160.541V153.33h2.358a2.736,2.736,0,0,1,1.766.485,1.749,1.749,0,0,1,.591,1.436,1.462,1.462,0,0,1-.287.894,1.867,1.867,0,0,1-.783.6,1.675,1.675,0,0,1,.924.622,1.783,1.783,0,0,1,.339,1.092,1.93,1.93,0,0,1-.629,1.525,2.6,2.6,0,0,1-1.778.555Zm.951-4.136h1.436a1.507,1.507,0,0,0,1-.312,1.05,1.05,0,0,0,.374-.849,1.031,1.031,0,0,0-.346-.866,1.7,1.7,0,0,0-1.055-.271H388.2Zm0,.763v2.6h1.57a1.513,1.513,0,0,0,1.048-.344,1.209,1.209,0,0,0,.384-.949q0-1.3-1.417-1.3Z" transform="translate(-85.108 -33.698)"/>
        <path id="Trazado_112046" data-name="Trazado 112046" d="M284.048,158.119h1v.747h-1v1.674h-.921v-1.674h-3.283v-.539l3.229-5h.975Zm-3.165,0h2.243v-3.536l-.108.2Z" transform="translate(-61.503 -33.698)"/>
        <path id="Trazado_112047" data-name="Trazado 112047" d="M261.847,165.321v.778h-.168a2.413,2.413,0,0,0-1.7.634,2.638,2.638,0,0,0-.733,1.728,1.955,1.955,0,0,1,1.555-.654,1.869,1.869,0,0,1,1.5.664,2.906,2.906,0,0,1-.044,3.5,2.086,2.086,0,0,1-1.627.669,2.059,2.059,0,0,1-1.679-.794,3.152,3.152,0,0,1-.644-2.048v-.352a4.748,4.748,0,0,1,.85-3.044,3.117,3.117,0,0,1,2.528-1.077Zm-1.2,3.249a1.539,1.539,0,0,0-1.416.991v.336a2.363,2.363,0,0,0,.4,1.436,1.2,1.2,0,0,0,1,.545,1.167,1.167,0,0,0,.974-.456,2.19,2.19,0,0,0-.005-2.395,1.152,1.152,0,0,0-.953-.458" transform="translate(-56.77 -36.334)"/>
        <path id="Trazado_112048" data-name="Trazado 112048" d="M150.6,172.528h-.921v-6.107l-1.847.679v-.832l2.625-.986h.144Z" transform="translate(-32.491 -36.325)"/>
        <path id="Trazado_112049" data-name="Trazado 112049" d="M159.337,169.434a4.2,4.2,0,0,1-.549,2.392,2.284,2.284,0,0,1-3.428.017,3.977,3.977,0,0,1-.574-2.285v-1.223a4.1,4.1,0,0,1,.549-2.363,2.326,2.326,0,0,1,3.438-.027,3.956,3.956,0,0,1,.564,2.3Zm-.916-1.253a3.358,3.358,0,0,0-.327-1.7,1.125,1.125,0,0,0-1.035-.532,1.11,1.11,0,0,0-1.025.53,3.281,3.281,0,0,0-.332,1.629v1.466a3.408,3.408,0,0,0,.339,1.726,1.122,1.122,0,0,0,1.028.557,1.108,1.108,0,0,0,1.008-.525,3.292,3.292,0,0,0,.344-1.654Z" transform="translate(-34.018 -36.307)"/>
        <path id="Trazado_112050" data-name="Trazado 112050" d="M145.6,415.26h-.921v-6.107l-1.847.679V409l2.625-.986h.144Z" transform="translate(-31.392 -89.672)"/>
        <path id="Trazado_112051" data-name="Trazado 112051" d="M154.337,412.166a4.2,4.2,0,0,1-.549,2.392,2.284,2.284,0,0,1-3.428.017,3.977,3.977,0,0,1-.574-2.285v-1.223a4.1,4.1,0,0,1,.549-2.363,2.326,2.326,0,0,1,3.438-.027,3.956,3.956,0,0,1,.564,2.3Zm-.916-1.253a3.358,3.358,0,0,0-.327-1.7,1.125,1.125,0,0,0-1.035-.532,1.11,1.11,0,0,0-1.025.53,3.281,3.281,0,0,0-.332,1.629v1.466a3.408,3.408,0,0,0,.339,1.726,1.122,1.122,0,0,0,1.028.557,1.107,1.107,0,0,0,1.008-.525,3.292,3.292,0,0,0,.344-1.654Z" transform="translate(-32.92 -89.654)"/>
        <path id="Trazado_112052" data-name="Trazado 112052" d="M159.029,48.877h-.921V42.77l-1.847.679v-.832l2.625-.986h.144Z" transform="translate(-34.342 -9.149)"/>
        <path id="Trazado_112053" data-name="Trazado 112053" d="M166.328,48.877h-.921V42.77l-1.847.679v-.832l2.625-.986h.144Z" transform="translate(-35.947 -9.149)"/>
        <path id="Trazado_112054" data-name="Trazado 112054" d="M126.656,84.691a2.04,2.04,0,0,1-.65,1.358,2.129,2.129,0,0,1-1.453.478,1.955,1.955,0,0,1-1.575-.705,2.832,2.832,0,0,1-.593-1.886V83.4a3.176,3.176,0,0,1,.276-1.361,2.061,2.061,0,0,1,.783-.9,2.177,2.177,0,0,1,1.173-.314,2,2,0,0,1,1.417.493,2.066,2.066,0,0,1,.621,1.366h-.735a1.6,1.6,0,0,0-.414-.964,1.253,1.253,0,0,0-.889-.3,1.309,1.309,0,0,0-1.1.519,2.382,2.382,0,0,0-.4,1.475v.538A2.448,2.448,0,0,0,123.5,85.4a1.219,1.219,0,0,0,1.056.534,1.405,1.405,0,0,0,.935-.276,1.534,1.534,0,0,0,.433-.962Z" transform="translate(-26.897 -17.764)"/>
        <path id="Trazado_112055" data-name="Trazado 112055" d="M133.35,83.857a3.436,3.436,0,0,1-.275,1.423,2.078,2.078,0,0,1-.777.928,2.142,2.142,0,0,1-1.173.32,2.071,2.071,0,0,1-1.949-1.241,3.287,3.287,0,0,1-.287-1.381v-.4a3.386,3.386,0,0,1,.278-1.414,2.06,2.06,0,0,1,1.951-1.265,2.153,2.153,0,0,1,1.176.322,2.075,2.075,0,0,1,.783.933,3.451,3.451,0,0,1,.275,1.423Zm-.728-.358a2.485,2.485,0,0,0-.4-1.514,1.411,1.411,0,0,0-2.2,0,2.44,2.44,0,0,0-.41,1.465v.407a2.487,2.487,0,0,0,.4,1.5,1.407,1.407,0,0,0,2.2.03,2.477,2.477,0,0,0,.4-1.48Z" transform="translate(-28.327 -17.764)"/>
        <path id="Trazado_112056" data-name="Trazado 112056" d="M136.745,84.3v2.171h-.732V80.925h2.046a2.056,2.056,0,0,1,1.426.465A1.576,1.576,0,0,1,140,82.62a1.557,1.557,0,0,1-.5,1.244,2.153,2.153,0,0,1-1.447.436Zm0-.6h1.314a1.315,1.315,0,0,0,.9-.276,1.014,1.014,0,0,0,.313-.8,1.046,1.046,0,0,0-.313-.794,1.233,1.233,0,0,0-.857-.309h-1.355Z" transform="translate(-29.893 -17.785)"/>
        <path id="Trazado_112057" data-name="Trazado 112057" d="M144.559,85.021h-2.324l-.522,1.451h-.754l2.118-5.547h.64l2.122,5.547h-.751Zm-2.1-.6h1.886l-.945-2.594Z" transform="translate(-30.98 -17.786)"/>
        <path id="Trazado_112058" data-name="Trazado 112058" d="M122.63,97.473V91.926h1.813a2.1,2.1,0,0,1,1.358.373,1.343,1.343,0,0,1,.456,1.1,1.128,1.128,0,0,1-.221.688,1.435,1.435,0,0,1-.6.463,1.28,1.28,0,0,1,.711.478,1.371,1.371,0,0,1,.261.84,1.48,1.48,0,0,1-.484,1.173,2,2,0,0,1-1.368.427Zm.731-3.181h1.1a1.157,1.157,0,0,0,.768-.24.806.806,0,0,0,.288-.653.793.793,0,0,0-.267-.666,1.309,1.309,0,0,0-.811-.208h-1.082Zm0,.587v2h1.208a1.166,1.166,0,0,0,.806-.265.93.93,0,0,0,.295-.73q0-1-1.09-1Z" transform="translate(-26.951 -20.203)"/>
        <path id="Trazado_112059" data-name="Trazado 112059" d="M131.225,97.853a1.488,1.488,0,0,1-.1-.434,1.573,1.573,0,0,1-1.173.51,1.454,1.454,0,0,1-1-.345,1.116,1.116,0,0,1-.39-.874,1.164,1.164,0,0,1,.489-1,2.307,2.307,0,0,1,1.378-.357h.685V95.03a.79.79,0,0,0-.221-.588.889.889,0,0,0-.652-.219,1.03,1.03,0,0,0-.632.19.56.56,0,0,0-.255.461h-.709a.973.973,0,0,1,.219-.6,1.506,1.506,0,0,1,.595-.456,2.015,2.015,0,0,1,.825-.166,1.632,1.632,0,0,1,1.117.356,1.285,1.285,0,0,1,.419.981v1.9a2.33,2.33,0,0,0,.144.9v.061Zm-1.17-.538a1.243,1.243,0,0,0,.629-.171,1.034,1.034,0,0,0,.43-.446v-.847h-.552q-1.3,0-1.3.759a.642.642,0,0,0,.221.518.852.852,0,0,0,.568.186" transform="translate(-28.255 -20.583)"/>
        <path id="Trazado_112060" data-name="Trazado 112060" d="M136.5,96.76a.519.519,0,0,0-.215-.444,2.075,2.075,0,0,0-.751-.272,3.56,3.56,0,0,1-.85-.275,1.2,1.2,0,0,1-.464-.381.909.909,0,0,1-.151-.526,1.068,1.068,0,0,1,.428-.857,1.671,1.671,0,0,1,1.1-.35,1.721,1.721,0,0,1,1.137.361,1.149,1.149,0,0,1,.436.926h-.708a.636.636,0,0,0-.246-.5.92.92,0,0,0-.619-.209.962.962,0,0,0-.6.168.528.528,0,0,0-.217.438.429.429,0,0,0,.2.385,2.47,2.47,0,0,0,.73.248,3.8,3.8,0,0,1,.855.282,1.26,1.26,0,0,1,.486.394.971.971,0,0,1,.158.563,1.056,1.056,0,0,1-.442.886,1.859,1.859,0,0,1-1.147.333,2.074,2.074,0,0,1-.876-.176,1.415,1.415,0,0,1-.6-.489,1.181,1.181,0,0,1-.215-.68h.7a.734.734,0,0,0,.284.563,1.1,1.1,0,0,0,.7.208,1.14,1.14,0,0,0,.642-.162.5.5,0,0,0,.242-.432" transform="translate(-29.435 -20.583)"/>
        <path id="Trazado_112061" data-name="Trazado 112061" d="M140.969,97.928a1.8,1.8,0,0,1-1.364-.55,2.044,2.044,0,0,1-.526-1.472v-.13a2.475,2.475,0,0,1,.235-1.1,1.826,1.826,0,0,1,.655-.754,1.643,1.643,0,0,1,.912-.272,1.543,1.543,0,0,1,1.25.53,2.3,2.3,0,0,1,.446,1.516v.293h-2.792a1.466,1.466,0,0,0,.356.985,1.12,1.12,0,0,0,.867.375,1.232,1.232,0,0,0,.633-.152,1.6,1.6,0,0,0,.453-.4l.43.336a1.73,1.73,0,0,1-1.554.8m-.087-3.7a.941.941,0,0,0-.716.311,1.507,1.507,0,0,0-.358.871h2.065V95.36a1.341,1.341,0,0,0-.29-.832.885.885,0,0,0-.7-.295" transform="translate(-30.566 -20.583)"/>
        <path id="Trazado_112062" data-name="Trazado 112062" d="M122.453,106.02a5.914,5.914,0,0,1,.23-1.653,4.8,4.8,0,0,1,.688-1.44,2.925,2.925,0,0,1,.949-.914l.144.465a3.034,3.034,0,0,0-.912,1.3,5.63,5.63,0,0,0-.391,1.962l0,.324a5.676,5.676,0,0,0,.538,2.552,3.058,3.058,0,0,0,.769,1.014l-.144.431a3.018,3.018,0,0,1-.968-.945,5.3,5.3,0,0,1-.9-3.1" transform="translate(-26.912 -22.42)"/>
        <path id="Trazado_112063" data-name="Trazado 112063" d="M128.182,108.465h-.708v-4.7l-1.421.522v-.64l2.018-.758h.111Z" transform="translate(-27.703 -22.613)"/>
        <path id="Trazado_112064" data-name="Trazado 112064" d="M131.379,110.9l-.4-.275a1.835,1.835,0,0,0,.373-1.028v-.636h.69v.552a1.739,1.739,0,0,1-.189.769,1.811,1.811,0,0,1-.474.617" transform="translate(-28.786 -23.948)"/>
        <path id="Trazado_112065" data-name="Trazado 112065" d="M135.76,108.465h-.708v-4.7l-1.421.522v-.64l2.018-.758h.111Z" transform="translate(-29.369 -22.613)"/>
        <path id="Trazado_112066" data-name="Trazado 112066" d="M140.616,106.058a5.871,5.871,0,0,1-.223,1.628,4.812,4.812,0,0,1-.682,1.439,2.987,2.987,0,0,1-.962.937l-.148-.431a3.06,3.06,0,0,0,.943-1.4,6.042,6.042,0,0,0,.364-2.1v-.122a6.277,6.277,0,0,0-.168-1.487,5.021,5.021,0,0,0-.467-1.233,2.854,2.854,0,0,0-.673-.85l.148-.431a2.976,2.976,0,0,1,.958.93,4.786,4.786,0,0,1,.682,1.436,6.015,6.015,0,0,1,.227,1.68" transform="translate(-30.461 -22.42)"/>
        <path id="Trazado_112067" data-name="Trazado 112067" d="M473.719,114.985h-2.4v1.966h2.792v.6h-3.524V112h3.486v.6h-2.754v1.787h2.4Z" transform="translate(-103.423 -24.615)"/>
        <path id="Trazado_112068" data-name="Trazado 112068" d="M477.806,115.055a3.435,3.435,0,0,1-1.369-.665,1.269,1.269,0,0,1-.429-.974,1.341,1.341,0,0,1,.524-1.084,2.081,2.081,0,0,1,1.361-.428,2.267,2.267,0,0,1,1.019.221,1.675,1.675,0,0,1,.694.609,1.558,1.558,0,0,1,.246.85h-.735a1.014,1.014,0,0,0-.32-.793,1.3,1.3,0,0,0-.9-.289,1.336,1.336,0,0,0-.843.238.8.8,0,0,0-.3.662.717.717,0,0,0,.287.574,2.811,2.811,0,0,0,.979.429,4.576,4.576,0,0,1,1.082.429,1.643,1.643,0,0,1,.579.547,1.4,1.4,0,0,1,.189.735,1.3,1.3,0,0,1-.526,1.081,2.245,2.245,0,0,1-1.406.406,2.609,2.609,0,0,1-1.067-.219,1.8,1.8,0,0,1-.764-.6,1.463,1.463,0,0,1-.268-.865h.735a.956.956,0,0,0,.371.794,1.565,1.565,0,0,0,.992.292,1.438,1.438,0,0,0,.888-.236.767.767,0,0,0,.308-.644.753.753,0,0,0-.286-.63,3.311,3.311,0,0,0-1.036-.44" transform="translate(-104.577 -24.594)"/>
        <path id="Trazado_112069" data-name="Trazado 112069" d="M482.932,115.377v2.171H482.2V112h2.046a2.054,2.054,0,0,1,1.426.465,1.577,1.577,0,0,1,.517,1.23,1.558,1.558,0,0,1-.506,1.244,2.149,2.149,0,0,1-1.445.436Zm0-.6h1.315a1.315,1.315,0,0,0,.9-.276,1.014,1.014,0,0,0,.313-.8,1.046,1.046,0,0,0-.313-.794,1.233,1.233,0,0,0-.857-.309h-1.355Z" transform="translate(-105.977 -24.615)"/>
        <path id="Trazado_112070" data-name="Trazado 112070" d="M470.584,128.549V123H472.4a2.1,2.1,0,0,1,1.358.373,1.344,1.344,0,0,1,.456,1.1,1.128,1.128,0,0,1-.221.688,1.435,1.435,0,0,1-.6.463,1.28,1.28,0,0,1,.711.478,1.371,1.371,0,0,1,.261.84,1.48,1.48,0,0,1-.484,1.173,2,2,0,0,1-1.368.427Zm.731-3.181h1.1a1.157,1.157,0,0,0,.768-.24.806.806,0,0,0,.288-.653.793.793,0,0,0-.267-.666,1.309,1.309,0,0,0-.811-.208h-1.082Zm0,.587v2h1.208a1.166,1.166,0,0,0,.806-.265.93.93,0,0,0,.295-.73q0-1-1.09-1Z" transform="translate(-103.424 -27.033)"/>
        <path id="Trazado_112071" data-name="Trazado 112071" d="M479.18,128.929a1.508,1.508,0,0,1-.1-.434,1.57,1.57,0,0,1-1.173.51,1.451,1.451,0,0,1-1-.345,1.116,1.116,0,0,1-.39-.874,1.164,1.164,0,0,1,.488-1,2.314,2.314,0,0,1,1.378-.357h.686v-.324a.79.79,0,0,0-.222-.588.887.887,0,0,0-.651-.219,1.032,1.032,0,0,0-.632.19.561.561,0,0,0-.254.461H476.6a.969.969,0,0,1,.219-.6,1.487,1.487,0,0,1,.595-.456,2,2,0,0,1,.825-.167,1.634,1.634,0,0,1,1.117.356,1.287,1.287,0,0,1,.418.981v1.9a2.344,2.344,0,0,0,.144.9v.061Zm-1.17-.537a1.239,1.239,0,0,0,.629-.172,1.034,1.034,0,0,0,.43-.445v-.846h-.553q-1.294,0-1.3.758a.642.642,0,0,0,.221.518.855.855,0,0,0,.569.186" transform="translate(-104.727 -27.413)"/>
        <path id="Trazado_112072" data-name="Trazado 112072" d="M484.459,127.836a.519.519,0,0,0-.215-.444,2.076,2.076,0,0,0-.751-.272,3.559,3.559,0,0,1-.85-.275,1.2,1.2,0,0,1-.464-.381.909.909,0,0,1-.151-.526,1.068,1.068,0,0,1,.428-.857,1.671,1.671,0,0,1,1.1-.35,1.721,1.721,0,0,1,1.137.361,1.149,1.149,0,0,1,.436.926h-.708a.636.636,0,0,0-.246-.5.92.92,0,0,0-.619-.209.961.961,0,0,0-.6.168.527.527,0,0,0-.217.438.429.429,0,0,0,.2.385,2.47,2.47,0,0,0,.73.248,3.8,3.8,0,0,1,.855.282,1.261,1.261,0,0,1,.486.394.971.971,0,0,1,.158.563,1.056,1.056,0,0,1-.442.886,1.859,1.859,0,0,1-1.147.333,2.073,2.073,0,0,1-.876-.176,1.414,1.414,0,0,1-.6-.489,1.18,1.18,0,0,1-.215-.68h.7a.734.734,0,0,0,.284.563,1.1,1.1,0,0,0,.7.208,1.139,1.139,0,0,0,.642-.162.5.5,0,0,0,.242-.432" transform="translate(-105.908 -27.413)"/>
        <path id="Trazado_112073" data-name="Trazado 112073" d="M488.924,129a1.8,1.8,0,0,1-1.364-.55,2.044,2.044,0,0,1-.526-1.472v-.13a2.475,2.475,0,0,1,.235-1.1,1.826,1.826,0,0,1,.655-.754,1.643,1.643,0,0,1,.912-.272,1.543,1.543,0,0,1,1.25.53,2.3,2.3,0,0,1,.445,1.516v.293h-2.792a1.466,1.466,0,0,0,.356.985,1.12,1.12,0,0,0,.867.375,1.232,1.232,0,0,0,.633-.152,1.6,1.6,0,0,0,.453-.4l.43.336a1.73,1.73,0,0,1-1.554.8m-.087-3.7a.941.941,0,0,0-.716.311,1.506,1.506,0,0,0-.358.871h2.065v-.054a1.341,1.341,0,0,0-.29-.833.885.885,0,0,0-.7-.295" transform="translate(-107.039 -27.413)"/>
        <path id="Trazado_112074" data-name="Trazado 112074" d="M470.408,137.1a5.913,5.913,0,0,1,.23-1.653,4.8,4.8,0,0,1,.688-1.44,2.926,2.926,0,0,1,.949-.914l.144.465a3.034,3.034,0,0,0-.912,1.3,5.63,5.63,0,0,0-.391,1.962l0,.324a5.676,5.676,0,0,0,.538,2.552,3.057,3.057,0,0,0,.769,1.014l-.144.431a3.018,3.018,0,0,1-.968-.945,5.3,5.3,0,0,1-.9-3.1" transform="translate(-103.385 -29.25)"/>
        <path id="Trazado_112075" data-name="Trazado 112075" d="M476.136,139.541h-.708v-4.7l-1.421.522v-.64l2.018-.758h.111Z" transform="translate(-104.176 -29.443)"/>
        <path id="Trazado_112076" data-name="Trazado 112076" d="M479.333,141.981l-.4-.275a1.835,1.835,0,0,0,.374-1.028v-.636H480v.552a1.739,1.739,0,0,1-.189.769,1.805,1.805,0,0,1-.474.617" transform="translate(-105.258 -30.778)"/>
        <path id="Trazado_112077" data-name="Trazado 112077" d="M483.715,139.541h-.708v-4.7l-1.421.522v-.64l2.018-.758h.111Z" transform="translate(-105.841 -29.443)"/>
        <path id="Trazado_112078" data-name="Trazado 112078" d="M488.57,137.134a5.872,5.872,0,0,1-.223,1.628,4.812,4.812,0,0,1-.682,1.439,2.987,2.987,0,0,1-.962.937l-.148-.431a3.06,3.06,0,0,0,.943-1.4,6.043,6.043,0,0,0,.364-2.1v-.122a6.279,6.279,0,0,0-.168-1.487,5.026,5.026,0,0,0-.467-1.233,2.854,2.854,0,0,0-.673-.85l.148-.431a2.976,2.976,0,0,1,.958.93,4.785,4.785,0,0,1,.682,1.436,6.015,6.015,0,0,1,.227,1.68" transform="translate(-106.934 -29.25)"/>
        <path id="Trazado_112079" data-name="Trazado 112079" d="M95.192,329.429a2.04,2.04,0,0,1-.65,1.358,2.129,2.129,0,0,1-1.453.478,1.955,1.955,0,0,1-1.575-.705,2.832,2.832,0,0,1-.593-1.886v-.533a3.177,3.177,0,0,1,.276-1.361,2.061,2.061,0,0,1,.783-.9,2.177,2.177,0,0,1,1.173-.314,2,2,0,0,1,1.417.493,2.066,2.066,0,0,1,.621,1.366h-.735a1.6,1.6,0,0,0-.414-.964,1.254,1.254,0,0,0-.889-.3,1.309,1.309,0,0,0-1.1.519,2.382,2.382,0,0,0-.4,1.475v.538a2.448,2.448,0,0,0,.377,1.437,1.219,1.219,0,0,0,1.056.534,1.406,1.406,0,0,0,.935-.276,1.534,1.534,0,0,0,.433-.962Z" transform="translate(-19.982 -71.552)"/>
        <path id="Trazado_112080" data-name="Trazado 112080" d="M101.887,328.595a3.436,3.436,0,0,1-.275,1.423,2.078,2.078,0,0,1-.777.928,2.142,2.142,0,0,1-1.173.32,2.071,2.071,0,0,1-1.949-1.241,3.287,3.287,0,0,1-.287-1.381v-.4a3.386,3.386,0,0,1,.278-1.414,2.06,2.06,0,0,1,1.951-1.265,2.153,2.153,0,0,1,1.176.322,2.076,2.076,0,0,1,.783.933,3.451,3.451,0,0,1,.275,1.423Zm-.728-.358a2.485,2.485,0,0,0-.4-1.514,1.411,1.411,0,0,0-2.2,0,2.439,2.439,0,0,0-.41,1.465v.407a2.487,2.487,0,0,0,.4,1.5,1.407,1.407,0,0,0,2.2.03,2.477,2.477,0,0,0,.4-1.48Z" transform="translate(-21.412 -71.552)"/>
        <path id="Trazado_112081" data-name="Trazado 112081" d="M105.281,329.039v2.171h-.731v-5.547H106.6a2.056,2.056,0,0,1,1.426.465,1.576,1.576,0,0,1,.517,1.23,1.557,1.557,0,0,1-.5,1.244,2.15,2.15,0,0,1-1.446.436Zm0-.6H106.6a1.315,1.315,0,0,0,.9-.276,1.013,1.013,0,0,0,.312-.8,1.045,1.045,0,0,0-.312-.794,1.233,1.233,0,0,0-.857-.309h-1.356Z" transform="translate(-22.978 -71.573)"/>
        <path id="Trazado_112082" data-name="Trazado 112082" d="M113.1,329.759h-2.323l-.522,1.451H109.5l2.118-5.547h.64l2.122,5.547h-.751Zm-2.1-.6h1.886l-.945-2.594Z" transform="translate(-24.065 -71.573)"/>
        <path id="Trazado_112083" data-name="Trazado 112083" d="M91.166,342.211v-5.547h1.813a2.1,2.1,0,0,1,1.358.373,1.343,1.343,0,0,1,.456,1.1,1.128,1.128,0,0,1-.221.688,1.435,1.435,0,0,1-.6.463,1.28,1.28,0,0,1,.711.478,1.371,1.371,0,0,1,.261.84,1.48,1.48,0,0,1-.484,1.173,2,2,0,0,1-1.368.427Zm.731-3.181H93a1.157,1.157,0,0,0,.768-.24.806.806,0,0,0,.288-.653.793.793,0,0,0-.267-.666,1.31,1.31,0,0,0-.811-.208H91.9Zm0,.587v2H93.1a1.166,1.166,0,0,0,.806-.265.93.93,0,0,0,.295-.729q0-1-1.09-1Z" transform="translate(-20.036 -73.991)"/>
        <path id="Trazado_112084" data-name="Trazado 112084" d="M99.761,342.59a1.488,1.488,0,0,1-.1-.434,1.573,1.573,0,0,1-1.173.51,1.454,1.454,0,0,1-1-.345,1.116,1.116,0,0,1-.39-.874,1.165,1.165,0,0,1,.489-1,2.312,2.312,0,0,1,1.378-.357h.685v-.324a.79.79,0,0,0-.221-.588.889.889,0,0,0-.651-.219,1.03,1.03,0,0,0-.632.19.56.56,0,0,0-.255.461h-.709a.973.973,0,0,1,.219-.6,1.5,1.5,0,0,1,.595-.456,2,2,0,0,1,.825-.167,1.632,1.632,0,0,1,1.117.356,1.285,1.285,0,0,1,.419.981v1.9a2.328,2.328,0,0,0,.144.9v.061Zm-1.17-.537a1.237,1.237,0,0,0,.629-.172,1.03,1.03,0,0,0,.43-.446v-.846H99.1q-1.3,0-1.3.758a.642.642,0,0,0,.221.518.853.853,0,0,0,.568.186" transform="translate(-21.34 -74.371)"/>
        <path id="Trazado_112085" data-name="Trazado 112085" d="M105.041,341.5a.519.519,0,0,0-.215-.444,2.074,2.074,0,0,0-.751-.272,3.561,3.561,0,0,1-.85-.275,1.2,1.2,0,0,1-.464-.381.909.909,0,0,1-.151-.526,1.068,1.068,0,0,1,.428-.857,1.671,1.671,0,0,1,1.1-.35,1.721,1.721,0,0,1,1.137.361,1.149,1.149,0,0,1,.436.926H105a.636.636,0,0,0-.246-.5.92.92,0,0,0-.619-.209.961.961,0,0,0-.6.168.528.528,0,0,0-.217.438.429.429,0,0,0,.2.385,2.471,2.471,0,0,0,.73.248,3.8,3.8,0,0,1,.855.282,1.26,1.26,0,0,1,.486.394.971.971,0,0,1,.158.563,1.056,1.056,0,0,1-.442.886,1.86,1.86,0,0,1-1.147.333,2.074,2.074,0,0,1-.876-.176,1.415,1.415,0,0,1-.6-.489,1.181,1.181,0,0,1-.215-.68h.7a.734.734,0,0,0,.284.563,1.1,1.1,0,0,0,.7.208,1.14,1.14,0,0,0,.642-.162.5.5,0,0,0,.242-.432" transform="translate(-22.52 -74.371)"/>
        <path id="Trazado_112086" data-name="Trazado 112086" d="M109.506,342.666a1.8,1.8,0,0,1-1.364-.55,2.044,2.044,0,0,1-.526-1.472v-.13a2.475,2.475,0,0,1,.235-1.1,1.826,1.826,0,0,1,.655-.754,1.643,1.643,0,0,1,.912-.272,1.543,1.543,0,0,1,1.25.53,2.3,2.3,0,0,1,.446,1.516v.293h-2.792a1.466,1.466,0,0,0,.356.985,1.12,1.12,0,0,0,.867.375,1.232,1.232,0,0,0,.633-.152,1.6,1.6,0,0,0,.453-.4l.43.335a1.73,1.73,0,0,1-1.554.8m-.087-3.7a.941.941,0,0,0-.716.311,1.507,1.507,0,0,0-.358.871h2.065V340.1a1.341,1.341,0,0,0-.29-.832.885.885,0,0,0-.7-.295" transform="translate(-23.652 -74.371)"/>
        <path id="Trazado_112087" data-name="Trazado 112087" d="M90.99,350.758a5.914,5.914,0,0,1,.23-1.653,4.8,4.8,0,0,1,.688-1.44,2.925,2.925,0,0,1,.949-.914l.144.465a3.034,3.034,0,0,0-.912,1.3,5.629,5.629,0,0,0-.391,1.962l0,.324a5.676,5.676,0,0,0,.538,2.552A3.058,3.058,0,0,0,93,354.37l-.144.431a3.018,3.018,0,0,1-.968-.945,5.3,5.3,0,0,1-.9-3.1" transform="translate(-19.998 -76.208)"/>
        <path id="Trazado_112088" data-name="Trazado 112088" d="M96.718,353.2H96.01v-4.7l-1.421.522v-.64l2.018-.758h.111Z" transform="translate(-20.789 -76.401)"/>
        <path id="Trazado_112089" data-name="Trazado 112089" d="M99.915,355.643l-.4-.275a1.836,1.836,0,0,0,.374-1.028V353.7h.69v.552a1.738,1.738,0,0,1-.189.769,1.8,1.8,0,0,1-.474.617" transform="translate(-21.871 -77.736)"/>
        <path id="Trazado_112090" data-name="Trazado 112090" d="M104.3,353.2h-.708v-4.7l-1.421.522v-.64l2.018-.758h.111Z" transform="translate(-22.454 -76.401)"/>
        <path id="Trazado_112091" data-name="Trazado 112091" d="M109.152,350.8a5.871,5.871,0,0,1-.223,1.628,4.811,4.811,0,0,1-.682,1.439,2.987,2.987,0,0,1-.962.937l-.148-.431a3.059,3.059,0,0,0,.943-1.4,6.043,6.043,0,0,0,.364-2.1v-.122a6.276,6.276,0,0,0-.168-1.487,5.022,5.022,0,0,0-.467-1.233,2.854,2.854,0,0,0-.673-.85l.148-.431a2.975,2.975,0,0,1,.958.93,4.785,4.785,0,0,1,.682,1.436,6.015,6.015,0,0,1,.227,1.68" transform="translate(-23.546 -76.208)"/>
        <path id="Trazado_112092" data-name="Trazado 112092" d="M485.04,329.429a2.04,2.04,0,0,1-.65,1.358,2.129,2.129,0,0,1-1.453.478,1.955,1.955,0,0,1-1.575-.705,2.832,2.832,0,0,1-.593-1.886v-.533a3.177,3.177,0,0,1,.276-1.361,2.061,2.061,0,0,1,.783-.9,2.177,2.177,0,0,1,1.173-.314,2,2,0,0,1,1.417.493,2.066,2.066,0,0,1,.621,1.366H484.3a1.6,1.6,0,0,0-.414-.964,1.254,1.254,0,0,0-.889-.3,1.31,1.31,0,0,0-1.1.519,2.382,2.382,0,0,0-.4,1.475v.538a2.447,2.447,0,0,0,.377,1.437,1.219,1.219,0,0,0,1.056.534,1.406,1.406,0,0,0,.935-.276,1.534,1.534,0,0,0,.433-.962Z" transform="translate(-105.662 -71.552)"/>
        <path id="Trazado_112093" data-name="Trazado 112093" d="M491.734,328.595a3.437,3.437,0,0,1-.275,1.423,2.078,2.078,0,0,1-.777.928,2.142,2.142,0,0,1-1.174.32,2.072,2.072,0,0,1-1.949-1.241,3.287,3.287,0,0,1-.287-1.381v-.4a3.387,3.387,0,0,1,.278-1.414,2.06,2.06,0,0,1,1.951-1.265,2.153,2.153,0,0,1,1.176.322,2.076,2.076,0,0,1,.783.933,3.452,3.452,0,0,1,.275,1.423Zm-.728-.358a2.485,2.485,0,0,0-.4-1.514,1.411,1.411,0,0,0-2.2,0,2.44,2.44,0,0,0-.41,1.465v.407a2.487,2.487,0,0,0,.4,1.5,1.407,1.407,0,0,0,2.2.03,2.477,2.477,0,0,0,.4-1.48Z" transform="translate(-107.091 -71.552)"/>
        <path id="Trazado_112094" data-name="Trazado 112094" d="M495.129,329.039v2.171H494.4v-5.547h2.046a2.056,2.056,0,0,1,1.426.465,1.576,1.576,0,0,1,.517,1.23,1.557,1.557,0,0,1-.5,1.244,2.15,2.15,0,0,1-1.446.436Zm0-.6h1.315a1.315,1.315,0,0,0,.9-.276,1.013,1.013,0,0,0,.312-.8,1.045,1.045,0,0,0-.312-.794,1.233,1.233,0,0,0-.857-.309h-1.356Z" transform="translate(-108.657 -71.573)"/>
        <path id="Trazado_112095" data-name="Trazado 112095" d="M502.943,329.759H500.62l-.522,1.451h-.754l2.118-5.547h.64l2.122,5.547h-.751Zm-2.1-.6h1.886l-.945-2.594Z" transform="translate(-109.744 -71.573)"/>
        <path id="Trazado_112096" data-name="Trazado 112096" d="M481.014,342.211v-5.547h1.813a2.1,2.1,0,0,1,1.358.373,1.343,1.343,0,0,1,.456,1.1,1.128,1.128,0,0,1-.221.688,1.435,1.435,0,0,1-.6.463,1.28,1.28,0,0,1,.711.478,1.371,1.371,0,0,1,.261.84,1.48,1.48,0,0,1-.484,1.173,2,2,0,0,1-1.368.427Zm.731-3.181h1.1a1.157,1.157,0,0,0,.768-.24.806.806,0,0,0,.288-.653.793.793,0,0,0-.267-.666,1.309,1.309,0,0,0-.811-.208h-1.082Zm0,.587v2h1.208a1.166,1.166,0,0,0,.806-.265.93.93,0,0,0,.295-.729q0-1-1.09-1Z" transform="translate(-105.716 -73.991)"/>
        <path id="Trazado_112097" data-name="Trazado 112097" d="M489.609,342.59a1.489,1.489,0,0,1-.1-.434,1.573,1.573,0,0,1-1.173.51,1.454,1.454,0,0,1-1-.345,1.115,1.115,0,0,1-.39-.874,1.165,1.165,0,0,1,.489-1,2.312,2.312,0,0,1,1.378-.357h.685v-.324a.79.79,0,0,0-.221-.588.889.889,0,0,0-.651-.219,1.031,1.031,0,0,0-.632.19.56.56,0,0,0-.255.461h-.709a.973.973,0,0,1,.219-.6,1.5,1.5,0,0,1,.595-.456,2,2,0,0,1,.825-.167,1.633,1.633,0,0,1,1.117.356,1.285,1.285,0,0,1,.419.981v1.9a2.329,2.329,0,0,0,.144.9v.061Zm-1.17-.537a1.237,1.237,0,0,0,.629-.172,1.03,1.03,0,0,0,.43-.446v-.846h-.552q-1.3,0-1.3.758a.642.642,0,0,0,.221.518.853.853,0,0,0,.568.186" transform="translate(-107.02 -74.371)"/>
        <path id="Trazado_112098" data-name="Trazado 112098" d="M494.889,341.5a.519.519,0,0,0-.215-.444,2.075,2.075,0,0,0-.751-.272,3.561,3.561,0,0,1-.85-.275,1.2,1.2,0,0,1-.464-.381.909.909,0,0,1-.151-.526,1.068,1.068,0,0,1,.428-.857,1.671,1.671,0,0,1,1.1-.35,1.721,1.721,0,0,1,1.137.361,1.149,1.149,0,0,1,.436.926h-.708a.636.636,0,0,0-.246-.5.92.92,0,0,0-.619-.209.961.961,0,0,0-.6.168.528.528,0,0,0-.217.438.429.429,0,0,0,.2.385,2.471,2.471,0,0,0,.729.248,3.8,3.8,0,0,1,.855.282,1.26,1.26,0,0,1,.486.394.971.971,0,0,1,.158.563,1.056,1.056,0,0,1-.442.886,1.86,1.86,0,0,1-1.147.333,2.074,2.074,0,0,1-.876-.176,1.415,1.415,0,0,1-.6-.489,1.181,1.181,0,0,1-.215-.68h.7a.733.733,0,0,0,.284.563,1.1,1.1,0,0,0,.7.208,1.14,1.14,0,0,0,.642-.162.5.5,0,0,0,.242-.432" transform="translate(-108.2 -74.371)"/>
        <path id="Trazado_112099" data-name="Trazado 112099" d="M499.353,342.666a1.8,1.8,0,0,1-1.364-.55,2.044,2.044,0,0,1-.526-1.472v-.13a2.474,2.474,0,0,1,.235-1.1,1.825,1.825,0,0,1,.655-.754,1.643,1.643,0,0,1,.912-.272,1.543,1.543,0,0,1,1.25.53,2.3,2.3,0,0,1,.446,1.516v.293h-2.792a1.466,1.466,0,0,0,.356.985,1.12,1.12,0,0,0,.867.375,1.232,1.232,0,0,0,.633-.152,1.6,1.6,0,0,0,.453-.4l.43.335a1.73,1.73,0,0,1-1.554.8m-.087-3.7a.941.941,0,0,0-.716.311,1.507,1.507,0,0,0-.358.871h2.065V340.1a1.34,1.34,0,0,0-.29-.832.885.885,0,0,0-.7-.295" transform="translate(-109.331 -74.371)"/>
        <path id="Trazado_112100" data-name="Trazado 112100" d="M480.838,350.758a5.913,5.913,0,0,1,.23-1.653,4.8,4.8,0,0,1,.688-1.44,2.924,2.924,0,0,1,.949-.914l.144.465a3.034,3.034,0,0,0-.912,1.3,5.628,5.628,0,0,0-.391,1.962l0,.324a5.677,5.677,0,0,0,.538,2.552,3.058,3.058,0,0,0,.769,1.013l-.144.431a3.018,3.018,0,0,1-.968-.945,5.3,5.3,0,0,1-.9-3.1" transform="translate(-105.677 -76.208)"/>
        <path id="Trazado_112101" data-name="Trazado 112101" d="M486.566,353.2h-.708v-4.7l-1.421.522v-.64l2.018-.758h.111Z" transform="translate(-106.468 -76.401)"/>
        <path id="Trazado_112102" data-name="Trazado 112102" d="M489.763,355.643l-.4-.275a1.836,1.836,0,0,0,.374-1.028V353.7h.69v.552a1.738,1.738,0,0,1-.189.769,1.8,1.8,0,0,1-.474.617" transform="translate(-107.551 -77.736)"/>
        <path id="Trazado_112103" data-name="Trazado 112103" d="M494.144,353.2h-.708v-4.7l-1.421.522v-.64l2.018-.758h.111Z" transform="translate(-108.134 -76.401)"/>
        <path id="Trazado_112104" data-name="Trazado 112104" d="M499,350.8a5.872,5.872,0,0,1-.223,1.628,4.812,4.812,0,0,1-.682,1.439,2.987,2.987,0,0,1-.962.937l-.148-.431a3.059,3.059,0,0,0,.943-1.4,6.043,6.043,0,0,0,.364-2.1v-.122a6.276,6.276,0,0,0-.168-1.487,5.021,5.021,0,0,0-.467-1.233,2.855,2.855,0,0,0-.673-.85l.148-.431a2.974,2.974,0,0,1,.958.93,4.784,4.784,0,0,1,.682,1.436A6.016,6.016,0,0,1,499,350.8" transform="translate(-109.226 -76.208)"/>
        <path id="Trazado_112105" data-name="Trazado 112105" d="M28.735,166.675l.367-3.6H32.8v.847H29.879l-.218,1.966a2.324,2.324,0,0,1,1.2-.312,1.987,1.987,0,0,1,1.565.651,2.552,2.552,0,0,1,.58,1.76,2.461,2.461,0,0,1-.6,1.755,2.192,2.192,0,0,1-1.681.642,2.283,2.283,0,0,1-1.56-.53,2.118,2.118,0,0,1-.688-1.466h.867a1.456,1.456,0,0,0,.441.933,1.368,1.368,0,0,0,.941.314,1.236,1.236,0,0,0,1-.435,1.824,1.824,0,0,0,.364-1.2,1.668,1.668,0,0,0-.394-1.161,1.337,1.337,0,0,0-1.047-.438,1.513,1.513,0,0,0-.942.262l-.243.2Z" transform="translate(-6.259 -35.841)"/>
        <path id="Trazado_112106" data-name="Trazado 112106" d="M7.467,160.513H2.742v-.659l2.5-2.774A5.98,5.98,0,0,0,6,156.058a1.712,1.712,0,0,0,.21-.815,1.294,1.294,0,0,0-.342-.926,1.194,1.194,0,0,0-.911-.361,1.417,1.417,0,0,0-1.063.389,1.488,1.488,0,0,0-.378,1.082H2.6a2.129,2.129,0,0,1,.641-1.61,2.379,2.379,0,0,1,1.716-.614,2.285,2.285,0,0,1,1.59.527,1.8,1.8,0,0,1,.584,1.4,4.122,4.122,0,0,1-1.358,2.536l-1.931,2.1h3.62Z" transform="translate(-0.572 -33.671)"/>
        <path id="Trazado_112107" data-name="Trazado 112107" d="M7.375,106.092l-2.987,6.7h-.96L6.4,106.33H2.5v-.753H7.375Z" transform="translate(-0.55 -23.203)"/>
        <path id="Trazado_112108" data-name="Trazado 112108" d="M5.861,17.194H4.939V11.087l-1.847.679v-.832l2.625-.986h.144Z" transform="translate(-0.68 -2.186)"/>
        <path id="Trazado_112109" data-name="Trazado 112109" d="M76.783,48.877h-.921V42.77l-1.847.679v-.832l2.625-.986h.144Z" transform="translate(-16.267 -9.149)"/>
        <path id="Trazado_112110" data-name="Trazado 112110" d="M85.688,48.859H80.963V48.2l2.5-2.774a5.98,5.98,0,0,0,.765-1.023,1.711,1.711,0,0,0,.21-.815,1.294,1.294,0,0,0-.342-.926,1.194,1.194,0,0,0-.911-.361,1.417,1.417,0,0,0-1.063.389,1.488,1.488,0,0,0-.378,1.082h-.916a2.129,2.129,0,0,1,.641-1.61,2.379,2.379,0,0,1,1.716-.614,2.285,2.285,0,0,1,1.59.527,1.8,1.8,0,0,1,.584,1.4A4.122,4.122,0,0,1,84,46.016l-1.931,2.1h3.62Z" transform="translate(-17.763 -9.132)"/>
        <path id="Trazado_112111" data-name="Trazado 112111" d="M224.291,49.877h-.921V43.77l-1.847.679v-.832l2.625-.986h.144Z" transform="translate(-48.686 -9.369)"/>
        <path id="Trazado_112112" data-name="Trazado 112112" d="M229.806,45.807h.688a1.509,1.509,0,0,0,1.021-.342,1.143,1.143,0,0,0,.371-.9,1.119,1.119,0,0,0-1.263-1.268,1.313,1.313,0,0,0-.948.339,1.186,1.186,0,0,0-.354.9H228.4a1.838,1.838,0,0,1,.626-1.424,2.577,2.577,0,0,1,3.192-.027,1.951,1.951,0,0,1,.579,1.5,1.583,1.583,0,0,1-.3.911,1.843,1.843,0,0,1-.829.659,1.767,1.767,0,0,1,.918.623,1.736,1.736,0,0,1,.325,1.065,1.965,1.965,0,0,1-.634,1.54,2.371,2.371,0,0,1-1.649.57,2.438,2.438,0,0,1-1.652-.549,1.824,1.824,0,0,1-.637-1.451h.921a1.176,1.176,0,0,0,.371.911,1.413,1.413,0,0,0,1,.342,1.386,1.386,0,0,0,1.015-.346,1.339,1.339,0,0,0,.352-1,1.211,1.211,0,0,0-.386-.966,1.688,1.688,0,0,0-1.115-.347h-.688Z" transform="translate(-50.184 -9.351)"/>
      </g>
    </g>
    <g id="Elipse_5948" data-name="Elipse 5948" transform="translate(-2506 -9035.5)" fill="none" stroke="#bf3976" stroke-width="1">
      <circle cx="12" cy="12" r="12" stroke="none"/>
      <circle cx="12" cy="12" r="11.5" fill="none"/>
    </g>
    <g id="Elipse_5949" data-name="Elipse 5949" transform="translate(-2403 -9028.344)" fill="none" stroke="#bf3976" stroke-width="1">
      <circle cx="12" cy="12" r="12" stroke="none"/>
      <circle cx="12" cy="12" r="11.5" fill="none"/>
    </g>
    <g id="Elipse_5950" data-name="Elipse 5950" transform="translate(-2403 -8972.344)" fill="none" stroke="#bf3976" stroke-width="1">
      <circle cx="12" cy="12" r="12" stroke="none"/>
      <circle cx="12" cy="12" r="11.5" fill="none"/>
    </g>
    <g id="Elipse_5951" data-name="Elipse 5951" transform="translate(-2403 -8919.344)" fill="none" stroke="#bf3976" stroke-width="1">
      <circle cx="12" cy="12" r="12" stroke="none"/>
      <circle cx="12" cy="12" r="11.5" fill="none"/>
    </g>
    <g id="Elipse_5952" data-name="Elipse 5952" transform="translate(-2420 -8910.344)" fill="none" stroke="#bf3976" stroke-width="1">
      <circle cx="12" cy="12" r="12" stroke="none"/>
      <circle cx="12" cy="12" r="11.5" fill="none"/>
    </g>
    <g id="Elipse_5953" data-name="Elipse 5953" transform="translate(-2503 -8910.344)" fill="none" stroke="#bf3976" stroke-width="1">
      <circle cx="12" cy="12" r="12" stroke="none"/>
      <circle cx="12" cy="12" r="11.5" fill="none"/>
    </g>
    <g id="Elipse_5954" data-name="Elipse 5954" transform="translate(-2499 -9004.344)" fill="none" stroke="#bf3976" stroke-width="1">
      <circle cx="12" cy="12" r="12" stroke="none"/>
      <circle cx="12" cy="12" r="11.5" fill="none"/>
    </g>
    <g id="Elipse_5955" data-name="Elipse 5955" transform="translate(-2619.311 -9028.344)" fill="none" stroke="#bf3976" stroke-width="1">
      <circle cx="12" cy="12" r="12" stroke="none"/>
      <circle cx="12" cy="12" r="11.5" fill="none"/>
    </g>
    <g id="Elipse_5956" data-name="Elipse 5956" transform="translate(-2619.311 -8957.344)" fill="none" stroke="#bf3976" stroke-width="1">
      <circle cx="12" cy="12" r="12" stroke="none"/>
      <circle cx="12" cy="12" r="11.5" fill="none"/>
    </g>
    <g id="Elipse_5957" data-name="Elipse 5957" transform="translate(-2619.311 -8919.344)" fill="none" stroke="#bf3976" stroke-width="1">
      <circle cx="12" cy="12" r="12" stroke="none"/>
      <circle cx="12" cy="12" r="11.5" fill="none"/>
    </g>
    <g id="Elipse_5958" data-name="Elipse 5958" transform="translate(-2600.311 -8910.344)" fill="none" stroke="#bf3976" stroke-width="1">
      <circle cx="12" cy="12" r="12" stroke="none"/>
      <circle cx="12" cy="12" r="11.5" fill="none"/>
    </g>
  </g>
</svg>
