<svg id="Grupo_87782" data-name="Grupo 87782" xmlns="http://www.w3.org/2000/svg" xmlns:xlink="http://www.w3.org/1999/xlink" width="420.479" height="599.185" viewBox="0 0 420.479 599.185">
  <defs>
    <clipPath id="clip-path">
      <rect id="Rectángulo_7003" data-name="Rectángulo 7003" width="420.479" height="599.185" fill="none"/>
    </clipPath>
  </defs>
  <g id="Grupo_87781" data-name="Grupo 87781" clip-path="url(#clip-path)">
    <path id="Trazado_112189" data-name="Trazado 112189" d="M160.424,480.98A109.872,109.872,0,1,1,270.3,371.108,110,110,0,0,1,160.424,480.98m0-218.744A108.872,108.872,0,1,0,269.3,371.108,109,109,0,0,0,160.424,262.236"/>
    <path id="Trazado_112190" data-name="Trazado 112190" d="M420.479,599.185H24.294V18.984H420.479Zm-395.184-1H419.48V19.984H25.3Z"/>
    <path id="Trazado_112191" data-name="Trazado 112191" d="M244.588,74.976H24.8v-1H243.588V19.484h1Z"/>
    <rect id="Rectángulo_6999" data-name="Rectángulo 6999" width="1" height="148.916" transform="translate(105.513 19.949) rotate(-68.329)"/>
    <path id="Trazado_112192" data-name="Trazado 112192" d="M206.166,500.452,159.788,370.814l180.138-68.208.178.462,45.6,117.475Zm-45.1-129.05,45.684,127.7,177.681-79.083L339.353,303.892Z"/>
    <path id="Trazado_112193" data-name="Trazado 112193" d="M109.17,500.428,24.607,466.17l.375-.928,83.633,33.881,47.392-118.331c-10.52,19.989-37.057,67.995-69.437,108.575l-.284.357-.381-.25c-.135-.089-13.644-9.092-27.906-29.291-13.149-18.623-29.67-50.865-33.7-98.709l1-.084c4.014,47.62,20.445,79.694,33.523,98.216,12.829,18.17,25,27.18,27.263,28.774,41.667-52.333,73.578-116.846,73.9-117.493l.913.407Z"/>
    <rect id="Rectángulo_7000" data-name="Rectángulo 7000" width="395.185" height="1" transform="translate(24.794 370.608)"/>
    <rect id="Rectángulo_7001" data-name="Rectángulo 7001" width="1" height="52.005" transform="translate(297.27 319.103)"/>
    <rect id="Rectángulo_7002" data-name="Rectángulo 7002" width="1" height="42.881" transform="matrix(0.897, -0.442, 0.442, 0.897, 250.402, 291.448)"/>
    <path id="Trazado_112194" data-name="Trazado 112194" d="M230.352,489.666l-.224-.329C183.5,420.75,161.6,374.787,160.057,371.5l-138.64-53.16,3.416.262c29.517,2.254,56.352-9.852,56.619-9.975,51.719-29.1,56.4-96.942,56.438-97.624L162.9,41.677l37.635,14.955-.023.363c-.073,1.121-7.263,112.473-7.263,144.586,0,27.353,3.733,58.294,31.416,80.393,31.58,25.209,62.572,37.8,100.49,40.837,43.711,3.5,94.181-10.478,94.685-10.619l.271.963c-.507.142-51.136,14.162-95.036,10.653-38.128-3.05-69.289-15.711-101.034-41.053-28.014-22.362-31.792-53.583-31.792-81.174,0-31.225,6.786-137.218,7.241-144.288l-35.786-14.22L138.883,211.108c-.037.644-4.752,69.029-56.977,98.412-.3.137-25.439,11.482-53.913,10.272l132.8,50.921.085.184c.214.463,21.892,46.957,69.853,117.548,32.909-12.853,43.335-25.859,60.569-47.356,6.132-7.649,13.082-16.318,22.219-26.521,35.129-39.227,105.573-66.634,106.281-66.906l.359.933c-.7.272-70.928,27.594-105.895,66.64-9.119,10.183-16.06,18.841-22.184,26.48-17.4,21.707-27.907,34.809-61.357,47.806Z"/>
    <path id="Trazado_112195" data-name="Trazado 112195" d="M98.691,10.715H97.329V1.684l-2.732,1V1.457L98.479,0h.212Z"/>
    <path id="Trazado_112196" data-name="Trazado 112196" d="M107.978.044v1.15h-.249a3.568,3.568,0,0,0-2.52.938,3.9,3.9,0,0,0-1.084,2.556,2.891,2.891,0,0,1,2.3-.967,2.763,2.763,0,0,1,2.223.982,3.786,3.786,0,0,1,.831,2.534,3.773,3.773,0,0,1-.9,2.636,3.086,3.086,0,0,1-2.406.989,3.042,3.042,0,0,1-2.483-1.176,4.655,4.655,0,0,1-.952-3.028v-.52A7.013,7.013,0,0,1,104,1.638,4.614,4.614,0,0,1,107.736.044Zm-1.78,4.8a2.165,2.165,0,0,0-1.282.417,2.187,2.187,0,0,0-.813,1.048v.5a3.5,3.5,0,0,0,.594,2.124,1.777,1.777,0,0,0,1.479.806,1.723,1.723,0,0,0,1.439-.674,2.8,2.8,0,0,0,.524-1.765,2.8,2.8,0,0,0-.531-1.777,1.7,1.7,0,0,0-1.41-.677"/>
    <path id="Trazado_112197" data-name="Trazado 112197" d="M14.751,20.485a6.2,6.2,0,0,1-.813,3.538A2.892,2.892,0,0,1,11.4,25.18,2.911,2.911,0,0,1,8.87,24.048a5.883,5.883,0,0,1-.85-3.38V18.859a6.062,6.062,0,0,1,.813-3.494,2.916,2.916,0,0,1,2.549-1.142,2.94,2.94,0,0,1,2.534,1.1,5.85,5.85,0,0,1,.835,3.4ZM13.4,18.632a4.974,4.974,0,0,0-.483-2.509,1.667,1.667,0,0,0-1.531-.787,1.64,1.64,0,0,0-1.516.784,4.839,4.839,0,0,0-.491,2.409V20.7a5.041,5.041,0,0,0,.5,2.553,1.66,1.66,0,0,0,1.519.824,1.64,1.64,0,0,0,1.491-.776,4.876,4.876,0,0,0,.509-2.447Z"/>
    <path id="Trazado_112198" data-name="Trazado 112198" d="M12.517,80.025H11.155V70.994L8.423,72V70.767l3.882-1.457h.212Z"/>
    <path id="Trazado_112199" data-name="Trazado 112199" d="M14.949,313.75l-4.417,9.9H9.112l4.4-9.55H7.742v-1.114h7.207Z"/>
    <path id="Trazado_112200" data-name="Trazado 112200" d="M15.051,379.357H8.064v-.974l3.691-4.1a8.728,8.728,0,0,0,1.131-1.512,2.523,2.523,0,0,0,.312-1.205,1.914,1.914,0,0,0-.505-1.37,1.77,1.77,0,0,0-1.348-.534,2.093,2.093,0,0,0-1.571.575,2.192,2.192,0,0,0-.56,1.6H7.859a3.145,3.145,0,0,1,.948-2.38,3.514,3.514,0,0,1,2.538-.909,3.374,3.374,0,0,1,2.351.781,2.659,2.659,0,0,1,.864,2.076q0,1.575-2.007,3.75l-2.856,3.1h5.354Z"/>
    <path id="Trazado_112201" data-name="Trazado 112201" d="M4.094,469.625H2.732v-9.031L0,461.6v-1.231l3.882-1.458h.212Z"/>
    <path id="Trazado_112202" data-name="Trazado 112202" d="M10.034,463.634h1.018a2.239,2.239,0,0,0,1.509-.506,1.687,1.687,0,0,0,.549-1.325,1.654,1.654,0,0,0-1.868-1.875,1.94,1.94,0,0,0-1.4.5,1.755,1.755,0,0,0-.524,1.329H7.961a2.716,2.716,0,0,1,.927-2.105,3.368,3.368,0,0,1,2.354-.839,3.332,3.332,0,0,1,2.366.8,2.881,2.881,0,0,1,.857,2.219,2.338,2.338,0,0,1-.451,1.348,2.718,2.718,0,0,1-1.226.974,2.619,2.619,0,0,1,1.358.922,2.565,2.565,0,0,1,.48,1.576,2.908,2.908,0,0,1-.937,2.277,3.514,3.514,0,0,1-2.439.843,3.6,3.6,0,0,1-2.443-.814,2.7,2.7,0,0,1-.941-2.145H9.228a1.74,1.74,0,0,0,.55,1.347,2.088,2.088,0,0,0,1.472.505,2.052,2.052,0,0,0,1.5-.512,1.974,1.974,0,0,0,.52-1.472,1.794,1.794,0,0,0-.571-1.429,2.49,2.49,0,0,0-1.648-.513H10.034Z"/>
    <path id="Trazado_112203" data-name="Trazado 112203" d="M75.24,383.785h1.018a2.239,2.239,0,0,0,1.509-.505,1.69,1.69,0,0,0,.549-1.326,1.654,1.654,0,0,0-1.868-1.875,1.94,1.94,0,0,0-1.4.5,1.755,1.755,0,0,0-.524,1.329H73.167a2.718,2.718,0,0,1,.927-2.105,3.812,3.812,0,0,1,4.72-.041,2.881,2.881,0,0,1,.857,2.219,2.338,2.338,0,0,1-.451,1.348,2.718,2.718,0,0,1-1.226.974,2.62,2.62,0,0,1,1.358.923,2.562,2.562,0,0,1,.48,1.575,2.906,2.906,0,0,1-.937,2.277,3.509,3.509,0,0,1-2.439.843,3.6,3.6,0,0,1-2.443-.813,2.7,2.7,0,0,1-.941-2.146h1.362a1.74,1.74,0,0,0,.55,1.347,2.089,2.089,0,0,0,1.472.506,2.048,2.048,0,0,0,1.5-.513,1.974,1.974,0,0,0,.52-1.472,1.792,1.792,0,0,0-.571-1.428,2.491,2.491,0,0,0-1.648-.513H75.24Z"/>
    <path id="Trazado_112204" data-name="Trazado 112204" d="M76.723,512.646H75.361v-9.031l-2.732,1v-1.231l3.882-1.458h.212Z"/>
    <path id="Trazado_112205" data-name="Trazado 112205" d="M87.16,504.765a2.48,2.48,0,0,1-.421,1.421,2.861,2.861,0,0,1-1.139.974,3.055,3.055,0,0,1,1.322,1.048,2.63,2.63,0,0,1,.487,1.559,2.787,2.787,0,0,1-.933,2.2,4.093,4.093,0,0,1-4.922,0,2.8,2.8,0,0,1-.927-2.2,2.7,2.7,0,0,1,.473-1.559,2.93,2.93,0,0,1,1.307-1.055,2.789,2.789,0,0,1-1.121-.975,2.511,2.511,0,0,1-.41-1.413,2.756,2.756,0,0,1,.864-2.138,3.67,3.67,0,0,1,4.552,0,2.748,2.748,0,0,1,.868,2.138m-1.106,4.973a1.962,1.962,0,0,0-.568-1.457A2.011,2.011,0,0,0,84,507.717a1.906,1.906,0,0,0-2.021,2.021,1.894,1.894,0,0,0,.538,1.429,2.408,2.408,0,0,0,2.992,0,1.89,1.89,0,0,0,.542-1.425m-2.036-6.789a1.748,1.748,0,0,0-1.292.494,2.045,2.045,0,0,0-.008,2.659,1.937,1.937,0,0,0,2.6,0,2,2,0,0,0-.018-2.64,1.723,1.723,0,0,0-1.282-.513"/>
    <path id="Trazado_112206" data-name="Trazado 112206" d="M119.823,518.345h-1.362v-9.03l-2.732,1v-1.231l3.882-1.457h.212Z"/>
    <path id="Trazado_112207" data-name="Trazado 112207" d="M130.78,518.345h-6.987v-.974l3.691-4.1a8.727,8.727,0,0,0,1.131-1.513,2.523,2.523,0,0,0,.312-1.2,1.91,1.91,0,0,0-.505-1.369,1.767,1.767,0,0,0-1.348-.535,2.093,2.093,0,0,0-1.571.575,2.2,2.2,0,0,0-.56,1.6h-1.355a3.146,3.146,0,0,1,.948-2.381,3.514,3.514,0,0,1,2.538-.909,3.374,3.374,0,0,1,2.351.781,2.659,2.659,0,0,1,.864,2.076q0,1.575-2.007,3.75l-2.856,3.1h5.354Z"/>
    <path id="Trazado_112208" data-name="Trazado 112208" d="M195.947,518.345h-1.362v-9.03l-2.732,1v-1.231l3.882-1.457h.212Z"/>
    <path id="Trazado_112209" data-name="Trazado 112209" d="M204.37,518.345h-1.362v-9.03l-2.732,1v-1.231l3.882-1.457h.212Z"/>
    <path id="Trazado_112210" data-name="Trazado 112210" d="M237.344,507.38h-1.362v-9.03l-2.732,1v-1.231l3.882-1.457h.212Z"/>
    <path id="Trazado_112211" data-name="Trazado 112211" d="M246.506,502.693a3.31,3.31,0,0,1-1.014.813,2.742,2.742,0,0,1-1.293.308,2.842,2.842,0,0,1-1.608-.454,2.958,2.958,0,0,1-1.058-1.278,4.364,4.364,0,0,1-.373-1.821,4.432,4.432,0,0,1,.406-1.925,2.988,2.988,0,0,1,1.154-1.312,3.287,3.287,0,0,1,1.743-.454,2.977,2.977,0,0,1,2.494,1.183,5.159,5.159,0,0,1,.912,3.226v.4a6.892,6.892,0,0,1-1.231,4.545,4.723,4.723,0,0,1-3.713,1.468h-.264v-1.15h.286a3.226,3.226,0,0,0,3.559-3.545m-2.087,0a2.093,2.093,0,0,0,1.256-.417,2.466,2.466,0,0,0,.839-1.033V500.7a3.725,3.725,0,0,0-.579-2.168,1.769,1.769,0,0,0-2.9-.151,2.824,2.824,0,0,0-.542,1.806,2.939,2.939,0,0,0,.523,1.8,1.657,1.657,0,0,0,1.4.707"/>
    <path id="Trazado_112212" data-name="Trazado 112212" d="M294.7,384.429l.542-5.317H300.7v1.252h-4.314l-.322,2.908a3.434,3.434,0,0,1,1.779-.462,2.943,2.943,0,0,1,2.315.964,3.773,3.773,0,0,1,.857,2.6,3.645,3.645,0,0,1-.89,2.6,3.244,3.244,0,0,1-2.487.948,3.369,3.369,0,0,1-2.307-.784,3.129,3.129,0,0,1-1.018-2.167H295.6a2.149,2.149,0,0,0,.652,1.38,2.025,2.025,0,0,0,1.391.465,1.833,1.833,0,0,0,1.484-.644,2.7,2.7,0,0,0,.538-1.78,2.481,2.481,0,0,0-.582-1.718,1.983,1.983,0,0,0-1.55-.648,2.239,2.239,0,0,0-1.391.388l-.359.293Z"/>
    <path id="Trazado_112213" data-name="Trazado 112213" d="M353.142,363.4h1.48v1.106h-1.48v2.476H351.78v-2.476h-4.856v-.8l4.775-7.391h1.443Zm-4.68,0h3.318v-5.229l-.161.292Z"/>
    <path id="Trazado_112214" data-name="Trazado 112214" d="M395.827,427.283h-1.362v-9.031l-2.732,1v-1.231l3.882-1.457h.212Z"/>
    <path id="Trazado_112215" data-name="Trazado 112215" d="M406.483,422.735a6.2,6.2,0,0,1-.813,3.538,3.378,3.378,0,0,1-5.068.025,5.883,5.883,0,0,1-.85-3.38v-1.809a6.062,6.062,0,0,1,.813-3.494,3.44,3.44,0,0,1,5.083-.04,5.851,5.851,0,0,1,.835,3.4Zm-1.355-1.853a4.974,4.974,0,0,0-.483-2.509,1.667,1.667,0,0,0-1.531-.787,1.64,1.64,0,0,0-1.516.784,4.839,4.839,0,0,0-.491,2.409v2.168a5.041,5.041,0,0,0,.5,2.553,1.66,1.66,0,0,0,1.519.824,1.64,1.64,0,0,0,1.491-.776,4.876,4.876,0,0,0,.509-2.447Z"/>
    <path id="Trazado_112216" data-name="Trazado 112216" d="M351.633,295.3a3.31,3.31,0,0,1-1.014.813,2.754,2.754,0,0,1-1.293.308,2.85,2.85,0,0,1-1.608-.454,2.958,2.958,0,0,1-1.058-1.278,4.364,4.364,0,0,1-.373-1.821,4.437,4.437,0,0,1,.406-1.926,2.99,2.99,0,0,1,1.154-1.311,3.286,3.286,0,0,1,1.743-.454,2.977,2.977,0,0,1,2.494,1.183A5.159,5.159,0,0,1,353,293.59v.4a6.892,6.892,0,0,1-1.231,4.545A4.73,4.73,0,0,1,348.052,300h-.264v-1.15h.286a3.227,3.227,0,0,0,3.559-3.545m-2.087,0a2.093,2.093,0,0,0,1.256-.417,2.472,2.472,0,0,0,.839-1.033v-.542a3.725,3.725,0,0,0-.579-2.168,1.769,1.769,0,0,0-2.9-.151,2.824,2.824,0,0,0-.542,1.806,2.939,2.939,0,0,0,.523,1.8,1.657,1.657,0,0,0,1.4.707"/>
    <path id="Trazado_112217" data-name="Trazado 112217" d="M300.539,300.918a2.48,2.48,0,0,1-.421,1.421,2.861,2.861,0,0,1-1.139.974,3.055,3.055,0,0,1,1.322,1.048,2.63,2.63,0,0,1,.487,1.559,2.787,2.787,0,0,1-.933,2.2,4.093,4.093,0,0,1-4.922,0,2.8,2.8,0,0,1-.927-2.2,2.7,2.7,0,0,1,.473-1.559,2.93,2.93,0,0,1,1.307-1.055,2.789,2.789,0,0,1-1.121-.975,2.511,2.511,0,0,1-.41-1.413,2.756,2.756,0,0,1,.864-2.138,3.67,3.67,0,0,1,4.552,0,2.748,2.748,0,0,1,.868,2.138m-1.106,4.973a1.962,1.962,0,0,0-.568-1.457,2.011,2.011,0,0,0-1.483-.564,1.906,1.906,0,0,0-2.021,2.021,1.894,1.894,0,0,0,.538,1.429,2.408,2.408,0,0,0,2.992,0,1.89,1.89,0,0,0,.542-1.425M297.4,299.1a1.748,1.748,0,0,0-1.292.494,2.045,2.045,0,0,0-.008,2.659,1.937,1.937,0,0,0,2.6,0,2,2,0,0,0-.018-2.64,1.723,1.723,0,0,0-1.282-.513"/>
    <path id="Trazado_112218" data-name="Trazado 112218" d="M275.769,349.287h-1.362v-9.031l-2.732,1v-1.231l3.882-1.457h.212Z"/>
    <path id="Trazado_112219" data-name="Trazado 112219" d="M286.623,339.385l-4.417,9.9h-1.42l4.4-9.55h-5.771v-1.114h7.207Z"/>
    <path id="Trazado_112220" data-name="Trazado 112220" d="M163.652,351.2v1.15H163.4a3.568,3.568,0,0,0-2.52.938,3.9,3.9,0,0,0-1.084,2.556,2.892,2.892,0,0,1,2.3-.967,2.763,2.763,0,0,1,2.223.982,4.3,4.3,0,0,1-.066,5.17,3.086,3.086,0,0,1-2.406.989,3.042,3.042,0,0,1-2.483-1.176,4.655,4.655,0,0,1-.952-3.028v-.52a7.013,7.013,0,0,1,1.256-4.5,4.614,4.614,0,0,1,3.739-1.594Zm-1.78,4.8a2.165,2.165,0,0,0-1.282.417,2.187,2.187,0,0,0-.813,1.048v.5a3.5,3.5,0,0,0,.594,2.124,1.777,1.777,0,0,0,1.479.806,1.723,1.723,0,0,0,1.439-.674,3.237,3.237,0,0,0-.007-3.542,1.7,1.7,0,0,0-1.41-.677"/>
    <path id="Trazado_112221" data-name="Trazado 112221" d="M241.626,10.715h-1.362V1.684l-2.732,1V1.457L241.414,0h.212Z"/>
    <path id="Trazado_112222" data-name="Trazado 112222" d="M251.316,7.134h1.48V8.24h-1.48v2.476h-1.362V8.24H245.1v-.8L249.873.051h1.443Zm-4.68,0h3.318V1.9l-.161.292Z"/>
    <path id="Trazado_112223" data-name="Trazado 112223" d="M255.516,92.509h-1.362V83.478l-2.733,1V83.251l3.882-1.457h.213Z"/>
    <path id="Trazado_112224" data-name="Trazado 112224" d="M260.108,87.162l.542-5.317h5.464V83.1H261.8L261.478,86a3.437,3.437,0,0,1,1.779-.462,2.943,2.943,0,0,1,2.315.964,3.773,3.773,0,0,1,.857,2.6,3.645,3.645,0,0,1-.89,2.6,3.244,3.244,0,0,1-2.487.948,3.365,3.365,0,0,1-2.306-.784,3.126,3.126,0,0,1-1.019-2.167h1.282a2.149,2.149,0,0,0,.652,1.38,2.025,2.025,0,0,0,1.391.465,1.833,1.833,0,0,0,1.484-.644,2.7,2.7,0,0,0,.538-1.78,2.481,2.481,0,0,0-.582-1.718,1.983,1.983,0,0,0-1.549-.648,2.24,2.24,0,0,0-1.392.388l-.359.293Z"/>
  </g>
</svg>
