<svg id="Grupo_87814" data-name="Grupo 87814" xmlns="http://www.w3.org/2000/svg" xmlns:xlink="http://www.w3.org/1999/xlink" width="95.944" height="371" viewBox="0 0 95.944 371">
  <defs>
    <clipPath id="clip-path">
      <rect id="Rectángulo_7069" data-name="Rectángulo 7069" width="95.944" height="371" fill="none"/>
    </clipPath>
  </defs>
  <g id="Grupo_87813" data-name="Grupo 87813" clip-path="url(#clip-path)">
    <path id="Trazado_112716" data-name="Trazado 112716" d="M13.479,371H0V60.108l.366.024c.23.016,22.678,1.28,28.034-18.362C33.821,21.9,33.883.856,33.883.647V0L68.51,23.4l-.064.237c-.118.439-11.844,44.118-8.236,63.96,3.571,19.641,5.217,24.451,26.3,29.034l.337.073-.075.336c-.11.495-10.974,49.9-10.982,94.21.623,2.092,19.253,65.205,20.149,111.78l.011.594-.52-.288c-.265-.146-26.621-14.589-40.109-13.7-13.74.916-36.288,12.88-38.152,16.24ZM.687,370.313H12.845l3.643-44.628.03-.06c1.951-3.9,25.125-15.767,38.75-16.674,12.795-.844,36.076,11.4,39.966,13.5C94.182,275.47,75.3,212.033,75.112,211.394l-.015-.1c0-42.475,9.964-89.626,10.925-94.072-21.19-4.654-22.871-9.607-26.49-29.508-3.5-19.23,7.252-60.5,8.186-64.025L34.564,1.289c-.058,3.692-.589,22.653-5.5,40.663C23.941,60.731,3.672,60.919.687,60.832Z"/>
    <rect id="Rectángulo_7067" data-name="Rectángulo 7067" width="86.088" height="0.687" transform="translate(0.343 115.956)"/>
    <path id="Trazado_112717" data-name="Trazado 112717" d="M34.358,152.054a27.361,27.361,0,1,1,27.362-27.361,27.393,27.393,0,0,1-27.362,27.361m0-54.036a26.675,26.675,0,1,0,26.675,26.675A26.7,26.7,0,0,0,34.358,98.018" transform="translate(-0.589 -8.189)"/>
    <rect id="Rectángulo_7068" data-name="Rectángulo 7068" width="0.687" height="54.036" transform="translate(33.425 89.486)"/>
  </g>
</svg>
