<svg xmlns="http://www.w3.org/2000/svg" xmlns:xlink="http://www.w3.org/1999/xlink" width="343" height="296" viewBox="0 0 343 296">
  <defs>
    <clipPath id="clip-path">
      <rect id="Rectángulo_7147" data-name="Rectángulo 7147" width="330.337" height="281.604" fill="none"/>
    </clipPath>
  </defs>
  <g id="Grupo_87886" data-name="Grupo 87886" transform="translate(-9331 9193)">
    <g id="Grupo_87882" data-name="Grupo 87882" transform="translate(9337.503 -9193)">
      <g id="Grupo_87879" data-name="Grupo 87879" transform="translate(0 8.829)">
        <g id="Grupo_87878" data-name="Grupo 87878" clip-path="url(#clip-path)">
          <path id="Trazado_112856" data-name="Trazado 112856" d="M19.536,26.841s64.332.219,108.533-10.066V144.783s-36.1,31.291-51.64,57.549-25.6,71.553-25.6,71.553H19.536V16.775H128.069" transform="translate(-7.661 -6.578)" fill="none" stroke="#000" stroke-miterlimit="10" stroke-width="1"/>
          <path id="Trazado_112857" data-name="Trazado 112857" d="M148.257,227.37l-77.243,129.1h77.243Z" transform="translate(-27.849 -89.165)" fill="none" stroke="#000" stroke-miterlimit="10" stroke-width="1"/>
          <path id="Trazado_112858" data-name="Trazado 112858" d="M96.463,215.745l-13.019-7L37.423,33.122" transform="translate(-14.676 -12.989)" fill="none" stroke="#000" stroke-miterlimit="10" stroke-width="1"/>
          <line id="Línea_215" data-name="Línea 215" x2="108.533" transform="translate(11.875 138.752)" fill="none" stroke="#000" stroke-miterlimit="10" stroke-width="1"/>
          <path id="Trazado_112859" data-name="Trazado 112859" d="M118.774,39.034V193.963l6.267-12.881" transform="translate(-46.578 -15.308)" fill="none" stroke="#000" stroke-miterlimit="10" stroke-width="1"/>
          <path id="Trazado_112860" data-name="Trazado 112860" d="M350.173,4.095S405.53,5.488,458.1,15.236V143.357s-26.808,28.356-47.7,61-29.244,67.812-29.244,67.812H350.173Z" transform="translate(-137.323 -1.606)" fill="none" stroke="#000" stroke-miterlimit="10" stroke-width="1"/>
          <line id="Línea_216" data-name="Línea 216" x2="107.928" transform="translate(212.85 13.978)" fill="none" stroke="#000" stroke-miterlimit="10" stroke-width="1"/>
          <path id="Trazado_112861" data-name="Trazado 112861" d="M478.092,233.2,401.15,362.021h76.942Z" transform="translate(-157.315 -91.453)" fill="none" stroke="#000" stroke-miterlimit="10" stroke-width="1"/>
          <line id="Línea_217" data-name="Línea 217" x2="8.35" y2="4.758" transform="translate(273.349 202.01)" fill="none" stroke="#000" stroke-miterlimit="10" stroke-width="1"/>
          <path id="Trazado_112862" data-name="Trazado 112862" d="M350.173,321.929s25.055-2.478,52.907,19.456" transform="translate(-137.323 -126.214)" fill="none" stroke="#000" stroke-miterlimit="10" stroke-width="1"/>
          <line id="Línea_218" data-name="Línea 218" x1="107.928" transform="translate(212.85 141.751)" fill="none" stroke="#000" stroke-miterlimit="10" stroke-width="1"/>
          <path id="Trazado_112863" data-name="Trazado 112863" d="M444.465,38.539V192.718L449.8,180.08" transform="translate(-174.301 -15.113)" fill="none" stroke="#000" stroke-miterlimit="10" stroke-width="1"/>
          <path id="Trazado_112864" data-name="Trazado 112864" d="M109.477,139.064h-2.721v2.862H105.9v-6.482h4.016v.7h-3.161v2.222h2.721Z" transform="translate(-41.53 -53.116)"/>
          <path id="Trazado_112865" data-name="Trazado 112865" d="M116.568,139.3h-1.523v2.622h-.859v-6.482h2.145a2.545,2.545,0,0,1,1.686.5,1.8,1.8,0,0,1,.589,1.452,1.742,1.742,0,0,1-.327,1.055,1.957,1.957,0,0,1-.911.672l1.523,2.751v.053h-.917Zm-1.523-.7h1.314a1.483,1.483,0,0,0,1.013-.33,1.117,1.117,0,0,0,.376-.883,1.177,1.177,0,0,0-.359-.923,1.518,1.518,0,0,0-1.035-.325h-1.309Z" transform="translate(-44.779 -53.116)"/>
          <path id="Trazado_112866" data-name="Trazado 112866" d="M128.41,141.927h-.859l-3.263-5v5h-.859v-6.482h.859l3.272,5.017v-5.017h.85Z" transform="translate(-48.403 -53.116)"/>
          <path id="Trazado_112867" data-name="Trazado 112867" d="M112.357,152.228h.619a1.359,1.359,0,0,0,.917-.306,1.028,1.028,0,0,0,.334-.807,1,1,0,0,0-1.135-1.14,1.179,1.179,0,0,0-.853.306,1.065,1.065,0,0,0-.318.807H111.1a1.651,1.651,0,0,1,.563-1.279,2.318,2.318,0,0,1,2.869-.026,1.753,1.753,0,0,1,.522,1.349,1.422,1.422,0,0,1-.275.819,1.652,1.652,0,0,1-.745.592,1.587,1.587,0,0,1,.825.561,1.555,1.555,0,0,1,.292.957,1.768,1.768,0,0,1-.57,1.385,2.131,2.131,0,0,1-1.482.512,2.193,2.193,0,0,1-1.485-.494,1.641,1.641,0,0,1-.572-1.3h.828a1.056,1.056,0,0,0,.334.818,1.269,1.269,0,0,0,.895.308,1.245,1.245,0,0,0,.912-.312,1.2,1.2,0,0,0,.316-.895,1.088,1.088,0,0,0-.347-.868,1.514,1.514,0,0,0-1-.312h-.619Z" transform="translate(-43.545 -58.549)"/>
          <path id="Trazado_112868" data-name="Trazado 112868" d="M123.826,155.869H119.58v-.592l2.244-2.493a5.307,5.307,0,0,0,.687-.919,1.54,1.54,0,0,0,.189-.732,1.166,1.166,0,0,0-.306-.833,1.078,1.078,0,0,0-.819-.325,1.272,1.272,0,0,0-.955.349,1.333,1.333,0,0,0-.341.973h-.823a1.91,1.91,0,0,1,.576-1.447,2.135,2.135,0,0,1,1.543-.553,2.053,2.053,0,0,1,1.429.475,1.616,1.616,0,0,1,.525,1.262,3.707,3.707,0,0,1-1.22,2.279l-1.737,1.883h3.254Z" transform="translate(-46.845 -58.549)"/>
          <path id="Trazado_112869" data-name="Trazado 112869" d="M104.682,166.758a6.893,6.893,0,0,1,.269-1.932,5.61,5.61,0,0,1,.8-1.683,3.415,3.415,0,0,1,1.109-1.069l.168.543a3.548,3.548,0,0,0-1.066,1.523,6.583,6.583,0,0,0-.456,2.293l0,.379a6.622,6.622,0,0,0,.628,2.983,3.558,3.558,0,0,0,.9,1.184l-.168.5a3.522,3.522,0,0,1-1.131-1.1,6.187,6.187,0,0,1-1.051-3.62" transform="translate(-41.052 -63.559)"/>
          <path id="Trazado_112870" data-name="Trazado 112870" d="M112.568,169.907h-.827v-5.489l-1.661.61v-.748l2.36-.886h.129Z" transform="translate(-43.169 -64.076)"/>
          <path id="Trazado_112871" data-name="Trazado 112871" d="M117.937,174.771l-.467-.32a2.146,2.146,0,0,0,.436-1.2v-.743h.806v.646a2.032,2.032,0,0,1-.22.9,2.107,2.107,0,0,1-.554.721" transform="translate(-46.067 -67.649)"/>
          <path id="Trazado_112872" data-name="Trazado 112872" d="M123.936,169.907h-.827v-5.489l-1.661.61v-.748l2.36-.886h.129Z" transform="translate(-47.626 -64.076)"/>
          <path id="Trazado_112873" data-name="Trazado 112873" d="M131.258,166.8a6.9,6.9,0,0,1-.26,1.9,5.622,5.622,0,0,1-.8,1.681,3.5,3.5,0,0,1-1.124,1.1l-.174-.5a3.576,3.576,0,0,0,1.1-1.631,7.056,7.056,0,0,0,.426-2.456v-.142a7.326,7.326,0,0,0-.2-1.738,5.853,5.853,0,0,0-.545-1.44,3.338,3.338,0,0,0-.786-.993l.174-.5a3.475,3.475,0,0,1,1.12,1.086,5.651,5.651,0,0,1,.8,1.678,7.037,7.037,0,0,1,.265,1.963" transform="translate(-50.55 -63.559)"/>
          <path id="Trazado_112874" data-name="Trazado 112874" d="M435.852,136.144h-2.084v5.783h-.85v-5.783h-2.079v-.7h5.013Z" transform="translate(-168.957 -53.116)"/>
          <path id="Trazado_112875" data-name="Trazado 112875" d="M443.042,139.3H441.52v2.622h-.859v-6.482h2.146a2.539,2.539,0,0,1,1.685.5,1.8,1.8,0,0,1,.59,1.452,1.742,1.742,0,0,1-.328,1.055,1.949,1.949,0,0,1-.91.672l1.523,2.751v.053h-.917Zm-1.523-.7h1.313a1.479,1.479,0,0,0,1.013-.33,1.115,1.115,0,0,0,.376-.883,1.175,1.175,0,0,0-.359-.923,1.515,1.515,0,0,0-1.035-.325H441.52Z" transform="translate(-172.809 -53.116)"/>
          <path id="Trazado_112876" data-name="Trazado 112876" d="M453.078,140.23h-2.716l-.61,1.7h-.881l2.475-6.482h.748l2.48,6.482H453.7Zm-2.457-.7h2.2l-1.1-3.032Z" transform="translate(-176.029 -53.116)"/>
          <path id="Trazado_112877" data-name="Trazado 112877" d="M438.048,152.228h.619a1.357,1.357,0,0,0,.917-.306,1.026,1.026,0,0,0,.334-.807,1,1,0,0,0-1.135-1.14,1.178,1.178,0,0,0-.852.306,1.063,1.063,0,0,0-.318.807h-.824a1.651,1.651,0,0,1,.563-1.279,2.05,2.05,0,0,1,1.431-.51,2.028,2.028,0,0,1,1.438.484,1.753,1.753,0,0,1,.521,1.349,1.422,1.422,0,0,1-.275.819,1.649,1.649,0,0,1-.745.592,1.591,1.591,0,0,1,.826.561,1.555,1.555,0,0,1,.292.957,1.768,1.768,0,0,1-.57,1.385,2.132,2.132,0,0,1-1.482.512,2.194,2.194,0,0,1-1.486-.494,1.641,1.641,0,0,1-.572-1.3h.829a1.057,1.057,0,0,0,.334.818,1.272,1.272,0,0,0,.9.308,1.245,1.245,0,0,0,.912-.312,1.2,1.2,0,0,0,.316-.895,1.089,1.089,0,0,0-.348-.868,1.513,1.513,0,0,0-1-.312h-.619Z" transform="translate(-171.267 -58.549)"/>
          <path id="Trazado_112878" data-name="Trazado 112878" d="M449.519,155.869h-4.247v-.592l2.243-2.493a5.308,5.308,0,0,0,.688-.919,1.534,1.534,0,0,0,.19-.732,1.164,1.164,0,0,0-.307-.833,1.076,1.076,0,0,0-.819-.325,1.271,1.271,0,0,0-.954.349,1.33,1.33,0,0,0-.341.973h-.824a1.91,1.91,0,0,1,.577-1.447,2.133,2.133,0,0,1,1.542-.553,2.054,2.054,0,0,1,1.43.475,1.616,1.616,0,0,1,.525,1.262A3.706,3.706,0,0,1,448,153.314l-1.737,1.883h3.254Z" transform="translate(-174.568 -58.549)"/>
          <path id="Trazado_112879" data-name="Trazado 112879" d="M430.374,166.758a6.892,6.892,0,0,1,.269-1.932,5.624,5.624,0,0,1,.8-1.683,3.421,3.421,0,0,1,1.109-1.069l.169.543a3.549,3.549,0,0,0-1.067,1.523,6.611,6.611,0,0,0-.456,2.293l0,.379a6.63,6.63,0,0,0,.629,2.983,3.559,3.559,0,0,0,.9,1.184l-.169.5a3.521,3.521,0,0,1-1.131-1.1,6.187,6.187,0,0,1-1.051-3.62" transform="translate(-168.775 -63.559)"/>
          <path id="Trazado_112880" data-name="Trazado 112880" d="M438.26,169.907h-.828v-5.489l-1.661.61v-.748l2.36-.886h.129Z" transform="translate(-170.892 -64.076)"/>
          <path id="Trazado_112881" data-name="Trazado 112881" d="M443.63,174.771l-.468-.32a2.147,2.147,0,0,0,.436-1.2v-.743h.805v.646a2.039,2.039,0,0,1-.219.9,2.115,2.115,0,0,1-.554.721" transform="translate(-173.79 -67.649)"/>
          <path id="Trazado_112882" data-name="Trazado 112882" d="M449.628,169.907H448.8v-5.489l-1.661.61v-.748l2.36-.886h.129Z" transform="translate(-175.349 -64.076)"/>
          <path id="Trazado_112883" data-name="Trazado 112883" d="M456.951,166.8a6.9,6.9,0,0,1-.261,1.9,5.621,5.621,0,0,1-.8,1.681,3.5,3.5,0,0,1-1.124,1.1l-.173-.5a3.581,3.581,0,0,0,1.1-1.631,7.055,7.055,0,0,0,.425-2.456v-.142a7.327,7.327,0,0,0-.2-1.738,5.854,5.854,0,0,0-.545-1.44,3.347,3.347,0,0,0-.786-.993l.173-.5a3.474,3.474,0,0,1,1.12,1.086,5.621,5.621,0,0,1,.8,1.678,7.035,7.035,0,0,1,.266,1.963" transform="translate(-178.274 -63.559)"/>
          <path id="Trazado_112884" data-name="Trazado 112884" d="M539.444,21.283h-2.622v2.144h3.045v.653h-3.843V18.03h3.8v.653h-3v1.949h2.622Z" transform="translate(-210.207 -7.071)"/>
          <path id="Trazado_112885" data-name="Trazado 112885" d="M339.892,0h.8V4.284a1.773,1.773,0,0,1-.521,1.359,1.946,1.946,0,0,1-1.39.491,2,2,0,0,1-1.4-.461,1.668,1.668,0,0,1-.5-1.292h.8a1.111,1.111,0,0,0,.284.81,1.1,1.1,0,0,0,.825.291,1.069,1.069,0,0,0,.8-.312,1.209,1.209,0,0,0,.31-.873Z" transform="translate(-132.108)"/>
          <path id="Trazado_112886" data-name="Trazado 112886" d="M336.425,25.631h-2.534l-.57,1.583H332.5l2.31-6.05h.7l2.314,6.05H337Zm-2.293-.652h2.057l-1.031-2.83Z" transform="translate(-130.392 -8.3)"/>
          <path id="Trazado_112887" data-name="Trazado 112887" d="M207.624,11.384h.839v.627h-.839v1.4h-.773v-1.4H204.1v-.453L206.8,7.366h.819Zm-2.656,0h1.883V8.417l-.092.167Z" transform="translate(-80.038 -2.889)"/>
          <path id="Trazado_112888" data-name="Trazado 112888" d="M11.57,14.988H10.8V9.864l-1.55.57v-.7l2.2-.827h.12Z" transform="translate(-3.626 -3.494)"/>
          <path id="Trazado_112889" data-name="Trazado 112889" d="M11.8,34a1.883,1.883,0,0,1-.576.461,1.562,1.562,0,0,1-.733.174,1.613,1.613,0,0,1-.912-.258,1.677,1.677,0,0,1-.6-.725,2.465,2.465,0,0,1-.212-1.033A2.507,2.507,0,0,1,9,31.529a1.689,1.689,0,0,1,.654-.744,1.864,1.864,0,0,1,.989-.258,1.691,1.691,0,0,1,1.415.671,2.925,2.925,0,0,1,.517,1.83v.225a3.908,3.908,0,0,1-.7,2.578,2.684,2.684,0,0,1-2.107.833H9.62v-.652h.162a2.114,2.114,0,0,0,1.462-.5A2.129,2.129,0,0,0,11.8,34m-1.184,0a1.188,1.188,0,0,0,.712-.237,1.4,1.4,0,0,0,.476-.586v-.307a2.126,2.126,0,0,0-.328-1.23,1,1,0,0,0-1.646-.085,1.6,1.6,0,0,0-.308,1.024,1.671,1.671,0,0,0,.3,1.02.943.943,0,0,0,.8.4" transform="translate(-3.438 -11.971)"/>
          <path id="Trazado_112890" data-name="Trazado 112890" d="M12.8,228.762H8.838v-.553l2.094-2.327a4.967,4.967,0,0,0,.641-.858,1.423,1.423,0,0,0,.177-.683,1.088,1.088,0,0,0-.287-.777,1.006,1.006,0,0,0-.765-.3,1.188,1.188,0,0,0-.892.326,1.246,1.246,0,0,0-.317.908H8.721a1.784,1.784,0,0,1,.538-1.35,2,2,0,0,1,1.44-.515,1.917,1.917,0,0,1,1.334.443,1.512,1.512,0,0,1,.491,1.178,3.462,3.462,0,0,1-1.138,2.127l-1.621,1.758H12.8Z" transform="translate(-3.42 -87.306)"/>
          <path id="Trazado_112891" data-name="Trazado 112891" d="M2.323,323.487H1.55v-5.123L0,318.933v-.7l2.2-.827h.12Z" transform="translate(0 -124.474)"/>
          <path id="Trazado_112892" data-name="Trazado 112892" d="M10.184,323.487H9.412v-5.123l-1.55.569v-.7l2.2-.827h.12Z" transform="translate(-3.083 -124.474)"/>
          <path id="Trazado_112893" data-name="Trazado 112893" d="M100.783,314.749a1.4,1.4,0,0,1-.239.806,1.628,1.628,0,0,1-.646.553,1.735,1.735,0,0,1,.75.594,1.5,1.5,0,0,1,.277.885,1.581,1.581,0,0,1-.53,1.251,2.321,2.321,0,0,1-2.792,0,1.586,1.586,0,0,1-.525-1.249,1.54,1.54,0,0,1,.267-.885,1.667,1.667,0,0,1,.742-.6,1.59,1.59,0,0,1-.635-.553,1.422,1.422,0,0,1-.233-.8,1.564,1.564,0,0,1,.491-1.213,2.082,2.082,0,0,1,2.582,0,1.561,1.561,0,0,1,.493,1.213m-.629,2.822a1.112,1.112,0,0,0-.322-.827,1.139,1.139,0,0,0-.842-.32,1.082,1.082,0,0,0-1.146,1.147,1.074,1.074,0,0,0,.306.81,1.365,1.365,0,0,0,1.7,0,1.073,1.073,0,0,0,.307-.808M99,313.719a.994.994,0,0,0-.733.28,1.16,1.16,0,0,0,0,1.509,1.1,1.1,0,0,0,1.475,0,1.138,1.138,0,0,0-.01-1.5.979.979,0,0,0-.728-.291" transform="translate(-38.069 -122.78)"/>
          <path id="Trazado_112894" data-name="Trazado 112894" d="M144.81,334.546l-2.506,5.618H141.5l2.5-5.418h-3.274v-.632h4.089Z" transform="translate(-55.185 -131.026)"/>
          <path id="Trazado_112895" data-name="Trazado 112895" d="M69.352,446.229v.652h-.141a2.025,2.025,0,0,0-1.43.532,2.216,2.216,0,0,0-.615,1.45,1.642,1.642,0,0,1,1.305-.549,1.568,1.568,0,0,1,1.261.557A2.44,2.44,0,0,1,69.7,451.8a1.753,1.753,0,0,1-1.366.561,1.726,1.726,0,0,1-1.408-.667,2.645,2.645,0,0,1-.54-1.718v-.295a3.982,3.982,0,0,1,.713-2.554,2.619,2.619,0,0,1,2.121-.9Zm-1.01,2.726a1.293,1.293,0,0,0-1.188.831v.283a1.98,1.98,0,0,0,.337,1.2,1.008,1.008,0,0,0,.839.457.977.977,0,0,0,.817-.382,1.836,1.836,0,0,0,0-2.01.967.967,0,0,0-.8-.384" transform="translate(-26.032 -174.993)"/>
          <path id="Trazado_112896" data-name="Trazado 112896" d="M7.515,435.543h.577a1.268,1.268,0,0,0,.856-.287.957.957,0,0,0,.312-.752A.939.939,0,0,0,8.2,433.441a1.1,1.1,0,0,0-.8.284,1,1,0,0,0-.3.754H6.338a1.542,1.542,0,0,1,.526-1.194,1.912,1.912,0,0,1,1.335-.476,1.891,1.891,0,0,1,1.342.453,1.637,1.637,0,0,1,.486,1.259,1.33,1.33,0,0,1-.255.765,1.536,1.536,0,0,1-.7.553,1.493,1.493,0,0,1,.771.524,1.455,1.455,0,0,1,.272.893,1.649,1.649,0,0,1-.532,1.292,1.992,1.992,0,0,1-1.383.478,2.044,2.044,0,0,1-1.386-.461,1.531,1.531,0,0,1-.534-1.217h.773a.989.989,0,0,0,.312.765,1.187,1.187,0,0,0,.835.286,1.161,1.161,0,0,0,.852-.291,1.12,1.12,0,0,0,.295-.835,1.016,1.016,0,0,0-.324-.81,1.414,1.414,0,0,0-.935-.291H7.515Z" transform="translate(-2.465 -169.73)"/>
          <path id="Trazado_112897" data-name="Trazado 112897" d="M206.254,225.782l.308-3.017h3.1v.711h-2.447l-.183,1.65a1.953,1.953,0,0,1,1.01-.262,1.671,1.671,0,0,1,1.314.546,2.141,2.141,0,0,1,.486,1.477,2.067,2.067,0,0,1-.505,1.473,1.839,1.839,0,0,1-1.41.538,1.912,1.912,0,0,1-1.309-.444,1.773,1.773,0,0,1-.577-1.23h.727a1.221,1.221,0,0,0,.37.783,1.151,1.151,0,0,0,.79.264,1.037,1.037,0,0,0,.841-.366,1.528,1.528,0,0,0,.306-1.01,1.4,1.4,0,0,0-.331-.974,1.124,1.124,0,0,0-.878-.368,1.268,1.268,0,0,0-.79.22l-.2.167Z" transform="translate(-80.8 -87.359)"/>
          <path id="Trazado_112898" data-name="Trazado 112898" d="M33.046,25.9h-.773V20.773l-1.55.57v-.7l2.2-.827h.12Z" transform="translate(-12.049 -7.772)"/>
          <path id="Trazado_112899" data-name="Trazado 112899" d="M42.028,23.281a3.516,3.516,0,0,1-.461,2.007,1.917,1.917,0,0,1-2.876.015,3.348,3.348,0,0,1-.482-1.918V22.359a3.437,3.437,0,0,1,.461-1.982,1.951,1.951,0,0,1,2.884-.022,3.318,3.318,0,0,1,.474,1.93Zm-.769-1.051a2.813,2.813,0,0,0-.274-1.423.944.944,0,0,0-.869-.447.932.932,0,0,0-.86.444,2.759,2.759,0,0,0-.278,1.367V23.4a2.856,2.856,0,0,0,.285,1.448.941.941,0,0,0,.862.467.929.929,0,0,0,.846-.441,2.759,2.759,0,0,0,.289-1.388Z" transform="translate(-14.984 -7.737)"/>
          <path id="Trazado_112900" data-name="Trazado 112900" d="M334.471,234.6v-6.05h1.977a2.3,2.3,0,0,1,1.482.407,1.468,1.468,0,0,1,.5,1.2,1.234,1.234,0,0,1-.241.75,1.563,1.563,0,0,1-.656.505,1.4,1.4,0,0,1,.775.522,1.5,1.5,0,0,1,.284.916,1.621,1.621,0,0,1-.528,1.28,2.183,2.183,0,0,1-1.492.465Zm.8-3.47h1.2a1.259,1.259,0,0,0,.837-.262.879.879,0,0,0,.314-.712.862.862,0,0,0-.291-.726,1.426,1.426,0,0,0-.885-.227h-1.18Zm0,.64v2.177h1.317a1.268,1.268,0,0,0,.879-.289,1.015,1.015,0,0,0,.322-.8q0-1.093-1.188-1.093Z" transform="translate(-131.166 -89.629)"/>
          <path id="Trazado_112901" data-name="Trazado 112901" d="M540.631,234.379h-2.539v2.672h-.8V231h3.748v.653h-2.95v2.073h2.539Z" transform="translate(-210.705 -90.589)"/>
          <path id="Trazado_112902" data-name="Trazado 112902" d="M477.531,348.4h-.8v-2.8h-3.05v2.8h-.8v-6.05h.8v2.6h3.05v-2.6h.8Z" transform="translate(-185.444 -134.255)"/>
          <path id="Trazado_112903" data-name="Trazado 112903" d="M335.977,319.133l-.74.769v2.044h-.8V315.9h.8v2.992l2.689-2.992h.964l-2.382,2.671,2.568,3.378h-.956Z" transform="translate(-131.153 -123.881)"/>
          <rect id="Rectángulo_7145" data-name="Rectángulo 7145" width="0.797" height="6.05" transform="translate(268.088 195.963)"/>
          <path id="Trazado_112904" data-name="Trazado 112904" d="M444.37,323.881l-.436-.3a2,2,0,0,0,.4-1.139v-.6h.76v.54a2.052,2.052,0,0,1-.723,1.5" transform="translate(-174.093 -126.214)"/>
          <rect id="Rectángulo_7146" data-name="Rectángulo 7146" width="0.797" height="6.05" transform="translate(259.492 213.911)"/>
          <path id="Trazado_112905" data-name="Trazado 112905" d="M399.212,458.4a1.844,1.844,0,0,1-.858.658,3.458,3.458,0,0,1-1.282.218,2.489,2.489,0,0,1-1.313-.346,2.317,2.317,0,0,1-.887-.987,3.416,3.416,0,0,1-.322-1.483v-.528a3.184,3.184,0,0,1,.638-2.119,2.223,2.223,0,0,1,1.793-.752,2.3,2.3,0,0,1,1.525.484,2.112,2.112,0,0,1,.706,1.373h-.8a1.32,1.32,0,0,0-1.43-1.2,1.413,1.413,0,0,0-1.216.564,2.75,2.75,0,0,0-.418,1.632v.5a2.574,2.574,0,0,0,.466,1.619,1.506,1.506,0,0,0,1.259.6,2.8,2.8,0,0,0,.785-.1,1.223,1.223,0,0,0,.557-.336v-1.356h-1.4v-.652h2.194Z" transform="translate(-154.726 -177.671)"/>
          <path id="Trazado_112906" data-name="Trazado 112906" d="M338.589,444.687a2.226,2.226,0,0,1-.709,1.481,2.32,2.32,0,0,1-1.585.522,2.13,2.13,0,0,1-1.718-.769,3.092,3.092,0,0,1-.646-2.057v-.582a3.451,3.451,0,0,1,.3-1.483,2.253,2.253,0,0,1,.854-.983,2.379,2.379,0,0,1,1.28-.343,2.185,2.185,0,0,1,1.546.538,2.256,2.256,0,0,1,.677,1.489h-.8a1.745,1.745,0,0,0-.451-1.05,1.365,1.365,0,0,0-.97-.325,1.427,1.427,0,0,0-1.2.565,2.6,2.6,0,0,0-.435,1.61v.587a2.67,2.67,0,0,0,.412,1.568,1.331,1.331,0,0,0,1.151.582,1.53,1.53,0,0,0,1.019-.3,1.668,1.668,0,0,0,.472-1.049Z" transform="translate(-130.954 -172.735)"/>
        </g>
      </g>
      <g id="Elipse_6294" data-name="Elipse 6294" transform="translate(196.497)" fill="none" stroke="#bf3976" stroke-width="2">
        <circle cx="11.5" cy="11.5" r="11.5" stroke="none"/>
        <circle cx="11.5" cy="11.5" r="10.5" fill="none"/>
      </g>
      <g id="Elipse_6302" data-name="Elipse 6302" transform="translate(-5.503 3.5)" fill="none" stroke="#bf3976" stroke-width="2">
        <circle cx="11.5" cy="11.5" r="11.5" stroke="none"/>
        <circle cx="11.5" cy="11.5" r="10.5" fill="none"/>
      </g>
      <g id="Elipse_6303" data-name="Elipse 6303" transform="translate(10.497 11.5)" fill="none" stroke="#bf3976" stroke-width="2">
        <circle cx="11.5" cy="11.5" r="11.5" stroke="none"/>
        <circle cx="11.5" cy="11.5" r="10.5" fill="none"/>
      </g>
      <g id="Elipse_6304" data-name="Elipse 6304" transform="translate(48.497 189.5)" fill="none" stroke="#bf3976" stroke-width="2">
        <circle cx="11.5" cy="11.5" r="11.5" stroke="none"/>
        <circle cx="11.5" cy="11.5" r="10.5" fill="none"/>
      </g>
      <g id="Elipse_6305" data-name="Elipse 6305" transform="translate(30.497 270.5)" fill="none" stroke="#bf3976" stroke-width="2">
        <circle cx="11.5" cy="11.5" r="11.5" stroke="none"/>
        <circle cx="11.5" cy="11.5" r="10.5" fill="none"/>
      </g>
      <g id="Elipse_6306" data-name="Elipse 6306" transform="translate(-6.503 261.5)" fill="none" stroke="#bf3976" stroke-width="2">
        <circle cx="11.5" cy="11.5" r="11.5" stroke="none"/>
        <circle cx="11.5" cy="11.5" r="10.5" fill="none"/>
      </g>
      <g id="Elipse_6295" data-name="Elipse 6295" transform="translate(193.497 15)" fill="none" stroke="#bf3976" stroke-width="2">
        <circle cx="11.5" cy="11.5" r="11.5" stroke="none"/>
        <circle cx="11.5" cy="11.5" r="10.5" fill="none"/>
      </g>
      <g id="Elipse_6296" data-name="Elipse 6296" transform="translate(313.497 11)" fill="none" stroke="#bf3976" stroke-width="2">
        <circle cx="11.5" cy="11.5" r="11.5" stroke="none"/>
        <circle cx="11.5" cy="11.5" r="10.5" fill="none"/>
      </g>
      <g id="Elipse_6297" data-name="Elipse 6297" transform="translate(193.497 138)" fill="none" stroke="#bf3976" stroke-width="2">
        <circle cx="11.5" cy="11.5" r="11.5" stroke="none"/>
        <circle cx="11.5" cy="11.5" r="10.5" fill="none"/>
      </g>
      <g id="Elipse_6298" data-name="Elipse 6298" transform="translate(313.497 138)" fill="none" stroke="#bf3976" stroke-width="2">
        <circle cx="11.5" cy="11.5" r="11.5" stroke="none"/>
        <circle cx="11.5" cy="11.5" r="10.5" fill="none"/>
      </g>
      <g id="Elipse_6299" data-name="Elipse 6299" transform="translate(248.497 212.5)" fill="none" stroke="#bf3976" stroke-width="2">
        <circle cx="11.5" cy="11.5" r="11.5" stroke="none"/>
        <circle cx="11.5" cy="11.5" r="10.5" fill="none"/>
      </g>
      <g id="Elipse_6300" data-name="Elipse 6300" transform="translate(193.497 193)" fill="none" stroke="#bf3976" stroke-width="2">
        <circle cx="11.5" cy="11.5" r="11.5" stroke="none"/>
        <circle cx="11.5" cy="11.5" r="10.5" fill="none"/>
      </g>
      <g id="Elipse_6293" data-name="Elipse 6293" transform="translate(230.497 273)" fill="none" stroke="#bf3976" stroke-width="2">
        <circle cx="11.5" cy="11.5" r="11.5" stroke="none"/>
        <circle cx="11.5" cy="11.5" r="10.5" fill="none"/>
      </g>
      <g id="Elipse_6301" data-name="Elipse 6301" transform="translate(193.497 267)" fill="none" stroke="#bf3976" stroke-width="2">
        <circle cx="11.5" cy="11.5" r="11.5" stroke="none"/>
        <circle cx="11.5" cy="11.5" r="10.5" fill="none"/>
      </g>
    </g>
  </g>
</svg>
