<svg id="Grupo_87889" data-name="Grupo 87889" xmlns="http://www.w3.org/2000/svg" xmlns:xlink="http://www.w3.org/1999/xlink" width="723.384" height="211.661" viewBox="0 0 723.384 211.661">
  <defs>
    <clipPath id="clip-path">
      <rect id="Rectángulo_7155" data-name="Rectángulo 7155" width="723.384" height="211.661" fill="none"/>
    </clipPath>
  </defs>
  <g id="Grupo_87888" data-name="Grupo 87888" clip-path="url(#clip-path)">
    <path id="Trazado_112953" data-name="Trazado 112953" d="M941.456,19.709v97.866s43.685,22.844,46.891,56.109,1.6,35.269,1.6,35.269l22.444,4.408,11.569-52.745,10.818,52.745,22.865-4.311s-1.967-32.7,3.688-45.483,20.9-33.929,44.746-45.73V19.709s-53.971,8.637-82.312,8.637C985.118,28.346,941.456,19.709,941.456,19.709Z" transform="translate(-511.332 -10.705)" fill="none" stroke="#000" stroke-miterlimit="10" stroke-width="1"/>
    <line id="Línea_219" data-name="Línea 219" y1="1.142" transform="translate(512.631 148.77)" fill="none" stroke="#000" stroke-miterlimit="10" stroke-width="1"/>
    <line id="Línea_220" data-name="Línea 220" y1="126.566" transform="translate(512.631 19.923)" fill="none" stroke="#000" stroke-miterlimit="10" stroke-width="1" stroke-dasharray="4.991 4.991"/>
    <line id="Línea_221" data-name="Línea 221" y1="1.142" transform="translate(512.631 17.641)" fill="none" stroke="#000" stroke-miterlimit="10" stroke-width="1"/>
    <path id="Trazado_112954" data-name="Trazado 112954" d="M1367.342,39.964h12.825l26.719,103.314s-8.906,12.469-14.607,39.545c0,0-1.068,12.469,12.825,35.625,0,0-13.894,11.757-31.35,11.757s-32.42-11.757-32.42-11.757,11.757-23.156,13.894-32.419c0,0-8.194-35.27-15.676-42.752Z" transform="translate(-727.551 -21.706)" fill="none" stroke="#000" stroke-miterlimit="10" stroke-width="1"/>
    <path id="Trazado_112955" data-name="Trazado 112955" d="M1413.243,105.465v86.571l3.028-7.481" transform="translate(-767.574 -57.281)" fill="none" stroke="#000" stroke-miterlimit="10" stroke-width="1"/>
    <path id="Trazado_112956" data-name="Trazado 112956" d="M1456.521,24.253l26.719,103.314s7.838-14.25,30.995-32.775V18.909S1476.471,25.322,1456.521,24.253Z" transform="translate(-791.079 -10.27)" fill="none" stroke="#000" stroke-miterlimit="10" stroke-width="1"/>
    <path id="Trazado_112957" data-name="Trazado 112957" d="M1519.683,70.375V132.72l2.85-6.413" transform="translate(-825.385 -38.223)" fill="none" stroke="#000" stroke-miterlimit="10" stroke-width="1"/>
    <path id="Trazado_112958" data-name="Trazado 112958" d="M548.669,33.25s18.646,1.381,66.3-6.215v87.359s-26.242,20.027-34.874,37.637Z" transform="translate(-297.998 -14.684)" fill="none" stroke="#000" stroke-miterlimit="10" stroke-width="1"/>
    <path id="Trazado_112959" data-name="Trazado 112959" d="M505.762,57.415H514.3L544.47,175.369S530.755,202.8,527.1,224.44H505.762Z" transform="translate(-274.694 -31.184)" fill="none" stroke="#000" stroke-miterlimit="10" stroke-width="1"/>
    <path id="Trazado_112960" data-name="Trazado 112960" d="M621.223,90.1v70.407l3.026-7.924" transform="translate(-337.405 -48.938)" fill="none" stroke="#000" stroke-miterlimit="10" stroke-width="1"/>
    <path id="Trazado_112961" data-name="Trazado 112961" d="M548.669,210.187v73.454l2.647-7.62" transform="translate(-297.998 -114.159)" fill="none" stroke="#000" stroke-miterlimit="10" stroke-width="1"/>
    <path id="Trazado_112962" data-name="Trazado 112962" d="M745.977,16.474s16.459-2.091,74.064,7.032v87.453s-26.212,26.212-37.032,48.157c0,0-17.526-10.973-22.707-11.582s-14.325-1.351-14.325-1.351Z" transform="translate(-405.162 -8.836)" fill="none" stroke="#000" stroke-miterlimit="10" stroke-width="1"/>
    <path id="Trazado_112963" data-name="Trazado 112963" d="M745.977,333.473v51.814H766.4s7.01-23.164,16.611-38.708C783.009,346.578,762.131,331.949,745.977,333.473Z" transform="translate(-405.162 -181.058)" fill="none" stroke="#000" stroke-miterlimit="10" stroke-width="1"/>
    <path id="Trazado_112964" data-name="Trazado 112964" d="M785.5,360.957V389.3l1.9-3.962" transform="translate(-426.631 -196.047)" fill="none" stroke="#000" stroke-miterlimit="10" stroke-width="1"/>
    <path id="Trazado_112965" data-name="Trazado 112965" d="M829.035,82.766v83.208l3.352-8.229" transform="translate(-450.273 -44.952)" fill="none" stroke="#000" stroke-miterlimit="10" stroke-width="1"/>
    <path id="Trazado_112966" data-name="Trazado 112966" d="M1108.083,151.5h-2.317v2.438h-.728v-5.522h3.421v.6h-2.693V150.9h2.317Z" transform="translate(-600.178 -80.609)"/>
    <path id="Trazado_112967" data-name="Trazado 112967" d="M1116.455,151.7h-1.3v2.234h-.732v-5.522h1.828a2.166,2.166,0,0,1,1.435.425,1.528,1.528,0,0,1,.5,1.236,1.489,1.489,0,0,1-.279.9,1.664,1.664,0,0,1-.776.573l1.3,2.344v.045h-.781Zm-1.3-.6h1.119a1.261,1.261,0,0,0,.863-.281.95.95,0,0,0,.321-.752,1,1,0,0,0-.305-.786,1.293,1.293,0,0,0-.882-.277h-1.115Z" transform="translate(-605.278 -80.609)"/>
    <path id="Trazado_112968" data-name="Trazado 112968" d="M1129.145,153.937h-.732l-2.78-4.255v4.255h-.732v-5.522h.732l2.788,4.274v-4.274h.724Z" transform="translate(-610.967 -80.609)"/>
    <path id="Trazado_112969" data-name="Trazado 112969" d="M1111.983,171.145h.527a1.158,1.158,0,0,0,.781-.262.874.874,0,0,0,.284-.686.856.856,0,0,0-.967-.971,1.007,1.007,0,0,0-.726.26.91.91,0,0,0-.271.688h-.7a1.409,1.409,0,0,1,.48-1.091,1.749,1.749,0,0,1,1.219-.434,1.728,1.728,0,0,1,1.225.413,1.494,1.494,0,0,1,.443,1.149,1.211,1.211,0,0,1-.233.7,1.406,1.406,0,0,1-.635.5,1.361,1.361,0,0,1,.7.478,1.329,1.329,0,0,1,.248.816,1.506,1.506,0,0,1-.485,1.179,1.817,1.817,0,0,1-1.263.436,1.868,1.868,0,0,1-1.265-.421,1.4,1.4,0,0,1-.487-1.111h.705a.9.9,0,0,0,.284.7,1.083,1.083,0,0,0,.762.262,1.062,1.062,0,0,0,.778-.265,1.024,1.024,0,0,0,.269-.762.928.928,0,0,0-.3-.74,1.291,1.291,0,0,0-.853-.265h-.527Z" transform="translate(-603.341 -91.599)"/>
    <path id="Trazado_112970" data-name="Trazado 112970" d="M1124.122,174.247H1120.5v-.5l1.911-2.124a4.539,4.539,0,0,0,.586-.784,1.307,1.307,0,0,0,.161-.624.99.99,0,0,0-.262-.709.914.914,0,0,0-.7-.277,1.085,1.085,0,0,0-.814.3,1.137,1.137,0,0,0-.29.828h-.7a1.63,1.63,0,0,1,.491-1.233,1.822,1.822,0,0,1,1.314-.47,1.749,1.749,0,0,1,1.217.4,1.378,1.378,0,0,1,.448,1.075,3.158,3.158,0,0,1-1.039,1.942l-1.479,1.6h2.772Z" transform="translate(-608.521 -91.599)"/>
    <path id="Trazado_112971" data-name="Trazado 112971" d="M1110.1,191.653a5.866,5.866,0,0,1,.229-1.646,4.767,4.767,0,0,1,.684-1.433,2.911,2.911,0,0,1,.944-.91l.144.462a3.028,3.028,0,0,0-.908,1.3,5.621,5.621,0,0,0-.388,1.953l0,.323a5.652,5.652,0,0,0,.535,2.541,3.034,3.034,0,0,0,.766,1.009l-.144.429a3.006,3.006,0,0,1-.963-.94,5.273,5.273,0,0,1-.895-3.083" transform="translate(-602.926 -101.926)"/>
    <path id="Trazado_112972" data-name="Trazado 112972" d="M1118.334,194.706h-.705V190.03l-1.415.519v-.637l2.01-.755h.11Z" transform="translate(-606.249 -102.737)"/>
    <path id="Trazado_112973" data-name="Trazado 112973" d="M1126.671,191.691a5.861,5.861,0,0,1-.223,1.621,4.791,4.791,0,0,1-.678,1.432,2.973,2.973,0,0,1-.957.933l-.148-.429a3.047,3.047,0,0,0,.939-1.39,6.016,6.016,0,0,0,.362-2.092v-.122a6.232,6.232,0,0,0-.167-1.481,5.036,5.036,0,0,0-.464-1.227,2.831,2.831,0,0,0-.67-.846l.148-.429a2.957,2.957,0,0,1,.953.925,4.8,4.8,0,0,1,.68,1.43,6.01,6.01,0,0,1,.226,1.673" transform="translate(-610.838 -101.926)"/>
    <path id="Trazado_112974" data-name="Trazado 112974" d="M612.991,140.1h-2.317v2.438h-.728v-5.522h3.421v.6h-2.693V139.5h2.317Z" transform="translate(-331.279 -74.418)"/>
    <path id="Trazado_112975" data-name="Trazado 112975" d="M621.363,140.3h-1.3v2.233h-.732v-5.522h1.828a2.166,2.166,0,0,1,1.435.425,1.529,1.529,0,0,1,.5,1.236,1.49,1.49,0,0,1-.279.9,1.663,1.663,0,0,1-.776.572l1.3,2.344v.045h-.781Zm-1.3-.6h1.119a1.262,1.262,0,0,0,.863-.281.95.95,0,0,0,.321-.752,1,1,0,0,0-.305-.786,1.293,1.293,0,0,0-.882-.277h-1.115Z" transform="translate(-336.379 -74.417)"/>
    <path id="Trazado_112976" data-name="Trazado 112976" d="M634.053,142.538h-.732l-2.78-4.255v4.255h-.732v-5.522h.732l2.788,4.275v-4.275h.724Z" transform="translate(-342.068 -74.418)"/>
    <path id="Trazado_112977" data-name="Trazado 112977" d="M616.892,154.345h.527a1.16,1.16,0,0,0,.781-.261.875.875,0,0,0,.284-.687.856.856,0,0,0-.967-.971,1.007,1.007,0,0,0-.727.26.91.91,0,0,0-.271.688h-.7a1.409,1.409,0,0,1,.48-1.091,1.749,1.749,0,0,1,1.219-.434,1.728,1.728,0,0,1,1.225.413,1.494,1.494,0,0,1,.444,1.149,1.212,1.212,0,0,1-.233.7,1.408,1.408,0,0,1-.635.5,1.355,1.355,0,0,1,.7.478,1.327,1.327,0,0,1,.249.815,1.506,1.506,0,0,1-.486,1.18,1.818,1.818,0,0,1-1.263.436,1.868,1.868,0,0,1-1.265-.421,1.4,1.4,0,0,1-.487-1.111h.705a.9.9,0,0,0,.284.7,1.083,1.083,0,0,0,.763.262,1.062,1.062,0,0,0,.778-.265,1.023,1.023,0,0,0,.269-.763.927.927,0,0,0-.3-.739,1.286,1.286,0,0,0-.853-.265h-.527Z" transform="translate(-334.442 -82.474)"/>
    <path id="Trazado_112978" data-name="Trazado 112978" d="M629.031,157.448h-3.618v-.5l1.912-2.124a4.534,4.534,0,0,0,.586-.784,1.305,1.305,0,0,0,.161-.624.99.99,0,0,0-.262-.709.915.915,0,0,0-.7-.277,1.087,1.087,0,0,0-.814.3,1.139,1.139,0,0,0-.29.829h-.7a1.631,1.631,0,0,1,.491-1.233,1.824,1.824,0,0,1,1.314-.47,1.749,1.749,0,0,1,1.217.4,1.378,1.378,0,0,1,.448,1.075,3.155,3.155,0,0,1-1.039,1.942l-1.479,1.6h2.772Z" transform="translate(-339.623 -82.474)"/>
    <path id="Trazado_112979" data-name="Trazado 112979" d="M608.564,169.454a5.86,5.86,0,0,1,.229-1.646,4.778,4.778,0,0,1,.684-1.433,2.907,2.907,0,0,1,.944-.91l.144.462a3.016,3.016,0,0,0-.908,1.3,5.618,5.618,0,0,0-.389,1.953l0,.323a5.654,5.654,0,0,0,.535,2.541,3.027,3.027,0,0,0,.766,1.009l-.144.429a3.01,3.01,0,0,1-.963-.941,5.27,5.27,0,0,1-.895-3.083" transform="translate(-330.529 -89.869)"/>
    <path id="Trazado_112980" data-name="Trazado 112980" d="M616.8,172.507H616.1v-4.676l-1.414.519v-.637l2.01-.755h.11Z" transform="translate(-333.852 -90.68)"/>
    <path id="Trazado_112981" data-name="Trazado 112981" d="M623.455,179.215l-.4-.273a1.828,1.828,0,0,0,.372-1.024v-.633h.686v.55a1.718,1.718,0,0,1-.188.766,1.781,1.781,0,0,1-.472.614" transform="translate(-338.401 -96.289)"/>
    <path id="Trazado_112982" data-name="Trazado 112982" d="M629.685,172.507h-.705v-4.676l-1.414.519v-.637l2.01-.755h.11Z" transform="translate(-340.849 -90.68)"/>
    <path id="Trazado_112983" data-name="Trazado 112983" d="M638.021,169.492a5.861,5.861,0,0,1-.222,1.621,4.792,4.792,0,0,1-.678,1.432,2.975,2.975,0,0,1-.958.933l-.148-.429a3.052,3.052,0,0,0,.939-1.39,6.013,6.013,0,0,0,.362-2.091v-.122a6.257,6.257,0,0,0-.167-1.481,5.017,5.017,0,0,0-.465-1.226,2.833,2.833,0,0,0-.669-.846l.148-.428a2.959,2.959,0,0,1,.953.925,4.792,4.792,0,0,1,.679,1.43,6.005,6.005,0,0,1,.226,1.673" transform="translate(-345.438 -89.869)"/>
    <path id="Trazado_112984" data-name="Trazado 112984" d="M817.861,144.47h-1.775V149.4h-.724V144.47h-1.771v-.6h4.27Z" transform="translate(-441.885 -78.143)"/>
    <path id="Trazado_112985" data-name="Trazado 112985" d="M826.751,147.162h-1.3V149.4h-.732v-5.522h1.828a2.163,2.163,0,0,1,1.435.425,1.528,1.528,0,0,1,.5,1.236,1.489,1.489,0,0,1-.279.9,1.663,1.663,0,0,1-.776.573l1.3,2.344v.045h-.781Zm-1.3-.6h1.119a1.262,1.262,0,0,0,.863-.281.95.95,0,0,0,.321-.752,1,1,0,0,0-.305-.786,1.293,1.293,0,0,0-.882-.278h-1.115Z" transform="translate(-447.931 -78.142)"/>
    <path id="Trazado_112986" data-name="Trazado 112986" d="M837.612,147.952H835.3l-.52,1.445h-.751l2.108-5.522h.637l2.112,5.522h-.747Zm-2.093-.6H837.4l-.941-2.583Z" transform="translate(-452.985 -78.143)"/>
    <path id="Trazado_112987" data-name="Trazado 112987" d="M821.391,161.2h.527a1.16,1.16,0,0,0,.781-.262.873.873,0,0,0,.284-.686.856.856,0,0,0-.967-.971,1.007,1.007,0,0,0-.726.26.908.908,0,0,0-.271.688h-.7a1.409,1.409,0,0,1,.48-1.091,1.748,1.748,0,0,1,1.219-.434,1.729,1.729,0,0,1,1.225.413,1.5,1.5,0,0,1,.444,1.149,1.213,1.213,0,0,1-.233.7,1.406,1.406,0,0,1-.635.5,1.36,1.36,0,0,1,.7.478,1.329,1.329,0,0,1,.249.816,1.5,1.5,0,0,1-.486,1.179,1.817,1.817,0,0,1-1.263.436,1.868,1.868,0,0,1-1.265-.421,1.4,1.4,0,0,1-.487-1.111h.705a.9.9,0,0,0,.284.7,1.083,1.083,0,0,0,.762.261,1.061,1.061,0,0,0,.778-.265,1.022,1.022,0,0,0,.269-.762.929.929,0,0,0-.3-.74,1.291,1.291,0,0,0-.853-.265h-.527Z" transform="translate(-445.512 -86.2)"/>
    <path id="Trazado_112988" data-name="Trazado 112988" d="M833.531,164.307h-3.618v-.5l1.912-2.124a4.524,4.524,0,0,0,.586-.783,1.307,1.307,0,0,0,.161-.624.992.992,0,0,0-.262-.71.916.916,0,0,0-.7-.276,1.085,1.085,0,0,0-.814.3,1.138,1.138,0,0,0-.29.829h-.7a1.629,1.629,0,0,1,.491-1.233,1.822,1.822,0,0,1,1.314-.47,1.749,1.749,0,0,1,1.217.4,1.378,1.378,0,0,1,.448,1.075,3.156,3.156,0,0,1-1.039,1.942l-1.479,1.6h2.772Z" transform="translate(-450.693 -86.2)"/>
    <path id="Trazado_112989" data-name="Trazado 112989" d="M819.505,176.312a5.867,5.867,0,0,1,.229-1.646,4.788,4.788,0,0,1,.684-1.433,2.917,2.917,0,0,1,.944-.91l.144.462a3.019,3.019,0,0,0-.908,1.3,5.618,5.618,0,0,0-.389,1.954l0,.322a5.651,5.651,0,0,0,.535,2.541,3.023,3.023,0,0,0,.766,1.009l-.144.429a3.015,3.015,0,0,1-.963-.941,5.272,5.272,0,0,1-.9-3.083" transform="translate(-445.097 -93.594)"/>
    <path id="Trazado_112990" data-name="Trazado 112990" d="M827.743,179.365h-.705v-4.676l-1.414.519v-.637l2.01-.755h.11Z" transform="translate(-448.42 -94.404)"/>
    <path id="Trazado_112991" data-name="Trazado 112991" d="M836.079,176.35a5.867,5.867,0,0,1-.222,1.621,4.8,4.8,0,0,1-.679,1.432,2.984,2.984,0,0,1-.958.933l-.148-.429a3.049,3.049,0,0,0,.939-1.39,6.017,6.017,0,0,0,.362-2.092V176.3a6.254,6.254,0,0,0-.167-1.481,5.021,5.021,0,0,0-.465-1.227,2.831,2.831,0,0,0-.669-.846l.148-.429a2.963,2.963,0,0,1,.953.925,4.788,4.788,0,0,1,.679,1.43,6,6,0,0,1,.226,1.672" transform="translate(-453.009 -93.594)"/>
    <path id="Trazado_112992" data-name="Trazado 112992" d="M540.226,261.777h-1.3v2.233H538.2v-5.522h1.828a2.166,2.166,0,0,1,1.435.425,1.53,1.53,0,0,1,.5,1.236,1.491,1.491,0,0,1-.279.9,1.663,1.663,0,0,1-.776.572l1.3,2.344v.045h-.781Zm-1.3-.6h1.119a1.261,1.261,0,0,0,.862-.281.95.95,0,0,0,.321-.752,1,1,0,0,0-.305-.786,1.293,1.293,0,0,0-.882-.277h-1.115Z" transform="translate(-292.311 -140.392)"/>
    <path id="Trazado_112993" data-name="Trazado 112993" d="M551.794,261.458H549.4v1.957h2.78v.6h-3.508v-5.522h3.47v.6H549.4v1.778h2.393Z" transform="translate(-298 -140.393)"/>
    <path id="Trazado_112994" data-name="Trazado 112994" d="M561.38,261.572h-2.317v2.438h-.728v-5.522h3.421v.6h-2.693v1.892h2.317Z" transform="translate(-303.248 -140.393)"/>
    <path id="Trazado_112995" data-name="Trazado 112995" d="M543.922,275.817h.527a1.16,1.16,0,0,0,.781-.261.875.875,0,0,0,.284-.687.856.856,0,0,0-.967-.971,1.007,1.007,0,0,0-.726.259.91.91,0,0,0-.271.688h-.7a1.41,1.41,0,0,1,.48-1.091,1.749,1.749,0,0,1,1.219-.434,1.727,1.727,0,0,1,1.225.413,1.494,1.494,0,0,1,.444,1.149,1.211,1.211,0,0,1-.233.7,1.408,1.408,0,0,1-.636.5,1.356,1.356,0,0,1,.7.478,1.328,1.328,0,0,1,.248.815,1.506,1.506,0,0,1-.486,1.18,1.818,1.818,0,0,1-1.263.436,1.868,1.868,0,0,1-1.265-.421,1.4,1.4,0,0,1-.487-1.111h.705a.9.9,0,0,0,.284.7,1.083,1.083,0,0,0,.763.262,1.062,1.062,0,0,0,.778-.265,1.023,1.023,0,0,0,.269-.763.928.928,0,0,0-.3-.739,1.286,1.286,0,0,0-.853-.265h-.527Z" transform="translate(-294.811 -148.449)"/>
    <path id="Trazado_112996" data-name="Trazado 112996" d="M556.062,278.92h-3.618v-.5l1.911-2.124a4.539,4.539,0,0,0,.586-.784,1.306,1.306,0,0,0,.161-.624.99.99,0,0,0-.262-.709.915.915,0,0,0-.7-.277,1.087,1.087,0,0,0-.814.3,1.139,1.139,0,0,0-.29.829h-.7a1.631,1.631,0,0,1,.491-1.233,1.824,1.824,0,0,1,1.314-.47,1.749,1.749,0,0,1,1.217.4,1.378,1.378,0,0,1,.448,1.075,3.155,3.155,0,0,1-1.039,1.942l-1.479,1.6h2.772Z" transform="translate(-299.991 -148.449)"/>
    <path id="Trazado_112997" data-name="Trazado 112997" d="M535.594,290.926a5.857,5.857,0,0,1,.229-1.646,4.778,4.778,0,0,1,.684-1.433,2.907,2.907,0,0,1,.944-.91l.144.462a3.016,3.016,0,0,0-.908,1.3,5.618,5.618,0,0,0-.389,1.953l0,.323a5.654,5.654,0,0,0,.535,2.541,3.027,3.027,0,0,0,.766,1.009l-.144.429a3.009,3.009,0,0,1-.963-.941,5.27,5.27,0,0,1-.9-3.083" transform="translate(-290.897 -155.844)"/>
    <path id="Trazado_112998" data-name="Trazado 112998" d="M543.832,293.978h-.705V289.3l-1.414.519v-.637l2.01-.755h.11Z" transform="translate(-294.22 -156.655)"/>
    <path id="Trazado_112999" data-name="Trazado 112999" d="M550.485,300.686l-.4-.273a1.828,1.828,0,0,0,.372-1.024v-.633h.686v.55a1.718,1.718,0,0,1-.188.766,1.781,1.781,0,0,1-.472.614" transform="translate(-298.768 -162.263)"/>
    <path id="Trazado_113000" data-name="Trazado 113000" d="M556.715,293.978h-.705V289.3l-1.414.519v-.637l2.01-.755h.11Z" transform="translate(-301.217 -156.655)"/>
    <path id="Trazado_113001" data-name="Trazado 113001" d="M565.051,290.964a5.861,5.861,0,0,1-.222,1.621,4.793,4.793,0,0,1-.678,1.432,2.975,2.975,0,0,1-.958.933l-.148-.429a3.051,3.051,0,0,0,.939-1.39,6.017,6.017,0,0,0,.362-2.091v-.122a6.257,6.257,0,0,0-.167-1.481,5.014,5.014,0,0,0-.465-1.226,2.833,2.833,0,0,0-.669-.846l.148-.428a2.958,2.958,0,0,1,.953.925,4.792,4.792,0,0,1,.679,1.43,6.007,6.007,0,0,1,.226,1.673" transform="translate(-305.806 -155.844)"/>
    <path id="Trazado_113002" data-name="Trazado 113002" d="M776.25,365.429h-1.3v2.233h-.732V362.14h1.828a2.166,2.166,0,0,1,1.435.425,1.529,1.529,0,0,1,.5,1.236,1.491,1.491,0,0,1-.279.9,1.662,1.662,0,0,1-.776.572l1.3,2.344v.045h-.781Zm-1.3-.6h1.119a1.262,1.262,0,0,0,.863-.281.95.95,0,0,0,.321-.752,1,1,0,0,0-.305-.786,1.293,1.293,0,0,0-.882-.277h-1.115Z" transform="translate(-420.502 -196.689)"/>
    <path id="Trazado_113003" data-name="Trazado 113003" d="M787.817,365.11h-2.393v1.957h2.78v.6H784.7v-5.522h3.47v.6h-2.742v1.778h2.393Z" transform="translate(-426.191 -196.689)"/>
    <path id="Trazado_113004" data-name="Trazado 113004" d="M797.4,365.224h-2.317v2.438h-.728v-5.522h3.421v.6h-2.693v1.892H797.4Z" transform="translate(-431.439 -196.689)"/>
    <path id="Trazado_113005" data-name="Trazado 113005" d="M779.945,379.469h.527a1.16,1.16,0,0,0,.781-.261.875.875,0,0,0,.284-.687.856.856,0,0,0-.967-.971,1.007,1.007,0,0,0-.726.259.91.91,0,0,0-.271.689h-.7a1.41,1.41,0,0,1,.48-1.091,1.749,1.749,0,0,1,1.219-.434,1.727,1.727,0,0,1,1.225.413,1.494,1.494,0,0,1,.444,1.149,1.211,1.211,0,0,1-.233.7,1.407,1.407,0,0,1-.636.5,1.355,1.355,0,0,1,.7.478,1.327,1.327,0,0,1,.249.815,1.506,1.506,0,0,1-.486,1.18,1.818,1.818,0,0,1-1.263.436,1.868,1.868,0,0,1-1.265-.421,1.4,1.4,0,0,1-.487-1.111h.705a.9.9,0,0,0,.284.7,1.083,1.083,0,0,0,.762.262,1.063,1.063,0,0,0,.778-.265,1.023,1.023,0,0,0,.269-.763.928.928,0,0,0-.3-.739,1.286,1.286,0,0,0-.853-.265h-.527Z" transform="translate(-423.002 -204.746)"/>
    <path id="Trazado_113006" data-name="Trazado 113006" d="M792.085,382.572h-3.618v-.5l1.912-2.124a4.542,4.542,0,0,0,.586-.784,1.305,1.305,0,0,0,.161-.624.99.99,0,0,0-.262-.709.915.915,0,0,0-.7-.277,1.087,1.087,0,0,0-.814.3,1.139,1.139,0,0,0-.29.829h-.7a1.631,1.631,0,0,1,.491-1.233,1.824,1.824,0,0,1,1.314-.47,1.749,1.749,0,0,1,1.217.4,1.378,1.378,0,0,1,.448,1.075,3.156,3.156,0,0,1-1.039,1.942l-1.479,1.6h2.772Z" transform="translate(-428.182 -204.746)"/>
    <path id="Trazado_113007" data-name="Trazado 113007" d="M771.618,394.578a5.866,5.866,0,0,1,.229-1.646,4.78,4.78,0,0,1,.685-1.433,2.905,2.905,0,0,1,.944-.91l.144.462a3.016,3.016,0,0,0-.908,1.3,5.619,5.619,0,0,0-.389,1.953l0,.323a5.656,5.656,0,0,0,.534,2.541,3.027,3.027,0,0,0,.766,1.009l-.144.429a3.01,3.01,0,0,1-.963-.941,5.271,5.271,0,0,1-.9-3.083" transform="translate(-419.088 -212.14)"/>
    <path id="Trazado_113008" data-name="Trazado 113008" d="M779.856,397.631h-.705v-4.676l-1.415.519v-.637l2.01-.755h.11Z" transform="translate(-422.411 -212.952)"/>
    <path id="Trazado_113009" data-name="Trazado 113009" d="M786.509,404.339l-.4-.273a1.828,1.828,0,0,0,.372-1.024v-.633h.686v.55a1.717,1.717,0,0,1-.188.766,1.78,1.78,0,0,1-.472.614" transform="translate(-426.96 -218.56)"/>
    <path id="Trazado_113010" data-name="Trazado 113010" d="M792.739,397.631h-.705v-4.676l-1.414.519v-.637l2.01-.755h.11Z" transform="translate(-429.408 -212.952)"/>
    <path id="Trazado_113011" data-name="Trazado 113011" d="M801.075,394.616a5.864,5.864,0,0,1-.222,1.621,4.793,4.793,0,0,1-.678,1.432,2.975,2.975,0,0,1-.958.933l-.148-.429a3.051,3.051,0,0,0,.939-1.39,6.013,6.013,0,0,0,.362-2.091v-.122a6.254,6.254,0,0,0-.167-1.481,5.018,5.018,0,0,0-.465-1.226,2.833,2.833,0,0,0-.669-.846l.148-.428a2.96,2.96,0,0,1,.953.925,4.789,4.789,0,0,1,.679,1.43,6.005,6.005,0,0,1,.226,1.673" transform="translate(-433.998 -212.14)"/>
    <path id="Trazado_113012" data-name="Trazado 113012" d="M1402.921,174.683h-1.181v2.034h-.666V171.69h1.664a1.97,1.97,0,0,1,1.307.387,1.392,1.392,0,0,1,.458,1.126,1.351,1.351,0,0,1-.254.818,1.516,1.516,0,0,1-.706.521l1.181,2.134v.041h-.711Zm-1.181-.542h1.018a1.149,1.149,0,0,0,.786-.256.865.865,0,0,0,.292-.685.91.91,0,0,0-.278-.716,1.174,1.174,0,0,0-.8-.253h-1.015Z" transform="translate(-760.964 -93.25)"/>
    <path id="Trazado_113013" data-name="Trazado 113013" d="M1413.451,174.393h-2.178v1.781h2.531v.542h-3.194v-5.027h3.159v.542h-2.5v1.62h2.178Z" transform="translate(-766.144 -93.249)"/>
    <path id="Trazado_113014" data-name="Trazado 113014" d="M1422.178,174.5h-2.11v2.22h-.663v-5.027h3.114v.542h-2.451v1.723h2.11Z" transform="translate(-770.921 -93.249)"/>
    <path id="Trazado_113015" data-name="Trazado 113015" d="M1406.285,188.255h.48a1.056,1.056,0,0,0,.711-.238.8.8,0,0,0,.259-.625.78.78,0,0,0-.88-.884.917.917,0,0,0-.661.237.828.828,0,0,0-.247.626h-.639a1.282,1.282,0,0,1,.437-.992,1.59,1.59,0,0,1,1.11-.4,1.573,1.573,0,0,1,1.115.376,1.36,1.36,0,0,1,.4,1.046,1.1,1.1,0,0,1-.212.635,1.283,1.283,0,0,1-.579.46,1.232,1.232,0,0,1,.641.435,1.208,1.208,0,0,1,.226.742,1.372,1.372,0,0,1-.442,1.074,1.656,1.656,0,0,1-1.15.4,1.7,1.7,0,0,1-1.151-.383,1.271,1.271,0,0,1-.444-1.012h.642a.823.823,0,0,0,.259.635.985.985,0,0,0,.694.239.969.969,0,0,0,.708-.242.933.933,0,0,0,.245-.694.846.846,0,0,0-.269-.673,1.173,1.173,0,0,0-.777-.242h-.48Z" transform="translate(-763.24 -101.013)"/>
    <path id="Trazado_113016" data-name="Trazado 113016" d="M1417.336,191.079h-3.294v-.459l1.74-1.934a4.126,4.126,0,0,0,.534-.713,1.19,1.19,0,0,0,.147-.568.9.9,0,0,0-.238-.646.834.834,0,0,0-.635-.252.986.986,0,0,0-.74.271,1.035,1.035,0,0,0-.264.754h-.639a1.482,1.482,0,0,1,.447-1.122,1.658,1.658,0,0,1,1.2-.428,1.591,1.591,0,0,1,1.108.368,1.253,1.253,0,0,1,.408.979,2.875,2.875,0,0,1-.946,1.768l-1.346,1.461h2.524Z" transform="translate(-767.956 -101.013)"/>
    <path id="Trazado_113017" data-name="Trazado 113017" d="M1398.7,202.8a5.337,5.337,0,0,1,.209-1.5,4.354,4.354,0,0,1,.623-1.3,2.653,2.653,0,0,1,.86-.829l.131.421a2.752,2.752,0,0,0-.827,1.181,5.112,5.112,0,0,0-.354,1.778l0,.294a5.144,5.144,0,0,0,.487,2.313,2.769,2.769,0,0,0,.7.918l-.131.39a2.744,2.744,0,0,1-.877-.856,4.8,4.8,0,0,1-.815-2.807" transform="translate(-759.677 -108.172)"/>
    <path id="Trazado_113018" data-name="Trazado 113018" d="M1406.2,205.576h-.642v-4.257l-1.287.473v-.58l1.83-.687h.1Z" transform="translate(-762.702 -108.911)"/>
    <path id="Trazado_113019" data-name="Trazado 113019" d="M1412.261,211.684l-.362-.249a1.668,1.668,0,0,0,.338-.932v-.577h.625v.5a1.581,1.581,0,0,1-.171.7,1.635,1.635,0,0,1-.43.559" transform="translate(-766.844 -114.018)"/>
    <path id="Trazado_113020" data-name="Trazado 113020" d="M1417.932,205.576h-.642v-4.257l-1.287.473v-.58l1.83-.687h.1Z" transform="translate(-769.072 -108.911)"/>
    <path id="Trazado_113021" data-name="Trazado 113021" d="M1425.521,202.832a5.356,5.356,0,0,1-.2,1.476,4.368,4.368,0,0,1-.618,1.3,2.705,2.705,0,0,1-.872.849l-.135-.39a2.778,2.778,0,0,0,.855-1.265,5.469,5.469,0,0,0,.329-1.9v-.111a5.664,5.664,0,0,0-.152-1.348,4.576,4.576,0,0,0-.423-1.117,2.578,2.578,0,0,0-.61-.77l.135-.39a2.692,2.692,0,0,1,.868.842,4.385,4.385,0,0,1,.618,1.3,5.456,5.456,0,0,1,.206,1.523" transform="translate(-773.25 -108.173)"/>
    <path id="Trazado_113022" data-name="Trazado 113022" d="M1509.174,112.488h-2.109v2.22h-.663v-5.027h3.114v.542h-2.451v1.723h2.109Z" transform="translate(-818.171 -59.571)"/>
    <path id="Trazado_113023" data-name="Trazado 113023" d="M1516.8,112.674h-1.18v2.034h-.666v-5.026h1.664a1.971,1.971,0,0,1,1.307.387,1.392,1.392,0,0,1,.457,1.126,1.352,1.352,0,0,1-.254.818,1.518,1.518,0,0,1-.706.521l1.181,2.134v.041h-.711Zm-1.18-.542h1.018a1.15,1.15,0,0,0,.785-.256.866.866,0,0,0,.292-.685.91.91,0,0,0-.278-.716,1.177,1.177,0,0,0-.8-.253h-1.015Z" transform="translate(-822.813 -59.571)"/>
    <path id="Trazado_113024" data-name="Trazado 113024" d="M1528.349,114.708h-.666l-2.531-3.874v3.874h-.666v-5.027h.666l2.538,3.891v-3.891h.659Z" transform="translate(-827.993 -59.571)"/>
    <path id="Trazado_113025" data-name="Trazado 113025" d="M1512.725,126.247h.48a1.056,1.056,0,0,0,.711-.238.8.8,0,0,0,.259-.625.78.78,0,0,0-.881-.884.917.917,0,0,0-.661.237.827.827,0,0,0-.247.626h-.639a1.283,1.283,0,0,1,.437-.992,1.592,1.592,0,0,1,1.11-.4,1.573,1.573,0,0,1,1.115.376,1.361,1.361,0,0,1,.4,1.046,1.1,1.1,0,0,1-.213.635,1.283,1.283,0,0,1-.578.46,1.232,1.232,0,0,1,.641.435,1.208,1.208,0,0,1,.226.742,1.372,1.372,0,0,1-.442,1.074,1.656,1.656,0,0,1-1.15.4,1.7,1.7,0,0,1-1.151-.383,1.271,1.271,0,0,1-.443-1.012h.642a.822.822,0,0,0,.259.635.985.985,0,0,0,.694.238.969.969,0,0,0,.708-.242.933.933,0,0,0,.245-.694.845.845,0,0,0-.269-.673,1.172,1.172,0,0,0-.777-.242h-.48Z" transform="translate(-821.05 -67.334)"/>
    <path id="Trazado_113026" data-name="Trazado 113026" d="M1523.776,129.07h-3.294v-.459l1.74-1.933a4.124,4.124,0,0,0,.533-.713,1.191,1.191,0,0,0,.147-.568.9.9,0,0,0-.238-.646.835.835,0,0,0-.636-.252.986.986,0,0,0-.74.271,1.034,1.034,0,0,0-.265.754h-.639a1.482,1.482,0,0,1,.447-1.122,1.658,1.658,0,0,1,1.2-.428,1.591,1.591,0,0,1,1.108.368,1.253,1.253,0,0,1,.408.979,2.874,2.874,0,0,1-.946,1.768l-1.347,1.461h2.524Z" transform="translate(-825.766 -67.334)"/>
    <path id="Trazado_113027" data-name="Trazado 113027" d="M1505.144,140.789a5.333,5.333,0,0,1,.209-1.5,4.357,4.357,0,0,1,.623-1.3,2.652,2.652,0,0,1,.86-.829l.131.421a2.752,2.752,0,0,0-.827,1.181,5.118,5.118,0,0,0-.354,1.778l0,.294a5.141,5.141,0,0,0,.487,2.313,2.768,2.768,0,0,0,.7.918l-.131.39a2.743,2.743,0,0,1-.877-.856,4.8,4.8,0,0,1-.814-2.807" transform="translate(-817.488 -74.494)"/>
    <path id="Trazado_113028" data-name="Trazado 113028" d="M1512.643,143.568H1512v-4.257l-1.287.473v-.58l1.83-.687h.1Z" transform="translate(-820.513 -75.233)"/>
    <path id="Trazado_113029" data-name="Trazado 113029" d="M1518.7,149.676l-.362-.248a1.666,1.666,0,0,0,.338-.932v-.577h.625v.5a1.571,1.571,0,0,1-.171.7,1.627,1.627,0,0,1-.43.559" transform="translate(-824.655 -80.339)"/>
    <path id="Trazado_113030" data-name="Trazado 113030" d="M1524.372,143.568h-.642v-4.257l-1.287.473v-.58l1.83-.687h.1Z" transform="translate(-826.883 -75.233)"/>
    <path id="Trazado_113031" data-name="Trazado 113031" d="M1531.961,140.824a5.352,5.352,0,0,1-.2,1.477,4.361,4.361,0,0,1-.618,1.3,2.705,2.705,0,0,1-.872.849l-.135-.39a2.779,2.779,0,0,0,.855-1.266,5.468,5.468,0,0,0,.329-1.9v-.11a5.664,5.664,0,0,0-.152-1.348,4.57,4.57,0,0,0-.422-1.117,2.576,2.576,0,0,0-.61-.77l.135-.39a2.693,2.693,0,0,1,.869.842,4.39,4.39,0,0,1,.618,1.3,5.464,5.464,0,0,1,.206,1.522" transform="translate(-831.061 -74.495)"/>
    <path id="Trazado_113032" data-name="Trazado 113032" d="M19.536,24.341s48.354.164,81.577-7.566V112.99S73.975,136.509,62.3,156.245s-19.243,53.781-19.243,53.781H19.536V16.775h81.577" transform="translate(-10.611 -9.111)" fill="none" stroke="#000" stroke-miterlimit="10" stroke-width="1"/>
    <path id="Trazado_113033" data-name="Trazado 113033" d="M129.073,227.37,71.015,324.407h58.058Z" transform="translate(-38.57 -123.491)" fill="none" stroke="#000" stroke-miterlimit="10" stroke-width="1"/>
    <path id="Trazado_113034" data-name="Trazado 113034" d="M81.8,170.387l-9.786-5.263-34.59-132" transform="translate(-20.326 -17.99)" fill="none" stroke="#000" stroke-miterlimit="10" stroke-width="1"/>
    <line id="Línea_222" data-name="Línea 222" x2="81.577" transform="translate(8.926 104.29)" fill="none" stroke="#000" stroke-miterlimit="10" stroke-width="1"/>
    <path id="Trazado_113035" data-name="Trazado 113035" d="M118.774,39.034V155.483l4.71-9.682" transform="translate(-64.509 -21.201)" fill="none" stroke="#000" stroke-miterlimit="10" stroke-width="1"/>
    <path id="Trazado_113036" data-name="Trazado 113036" d="M273.961,4.095s41.608,1.047,81.122,8.374v96.3s-20.149,21.313-35.851,45.853-21.981,50.969-21.981,50.969h-23.29Z" transform="translate(-148.796 -2.224)" fill="none" stroke="#000" stroke-miterlimit="10" stroke-width="1"/>
    <line id="Línea_223" data-name="Línea 223" x2="81.121" transform="translate(125.165 10.506)" fill="none" stroke="#000" stroke-miterlimit="10" stroke-width="1"/>
    <path id="Trazado_113037" data-name="Trazado 113037" d="M382.769,233.2l-57.832,96.822h57.832Z" transform="translate(-176.483 -126.66)" fill="none" stroke="#000" stroke-miterlimit="10" stroke-width="1"/>
    <line id="Línea_224" data-name="Línea 224" x2="6.276" y2="3.576" transform="translate(170.638 151.836)" fill="none" stroke="#000" stroke-miterlimit="10" stroke-width="1"/>
    <path id="Trazado_113038" data-name="Trazado 113038" d="M273.961,321.908s18.832-1.862,39.767,14.624" transform="translate(-148.796 -174.803)" fill="none" stroke="#000" stroke-miterlimit="10" stroke-width="1"/>
    <line id="Línea_225" data-name="Línea 225" x1="81.122" transform="translate(125.165 106.544)" fill="none" stroke="#000" stroke-miterlimit="10" stroke-width="1"/>
    <path id="Trazado_113039" data-name="Trazado 113039" d="M368.253,38.539V154.424l4.01-9.5" transform="translate(-200.009 -20.931)" fill="none" stroke="#000" stroke-miterlimit="10" stroke-width="1"/>
    <path id="Trazado_113040" data-name="Trazado 113040" d="M108.589,138.165h-2.045v2.151H105.9v-4.872h3.019v.525h-2.376v1.67h2.045Z" transform="translate(-57.518 -73.564)"/>
    <path id="Trazado_113041" data-name="Trazado 113041" d="M115.976,138.346h-1.144v1.971h-.646v-4.872H115.8a1.913,1.913,0,0,1,1.267.375,1.35,1.35,0,0,1,.443,1.091,1.309,1.309,0,0,1-.246.793,1.471,1.471,0,0,1-.684.505l1.144,2.068v.04h-.689Zm-1.144-.525h.987a1.114,1.114,0,0,0,.761-.248.84.84,0,0,0,.283-.664.884.884,0,0,0-.27-.694,1.141,1.141,0,0,0-.778-.244h-.984Z" transform="translate(-62.018 -73.564)"/>
    <path id="Trazado_113042" data-name="Trazado 113042" d="M127.173,140.317h-.646l-2.453-3.755v3.755h-.646v-4.872h.646l2.459,3.771v-3.771h.639Z" transform="translate(-67.037 -73.564)"/>
    <path id="Trazado_113043" data-name="Trazado 113043" d="M112.029,151.5h.465a1.021,1.021,0,0,0,.689-.23.773.773,0,0,0,.251-.606.756.756,0,0,0-.853-.857.887.887,0,0,0-.641.23.8.8,0,0,0-.239.607h-.619a1.241,1.241,0,0,1,.423-.961,1.742,1.742,0,0,1,2.156-.019,1.317,1.317,0,0,1,.392,1.014,1.069,1.069,0,0,1-.207.616,1.242,1.242,0,0,1-.56.445,1.193,1.193,0,0,1,.62.422,1.169,1.169,0,0,1,.219.719,1.329,1.329,0,0,1-.429,1.041,1.6,1.6,0,0,1-1.114.385,1.648,1.648,0,0,1-1.116-.371,1.233,1.233,0,0,1-.43-.98h.622a.793.793,0,0,0,.251.615.954.954,0,0,0,.673.232.936.936,0,0,0,.686-.234.9.9,0,0,0,.238-.673.818.818,0,0,0-.261-.652,1.138,1.138,0,0,0-.753-.234h-.465Z" transform="translate(-60.309 -81.089)"/>
    <path id="Trazado_113044" data-name="Trazado 113044" d="M122.74,154.237h-3.192v-.445l1.686-1.874a3.988,3.988,0,0,0,.517-.691,1.157,1.157,0,0,0,.142-.551.876.876,0,0,0-.23-.626.81.81,0,0,0-.616-.244.956.956,0,0,0-.718.263,1,1,0,0,0-.256.731h-.619a1.435,1.435,0,0,1,.433-1.087,1.6,1.6,0,0,1,1.16-.415,1.543,1.543,0,0,1,1.074.357,1.215,1.215,0,0,1,.395.948,2.786,2.786,0,0,1-.917,1.713l-1.305,1.415h2.446Z" transform="translate(-64.88 -81.088)"/>
    <path id="Trazado_113045" data-name="Trazado 113045" d="M104.682,165.6a5.181,5.181,0,0,1,.2-1.452,4.216,4.216,0,0,1,.6-1.265,2.567,2.567,0,0,1,.833-.8l.127.408a2.667,2.667,0,0,0-.8,1.144,4.947,4.947,0,0,0-.343,1.723l0,.285a4.977,4.977,0,0,0,.472,2.242,2.674,2.674,0,0,0,.675.89l-.127.378a2.647,2.647,0,0,1-.85-.83,4.65,4.65,0,0,1-.79-2.721" transform="translate(-56.856 -88.028)"/>
    <path id="Trazado_113046" data-name="Trazado 113046" d="M111.95,168.289h-.622v-4.126l-1.249.459v-.562l1.774-.666h.1Z" transform="translate(-59.788 -88.744)"/>
    <path id="Trazado_113047" data-name="Trazado 113047" d="M117.821,174.208l-.351-.241a1.613,1.613,0,0,0,.328-.9v-.559h.606v.485a1.527,1.527,0,0,1-.165.676,1.584,1.584,0,0,1-.417.542" transform="translate(-63.801 -93.693)"/>
    <path id="Trazado_113048" data-name="Trazado 113048" d="M123.317,168.289H122.7v-4.126l-1.249.459v-.562l1.774-.666h.1Z" transform="translate(-65.961 -88.744)"/>
    <path id="Trazado_113049" data-name="Trazado 113049" d="M130.673,165.629a5.185,5.185,0,0,1-.2,1.43,4.226,4.226,0,0,1-.6,1.263,2.626,2.626,0,0,1-.845.823l-.131-.378a2.688,2.688,0,0,0,.828-1.226,5.3,5.3,0,0,0,.32-1.846v-.107a5.507,5.507,0,0,0-.148-1.307,4.4,4.4,0,0,0-.41-1.082,2.509,2.509,0,0,0-.591-.747l.131-.378a2.611,2.611,0,0,1,.842.816,4.248,4.248,0,0,1,.6,1.261,5.289,5.289,0,0,1,.2,1.476" transform="translate(-70.011 -88.028)"/>
    <path id="Trazado_113050" data-name="Trazado 113050" d="M358.394,135.97h-1.566v4.347h-.639V135.97h-1.563v-.525h3.768Z" transform="translate(-192.608 -73.564)"/>
    <path id="Trazado_113051" data-name="Trazado 113051" d="M366.238,138.346h-1.144v1.971h-.646v-4.872h1.613a1.908,1.908,0,0,1,1.266.375,1.35,1.35,0,0,1,.443,1.091,1.309,1.309,0,0,1-.246.793,1.465,1.465,0,0,1-.684.505l1.144,2.068v.04H367.3Zm-1.144-.525h.987a1.112,1.112,0,0,0,.761-.248.838.838,0,0,0,.283-.664.883.883,0,0,0-.27-.694,1.139,1.139,0,0,0-.778-.244h-.984Z" transform="translate(-197.942 -73.564)"/>
    <path id="Trazado_113052" data-name="Trazado 113052" d="M375.821,139.041h-2.042l-.458,1.275h-.662l1.86-4.872h.562l1.864,4.872h-.66Zm-1.847-.525h1.656l-.83-2.279Z" transform="translate(-202.401 -73.564)"/>
    <path id="Trazado_113053" data-name="Trazado 113053" d="M361.509,151.5h.466a1.02,1.02,0,0,0,.689-.23.771.771,0,0,0,.251-.606.755.755,0,0,0-.853-.857.885.885,0,0,0-.64.23.8.8,0,0,0-.239.607h-.619a1.241,1.241,0,0,1,.423-.961,1.541,1.541,0,0,1,1.076-.383,1.524,1.524,0,0,1,1.081.364,1.318,1.318,0,0,1,.392,1.014,1.069,1.069,0,0,1-.207.616,1.239,1.239,0,0,1-.56.445,1.2,1.2,0,0,1,.621.422,1.169,1.169,0,0,1,.219.719,1.329,1.329,0,0,1-.429,1.041,1.6,1.6,0,0,1-1.114.385,1.649,1.649,0,0,1-1.117-.371,1.233,1.233,0,0,1-.43-.98h.623a.8.8,0,0,0,.251.615.956.956,0,0,0,.673.232.936.936,0,0,0,.686-.234.9.9,0,0,0,.238-.673.818.818,0,0,0-.261-.652,1.138,1.138,0,0,0-.752-.234h-.466Z" transform="translate(-195.808 -81.089)"/>
    <path id="Trazado_113054" data-name="Trazado 113054" d="M372.22,154.237h-3.192v-.445l1.686-1.874a3.987,3.987,0,0,0,.517-.691,1.153,1.153,0,0,0,.143-.551.874.874,0,0,0-.231-.626.808.808,0,0,0-.616-.244.955.955,0,0,0-.717.263,1,1,0,0,0-.256.731h-.619a1.436,1.436,0,0,1,.434-1.087,1.6,1.6,0,0,1,1.159-.415,1.544,1.544,0,0,1,1.075.357,1.214,1.214,0,0,1,.394.948,2.785,2.785,0,0,1-.916,1.713l-1.305,1.415h2.446Z" transform="translate(-200.379 -81.088)"/>
    <path id="Trazado_113055" data-name="Trazado 113055" d="M354.161,165.6a5.181,5.181,0,0,1,.2-1.452,4.227,4.227,0,0,1,.6-1.265,2.571,2.571,0,0,1,.833-.8l.127.408a2.668,2.668,0,0,0-.8,1.144,4.968,4.968,0,0,0-.343,1.723l0,.285a4.984,4.984,0,0,0,.472,2.242,2.675,2.675,0,0,0,.676.89l-.127.378a2.646,2.646,0,0,1-.85-.83,4.65,4.65,0,0,1-.79-2.721" transform="translate(-192.355 -88.028)"/>
    <path id="Trazado_113056" data-name="Trazado 113056" d="M361.43,168.289h-.622v-4.126l-1.249.459v-.562l1.774-.666h.1Z" transform="translate(-195.287 -88.744)"/>
    <path id="Trazado_113057" data-name="Trazado 113057" d="M367.3,174.208l-.352-.241a1.614,1.614,0,0,0,.328-.9v-.559h.605v.485a1.532,1.532,0,0,1-.165.676,1.59,1.59,0,0,1-.417.542" transform="translate(-199.301 -93.693)"/>
    <path id="Trazado_113058" data-name="Trazado 113058" d="M372.8,168.289h-.622v-4.126l-1.249.459v-.562l1.774-.666h.1Z" transform="translate(-201.461 -88.744)"/>
    <path id="Trazado_113059" data-name="Trazado 113059" d="M380.153,165.629a5.185,5.185,0,0,1-.2,1.43,4.225,4.225,0,0,1-.6,1.263,2.628,2.628,0,0,1-.845.823l-.13-.378a2.691,2.691,0,0,0,.828-1.226,5.3,5.3,0,0,0,.32-1.846v-.107a5.507,5.507,0,0,0-.148-1.307,4.4,4.4,0,0,0-.409-1.082,2.515,2.515,0,0,0-.591-.747l.13-.378a2.612,2.612,0,0,1,.842.816,4.227,4.227,0,0,1,.6,1.261,5.289,5.289,0,0,1,.2,1.476" transform="translate(-205.511 -88.028)"/>
    <path id="Trazado_113060" data-name="Trazado 113060" d="M462.382,20.475h-1.97v1.611H462.7v.491h-2.889V18.03h2.858v.491h-2.258v1.465h1.97Z" transform="translate(-249.737 -9.792)"/>
    <path id="Trazado_113061" data-name="Trazado 113061" d="M262.929,0h.6V3.22a1.333,1.333,0,0,1-.392,1.021,1.463,1.463,0,0,1-1.045.369,1.505,1.505,0,0,1-1.056-.347,1.254,1.254,0,0,1-.377-.971h.6a.836.836,0,0,0,.213.609.829.829,0,0,0,.62.219.8.8,0,0,0,.6-.234.909.909,0,0,0,.233-.656Z" transform="translate(-141.573)"/>
    <path id="Trazado_113062" data-name="Trazado 113062" d="M259.237,24.522h-1.9l-.428,1.19h-.619l1.737-4.547h.525l1.739,4.547h-.615Zm-1.724-.49h1.546l-.775-2.127Z" transform="translate(-139.196 -11.495)"/>
    <path id="Trazado_113063" data-name="Trazado 113063" d="M206.747,10.386h.631v.471h-.631v1.056h-.581V10.857H204.1v-.34l2.036-3.151h.616Zm-2,0h1.415V8.156l-.069.125Z" transform="translate(-110.85 -4.001)"/>
    <path id="Trazado_113064" data-name="Trazado 113064" d="M10.993,13.478h-.581V9.627l-1.165.428V9.53L10.9,8.909h.09Z" transform="translate(-5.023 -4.838)"/>
    <path id="Trazado_113065" data-name="Trazado 113065" d="M11.048,33.138a1.415,1.415,0,0,1-.433.347,1.174,1.174,0,0,1-.551.131,1.212,1.212,0,0,1-.686-.194,1.261,1.261,0,0,1-.451-.545,1.853,1.853,0,0,1-.159-.776,1.885,1.885,0,0,1,.174-.821,1.269,1.269,0,0,1,.492-.559,1.4,1.4,0,0,1,.743-.194,1.271,1.271,0,0,1,1.064.5,2.2,2.2,0,0,1,.389,1.376v.169a2.938,2.938,0,0,1-.524,1.938,2.018,2.018,0,0,1-1.584.626H9.408v-.49H9.53a1.589,1.589,0,0,0,1.1-.373,1.6,1.6,0,0,0,.419-1.139m-.89,0a.893.893,0,0,0,.535-.178,1.053,1.053,0,0,0,.358-.44v-.231a1.6,1.6,0,0,0-.247-.925A.755.755,0,0,0,9.568,31.3a1.205,1.205,0,0,0-.231.77,1.256,1.256,0,0,0,.223.767.708.708,0,0,0,.6.3" transform="translate(-4.762 -16.58)"/>
    <path id="Trazado_113066" data-name="Trazado 113066" d="M11.788,227.239H8.809v-.415l1.574-1.749a3.733,3.733,0,0,0,.482-.645,1.069,1.069,0,0,0,.133-.514.818.818,0,0,0-.216-.584.756.756,0,0,0-.575-.228.893.893,0,0,0-.67.245.937.937,0,0,0-.238.682H8.721a1.341,1.341,0,0,1,.4-1.015,1.5,1.5,0,0,1,1.082-.387,1.441,1.441,0,0,1,1,.333,1.137,1.137,0,0,1,.369.885,2.6,2.6,0,0,1-.856,1.6L9.5,226.767h2.283Z" transform="translate(-4.737 -120.916)"/>
    <path id="Trazado_113067" data-name="Trazado 113067" d="M1.746,321.977H1.165v-3.851L0,318.554v-.525l1.655-.621h.09Z" transform="translate(0 -172.393)"/>
    <path id="Trazado_113068" data-name="Trazado 113068" d="M9.607,321.977H9.027v-3.851l-1.165.428v-.525l1.655-.621h.09Z" transform="translate(-4.27 -172.393)"/>
    <path id="Trazado_113069" data-name="Trazado 113069" d="M99.862,314.336a1.052,1.052,0,0,1-.18.606,1.223,1.223,0,0,1-.486.416,1.3,1.3,0,0,1,.564.446,1.124,1.124,0,0,1,.208.665,1.188,1.188,0,0,1-.4.94,1.745,1.745,0,0,1-2.1,0,1.192,1.192,0,0,1-.395-.938,1.157,1.157,0,0,1,.2-.665,1.254,1.254,0,0,1,.557-.45,1.2,1.2,0,0,1-.477-.415,1.069,1.069,0,0,1-.175-.6,1.175,1.175,0,0,1,.369-.912,1.565,1.565,0,0,1,1.941,0,1.174,1.174,0,0,1,.371.912m-.472,2.121a.836.836,0,0,0-.242-.621.856.856,0,0,0-.633-.241.813.813,0,0,0-.862.862.808.808,0,0,0,.23.609,1.026,1.026,0,0,0,1.276,0,.806.806,0,0,0,.231-.608m-.868-2.9a.747.747,0,0,0-.551.211.872.872,0,0,0,0,1.134.826.826,0,0,0,1.109,0,.855.855,0,0,0-.008-1.126.736.736,0,0,0-.547-.219" transform="translate(-52.725 -170.047)"/>
    <path id="Trazado_113070" data-name="Trazado 113070" d="M143.795,334.439l-1.883,4.222h-.606l1.877-4.073h-2.461v-.475h3.073Z" transform="translate(-76.43 -181.467)"/>
    <path id="Trazado_113071" data-name="Trazado 113071" d="M68.614,446.229v.49h-.106a1.522,1.522,0,0,0-1.075.4,1.666,1.666,0,0,0-.462,1.09,1.234,1.234,0,0,1,.981-.413,1.179,1.179,0,0,1,.948.419,1.834,1.834,0,0,1-.028,2.2,1.317,1.317,0,0,1-1.027.422,1.3,1.3,0,0,1-1.059-.5,1.988,1.988,0,0,1-.406-1.292v-.222a2.993,2.993,0,0,1,.536-1.919,1.968,1.968,0,0,1,1.594-.679Zm-.759,2.049a.972.972,0,0,0-.893.625v.212a1.489,1.489,0,0,0,.253.906.758.758,0,0,0,.63.344.734.734,0,0,0,.614-.287,1.38,1.38,0,0,0,0-1.51.727.727,0,0,0-.6-.289" transform="translate(-36.053 -242.36)"/>
    <path id="Trazado_113072" data-name="Trazado 113072" d="M7.209,434.864h.434a.953.953,0,0,0,.643-.216.719.719,0,0,0,.234-.565.705.705,0,0,0-.8-.8.829.829,0,0,0-.6.214.749.749,0,0,0-.223.567H6.325a1.159,1.159,0,0,1,.4-.9,1.437,1.437,0,0,1,1-.358,1.421,1.421,0,0,1,1.009.34,1.23,1.23,0,0,1,.365.946,1,1,0,0,1-.192.575,1.155,1.155,0,0,1-.524.415,1.122,1.122,0,0,1,.58.394,1.094,1.094,0,0,1,.2.671,1.24,1.24,0,0,1-.4.971,1.5,1.5,0,0,1-1.04.36,1.536,1.536,0,0,1-1.042-.347,1.151,1.151,0,0,1-.4-.915h.581a.744.744,0,0,0,.234.575.892.892,0,0,0,.628.215.873.873,0,0,0,.64-.218.842.842,0,0,0,.222-.628.764.764,0,0,0-.244-.609,1.063,1.063,0,0,0-.7-.219H7.209Z" transform="translate(-3.414 -235.071)"/>
    <path id="Trazado_113073" data-name="Trazado 113073" d="M206.2,225.032l.231-2.267h2.33v.534h-1.839l-.138,1.24a1.468,1.468,0,0,1,.759-.2,1.256,1.256,0,0,1,.987.411,1.609,1.609,0,0,1,.365,1.11,1.554,1.554,0,0,1-.38,1.107,1.382,1.382,0,0,1-1.06.4,1.437,1.437,0,0,1-.984-.334,1.332,1.332,0,0,1-.434-.925h.546a.918.918,0,0,0,.278.589.865.865,0,0,0,.593.2.78.78,0,0,0,.632-.275,1.148,1.148,0,0,0,.23-.759,1.055,1.055,0,0,0-.249-.732.845.845,0,0,0-.66-.276.953.953,0,0,0-.593.165l-.153.125Z" transform="translate(-111.905 -120.99)"/>
    <path id="Trazado_113074" data-name="Trazado 113074" d="M32.47,24.387h-.581V20.536l-1.165.428v-.525l1.655-.621h.09Z" transform="translate(-16.687 -10.764)"/>
    <path id="Trazado_113075" data-name="Trazado 113075" d="M41.08,22.4a2.642,2.642,0,0,1-.347,1.509,1.441,1.441,0,0,1-2.161.011,2.516,2.516,0,0,1-.362-1.441v-.771a2.584,2.584,0,0,1,.347-1.49,1.466,1.466,0,0,1,2.167-.017,2.494,2.494,0,0,1,.356,1.451Zm-.578-.79a2.114,2.114,0,0,0-.206-1.07.71.71,0,0,0-.653-.336.7.7,0,0,0-.646.334,2.074,2.074,0,0,0-.209,1.028v.925A2.147,2.147,0,0,0,39,23.578a.707.707,0,0,0,.648.351.7.7,0,0,0,.636-.331,2.074,2.074,0,0,0,.217-1.043Z" transform="translate(-20.752 -10.715)"/>
    <path id="Trazado_113076" data-name="Trazado 113076" d="M258.259,233.1v-4.547h1.486a1.727,1.727,0,0,1,1.114.306,1.1,1.1,0,0,1,.373.906.928.928,0,0,1-.181.564,1.175,1.175,0,0,1-.493.38,1.054,1.054,0,0,1,.582.392,1.125,1.125,0,0,1,.214.689,1.218,1.218,0,0,1-.4.962,1.641,1.641,0,0,1-1.121.35Zm.6-2.608h.906a.946.946,0,0,0,.629-.2.661.661,0,0,0,.236-.535.648.648,0,0,0-.219-.546,1.072,1.072,0,0,0-.665-.171h-.887Zm0,.481v1.637h.99a.953.953,0,0,0,.661-.217.763.763,0,0,0,.242-.6q0-.822-.893-.821Z" transform="translate(-140.268 -124.133)"/>
    <path id="Trazado_113077" data-name="Trazado 113077" d="M463.59,233.54h-1.908v2.008h-.6V231H463.9v.491h-2.218v1.558h1.908Z" transform="translate(-250.427 -125.463)"/>
    <path id="Trazado_113078" data-name="Trazado 113078" d="M400.164,346.9h-.6v-2.1h-2.293v2.1h-.6V342.35h.6V344.3h2.293V342.35h.6Z" transform="translate(-215.442 -185.94)"/>
    <path id="Trazado_113079" data-name="Trazado 113079" d="M259.383,318.329l-.556.578v1.536h-.6V315.9h.6v2.249l2.021-2.249h.725l-1.79,2.008,1.93,2.539h-.719Z" transform="translate(-140.251 -171.572)"/>
    <rect id="Rectángulo_7153" data-name="Rectángulo 7153" width="0.599" height="4.547" transform="translate(166.684 147.291)"/>
    <path id="Trazado_113080" data-name="Trazado 113080" d="M368.05,323.376l-.328-.225a1.5,1.5,0,0,0,.3-.856v-.45h.572v.406a1.542,1.542,0,0,1-.543,1.124" transform="translate(-199.721 -174.803)"/>
    <rect id="Rectángulo_7154" data-name="Rectángulo 7154" width="0.599" height="4.547" transform="translate(160.222 160.781)"/>
    <path id="Trazado_113081" data-name="Trazado 113081" d="M321.841,457.072a1.386,1.386,0,0,1-.645.495,2.6,2.6,0,0,1-.964.164,1.87,1.87,0,0,1-.987-.26,1.742,1.742,0,0,1-.667-.742,2.568,2.568,0,0,1-.242-1.115v-.4a2.393,2.393,0,0,1,.479-1.593,1.671,1.671,0,0,1,1.348-.565,1.726,1.726,0,0,1,1.146.364,1.588,1.588,0,0,1,.531,1.032h-.6a.992.992,0,0,0-1.075-.906,1.062,1.062,0,0,0-.914.424,2.067,2.067,0,0,0-.314,1.227v.372a1.935,1.935,0,0,0,.35,1.217,1.132,1.132,0,0,0,.946.452,2.109,2.109,0,0,0,.59-.074.919.919,0,0,0,.418-.253v-1.019h-1.052v-.49h1.649Z" transform="translate(-172.898 -246.07)"/>
    <path id="Trazado_113082" data-name="Trazado 113082" d="M261.219,443.64a1.673,1.673,0,0,1-.533,1.113,1.744,1.744,0,0,1-1.191.392,1.6,1.6,0,0,1-1.292-.578,2.324,2.324,0,0,1-.486-1.546v-.437a2.593,2.593,0,0,1,.226-1.115,1.694,1.694,0,0,1,.642-.739,1.788,1.788,0,0,1,.962-.258,1.642,1.642,0,0,1,1.162.4,1.7,1.7,0,0,1,.509,1.119h-.6a1.312,1.312,0,0,0-.339-.789,1.026,1.026,0,0,0-.729-.244,1.073,1.073,0,0,0-.9.425,1.952,1.952,0,0,0-.327,1.21v.441a2.006,2.006,0,0,0,.309,1.178,1,1,0,0,0,.865.438,1.151,1.151,0,0,0,.766-.227,1.255,1.255,0,0,0,.355-.789Z" transform="translate(-139.974 -239.234)"/>
  </g>
</svg>
