<svg xmlns="http://www.w3.org/2000/svg" width="820" height="251.969" viewBox="0 0 820 251.969">
  <g id="Grupo_87953" data-name="Grupo 87953" transform="translate(-390 -1293.597)">
    <g id="Rectángulo_7183" data-name="Rectángulo 7183" transform="translate(390 1335.566)" fill="none" stroke="#339ce9" stroke-width="3">
      <rect width="820" height="210" rx="10" stroke="none"/>
      <rect x="1.5" y="1.5" width="817" height="207" rx="8.5" fill="none"/>
    </g>
    <g id="Grupo_87796" data-name="Grupo 87796" transform="translate(575 1377.536) rotate(-90)">
      <g id="Grupo_87780" data-name="Grupo 87780" transform="translate(0 450.273) rotate(-90)">
        <g id="Grupo_57898" data-name="Grupo 57898" transform="translate(355.635 1.071)">
          <g id="Grupo_57897" data-name="Grupo 57897" transform="translate(0.428)">
            <path id="Trazado_111885" data-name="Trazado 111885" d="M0,36.337H6.993a6.808,6.808,0,0,0,6.6-5.218,40.89,40.89,0,1,1,.637,21.87,6.813,6.813,0,0,0-6.5-4.835H0Z" fill="#f1bf00"/>
          </g>
          <path id="Trazado_111886" data-name="Trazado 111886" d="M12.826,9.668a40.831,40.831,0,0,0,1.663,11.579,6.8,6.8,0,0,0-6.329-4.36H0V5.069H7.423A6.8,6.8,0,0,0,13.978,0,40.846,40.846,0,0,0,12.826,9.668Z" transform="translate(0 31.266)" fill="#339ce9"/>
        </g>
        <circle id="Elipse_6201" data-name="Elipse 6201" cx="32.729" cy="32.729" r="32.729" transform="translate(374.539 72.417) rotate(-86.133)" fill="#fff"/>
        <path id="Trazado_111887" data-name="Trazado 111887" d="M0,36.337H6.993a6.807,6.807,0,0,0,6.6-5.218,40.891,40.891,0,1,1,.637,21.87,6.813,6.813,0,0,0-6.5-4.835H0Z" transform="translate(263.404 1.071)" fill="#0ac4bf"/>
        <g id="Grupo_57899" data-name="Grupo 57899" transform="translate(275.843 1.071)">
          <path id="Trazado_111888" data-name="Trazado 111888" d="M91.874,36.337H87.216a6.808,6.808,0,0,1-6.6-5.218,40.89,40.89,0,1,0-.637,21.87,6.813,6.813,0,0,1,6.5-4.835h5.4Z" fill="#339ce9"/>
        </g>
        <circle id="Elipse_6202" data-name="Elipse 6202" cx="32.729" cy="32.729" r="32.729" transform="matrix(0.32, -0.947, 0.947, 0.32, 275.26, 62.504)" fill="#fff"/>
        <g id="Grupo_57900" data-name="Grupo 57900" transform="translate(183.181 1.071)">
          <path id="Trazado_111889" data-name="Trazado 111889" d="M91.874,36.337H87.216a6.808,6.808,0,0,1-6.6-5.218,40.891,40.891,0,1,0-.637,21.87,6.813,6.813,0,0,1,6.5-4.835h5.4Z" fill="#0ac4bf"/>
        </g>
        <g id="Grupo_87778" data-name="Grupo 87778" transform="translate(92.126 1.071)">
          <path id="Trazado_111889-2" data-name="Trazado 111889" d="M91.874,36.337H87.216a6.808,6.808,0,0,1-6.6-5.218,40.891,40.891,0,1,0-.637,21.87,6.813,6.813,0,0,1,6.5-4.835h5.4Z" fill="#bf3976"/>
        </g>
        <g id="Grupo_87779" data-name="Grupo 87779" transform="translate(1.071 1.071)">
          <path id="Trazado_111889-3" data-name="Trazado 111889" d="M91.874,36.337H87.216a6.808,6.808,0,0,1-6.6-5.218,40.891,40.891,0,1,0-.637,21.87,6.813,6.813,0,0,1,6.5-4.835h5.4Z" fill="#8f2b58"/>
        </g>
        <circle id="Elipse_6203" data-name="Elipse 6203" cx="32.729" cy="32.729" r="32.729" transform="translate(182.11 61.488) rotate(-69.941)" fill="#fff"/>
        <circle id="Elipse_6204" data-name="Elipse 6204" cx="32.729" cy="32.729" r="32.729" transform="translate(91.055 61.488) rotate(-69.941)" fill="#fff"/>
        <circle id="Elipse_6205" data-name="Elipse 6205" cx="32.729" cy="32.729" r="32.729" transform="translate(0 61.488) rotate(-69.941)" fill="#fff"/>
      </g>
      <path id="Trazado_113387" data-name="Trazado 113387" d="M17.729,15.121a7.2,7.2,0,0,1-1.221,4.512A4.261,4.261,0,0,1,12.934,21.2,4.291,4.291,0,0,1,9.38,19.662a6.992,6.992,0,0,1-1.26-4.395V12.65A7.109,7.109,0,0,1,9.355,8.129a4.293,4.293,0,0,1,3.56-1.543,4.3,4.3,0,0,1,3.555,1.528,6.97,6.97,0,0,1,1.26,4.39Zm-2.822-2.878a5.207,5.207,0,0,0-.483-2.576,1.634,1.634,0,0,0-1.509-.806,1.6,1.6,0,0,0-1.47.767,4.873,4.873,0,0,0-.5,2.4v3.46a5.466,5.466,0,0,0,.474,2.586,1.612,1.612,0,0,0,1.519.846,1.585,1.585,0,0,0,1.494-.811,5.335,5.335,0,0,0,.479-2.483ZM26.489,21H23.667V10.121L20.3,11.166V8.871l5.889-2.109h.3Z" transform="translate(53.639 21.235) rotate(90)" fill="#12263f"/>
      <path id="Trazado_113388" data-name="Trazado 113388" d="M17.729,15.121a7.2,7.2,0,0,1-1.221,4.512A4.261,4.261,0,0,1,12.934,21.2,4.291,4.291,0,0,1,9.38,19.662a6.992,6.992,0,0,1-1.26-4.395V12.65A7.109,7.109,0,0,1,9.355,8.129a4.293,4.293,0,0,1,3.56-1.543,4.3,4.3,0,0,1,3.555,1.528,6.97,6.97,0,0,1,1.26,4.39Zm-2.822-2.878a5.207,5.207,0,0,0-.483-2.576,1.634,1.634,0,0,0-1.509-.806,1.6,1.6,0,0,0-1.47.767,4.873,4.873,0,0,0-.5,2.4v3.46a5.466,5.466,0,0,0,.474,2.586,1.612,1.612,0,0,0,1.519.846,1.585,1.585,0,0,0,1.494-.811,5.335,5.335,0,0,0,.479-2.483ZM29.38,21H19.633V19.066l4.6-4.9a11.347,11.347,0,0,0,1.4-1.807,2.9,2.9,0,0,0,.454-1.465A2.172,2.172,0,0,0,25.61,9.4a1.727,1.727,0,0,0-1.367-.542,1.863,1.863,0,0,0-1.509.659,2.611,2.611,0,0,0-.552,1.733H19.35a4.661,4.661,0,0,1,.62-2.373A4.371,4.371,0,0,1,21.723,7.2a5.328,5.328,0,0,1,2.568-.61A5.045,5.045,0,0,1,27.7,7.641a3.731,3.731,0,0,1,1.216,2.979,4.781,4.781,0,0,1-.547,2.148A11.939,11.939,0,0,1,26.5,15.316l-3.232,3.408H29.38Z" transform="translate(53.639 114.969) rotate(90)" fill="#12263f"/>
      <path id="Trazado_113389" data-name="Trazado 113389" d="M17.729,15.121a7.2,7.2,0,0,1-1.221,4.512A4.261,4.261,0,0,1,12.934,21.2,4.291,4.291,0,0,1,9.38,19.662a6.992,6.992,0,0,1-1.26-4.395V12.65A7.109,7.109,0,0,1,9.355,8.129a4.293,4.293,0,0,1,3.56-1.543,4.3,4.3,0,0,1,3.555,1.528,6.97,6.97,0,0,1,1.26,4.39Zm-2.822-2.878a5.207,5.207,0,0,0-.483-2.576,1.634,1.634,0,0,0-1.509-.806,1.6,1.6,0,0,0-1.47.767,4.873,4.873,0,0,0-.5,2.4v3.46a5.466,5.466,0,0,0,.474,2.586,1.612,1.612,0,0,0,1.519.846,1.585,1.585,0,0,0,1.494-.811,5.335,5.335,0,0,0,.479-2.483Zm7.6.4h1.5A2.119,2.119,0,0,0,25.6,12.1a1.968,1.968,0,0,0,.518-1.426,1.74,1.74,0,0,0-.513-1.338,1.987,1.987,0,0,0-1.411-.479,2.083,2.083,0,0,0-1.357.444,1.421,1.421,0,0,0-.547,1.157H19.467a3.471,3.471,0,0,1,.6-2,4,4,0,0,1,1.68-1.382,5.606,5.606,0,0,1,2.378-.5,5.316,5.316,0,0,1,3.535,1.079,3.682,3.682,0,0,1,1.279,2.974,2.992,2.992,0,0,1-.6,1.8,3.87,3.87,0,0,1-1.562,1.26,3.533,3.533,0,0,1,1.792,1.289,3.5,3.5,0,0,1,.591,2.031,3.743,3.743,0,0,1-1.382,3.037A5.556,5.556,0,0,1,24.126,21.2a5.268,5.268,0,0,1-3.481-1.123A3.668,3.668,0,0,1,19.292,17.1h2.822a1.635,1.635,0,0,0,.6,1.309,2.505,2.505,0,0,0,3.057-.024,1.837,1.837,0,0,0,.571-1.411q0-2.129-2.344-2.129H22.5Z" transform="translate(53.639 206.702) rotate(90)" fill="#12263f"/>
      <path id="Trazado_113390" data-name="Trazado 113390" d="M17.729,15.121a7.2,7.2,0,0,1-1.221,4.512A4.261,4.261,0,0,1,12.934,21.2,4.291,4.291,0,0,1,9.38,19.662a6.992,6.992,0,0,1-1.26-4.395V12.65A7.109,7.109,0,0,1,9.355,8.129a4.293,4.293,0,0,1,3.56-1.543,4.3,4.3,0,0,1,3.555,1.528,6.97,6.97,0,0,1,1.26,4.39Zm-2.822-2.878a5.207,5.207,0,0,0-.483-2.576,1.634,1.634,0,0,0-1.509-.806,1.6,1.6,0,0,0-1.47.767,4.873,4.873,0,0,0-.5,2.4v3.46a5.466,5.466,0,0,0,.474,2.586,1.612,1.612,0,0,0,1.519.846,1.585,1.585,0,0,0,1.494-.811,5.335,5.335,0,0,0,.479-2.483Zm13.076,3.4h1.611v2.275H27.983V21H25.161V17.924h-5.83L19.2,16.146l5.928-9.365h2.852Zm-5.967,0h3.145v-5.02l-.186.322Z" transform="translate(53.639 297.5) rotate(90)" fill="#12263f"/>
      <path id="Trazado_113391" data-name="Trazado 113391" d="M17.729,15.121a7.2,7.2,0,0,1-1.221,4.512A4.261,4.261,0,0,1,12.934,21.2,4.291,4.291,0,0,1,9.38,19.662a6.992,6.992,0,0,1-1.26-4.395V12.65A7.109,7.109,0,0,1,9.355,8.129a4.293,4.293,0,0,1,3.56-1.543,4.3,4.3,0,0,1,3.555,1.528,6.97,6.97,0,0,1,1.26,4.39Zm-2.822-2.878a5.207,5.207,0,0,0-.483-2.576,1.634,1.634,0,0,0-1.509-.806,1.6,1.6,0,0,0-1.47.767,4.873,4.873,0,0,0-.5,2.4v3.46a5.466,5.466,0,0,0,.474,2.586,1.612,1.612,0,0,0,1.519.846,1.585,1.585,0,0,0,1.494-.811,5.335,5.335,0,0,0,.479-2.483Zm5.146,1.764.82-7.227h7.969V9.135H23.188l-.352,3.057a4.474,4.474,0,0,1,2.139-.537,4.1,4.1,0,0,1,3.184,1.26,5.032,5.032,0,0,1,1.152,3.525,5.155,5.155,0,0,1-.581,2.466,4.1,4.1,0,0,1-1.665,1.689,5.2,5.2,0,0,1-2.559.6,5.52,5.52,0,0,1-2.393-.522,4.244,4.244,0,0,1-1.743-1.47,4.006,4.006,0,0,1-.679-2.158h2.793a2.086,2.086,0,0,0,.62,1.382,1.966,1.966,0,0,0,1.392.493,1.735,1.735,0,0,0,1.475-.688,3.189,3.189,0,0,0,.518-1.948,2.637,2.637,0,0,0-.6-1.855,2.186,2.186,0,0,0-1.689-.645,2.443,2.443,0,0,0-1.631.527l-.273.254Z" transform="translate(53.639 388.233) rotate(90)" fill="#12263f"/>
    </g>
  </g>
</svg>
