<svg xmlns="http://www.w3.org/2000/svg" xmlns:xlink="http://www.w3.org/1999/xlink" width="820" height="613" viewBox="0 0 820 613">
  <defs>
    <clipPath id="clip-path">
      <rect id="Rectángulo_7063" data-name="Rectángulo 7063" width="435.5" height="537.594" fill="none"/>
    </clipPath>
  </defs>
  <g id="Grupo_87891" data-name="Grupo 87891" transform="translate(-3729 9617)">
    <rect id="Rectángulo_7064" data-name="Rectángulo 7064" width="820" height="613" transform="translate(3729 -9617)" fill="#fbfbfb"/>
    <g id="Grupo_87809" data-name="Grupo 87809" transform="translate(3921 -9579)">
      <g id="Grupo_87807" data-name="Grupo 87807" clip-path="url(#clip-path)">
        <path id="Trazado_112647" data-name="Trazado 112647" d="M75.884.783,142,33.273s-27.929,75.238-12.54,106.588c0,0,5.13,23.94,44.46,27.929,0,0-14.251,55.289-20.52,139.647,0,0,37.049,92.9,41.039,161.015,0,0-59.848-25.358-81.507-21.938s-62.7,18.227-67.829,21.938l-8.549,68.69H11.476V86.282S49.1,85.142,56.5,70.891,73.6,42.392,75.884.783Z" transform="translate(-0.483 -0.033)" fill="none" stroke="#000" stroke-miterlimit="10" stroke-width="1"/>
        <path id="Trazado_112648" data-name="Trazado 112648" d="M137.607,30.241S101.269,117.73,117.8,152.5s31.343,36.7,54.716,42.859" transform="translate(-4.779 -1.273)" fill="none" stroke="#000" stroke-miterlimit="10" stroke-width="1"/>
        <path id="Trazado_112649" data-name="Trazado 112649" d="M109.192,17.869S78.163,106.38,57.644,126.9s-26.61,21.09-46.169,22.23" transform="translate(-0.483 -0.752)" fill="none" stroke="#000" stroke-miterlimit="10" stroke-width="1"/>
        <path id="Trazado_112650" data-name="Trazado 112650" d="M170.19,367.231s-55.432,14.364-92.633,89.013-39.9,96.328-39.9,96.328" transform="translate(-1.586 -15.463)" fill="none" stroke="#000" stroke-miterlimit="10" stroke-width="1"/>
        <circle id="Elipse_6225" data-name="Elipse 6225" cx="51.869" cy="51.869" r="51.869" transform="translate(23.983 116.663)" fill="none" stroke="#000" stroke-miterlimit="10" stroke-width="1"/>
        <path id="Trazado_112651" data-name="Trazado 112651" d="M391.263.783s4.359,12.988,46.315,12.443L417.962,307.46l27.788,226.669-27.244,3.013s-57.756-14.455-87.725-28.623-61.571-27.282-74.649-40.068c0,0,6.785-58.507,24.1-116.652a412.6,412.6,0,0,1,16.219-45.429s-8.719-91.441-21.8-137.805c0,0,35.417-8.768,38.142-32.2s2.724-70.834-5.995-102.982Z" transform="translate(-10.785 -0.033)" fill="none" stroke="#000" stroke-miterlimit="10" stroke-width="1"/>
        <path id="Trazado_112652" data-name="Trazado 112652" d="M421.757,552.329a587.786,587.786,0,0,0-65.134-80.8s-30.517-32.006-46.52-57.314S281.3,367.23,281.3,367.23" transform="translate(-11.845 -15.463)" fill="none" stroke="#000" stroke-miterlimit="10" stroke-width="1"/>
        <path id="Trazado_112653" data-name="Trazado 112653" d="M423.981,280.365S386.9,277.4,380.573,227.527,355.11,17.032,355.11,17.032" transform="translate(-14.953 -0.717)" fill="none" stroke="#000" stroke-miterlimit="10" stroke-width="1"/>
        <path id="Trazado_112654" data-name="Trazado 112654" d="M324.038,28.31s16.6,76.879,12.136,107.024-11.733,51.037-54.434,59.944" transform="translate(-11.863 -1.192)" fill="none" stroke="#000" stroke-miterlimit="10" stroke-width="1"/>
        <path id="Trazado_112655" data-name="Trazado 112655" d="M350.656,141.817V441.734l7.155-14.907" transform="translate(-14.765 -5.972)" fill="none" stroke="#000" stroke-miterlimit="10" stroke-width="1"/>
        <path id="Trazado_112656" data-name="Trazado 112656" d="M45.647,205.931V466.5L52.8,453.545" transform="translate(-1.922 -8.671)" fill="none" stroke="#000" stroke-miterlimit="10" stroke-width="1"/>
        <line id="Línea_211" data-name="Línea 211" x2="51.869" transform="translate(23.983 168.532)" fill="none" stroke="#000" stroke-miterlimit="10" stroke-width="1"/>
        <path id="Trazado_112657" data-name="Trazado 112657" d="M114.421,13.726V6.234h2.448a2.842,2.842,0,0,1,1.834.5,1.817,1.817,0,0,1,.615,1.491,1.525,1.525,0,0,1-.3.929,1.93,1.93,0,0,1-.813.625,1.741,1.741,0,0,1,.959.646,1.852,1.852,0,0,1,.353,1.135,2,2,0,0,1-.654,1.584,2.7,2.7,0,0,1-1.847.577Zm.988-4.3H116.9a1.563,1.563,0,0,0,1.036-.325,1.089,1.089,0,0,0,.388-.881,1.07,1.07,0,0,0-.36-.9,1.763,1.763,0,0,0-1.1-.281h-1.461Zm0,.792v2.7h1.631a1.566,1.566,0,0,0,1.087-.357,1.254,1.254,0,0,0,.4-.985q0-1.354-1.471-1.354Z" transform="translate(-4.818 -0.262)"/>
        <path id="Trazado_112658" data-name="Trazado 112658" d="M145.723,25.012h-3.139l-.7,1.961h-1.019l2.86-7.492h.865l2.866,7.492h-1.014Zm-2.84-.807h2.547l-1.276-3.5Z" transform="translate(-5.931 -0.82)"/>
        <path id="Trazado_112659" data-name="Trazado 112659" d="M353.447,9.81h4.286v.808h-5.453v-.74l4.106-5.943h-4.038V3.127h5.221v.72Z" transform="translate(-14.834 -0.132)"/>
        <path id="Trazado_112660" data-name="Trazado 112660" d="M325.59,18.078l1.955-3.761h1.122l-2.582,4.7v2.793H325.1V19.014l-2.582-4.7h1.132Z" transform="translate(-13.58 -0.603)"/>
        <path id="Trazado_112661" data-name="Trazado 112661" d="M272.689,204.151l1.8-2.871h1.162L273.281,205l2.422,3.776h-1.172l-1.842-2.923-1.853,2.923h-1.168L272.1,205l-2.372-3.715h1.158Z" transform="translate(-11.355 -8.475)"/>
        <path id="Trazado_112662" data-name="Trazado 112662" d="M436.268,297.5l.144.988.212-.89,1.481-5.227h.834l1.445,5.227.206.905.159-1.008,1.163-5.125h.993l-1.816,7.491h-.9l-1.544-5.458-.118-.572-.119.572-1.6,5.458h-.9l-1.811-7.491h.989Z" transform="translate(-18.279 -12.311)"/>
        <path id="Trazado_112663" data-name="Trazado 112663" d="M277.221,363.874h-2.408v6.683h-.983v-6.683h-2.4v-.808h5.793Z" transform="translate(-11.429 -15.288)"/>
        <path id="Trazado_112664" data-name="Trazado 112664" d="M5.757,157.813H4.764V154.35H.988v3.463H0v-7.491H.988v3.22H4.764v-3.22h.993Z" transform="translate(0 -6.33)"/>
        <path id="Trazado_112665" data-name="Trazado 112665" d="M36.689,167.52H33.546v3.309h-.988v-7.492H37.2v.808H33.546v2.567h3.144Z" transform="translate(-1.371 -6.878)"/>
        <path id="Trazado_112666" data-name="Trazado 112666" d="M181.311,210.538v-7.491h2.114a3.4,3.4,0,0,1,1.729.432,2.914,2.914,0,0,1,1.16,1.23,4,4,0,0,1,.415,1.831v.478a4.024,4.024,0,0,1-.409,1.857,2.887,2.887,0,0,1-1.169,1.225,3.62,3.62,0,0,1-1.767.437Zm.988-6.683v5.876h1.039a2.26,2.26,0,0,0,1.778-.711,2.938,2.938,0,0,0,.635-2.024v-.438a2.979,2.979,0,0,0-.6-1.985,2.132,2.132,0,0,0-1.7-.718Z" transform="translate(-7.635 -8.55)"/>
        <rect id="Rectángulo_7062" data-name="Rectángulo 7062" width="0.988" height="7.491" transform="translate(175.28 350.338)"/>
        <path id="Trazado_112667" data-name="Trazado 112667" d="M37.737,319.828H34.023v3.91H32.855v-8.853h5.484v.954H34.023v3.035h3.715Z" transform="translate(-1.383 -13.259)"/>
        <path id="Trazado_112668" data-name="Trazado 112668" d="M43.287,320.156h-2.08v3.582H40.034v-8.853h2.93a3.465,3.465,0,0,1,2.3.681,2.448,2.448,0,0,1,.806,1.982,2.384,2.384,0,0,1-.446,1.441,2.672,2.672,0,0,1-1.244.919l2.08,3.758v.073H45.209Zm-2.08-.954H43a2.023,2.023,0,0,0,1.383-.451,1.524,1.524,0,0,0,.513-1.205,1.6,1.6,0,0,0-.489-1.262,2.074,2.074,0,0,0-1.414-.445H41.207Z" transform="translate(-1.686 -13.259)"/>
        <path id="Trazado_112669" data-name="Trazado 112669" d="M54.849,323.738H53.675l-4.457-6.822v6.822H48.045v-8.853h1.173l4.47,6.852v-6.852h1.161Z" transform="translate(-2.023 -13.259)"/>
        <path id="Trazado_112670" data-name="Trazado 112670" d="M41.189,336.736H40.058v-7.5l-2.267.833v-1.021l3.222-1.211h.176Z" transform="translate(-1.591 -13.805)"/>
        <path id="Trazado_112671" data-name="Trazado 112671" d="M50.328,332.956a5.154,5.154,0,0,1-.674,2.938,2.8,2.8,0,0,1-4.208.021,4.885,4.885,0,0,1-.705-2.806v-1.5a5.034,5.034,0,0,1,.674-2.9,2.856,2.856,0,0,1,4.22-.033,4.855,4.855,0,0,1,.693,2.824ZM49.2,331.418a4.121,4.121,0,0,0-.4-2.082,1.381,1.381,0,0,0-1.271-.653,1.364,1.364,0,0,0-1.259.649,4.036,4.036,0,0,0-.407,2v1.8a4.187,4.187,0,0,0,.417,2.119,1.377,1.377,0,0,0,1.262.684,1.36,1.36,0,0,0,1.238-.645,4.042,4.042,0,0,0,.422-2.031Z" transform="translate(-1.884 -13.801)"/>
        <path id="Trazado_112672" data-name="Trazado 112672" d="M36.724,346.094a9.408,9.408,0,0,1,.368-2.639,7.657,7.657,0,0,1,1.1-2.3A4.683,4.683,0,0,1,39.7,339.7l.232.742a4.838,4.838,0,0,0-1.456,2.08,9,9,0,0,0-.624,3.131l-.007.516a9.067,9.067,0,0,0,.857,4.074,4.863,4.863,0,0,0,1.229,1.618l-.232.687a4.817,4.817,0,0,1-1.544-1.508,8.457,8.457,0,0,1-1.435-4.944" transform="translate(-1.546 -14.304)"/>
        <path id="Trazado_112673" data-name="Trazado 112673" d="M44.8,349.736H43.67v-7.5l-2.267.833v-1.021l3.222-1.211H44.8Z" transform="translate(-1.743 -14.352)"/>
        <path id="Trazado_112674" data-name="Trazado 112674" d="M51.081,346.155a9.389,9.389,0,0,1-.356,2.6,7.694,7.694,0,0,1-1.087,2.3,4.8,4.8,0,0,1-1.536,1.5l-.238-.688a4.883,4.883,0,0,0,1.5-2.228,9.627,9.627,0,0,0,.58-3.354v-.194a10.021,10.021,0,0,0-.267-2.375,7.982,7.982,0,0,0-.745-1.967,4.516,4.516,0,0,0-1.073-1.355l.238-.688a4.755,4.755,0,0,1,1.529,1.484,7.692,7.692,0,0,1,1.089,2.292,9.647,9.647,0,0,1,.361,2.681" transform="translate(-2.015 -14.304)"/>
        <path id="Trazado_112675" data-name="Trazado 112675" d="M345.082,278.185h-3.836v3.137H345.7v.955h-5.624v-8.853h5.563v.954h-4.4v2.852h3.836Z" transform="translate(-14.32 -11.513)"/>
        <path id="Trazado_112676" data-name="Trazado 112676" d="M350.052,278.326a5.465,5.465,0,0,1-2.186-1.061,2.021,2.021,0,0,1-.684-1.553,2.142,2.142,0,0,1,.835-1.731,3.329,3.329,0,0,1,2.174-.684,3.625,3.625,0,0,1,1.626.353,2.676,2.676,0,0,1,1.106.972,2.5,2.5,0,0,1,.393,1.356h-1.173a1.621,1.621,0,0,0-.512-1.266,2.076,2.076,0,0,0-1.441-.461,2.118,2.118,0,0,0-1.347.381,1.266,1.266,0,0,0-.485,1.057,1.144,1.144,0,0,0,.461.917,4.483,4.483,0,0,0,1.561.685,7.255,7.255,0,0,1,1.726.685,2.6,2.6,0,0,1,.924.873,2.213,2.213,0,0,1,.3,1.173,2.067,2.067,0,0,1-.839,1.724,3.581,3.581,0,0,1-2.244.648,4.156,4.156,0,0,1-1.7-.351,2.865,2.865,0,0,1-1.218-.957,2.34,2.34,0,0,1-.429-1.38h1.173a1.522,1.522,0,0,0,.594,1.267,2.494,2.494,0,0,0,1.582.466,2.291,2.291,0,0,0,1.418-.377,1.226,1.226,0,0,0,.492-1.027,1.206,1.206,0,0,0-.455-1.007,5.292,5.292,0,0,0-1.654-.7" transform="translate(-14.607 -11.508)"/>
        <path id="Trazado_112677" data-name="Trazado 112677" d="M356.346,278.812v3.466h-1.168v-8.853h3.265a3.281,3.281,0,0,1,2.277.741,2.513,2.513,0,0,1,.824,1.964,2.482,2.482,0,0,1-.806,1.986,3.429,3.429,0,0,1-2.308.7Zm0-.955h2.1a2.1,2.1,0,0,0,1.435-.442,1.613,1.613,0,0,0,.5-1.276,1.669,1.669,0,0,0-.5-1.267,1.969,1.969,0,0,0-1.368-.493h-2.165Z" transform="translate(-14.956 -11.513)"/>
        <path id="Trazado_112678" data-name="Trazado 112678" d="M347.834,295.275H346.7v-7.5l-2.267.833V287.59l3.222-1.211h.176Z" transform="translate(-14.503 -12.059)"/>
        <path id="Trazado_112679" data-name="Trazado 112679" d="M356.973,291.5a5.152,5.152,0,0,1-.674,2.937,2.8,2.8,0,0,1-4.208.021,4.883,4.883,0,0,1-.705-2.806v-1.5a5.035,5.035,0,0,1,.674-2.9,2.856,2.856,0,0,1,4.22-.034,4.857,4.857,0,0,1,.693,2.825Zm-1.125-1.538a4.123,4.123,0,0,0-.4-2.082,1.381,1.381,0,0,0-1.271-.653,1.362,1.362,0,0,0-1.259.65,4.029,4.029,0,0,0-.407,2v1.8a4.185,4.185,0,0,0,.417,2.119,1.377,1.377,0,0,0,1.262.684,1.36,1.36,0,0,0,1.238-.645,4.042,4.042,0,0,0,.422-2.031Z" transform="translate(-14.796 -12.055)"/>
        <path id="Trazado_112680" data-name="Trazado 112680" d="M343.369,304.634a9.4,9.4,0,0,1,.368-2.639,7.657,7.657,0,0,1,1.1-2.3,4.674,4.674,0,0,1,1.513-1.46l.232.742a4.832,4.832,0,0,0-1.456,2.08,9.005,9.005,0,0,0-.624,3.131l-.007.516a9.073,9.073,0,0,0,.857,4.074,4.873,4.873,0,0,0,1.229,1.618l-.232.687a4.817,4.817,0,0,1-1.544-1.508,8.459,8.459,0,0,1-1.435-4.944" transform="translate(-14.458 -12.558)"/>
        <path id="Trazado_112681" data-name="Trazado 112681" d="M351.446,308.275h-1.131v-7.5l-2.267.833V300.59l3.222-1.211h.176Z" transform="translate(-14.655 -12.606)"/>
        <path id="Trazado_112682" data-name="Trazado 112682" d="M357.726,304.694a9.381,9.381,0,0,1-.356,2.6,7.689,7.689,0,0,1-1.087,2.3,4.784,4.784,0,0,1-1.535,1.5l-.238-.687a4.886,4.886,0,0,0,1.5-2.229,9.617,9.617,0,0,0,.581-3.353v-.194a10.023,10.023,0,0,0-.267-2.375,7.966,7.966,0,0,0-.745-1.967,4.533,4.533,0,0,0-1.073-1.356l.238-.687a4.755,4.755,0,0,1,1.529,1.484,7.692,7.692,0,0,1,1.089,2.292,9.643,9.643,0,0,1,.361,2.681" transform="translate(-14.928 -12.558)"/>
      </g>
    </g>
  </g>
</svg>
