<svg id="Grupo_87805" data-name="Grupo 87805" xmlns="http://www.w3.org/2000/svg" xmlns:xlink="http://www.w3.org/1999/xlink" width="656" height="402.366" viewBox="0 0 656 402.366">
  <defs>
    <clipPath id="clip-path">
      <rect id="Rectángulo_7060" data-name="Rectángulo 7060" width="656" height="402.366" fill="none"/>
    </clipPath>
  </defs>
  <g id="Grupo_87804" data-name="Grupo 87804" clip-path="url(#clip-path)">
    <path id="Trazado_112547" data-name="Trazado 112547" d="M43.935,399.453a.357.357,0,0,1-.353-.4c.038-.315,3.983-31.828,24.848-57.447,18.214-22.365,42.888-35.3,49.04-38.309H21.784v-.71H118.64l-10.866-80.035a.356.356,0,0,1,0-.116l17.5-89.91c-10.217-1.059-20.88-4.68-23.367-22.639-2.257-16.3,4.735-49.877,5.527-53.594L52.976,42.089c-.8,2.92-6.356,22.155-15.178,26.355-9.3,4.432-15.8,3.4-16.073,3.355l.118-.7c.065.011,6.566,1.031,15.65-3.3,9.056-4.312,14.831-26.019,14.889-26.238a.357.357,0,0,1,.433-.253L107.948,55.7a.354.354,0,0,1,.257.419c-.079.365-7.949,36.627-5.588,53.678,2.451,17.7,13.064,21.088,23.122,22.069a.355.355,0,0,1,.314.422l-17.568,90.235L119.4,302.9c0,.013,0,.026,0,.038v0a.372.372,0,0,1-.014.109h0v0h0v0h0a.357.357,0,0,1-.058.11l-75.11,96.152a.356.356,0,0,1-.28.137m73.909-95.545c-5.987,2.918-30.668,15.808-48.864,38.149-18.319,22.494-23.513,49.55-24.5,55.768Z" transform="translate(-6.306 -11.989)"/>
    <path id="Trazado_112548" data-name="Trazado 112548" d="M256.632,391.619l-74.259-96.726.019-.145,10.524-80.858L175.155,123.8l.394-.035c.188-.016,18.827-1.979,20.6-29.835,1.788-28.159-2.221-65.2-2.262-65.57l-.034-.312,56.013-13.26.131.234c.055.1,5.7,10,16.889,10H279.6v.71H266.881c-10.632,0-16.422-8.6-17.371-10.134L194.621,28.6c.385,3.661,3.935,38.538,2.231,65.38C195.188,120.2,178.758,123.974,176,124.423l17.634,89.444-.007.057-10.512,80.77,74.08,96.493Z" transform="translate(-50.844 -4.294)"/>
    <path id="Trazado_112549" data-name="Trazado 112549" d="M253.753,498.5c-2.375-3.093-7.171-7.079-12.725-11.693-7.83-6.506-17.574-14.6-25.091-23.952-12.731-15.836-30.461-53.159-30.639-53.534l-.24-.507h97.421v.71h-96.3c2.172,4.532,18.438,38.121,30.309,52.886,7.471,9.294,17.185,17.365,24.991,23.852,5.587,4.642,10.412,8.649,12.835,11.806Z" transform="translate(-53.718 -118.67)"/>
    <rect id="Rectángulo_7051" data-name="Rectángulo 7051" width="8.292" height="0.71" transform="matrix(0.809, -0.588, 0.588, 0.809, 162.287, 343.677)"/>
    <rect id="Rectángulo_7052" data-name="Rectángulo 7052" width="0.709" height="15.742" transform="translate(62.191 330.131) rotate(-54.03)"/>
    <rect id="Rectángulo_7053" data-name="Rectángulo 7053" width="86.329" height="0.71" transform="translate(142.432 209.229)"/>
    <rect id="Rectángulo_7054" data-name="Rectángulo 7054" width="104.025" height="0.71" transform="translate(124.736 119.474)"/>
    <rect id="Rectángulo_7055" data-name="Rectángulo 7055" width="103.92" height="0.71" transform="translate(15.478 119.872)"/>
    <rect id="Rectángulo_7056" data-name="Rectángulo 7056" width="86.341" height="0.71" transform="translate(15.478 210.164)"/>
    <path id="Trazado_112550" data-name="Trazado 112550" d="M235.3,391.779H21.309V33.628H149.185V14.865H235.3Zm-213.283-.71H234.592V15.575h-84.7V124.144h-.71V34.338H22.019Z" transform="translate(-6.186 -4.315)"/>
    <rect id="Rectángulo_7057" data-name="Rectángulo 7057" width="0.71" height="90.559" transform="translate(100.057 29.668)"/>
    <rect id="Rectángulo_7058" data-name="Rectángulo 7058" width="4.571" height="0.71" transform="translate(95.841 81.524)"/>
    <path id="Trazado_112551" data-name="Trazado 112551" d="M97.99,280.815V117.357h.71V277.094l4.683-11.831.66.262Z" transform="translate(-28.445 -34.066)"/>
    <path id="Trazado_112552" data-name="Trazado 112552" d="M62.982,30.76l.308-3.018h3.1v.711H63.943L63.76,30.1a1.947,1.947,0,0,1,1.011-.262,1.671,1.671,0,0,1,1.314.546,2.145,2.145,0,0,1,.487,1.479,2.072,2.072,0,0,1-.505,1.474,1.842,1.842,0,0,1-1.412.539,1.91,1.91,0,0,1-1.309-.446,1.775,1.775,0,0,1-.578-1.231h.728a1.221,1.221,0,0,0,.37.784,1.148,1.148,0,0,0,.79.264,1.04,1.04,0,0,0,.842-.366,1.531,1.531,0,0,0,.306-1.011,1.4,1.4,0,0,0-.331-.974,1.124,1.124,0,0,0-.879-.368,1.266,1.266,0,0,0-.791.22l-.2.167Z" transform="translate(-18.22 -8.053)"/>
    <path id="Trazado_112553" data-name="Trazado 112553" d="M12.362,42.444h-.774V37.316l-1.551.57v-.7l2.2-.828h.121Z" transform="translate(-2.914 -10.555)"/>
    <path id="Trazado_112554" data-name="Trazado 112554" d="M12.789,81.576v.653h-.141a2.028,2.028,0,0,0-1.431.532,2.215,2.215,0,0,0-.615,1.451,1.64,1.64,0,0,1,1.306-.549,1.568,1.568,0,0,1,1.262.557,2.442,2.442,0,0,1-.038,2.936,1.754,1.754,0,0,1-1.366.561,1.729,1.729,0,0,1-1.41-.668,2.644,2.644,0,0,1-.541-1.72v-.3a3.985,3.985,0,0,1,.713-2.555,2.621,2.621,0,0,1,2.123-.9ZM11.778,84.3a1.294,1.294,0,0,0-1.189.832v.282a1.986,1.986,0,0,0,.337,1.207,1.01,1.01,0,0,0,.84.457.98.98,0,0,0,.818-.383,1.837,1.837,0,0,0,0-2.011.967.967,0,0,0-.8-.385" transform="translate(-2.849 -23.68)"/>
    <path id="Trazado_112555" data-name="Trazado 112555" d="M116.938,116.008h-.774v-5.128l-1.551.57v-.7l2.2-.828h.121Z" transform="translate(-33.27 -31.909)"/>
    <path id="Trazado_112556" data-name="Trazado 112556" d="M123.676,116.008H122.9v-5.128l-1.551.57v-.7l2.2-.828h.121Z" transform="translate(-35.226 -31.909)"/>
    <path id="Trazado_112557" data-name="Trazado 112557" d="M150.7,116.008h-.774v-5.128l-1.551.57v-.7l2.2-.828h.121Z" transform="translate(-43.07 -31.909)"/>
    <path id="Trazado_112558" data-name="Trazado 112558" d="M158.613,113.4a3.521,3.521,0,0,1-.461,2.008,1.918,1.918,0,0,1-2.878.015,3.34,3.34,0,0,1-.483-1.919V112.48a3.437,3.437,0,0,1,.462-1.984,1.652,1.652,0,0,1,1.447-.649,1.671,1.671,0,0,1,1.439.625,3.321,3.321,0,0,1,.474,1.932Zm-.769-1.052a2.818,2.818,0,0,0-.275-1.424.945.945,0,0,0-.869-.447.932.932,0,0,0-.861.445,2.754,2.754,0,0,0-.279,1.368v1.231a2.86,2.86,0,0,0,.285,1.449.941.941,0,0,0,.862.468.931.931,0,0,0,.847-.441,2.76,2.76,0,0,0,.289-1.389Z" transform="translate(-44.933 -31.887)"/>
    <path id="Trazado_112559" data-name="Trazado 112559" d="M151.586,60.418a1.877,1.877,0,0,1-.576.461,1.562,1.562,0,0,1-.734.175,1.614,1.614,0,0,1-.913-.258,1.682,1.682,0,0,1-.6-.725,2.478,2.478,0,0,1-.212-1.033,2.517,2.517,0,0,1,.231-1.094,1.694,1.694,0,0,1,.655-.744,1.867,1.867,0,0,1,.989-.258,1.69,1.69,0,0,1,1.416.671,2.926,2.926,0,0,1,.518,1.832v.224a3.912,3.912,0,0,1-.7,2.581,2.683,2.683,0,0,1-2.108.834h-.15v-.653h.162a1.832,1.832,0,0,0,2.021-2.013m-1.185,0a1.187,1.187,0,0,0,.713-.237,1.4,1.4,0,0,0,.476-.586v-.308a2.119,2.119,0,0,0-.329-1.231,1,1,0,0,0-1.647-.085A1.6,1.6,0,0,0,149.308,59a1.672,1.672,0,0,0,.3,1.021.941.941,0,0,0,.8.4" transform="translate(-43.121 -16.529)"/>
    <path id="Trazado_112560" data-name="Trazado 112560" d="M165.394,156.628h.84v.628h-.84v1.405h-.774v-1.405h-2.757V156.8l2.711-4.2h.819Zm-2.657,0h1.884v-2.969l-.092.167Z" transform="translate(-46.986 -44.299)"/>
    <path id="Trazado_112561" data-name="Trazado 112561" d="M144.483,177.508l-2.507,5.622h-.807l2.5-5.423h-3.277v-.632h4.092Z" transform="translate(-40.753 -51.401)"/>
    <path id="Trazado_112562" data-name="Trazado 112562" d="M198.577,183.1h-3.967v-.553l2.1-2.329a4.954,4.954,0,0,0,.643-.859,1.43,1.43,0,0,0,.177-.683,1.085,1.085,0,0,0-.287-.778,1,1,0,0,0-.765-.3,1.191,1.191,0,0,0-.892.326,1.247,1.247,0,0,0-.318.908h-.769a1.786,1.786,0,0,1,.539-1.351,2,2,0,0,1,1.441-.515,1.919,1.919,0,0,1,1.335.443,1.51,1.51,0,0,1,.49,1.179,3.463,3.463,0,0,1-1.139,2.129l-1.622,1.759h3.04Z" transform="translate(-56.457 -51.367)"/>
    <path id="Trazado_112563" data-name="Trazado 112563" d="M205.23,177.508l-2.507,5.622h-.807l2.5-5.423h-3.277v-.632h4.092Z" transform="translate(-58.386 -51.401)"/>
    <path id="Trazado_112564" data-name="Trazado 112564" d="M183.429,293.841h.578a1.272,1.272,0,0,0,.857-.287.96.96,0,0,0,.312-.753.939.939,0,0,0-1.06-1.065,1.1,1.1,0,0,0-.8.285.994.994,0,0,0-.3.754h-.769a1.546,1.546,0,0,1,.526-1.2,1.917,1.917,0,0,1,1.337-.475,1.892,1.892,0,0,1,1.343.453,1.639,1.639,0,0,1,.487,1.26,1.33,1.33,0,0,1-.255.765,1.552,1.552,0,0,1-.7.553,1.489,1.489,0,0,1,.771.524,1.456,1.456,0,0,1,.273.894,1.651,1.651,0,0,1-.532,1.293,1.992,1.992,0,0,1-1.385.478,2.047,2.047,0,0,1-1.387-.461,1.532,1.532,0,0,1-.534-1.219h.773a.989.989,0,0,0,.312.765,1.184,1.184,0,0,0,.836.287,1.163,1.163,0,0,0,.852-.291,1.122,1.122,0,0,0,.3-.835,1.017,1.017,0,0,0-.324-.811,1.413,1.413,0,0,0-.936-.291h-.578Z" transform="translate(-52.888 -84.502)"/>
    <path id="Trazado_112565" data-name="Trazado 112565" d="M190.167,293.841h.578a1.272,1.272,0,0,0,.857-.287.96.96,0,0,0,.312-.753.939.939,0,0,0-1.06-1.065,1.1,1.1,0,0,0-.8.285.994.994,0,0,0-.3.754h-.769a1.546,1.546,0,0,1,.526-1.2,1.917,1.917,0,0,1,1.337-.475,1.892,1.892,0,0,1,1.343.453,1.639,1.639,0,0,1,.487,1.26,1.33,1.33,0,0,1-.255.765,1.552,1.552,0,0,1-.7.553,1.489,1.489,0,0,1,.771.524,1.456,1.456,0,0,1,.273.894,1.651,1.651,0,0,1-.532,1.293,1.992,1.992,0,0,1-1.385.478,2.047,2.047,0,0,1-1.387-.461,1.532,1.532,0,0,1-.534-1.219h.773a.989.989,0,0,0,.312.765,1.184,1.184,0,0,0,.836.287,1.163,1.163,0,0,0,.852-.291,1.122,1.122,0,0,0,.3-.835,1.017,1.017,0,0,0-.324-.811,1.413,1.413,0,0,0-.936-.291h-.578Z" transform="translate(-54.844 -84.502)"/>
    <path id="Trazado_112566" data-name="Trazado 112566" d="M153.314,297.265h-.774v-5.128l-1.551.57v-.7l2.2-.828h.121Z" transform="translate(-43.829 -84.524)"/>
    <path id="Trazado_112567" data-name="Trazado 112567" d="M161.361,297.243h-3.967v-.553l2.1-2.329a4.953,4.953,0,0,0,.643-.859,1.43,1.43,0,0,0,.177-.683,1.085,1.085,0,0,0-.287-.778,1,1,0,0,0-.765-.3,1.19,1.19,0,0,0-.892.326,1.247,1.247,0,0,0-.318.908h-.769a1.786,1.786,0,0,1,.539-1.351,2,2,0,0,1,1.441-.515,1.919,1.919,0,0,1,1.335.443,1.509,1.509,0,0,1,.49,1.179,3.463,3.463,0,0,1-1.139,2.129l-1.622,1.759h3.04Z" transform="translate(-45.654 -84.502)"/>
    <path id="Trazado_112568" data-name="Trazado 112568" d="M9.058,297.243H5.09v-.553l2.1-2.329a4.953,4.953,0,0,0,.643-.859,1.43,1.43,0,0,0,.177-.683,1.085,1.085,0,0,0-.287-.778,1,1,0,0,0-.765-.3,1.191,1.191,0,0,0-.892.326,1.247,1.247,0,0,0-.318.908H4.974a1.786,1.786,0,0,1,.539-1.351,2,2,0,0,1,1.441-.515,1.919,1.919,0,0,1,1.335.443,1.509,1.509,0,0,1,.49,1.179,3.463,3.463,0,0,1-1.139,2.129l-1.622,1.759h3.04Z" transform="translate(-1.444 -84.502)"/>
    <path id="Trazado_112569" data-name="Trazado 112569" d="M140.046,401.329h-.774V396.2l-1.551.57v-.7l2.2-.828h.121Z" transform="translate(-39.978 -114.731)"/>
    <path id="Trazado_112570" data-name="Trazado 112570" d="M144.581,398.3l.308-3.019h3.1V396h-2.449l-.183,1.651a1.954,1.954,0,0,1,1.011-.262,1.669,1.669,0,0,1,1.314.547,2.143,2.143,0,0,1,.487,1.478,2.07,2.07,0,0,1-.505,1.474,1.842,1.842,0,0,1-1.412.539,1.913,1.913,0,0,1-1.309-.445,1.778,1.778,0,0,1-.578-1.231h.728a1.223,1.223,0,0,0,.37.784,1.151,1.151,0,0,0,.79.264,1.038,1.038,0,0,0,.842-.366,1.53,1.53,0,0,0,.306-1.011,1.407,1.407,0,0,0-.331-.975,1.127,1.127,0,0,0-.879-.368,1.27,1.27,0,0,0-.791.22l-.2.167Z" transform="translate(-41.906 -114.743)"/>
    <path id="Trazado_112571" data-name="Trazado 112571" d="M71.808,459.523h-.774V454.4l-1.551.57v-.7l2.2-.828h.121Z" transform="translate(-20.17 -131.624)"/>
    <path id="Trazado_112572" data-name="Trazado 112572" d="M79.591,455.026a1.409,1.409,0,0,1-.239.807,1.63,1.63,0,0,1-.647.553,1.74,1.74,0,0,1,.75.595,1.5,1.5,0,0,1,.277.886,1.584,1.584,0,0,1-.53,1.252,2.326,2.326,0,0,1-2.795,0,1.591,1.591,0,0,1-.526-1.25,1.541,1.541,0,0,1,.268-.886,1.675,1.675,0,0,1,.742-.6,1.586,1.586,0,0,1-.637-.553,1.43,1.43,0,0,1-.233-.8,1.565,1.565,0,0,1,.491-1.214,2.082,2.082,0,0,1,2.584,0,1.562,1.562,0,0,1,.493,1.214m-.628,2.824a1.114,1.114,0,0,0-.322-.828,1.143,1.143,0,0,0-.842-.321,1.083,1.083,0,0,0-1.148,1.148,1.074,1.074,0,0,0,.306.811,1.365,1.365,0,0,0,1.7,0,1.072,1.072,0,0,0,.308-.808m-1.156-3.855a.991.991,0,0,0-.734.281,1.16,1.16,0,0,0,0,1.509,1.1,1.1,0,0,0,1.476,0,1.137,1.137,0,0,0-.011-1.5.979.979,0,0,0-.727-.291" transform="translate(-22.027 -131.602)"/>
    <path id="Trazado_112573" data-name="Trazado 112573" d="M2.325,413.086H1.551v-5.128L0,408.529v-.7L2.2,407h.121Z" transform="translate(0 -118.144)"/>
    <path id="Trazado_112574" data-name="Trazado 112574" d="M9.583,411.064h.84v.628h-.84V413.1H8.81v-1.405H6.053v-.454l2.711-4.2h.819Zm-2.657,0H8.81v-2.969l-.092.167Z" transform="translate(-1.757 -118.156)"/>
    <path id="Trazado_112575" data-name="Trazado 112575" d="M7.021,556.772H6.247v-5.128l-1.551.57v-.7l2.2-.828h.121Z" transform="translate(-1.363 -159.853)"/>
    <path id="Trazado_112576" data-name="Trazado 112576" d="M12.221,553.348H12.8a1.272,1.272,0,0,0,.857-.287.96.96,0,0,0,.312-.753.939.939,0,0,0-1.06-1.065,1.1,1.1,0,0,0-.8.285.994.994,0,0,0-.3.754h-.769a1.546,1.546,0,0,1,.526-1.2,1.917,1.917,0,0,1,1.337-.476,1.892,1.892,0,0,1,1.343.453,1.639,1.639,0,0,1,.487,1.26,1.33,1.33,0,0,1-.255.765,1.552,1.552,0,0,1-.7.553,1.489,1.489,0,0,1,.771.524,1.456,1.456,0,0,1,.273.894,1.651,1.651,0,0,1-.532,1.293,1.991,1.991,0,0,1-1.385.478,2.048,2.048,0,0,1-1.387-.461,1.532,1.532,0,0,1-.534-1.219h.773a.989.989,0,0,0,.312.765,1.184,1.184,0,0,0,.836.287,1.163,1.163,0,0,0,.852-.291,1.122,1.122,0,0,0,.3-.835,1.017,1.017,0,0,0-.324-.811,1.413,1.413,0,0,0-.936-.291h-.578Z" transform="translate(-3.19 -159.831)"/>
    <path id="Trazado_112577" data-name="Trazado 112577" d="M49.371,556.772H48.6v-5.128l-1.551.57v-.7l2.2-.828h.121Z" transform="translate(-13.657 -159.853)"/>
    <path id="Trazado_112578" data-name="Trazado 112578" d="M56.535,550.723v.653h-.141a2.028,2.028,0,0,0-1.431.532,2.215,2.215,0,0,0-.615,1.451,1.64,1.64,0,0,1,1.306-.549,1.568,1.568,0,0,1,1.262.557,2.442,2.442,0,0,1-.038,2.936,1.754,1.754,0,0,1-1.366.561,1.729,1.729,0,0,1-1.41-.668,2.644,2.644,0,0,1-.541-1.72v-.3a3.985,3.985,0,0,1,.713-2.555,2.621,2.621,0,0,1,2.123-.9Zm-1.011,2.728a1.294,1.294,0,0,0-1.189.832v.283a1.986,1.986,0,0,0,.337,1.206,1.01,1.01,0,0,0,.84.457.98.98,0,0,0,.818-.383,1.837,1.837,0,0,0,0-2.011.967.967,0,0,0-.8-.385" transform="translate(-15.548 -159.863)"/>
    <path id="Trazado_112579" data-name="Trazado 112579" d="M113.09,489.333h-.774v-5.128l-1.551.57v-.7l2.2-.828h.121Z" transform="translate(-32.153 -140.277)"/>
    <path id="Trazado_112580" data-name="Trazado 112580" d="M121.051,483.723l-2.507,5.622h-.807l2.5-5.423h-3.277v-.632h4.092Z" transform="translate(-33.951 -140.289)"/>
    <path id="Trazado_112581" data-name="Trazado 112581" d="M193.909,397.9h.578a1.272,1.272,0,0,0,.857-.287.96.96,0,0,0,.312-.753.939.939,0,0,0-1.06-1.065,1.1,1.1,0,0,0-.8.285.994.994,0,0,0-.3.754h-.769a1.546,1.546,0,0,1,.526-1.2,1.917,1.917,0,0,1,1.337-.476,1.892,1.892,0,0,1,1.343.453,1.639,1.639,0,0,1,.487,1.26,1.33,1.33,0,0,1-.255.765,1.552,1.552,0,0,1-.7.553,1.489,1.489,0,0,1,.771.524,1.456,1.456,0,0,1,.273.894,1.651,1.651,0,0,1-.532,1.293,1.992,1.992,0,0,1-1.385.478,2.047,2.047,0,0,1-1.387-.461,1.532,1.532,0,0,1-.534-1.219h.773a.989.989,0,0,0,.312.765,1.184,1.184,0,0,0,.836.287,1.163,1.163,0,0,0,.852-.291,1.122,1.122,0,0,0,.3-.835,1.017,1.017,0,0,0-.324-.811,1.413,1.413,0,0,0-.936-.291h-.578Z" transform="translate(-55.93 -114.709)"/>
    <path id="Trazado_112582" data-name="Trazado 112582" d="M202.706,399.307h.84v.628h-.84v1.405h-.774v-1.405h-2.757v-.454l2.711-4.2h.819Zm-2.657,0h1.884v-2.969l-.092.167Z" transform="translate(-57.817 -114.743)"/>
    <path id="Trazado_112583" data-name="Trazado 112583" d="M245.882,468.484h.578a1.272,1.272,0,0,0,.857-.287.96.96,0,0,0,.312-.753.939.939,0,0,0-1.06-1.065,1.1,1.1,0,0,0-.8.285.994.994,0,0,0-.3.754H244.7a1.546,1.546,0,0,1,.526-1.2,1.917,1.917,0,0,1,1.337-.476,1.893,1.893,0,0,1,1.343.453,1.639,1.639,0,0,1,.487,1.26,1.33,1.33,0,0,1-.255.765,1.552,1.552,0,0,1-.7.553,1.489,1.489,0,0,1,.771.524,1.456,1.456,0,0,1,.273.894,1.651,1.651,0,0,1-.532,1.293,1.991,1.991,0,0,1-1.385.478,2.048,2.048,0,0,1-1.387-.461,1.532,1.532,0,0,1-.534-1.219h.773a.989.989,0,0,0,.312.765,1.184,1.184,0,0,0,.836.287,1.163,1.163,0,0,0,.852-.291,1.122,1.122,0,0,0,.3-.835,1.017,1.017,0,0,0-.324-.811,1.413,1.413,0,0,0-.936-.291h-.578Z" transform="translate(-71.017 -135.197)"/>
    <path id="Trazado_112584" data-name="Trazado 112584" d="M254.585,465.859v.653h-.141a2.028,2.028,0,0,0-1.431.532,2.215,2.215,0,0,0-.615,1.451,1.64,1.64,0,0,1,1.306-.549,1.568,1.568,0,0,1,1.262.557,2.442,2.442,0,0,1-.038,2.936,1.754,1.754,0,0,1-1.366.561,1.729,1.729,0,0,1-1.41-.668,2.644,2.644,0,0,1-.541-1.72v-.3a3.985,3.985,0,0,1,.713-2.555,2.621,2.621,0,0,1,2.123-.9Zm-1.011,2.727a1.22,1.22,0,0,0-.727.238,1.235,1.235,0,0,0-.462.595v.283a1.986,1.986,0,0,0,.337,1.206,1.01,1.01,0,0,0,.84.457.978.978,0,0,0,.818-.383,1.836,1.836,0,0,0,0-2.01.967.967,0,0,0-.8-.385" transform="translate(-73.037 -135.229)"/>
    <path id="Trazado_112585" data-name="Trazado 112585" d="M287.174,553.348h.578a1.272,1.272,0,0,0,.857-.287.96.96,0,0,0,.312-.753.939.939,0,0,0-1.06-1.065,1.1,1.1,0,0,0-.8.285.994.994,0,0,0-.3.754H286a1.546,1.546,0,0,1,.526-1.2,1.917,1.917,0,0,1,1.337-.476,1.892,1.892,0,0,1,1.343.453,1.639,1.639,0,0,1,.487,1.26,1.33,1.33,0,0,1-.255.765,1.552,1.552,0,0,1-.7.553,1.489,1.489,0,0,1,.771.524,1.456,1.456,0,0,1,.273.894,1.651,1.651,0,0,1-.532,1.293,1.991,1.991,0,0,1-1.385.478,2.048,2.048,0,0,1-1.387-.461,1.532,1.532,0,0,1-.534-1.219h.773a.989.989,0,0,0,.312.765,1.184,1.184,0,0,0,.836.287,1.163,1.163,0,0,0,.852-.291,1.122,1.122,0,0,0,.3-.835,1.017,1.017,0,0,0-.324-.811,1.413,1.413,0,0,0-.936-.291h-.578Z" transform="translate(-83.003 -159.831)"/>
    <path id="Trazado_112586" data-name="Trazado 112586" d="M293.248,553.748l.308-3.019h3.1v.711h-2.449l-.183,1.651a1.954,1.954,0,0,1,1.011-.262,1.669,1.669,0,0,1,1.314.547,2.143,2.143,0,0,1,.487,1.478,2.07,2.07,0,0,1-.505,1.474,1.843,1.843,0,0,1-1.412.539,1.913,1.913,0,0,1-1.309-.445,1.778,1.778,0,0,1-.578-1.231h.728a1.222,1.222,0,0,0,.37.784,1.151,1.151,0,0,0,.79.264,1.038,1.038,0,0,0,.842-.366,1.53,1.53,0,0,0,.306-1.011,1.407,1.407,0,0,0-.331-.975,1.127,1.127,0,0,0-.879-.368,1.27,1.27,0,0,0-.791.22l-.2.167Z" transform="translate(-85.061 -159.865)"/>
    <path id="Trazado_112587" data-name="Trazado 112587" d="M214.095,491.78h.578a1.272,1.272,0,0,0,.857-.287.96.96,0,0,0,.312-.753.939.939,0,0,0-1.06-1.065,1.1,1.1,0,0,0-.8.285.994.994,0,0,0-.3.754h-.769a1.546,1.546,0,0,1,.526-1.2,1.917,1.917,0,0,1,1.337-.476,1.893,1.893,0,0,1,1.343.453,1.639,1.639,0,0,1,.487,1.26,1.331,1.331,0,0,1-.255.765,1.552,1.552,0,0,1-.7.553,1.489,1.489,0,0,1,.771.524,1.456,1.456,0,0,1,.273.894,1.651,1.651,0,0,1-.532,1.293,1.991,1.991,0,0,1-1.385.478,2.047,2.047,0,0,1-1.387-.461,1.532,1.532,0,0,1-.534-1.219h.773a.989.989,0,0,0,.312.765,1.184,1.184,0,0,0,.836.287,1.163,1.163,0,0,0,.852-.291,1.122,1.122,0,0,0,.3-.835,1.017,1.017,0,0,0-.324-.811,1.413,1.413,0,0,0-.936-.291h-.578Z" transform="translate(-61.79 -141.959)"/>
    <path id="Trazado_112588" data-name="Trazado 112588" d="M223.594,489.593l-2.507,5.622h-.807l2.5-5.423H219.5v-.632h4.092Z" transform="translate(-63.717 -141.993)"/>
    <path id="Trazado_112589" data-name="Trazado 112589" d="M331.411,551.62h-3.967v-.553l2.1-2.329a4.955,4.955,0,0,0,.643-.859,1.43,1.43,0,0,0,.177-.683,1.085,1.085,0,0,0-.287-.778,1,1,0,0,0-.765-.3,1.19,1.19,0,0,0-.892.326,1.247,1.247,0,0,0-.318.908h-.769a1.786,1.786,0,0,1,.539-1.351,2,2,0,0,1,1.441-.515,1.919,1.919,0,0,1,1.335.443,1.51,1.51,0,0,1,.49,1.179,3.463,3.463,0,0,1-1.139,2.129l-1.622,1.759h3.04Z" transform="translate(-95.016 -158.342)"/>
    <path id="Trazado_112590" data-name="Trazado 112590" d="M337.361,549.62h.84v.628h-.84v1.405h-.774v-1.405h-2.757v-.454l2.711-4.2h.819Zm-2.657,0h1.884v-2.969l-.092.167Z" transform="translate(-96.904 -158.376)"/>
    <path id="Trazado_112591" data-name="Trazado 112591" d="M331.411,409.935h-3.967v-.553l2.1-2.329a4.956,4.956,0,0,0,.643-.859,1.43,1.43,0,0,0,.177-.683,1.085,1.085,0,0,0-.287-.778,1,1,0,0,0-.765-.3,1.19,1.19,0,0,0-.892.326,1.247,1.247,0,0,0-.318.908h-.769a1.786,1.786,0,0,1,.539-1.351,2,2,0,0,1,1.441-.515,1.919,1.919,0,0,1,1.335.443,1.51,1.51,0,0,1,.49,1.179,3.463,3.463,0,0,1-1.139,2.129l-1.622,1.759h3.04Z" transform="translate(-95.016 -117.214)"/>
    <path id="Trazado_112592" data-name="Trazado 112592" d="M335.3,406.533h.578a1.272,1.272,0,0,0,.857-.287.96.96,0,0,0,.312-.753.939.939,0,0,0-1.06-1.065,1.1,1.1,0,0,0-.8.285.994.994,0,0,0-.3.754h-.769a1.546,1.546,0,0,1,.526-1.2,1.917,1.917,0,0,1,1.337-.476,1.893,1.893,0,0,1,1.343.453,1.639,1.639,0,0,1,.487,1.26,1.331,1.331,0,0,1-.256.765,1.552,1.552,0,0,1-.7.553,1.489,1.489,0,0,1,.771.524,1.456,1.456,0,0,1,.273.894,1.651,1.651,0,0,1-.532,1.293,1.992,1.992,0,0,1-1.385.478,2.048,2.048,0,0,1-1.387-.461,1.532,1.532,0,0,1-.534-1.219h.773a.989.989,0,0,0,.312.765,1.184,1.184,0,0,0,.836.287,1.163,1.163,0,0,0,.852-.291,1.122,1.122,0,0,0,.3-.835,1.017,1.017,0,0,0-.324-.811,1.413,1.413,0,0,0-.936-.291H335.3Z" transform="translate(-96.974 -117.214)"/>
    <path id="Trazado_112593" data-name="Trazado 112593" d="M332.755,173.15h-3.967V172.6l2.1-2.329a4.953,4.953,0,0,0,.643-.859,1.43,1.43,0,0,0,.177-.683,1.085,1.085,0,0,0-.287-.778,1,1,0,0,0-.765-.3,1.19,1.19,0,0,0-.892.326,1.247,1.247,0,0,0-.318.908h-.769a1.786,1.786,0,0,1,.539-1.351,2,2,0,0,1,1.441-.515,1.919,1.919,0,0,1,1.335.443,1.51,1.51,0,0,1,.49,1.179,3.463,3.463,0,0,1-1.139,2.129l-1.622,1.759h3.04Z" transform="translate(-95.406 -48.48)"/>
    <path id="Trazado_112594" data-name="Trazado 112594" d="M338.185,173.172h-.774v-5.128l-1.551.57v-.7l2.2-.828h.121Z" transform="translate(-97.493 -48.502)"/>
    <path id="Trazado_112595" data-name="Trazado 112595" d="M332.755,295.925h-3.967v-.553l2.1-2.329a4.953,4.953,0,0,0,.643-.859,1.43,1.43,0,0,0,.177-.683,1.085,1.085,0,0,0-.287-.778,1,1,0,0,0-.765-.3,1.19,1.19,0,0,0-.892.326,1.247,1.247,0,0,0-.318.908h-.769a1.786,1.786,0,0,1,.539-1.351,2,2,0,0,1,1.441-.515,1.919,1.919,0,0,1,1.335.443,1.51,1.51,0,0,1,.49,1.179,3.463,3.463,0,0,1-1.139,2.129l-1.622,1.759h3.04Z" transform="translate(-95.406 -84.119)"/>
    <path id="Trazado_112596" data-name="Trazado 112596" d="M339.493,295.925h-3.967v-.553l2.1-2.329a4.956,4.956,0,0,0,.643-.859,1.43,1.43,0,0,0,.177-.683,1.085,1.085,0,0,0-.287-.778,1,1,0,0,0-.765-.3,1.19,1.19,0,0,0-.892.326,1.247,1.247,0,0,0-.318.908h-.769a1.786,1.786,0,0,1,.539-1.351,2,2,0,0,1,1.441-.515,1.919,1.919,0,0,1,1.335.443,1.51,1.51,0,0,1,.49,1.179,3.463,3.463,0,0,1-1.139,2.129l-1.622,1.759h3.04Z" transform="translate(-97.362 -84.119)"/>
    <path id="Trazado_112597" data-name="Trazado 112597" d="M178.252,158.628h-3.967v-.553l2.1-2.329a4.953,4.953,0,0,0,.643-.859,1.43,1.43,0,0,0,.177-.683,1.085,1.085,0,0,0-.287-.778,1,1,0,0,0-.765-.3,1.19,1.19,0,0,0-.892.326,1.247,1.247,0,0,0-.318.908h-.769a1.786,1.786,0,0,1,.539-1.351,2,2,0,0,1,1.441-.515,1.919,1.919,0,0,1,1.335.443,1.51,1.51,0,0,1,.49,1.179,3.463,3.463,0,0,1-1.139,2.129L175.212,158h3.04Z" transform="translate(-50.557 -44.265)"/>
    <path id="Trazado_112598" data-name="Trazado 112598" d="M184.857,156.045a3.521,3.521,0,0,1-.461,2.009,1.918,1.918,0,0,1-2.878.015,3.34,3.34,0,0,1-.483-1.919v-1.027a3.437,3.437,0,0,1,.462-1.984,1.652,1.652,0,0,1,1.447-.649,1.671,1.671,0,0,1,1.439.625,3.321,3.321,0,0,1,.474,1.932Zm-.769-1.052a2.818,2.818,0,0,0-.275-1.424.945.945,0,0,0-.869-.447.932.932,0,0,0-.861.445,2.754,2.754,0,0,0-.279,1.368v1.231a2.859,2.859,0,0,0,.285,1.449.941.941,0,0,0,.862.468.931.931,0,0,0,.847-.441,2.76,2.76,0,0,0,.289-1.389Z" transform="translate(-52.551 -44.265)"/>
    <path id="Trazado_112599" data-name="Trazado 112599" d="M10.824,166.618H11.4a1.272,1.272,0,0,0,.857-.287.96.96,0,0,0,.312-.753.939.939,0,0,0-1.06-1.065,1.1,1.1,0,0,0-.8.285.994.994,0,0,0-.3.754H9.647a1.546,1.546,0,0,1,.526-1.2,1.917,1.917,0,0,1,1.337-.476,1.892,1.892,0,0,1,1.343.453,1.639,1.639,0,0,1,.487,1.26,1.33,1.33,0,0,1-.255.765,1.552,1.552,0,0,1-.7.553,1.489,1.489,0,0,1,.771.524,1.456,1.456,0,0,1,.273.894,1.651,1.651,0,0,1-.532,1.293,1.991,1.991,0,0,1-1.385.478,2.048,2.048,0,0,1-1.387-.461,1.532,1.532,0,0,1-.534-1.219h.773a.989.989,0,0,0,.312.765,1.184,1.184,0,0,0,.836.287,1.163,1.163,0,0,0,.852-.291,1.122,1.122,0,0,0,.3-.835,1.017,1.017,0,0,0-.324-.811,1.413,1.413,0,0,0-.936-.291h-.578Z" transform="translate(-2.785 -47.572)"/>
    <path id="Trazado_112600" data-name="Trazado 112600" d="M142.478,29.288a1.41,1.41,0,0,1-.239.807,1.629,1.629,0,0,1-.647.553,1.741,1.741,0,0,1,.75.595,1.5,1.5,0,0,1,.277.886,1.584,1.584,0,0,1-.53,1.252,2.326,2.326,0,0,1-2.795,0,1.591,1.591,0,0,1-.526-1.25,1.541,1.541,0,0,1,.268-.886,1.674,1.674,0,0,1,.742-.6,1.586,1.586,0,0,1-.637-.553,1.43,1.43,0,0,1-.233-.8,1.565,1.565,0,0,1,.491-1.214,2.083,2.083,0,0,1,2.584,0,1.562,1.562,0,0,1,.493,1.214m-.628,2.824a1.114,1.114,0,0,0-.322-.828,1.143,1.143,0,0,0-.842-.321,1.083,1.083,0,0,0-1.148,1.148,1.074,1.074,0,0,0,.306.811,1.365,1.365,0,0,0,1.7,0,1.072,1.072,0,0,0,.308-.808m-1.156-3.855a.991.991,0,0,0-.734.281,1.16,1.16,0,0,0,0,1.509,1.1,1.1,0,0,0,1.476,0,1.137,1.137,0,0,0-.011-1.5.979.979,0,0,0-.727-.291" transform="translate(-40.281 -8.019)"/>
    <path id="Trazado_112601" data-name="Trazado 112601" d="M181.593,30.36h.578a1.272,1.272,0,0,0,.857-.287.96.96,0,0,0,.312-.753.939.939,0,0,0-1.06-1.065,1.1,1.1,0,0,0-.8.285.994.994,0,0,0-.3.754h-.769a1.546,1.546,0,0,1,.526-1.2,1.917,1.917,0,0,1,1.337-.476,1.893,1.893,0,0,1,1.343.453,1.639,1.639,0,0,1,.487,1.26,1.33,1.33,0,0,1-.256.765,1.552,1.552,0,0,1-.7.553,1.489,1.489,0,0,1,.771.524,1.456,1.456,0,0,1,.273.894,1.651,1.651,0,0,1-.532,1.293,1.991,1.991,0,0,1-1.385.478,2.048,2.048,0,0,1-1.387-.461,1.532,1.532,0,0,1-.534-1.219h.773a.989.989,0,0,0,.312.765,1.184,1.184,0,0,0,.836.287,1.163,1.163,0,0,0,.852-.291,1.122,1.122,0,0,0,.3-.835,1.017,1.017,0,0,0-.324-.811,1.413,1.413,0,0,0-.936-.291h-.578Z" transform="translate(-52.355 -8.019)"/>
    <path id="Trazado_112602" data-name="Trazado 112602" d="M191.044,31.179a3.521,3.521,0,0,1-.461,2.009,1.918,1.918,0,0,1-2.878.015,3.34,3.34,0,0,1-.483-1.919V30.256a3.437,3.437,0,0,1,.462-1.984,1.652,1.652,0,0,1,1.447-.649,1.671,1.671,0,0,1,1.439.625,3.321,3.321,0,0,1,.474,1.932Zm-.769-1.052A2.818,2.818,0,0,0,190,28.7a.945.945,0,0,0-.869-.447.932.932,0,0,0-.861.445,2.754,2.754,0,0,0-.279,1.368V31.3a2.859,2.859,0,0,0,.285,1.449.941.941,0,0,0,.862.468.931.931,0,0,0,.847-.441,2.76,2.76,0,0,0,.289-1.389Z" transform="translate(-54.347 -8.019)"/>
    <path id="Trazado_112603" data-name="Trazado 112603" d="M181.593,98.854h.578a1.272,1.272,0,0,0,.857-.287.96.96,0,0,0,.312-.753.939.939,0,0,0-1.06-1.065,1.1,1.1,0,0,0-.8.285.994.994,0,0,0-.3.754h-.769a1.546,1.546,0,0,1,.526-1.2,1.917,1.917,0,0,1,1.337-.476,1.893,1.893,0,0,1,1.343.453,1.639,1.639,0,0,1,.487,1.26,1.33,1.33,0,0,1-.256.765,1.552,1.552,0,0,1-.7.553,1.489,1.489,0,0,1,.771.524,1.456,1.456,0,0,1,.273.894,1.651,1.651,0,0,1-.532,1.293,1.991,1.991,0,0,1-1.385.478,2.048,2.048,0,0,1-1.387-.461,1.532,1.532,0,0,1-.534-1.219h.773a.989.989,0,0,0,.312.765,1.184,1.184,0,0,0,.836.287,1.163,1.163,0,0,0,.852-.291,1.122,1.122,0,0,0,.3-.835,1.017,1.017,0,0,0-.324-.811,1.413,1.413,0,0,0-.936-.291h-.578Z" transform="translate(-52.355 -27.901)"/>
    <path id="Trazado_112604" data-name="Trazado 112604" d="M189.87,102.277H189.1V97.15l-1.551.57v-.7l2.2-.828h.121Z" transform="translate(-54.44 -27.923)"/>
    <path id="Trazado_112605" data-name="Trazado 112605" d="M216.395,98.854h.578a1.272,1.272,0,0,0,.857-.287.96.96,0,0,0,.312-.753.939.939,0,0,0-1.06-1.065,1.1,1.1,0,0,0-.8.285.994.994,0,0,0-.3.754h-.769a1.546,1.546,0,0,1,.526-1.2,1.917,1.917,0,0,1,1.337-.476,1.893,1.893,0,0,1,1.343.453,1.639,1.639,0,0,1,.487,1.26,1.33,1.33,0,0,1-.256.765,1.552,1.552,0,0,1-.7.553,1.489,1.489,0,0,1,.771.524,1.456,1.456,0,0,1,.273.894,1.651,1.651,0,0,1-.532,1.293,1.991,1.991,0,0,1-1.385.478,2.048,2.048,0,0,1-1.387-.461,1.532,1.532,0,0,1-.534-1.219h.773a.989.989,0,0,0,.312.765,1.184,1.184,0,0,0,.836.287,1.163,1.163,0,0,0,.852-.291,1.122,1.122,0,0,0,.3-.835,1.017,1.017,0,0,0-.324-.811,1.413,1.413,0,0,0-.936-.291h-.578Z" transform="translate(-62.458 -27.901)"/>
    <path id="Trazado_112606" data-name="Trazado 112606" d="M225.98,102.256h-3.967V101.7l2.1-2.329a4.953,4.953,0,0,0,.643-.859,1.43,1.43,0,0,0,.177-.683,1.085,1.085,0,0,0-.287-.778,1,1,0,0,0-.765-.3,1.191,1.191,0,0,0-.892.326,1.247,1.247,0,0,0-.318.908H221.9a1.786,1.786,0,0,1,.539-1.351,2,2,0,0,1,1.441-.515,1.919,1.919,0,0,1,1.335.443,1.51,1.51,0,0,1,.49,1.179,3.463,3.463,0,0,1-1.139,2.129l-1.622,1.759h3.04Z" transform="translate(-64.412 -27.901)"/>
    <path id="Trazado_112607" data-name="Trazado 112607" d="M201.568,7.49H197.6V6.937l2.1-2.329a4.953,4.953,0,0,0,.643-.859,1.43,1.43,0,0,0,.177-.683,1.085,1.085,0,0,0-.287-.778,1,1,0,0,0-.765-.3,1.191,1.191,0,0,0-.892.326,1.247,1.247,0,0,0-.318.908h-.769a1.786,1.786,0,0,1,.539-1.351,2,2,0,0,1,1.441-.515,1.919,1.919,0,0,1,1.335.443,1.51,1.51,0,0,1,.49,1.179A3.463,3.463,0,0,1,200.15,5.1l-1.622,1.759h3.04Z" transform="translate(-57.325 -0.392)"/>
    <path id="Trazado_112608" data-name="Trazado 112608" d="M207.424,1.463v.653h-.141a2.028,2.028,0,0,0-1.431.532,2.215,2.215,0,0,0-.615,1.451,1.64,1.64,0,0,1,1.306-.549,1.568,1.568,0,0,1,1.262.557,2.15,2.15,0,0,1,.472,1.439,2.143,2.143,0,0,1-.51,1.5,1.754,1.754,0,0,1-1.366.561,1.729,1.729,0,0,1-1.41-.668,2.644,2.644,0,0,1-.541-1.72v-.3a3.985,3.985,0,0,1,.713-2.555,2.621,2.621,0,0,1,2.123-.9Zm-1.011,2.728a1.294,1.294,0,0,0-1.189.832v.282a1.986,1.986,0,0,0,.337,1.207,1.01,1.01,0,0,0,.84.457.98.98,0,0,0,.818-.383,1.588,1.588,0,0,0,.3-1,1.589,1.589,0,0,0-.3-1.009.967.967,0,0,0-.8-.385" transform="translate(-59.348 -0.425)"/>
    <path id="Trazado_112609" data-name="Trazado 112609" d="M278.783,7.49h-3.967V6.937l2.1-2.329a4.953,4.953,0,0,0,.643-.859,1.43,1.43,0,0,0,.177-.683,1.085,1.085,0,0,0-.287-.778,1,1,0,0,0-.765-.3,1.191,1.191,0,0,0-.892.326,1.247,1.247,0,0,0-.318.908H274.7a1.786,1.786,0,0,1,.539-1.351,2,2,0,0,1,1.441-.515,1.919,1.919,0,0,1,1.335.443,1.51,1.51,0,0,1,.49,1.179A3.463,3.463,0,0,1,277.365,5.1l-1.622,1.759h3.04Z" transform="translate(-79.739 -0.392)"/>
    <path id="Trazado_112610" data-name="Trazado 112610" d="M285.258,3.016a1.409,1.409,0,0,1-.239.807,1.629,1.629,0,0,1-.647.553,1.741,1.741,0,0,1,.75.595,1.5,1.5,0,0,1,.277.886,1.584,1.584,0,0,1-.53,1.252,2.326,2.326,0,0,1-2.795,0,1.591,1.591,0,0,1-.526-1.25,1.541,1.541,0,0,1,.268-.886,1.675,1.675,0,0,1,.742-.6,1.586,1.586,0,0,1-.637-.553,1.43,1.43,0,0,1-.233-.8A1.565,1.565,0,0,1,282.18,1.8a2.083,2.083,0,0,1,2.584,0,1.562,1.562,0,0,1,.493,1.214M284.63,5.84a1.114,1.114,0,0,0-.322-.828,1.143,1.143,0,0,0-.842-.321,1.083,1.083,0,0,0-1.148,1.148,1.074,1.074,0,0,0,.306.811,1.365,1.365,0,0,0,1.7,0,1.072,1.072,0,0,0,.308-.808m-1.156-3.855a.991.991,0,0,0-.734.281,1.03,1.03,0,0,0-.281.763,1.024,1.024,0,0,0,.277.746,1.1,1.1,0,0,0,1.476,0,1.024,1.024,0,0,0,.277-.746,1.027,1.027,0,0,0-.287-.753.979.979,0,0,0-.727-.291" transform="translate(-81.728 -0.392)"/>
    <path id="Trazado_112611" data-name="Trazado 112611" d="M331.683,7.49h-3.967V6.937l2.1-2.329a4.955,4.955,0,0,0,.643-.859,1.43,1.43,0,0,0,.177-.683,1.085,1.085,0,0,0-.287-.778,1,1,0,0,0-.765-.3,1.19,1.19,0,0,0-.892.326,1.247,1.247,0,0,0-.318.908H327.6a1.786,1.786,0,0,1,.539-1.351,2,2,0,0,1,1.441-.515,1.919,1.919,0,0,1,1.335.443,1.509,1.509,0,0,1,.49,1.179A3.463,3.463,0,0,1,330.265,5.1l-1.622,1.759h3.04Z" transform="translate(-95.095 -0.392)"/>
    <path id="Trazado_112612" data-name="Trazado 112612" d="M334.911,4.488l.308-3.019h3.1V2.18h-2.449l-.183,1.651a1.954,1.954,0,0,1,1.011-.262,1.67,1.67,0,0,1,1.314.547,2.143,2.143,0,0,1,.487,1.478A2.07,2.07,0,0,1,338,7.069a1.842,1.842,0,0,1-1.412.539,1.913,1.913,0,0,1-1.309-.445,1.778,1.778,0,0,1-.578-1.231h.728a1.222,1.222,0,0,0,.37.784,1.151,1.151,0,0,0,.79.264,1.038,1.038,0,0,0,.842-.366,1.53,1.53,0,0,0,.306-1.011,1.407,1.407,0,0,0-.331-.975,1.127,1.127,0,0,0-.879-.368,1.27,1.27,0,0,0-.791.22l-.2.167Z" transform="translate(-97.155 -0.426)"/>
    <path id="Trazado_112613" data-name="Trazado 112613" d="M331.683,33.762h-3.967v-.553l2.1-2.329a4.955,4.955,0,0,0,.643-.859,1.43,1.43,0,0,0,.177-.683,1.085,1.085,0,0,0-.287-.778,1,1,0,0,0-.765-.3,1.19,1.19,0,0,0-.892.326,1.247,1.247,0,0,0-.318.908H327.6a1.786,1.786,0,0,1,.539-1.351,2,2,0,0,1,1.441-.515,1.919,1.919,0,0,1,1.335.443,1.51,1.51,0,0,1,.49,1.179,3.463,3.463,0,0,1-1.139,2.129l-1.622,1.759h3.04Z" transform="translate(-95.095 -8.019)"/>
    <path id="Trazado_112614" data-name="Trazado 112614" d="M337.414,31.1a1.877,1.877,0,0,1-.576.461,1.562,1.562,0,0,1-.734.175,1.614,1.614,0,0,1-.913-.258,1.682,1.682,0,0,1-.6-.725,2.478,2.478,0,0,1-.212-1.033,2.516,2.516,0,0,1,.231-1.094,1.694,1.694,0,0,1,.655-.744,1.867,1.867,0,0,1,.989-.258,1.69,1.69,0,0,1,1.416.671,2.926,2.926,0,0,1,.518,1.832v.224a3.912,3.912,0,0,1-.7,2.581,2.683,2.683,0,0,1-2.108.834h-.15v-.653h.162a1.832,1.832,0,0,0,2.021-2.013m-1.185,0a1.188,1.188,0,0,0,.713-.237,1.4,1.4,0,0,0,.476-.586v-.308a2.119,2.119,0,0,0-.329-1.231,1,1,0,0,0-1.647-.085,1.6,1.6,0,0,0-.308,1.025,1.672,1.672,0,0,0,.3,1.021.94.94,0,0,0,.8.4" transform="translate(-97.063 -8.019)"/>
    <path id="Trazado_112615" data-name="Trazado 112615" d="M70.048,205.492h-3.6v3.788H65.317V200.7h5.314v.925H66.449v2.94h3.6Z" transform="translate(-18.96 -58.259)"/>
    <path id="Trazado_112616" data-name="Trazado 112616" d="M77.858,205.81H75.843v3.47H74.706V200.7h2.84a3.364,3.364,0,0,1,2.23.66,2.375,2.375,0,0,1,.781,1.921,2.311,2.311,0,0,1-.433,1.4,2.583,2.583,0,0,1-1.205.89l2.015,3.641v.07H79.719Zm-2.015-.925h1.738a1.96,1.96,0,0,0,1.34-.436,1.476,1.476,0,0,0,.5-1.169,1.556,1.556,0,0,0-.474-1.221,2.009,2.009,0,0,0-1.37-.431H75.843Z" transform="translate(-21.686 -58.26)"/>
    <path id="Trazado_112617" data-name="Trazado 112617" d="M91.774,209.28H90.637l-4.319-6.61v6.61H85.181V200.7h1.137l4.331,6.639V200.7h1.125Z" transform="translate(-24.726 -58.26)"/>
    <rect id="Rectángulo_7059" data-name="Rectángulo 7059" width="2.875" height="0.889" transform="translate(68.279 146.932)"/>
    <path id="Trazado_112618" data-name="Trazado 112618" d="M106.839,205.315h-3.718v3.04h4.319v.925h-5.45V200.7h5.391v.925h-4.26v2.763h3.718Z" transform="translate(-29.606 -58.259)"/>
    <path id="Trazado_112619" data-name="Trazado 112619" d="M113.966,205.408a5.309,5.309,0,0,1-2.118-1.028,1.964,1.964,0,0,1-.663-1.5A2.074,2.074,0,0,1,112,201.2a3.22,3.22,0,0,1,2.106-.663,3.512,3.512,0,0,1,1.576.342,2.586,2.586,0,0,1,1.072.942,2.409,2.409,0,0,1,.38,1.314h-1.138a1.569,1.569,0,0,0-.495-1.227,2.012,2.012,0,0,0-1.4-.446,2.06,2.06,0,0,0-1.3.369,1.23,1.23,0,0,0-.469,1.024,1.1,1.1,0,0,0,.445.888,4.353,4.353,0,0,0,1.514.664,7.005,7.005,0,0,1,1.674.664,2.529,2.529,0,0,1,.895.845,2.15,2.15,0,0,1,.292,1.137,2,2,0,0,1-.813,1.67,3.469,3.469,0,0,1-2.174.627,4.033,4.033,0,0,1-1.649-.339,2.779,2.779,0,0,1-1.182-.928,2.272,2.272,0,0,1-.415-1.338h1.137a1.478,1.478,0,0,0,.574,1.229,2.418,2.418,0,0,0,1.535.451,2.219,2.219,0,0,0,1.373-.365,1.186,1.186,0,0,0,.477-1,1.167,1.167,0,0,0-.441-.976,5.1,5.1,0,0,0-1.6-.68" transform="translate(-32.196 -58.211)"/>
    <path id="Trazado_112620" data-name="Trazado 112620" d="M122.869,205.921v3.358h-1.131V200.7H124.9a3.176,3.176,0,0,1,2.206.718,2.438,2.438,0,0,1,.8,1.9,2.407,2.407,0,0,1-.78,1.923,3.325,3.325,0,0,1-2.236.674Zm0-.925H124.9a2.032,2.032,0,0,0,1.39-.428,1.566,1.566,0,0,0,.483-1.236,1.62,1.62,0,0,0-.483-1.228,1.906,1.906,0,0,0-1.326-.478h-2.1Z" transform="translate(-35.338 -58.26)"/>
    <path id="Trazado_112621" data-name="Trazado 112621" d="M92.646,225.263h-1.1V218l-2.2.807v-.989l3.122-1.172h.171Z" transform="translate(-25.937 -62.887)"/>
    <path id="Trazado_112622" data-name="Trazado 112622" d="M103.856,221.573a4.98,4.98,0,0,1-.654,2.845,2.717,2.717,0,0,1-4.077.021,4.733,4.733,0,0,1-.683-2.719v-1.456a4.868,4.868,0,0,1,.654-2.81,2.766,2.766,0,0,1,4.088-.033,4.7,4.7,0,0,1,.672,2.737Zm-1.09-1.49a4,4,0,0,0-.389-2.018,1.338,1.338,0,0,0-1.231-.633,1.321,1.321,0,0,0-1.219.63A3.9,3.9,0,0,0,99.532,220v1.744a4.055,4.055,0,0,0,.4,2.053,1.337,1.337,0,0,0,1.223.663,1.318,1.318,0,0,0,1.2-.624,3.916,3.916,0,0,0,.41-1.968Z" transform="translate(-28.576 -62.856)"/>
    <path id="Trazado_112623" data-name="Trazado 112623" d="M87.958,237.347a9.108,9.108,0,0,1,.356-2.557,7.439,7.439,0,0,1,1.063-2.226,4.532,4.532,0,0,1,1.467-1.414l.224.718a4.689,4.689,0,0,0-1.411,2.015,8.73,8.73,0,0,0-.6,3.034l-.006.5a8.782,8.782,0,0,0,.83,3.947,4.7,4.7,0,0,0,1.19,1.567l-.224.666a4.68,4.68,0,0,1-1.5-1.461,8.19,8.19,0,0,1-1.39-4.79" transform="translate(-25.532 -67.098)"/>
    <path id="Trazado_112624" data-name="Trazado 112624" d="M97.369,241.263h-1.1V234l-2.2.807v-.989l3.122-1.172h.171Z" transform="translate(-27.308 -67.532)"/>
    <path id="Trazado_112625" data-name="Trazado 112625" d="M105.642,237.406a9.1,9.1,0,0,1-.345,2.518,7.443,7.443,0,0,1-1.054,2.224,4.62,4.62,0,0,1-1.488,1.449l-.23-.666a4.741,4.741,0,0,0,1.458-2.159,9.346,9.346,0,0,0,.562-3.249v-.189a9.715,9.715,0,0,0-.259-2.3,7.783,7.783,0,0,0-.722-1.906,4.389,4.389,0,0,0-1.04-1.314l.23-.666a4.6,4.6,0,0,1,1.481,1.437,7.442,7.442,0,0,1,1.055,2.221,9.334,9.334,0,0,1,.351,2.6" transform="translate(-29.761 -67.098)"/>
    <path id="Trazado_112626" data-name="Trazado 112626" d="M846.228,331.689a.449.449,0,0,1-.061,0,.355.355,0,0,1-.292-.348v-207h.707V329.318l3.429-9.49.666.241-4.115,11.387a.355.355,0,0,1-.333.233" transform="translate(-245.54 -36.091)"/>
    <path id="Trazado_112627" data-name="Trazado 112627" d="M543.181,408.784H496.809a.352.352,0,0,1-.344-.274c-.115-.5-11.652-50.03-30.453-68.294-18.842-18.3-50.348-36.048-50.663-36.225a.352.352,0,0,1-.177-.361l12.811-85.592-18.81-95.958a.353.353,0,0,1,.312-.42c.248-.024,24.8-2.7,25.595-25.3.807-22.877-6.464-56.045-6.538-56.377a.354.354,0,0,1,.256-.419l58.92-15.275a.352.352,0,0,1,.438.29c.05.333,5.043,32.034,28.2,32.036a26.748,26.748,0,0,0,2.785-.148c.218.011,16.021.97,21.837-7.755,5.9-8.848,9.734-24.015,9.771-24.167a.355.355,0,0,1,.165-.219.348.348,0,0,1,.271-.036l59.465,16.17a.352.352,0,0,1,.253.412c-.108.527-10.8,52.86-3.314,65.688,7.464,12.794,22.5,14.811,22.652,14.83a.353.353,0,0,1,.3.417l-18.537,96.78,11.449,85.869a.354.354,0,0,1-.185.358c-.433.231-43.456,23.405-57.7,45.976-14.258,22.6-21.972,57.368-22.049,57.716a.353.353,0,0,1-.346.278m-46.093-.707H542.9c.762-3.354,8.434-36.038,22.079-57.664,13.816-21.9,54.4-44.288,57.746-46.106L611.3,218.623a.36.36,0,0,1,0-.114l18.479-96.477c-2.4-.405-15.83-3.167-22.8-15.118-7.39-12.668,2.175-60.991,3.165-65.861l-58.8-15.989c-.616,2.34-4.317,15.845-9.779,24.039-6.045,9.068-21.748,8.111-22.414,8.067-24.666,2.567-30.947-28.264-31.629-32.1L429.305,40.162c.762,3.551,7.248,34.492,6.482,56.221-.764,21.639-22.653,25.487-25.847,25.932l18.748,95.647a.345.345,0,0,1,0,.121L415.906,303.5c2.81,1.6,32.505,18.639,50.6,36.215,18.217,17.7,29.627,64.34,30.585,68.367" transform="translate(-118.773 -7.047)"/>
    <path id="Trazado_112628" data-name="Trazado 112628" d="M564.381,420.082h-.707v-3.535h.707Zm0-7.07h-.707v-3.535h.707Zm0-7.07h-.707v-3.535h.707Zm0-7.07h-.707v-3.535h.707Zm0-7.07h-.707v-3.535h.707Zm0-7.07h-.707V381.2h.707Zm0-7.07h-.707v-3.535h.707Zm0-7.07h-.707v-3.535h.707Zm0-7.07h-.707v-3.535h.707Zm0-7.07h-.707v-3.535h.707Zm0-7.07h-.707v-3.535h.707Zm0-7.07h-.707v-3.535h.707Zm0-7.07h-.707V331.71h.707Zm0-7.07h-.707v-3.535h.707Zm0-7.07h-.707V317.57h.707Zm0-7.07h-.707V310.5h.707Zm0-7.07h-.707V303.43h.707Zm0-7.07h-.707V296.36h.707Zm0-7.07h-.707v-3.535h.707Zm0-7.07h-.707v-3.535h.707Zm0-7.07h-.707v-3.535h.707Zm0-7.07h-.707v-3.535h.707Zm0-7.07h-.707v-3.535h.707Zm0-7.07h-.707v-3.535h.707Zm0-7.07h-.707v-3.535h.707Zm0-7.07h-.707V239.8h.707Zm0-7.07h-.707v-3.535h.707Zm0-7.07h-.707v-3.535h.707Zm0-7.07h-.707v-3.535h.707Zm0-7.07h-.707v-3.535h.707Zm0-7.07h-.707v-3.535h.707Zm0-7.07h-.707v-3.535h.707Zm0-7.07h-.707v-3.535h.707Zm0-7.07h-.707v-3.535h.707Zm0-7.07h-.707v-3.535h.707Zm0-7.07h-.707V169.1h.707Zm0-7.07h-.707v-3.535h.707Zm0-7.07h-.707v-3.535h.707Zm0-7.07h-.707v-3.535h.707Zm0-7.07h-.707v-3.535h.707Zm0-7.07h-.707v-3.535h.707Zm0-7.07h-.707v-3.535h.707Zm0-7.07h-.707v-3.535h.707Zm0-7.07h-.707v-3.535h.707Zm0-7.07h-.707v-3.535h.707Zm0-7.07h-.707V98.407h.707Zm0-7.07h-.707V91.336h.707Zm0-7.07h-.707V84.267h.707Zm0-7.07h-.707V77.2h.707Zm0-7.07h-.707V70.127h.707Z" transform="translate(-163.623 -20.356)"/>
    <path id="Trazado_112629" data-name="Trazado 112629" d="M878.707,402.366H855.685a.352.352,0,0,1-.25-.1L807.161,354.12a.381.381,0,0,1-.06-.082l-31.935-58.672a.353.353,0,0,1-.038-.224l13.358-85.649L768.446,114.8a.357.357,0,0,1,.075-.3.352.352,0,0,1,.282-.127c.084.011,6.7.127,12.716-5.817,6.886-6.808,10.233-18.473,9.943-34.671-.734-41.1-2.213-59.949-2.227-60.135a.352.352,0,0,1,.275-.373L848.923.009a.354.354,0,0,1,.407.218c.045.116,4.793,11.585,29.336,8.688a.354.354,0,0,1,.395.351V402.012a.353.353,0,0,1-.354.353m-22.876-.707h22.523v-392c-22.951,2.6-28.683-7.058-29.56-8.9L789.962,14c.192,2.588,1.522,21.584,2.207,59.873.293,16.412-3.128,28.255-10.169,35.2a19.822,19.822,0,0,1-12.773,6L789.19,209.41a.352.352,0,0,1,0,.128l-13.35,85.6L807.7,353.655Z" transform="translate(-223.062 0)"/>
    <path id="Trazado_112630" data-name="Trazado 112630" d="M554.352,290.25h-3.586v3.774H549.64v-8.544h5.293v.921h-4.167v2.928h3.586Z" transform="translate(-159.549 -82.869)"/>
    <path id="Trazado_112631" data-name="Trazado 112631" d="M562.132,290.566h-2.007v3.456h-1.133v-8.544h2.828a3.35,3.35,0,0,1,2.221.657,2.367,2.367,0,0,1,.778,1.913,2.3,2.3,0,0,1-.432,1.391,2.578,2.578,0,0,1-1.2.886l2.007,3.627v.07h-1.209Zm-2.007-.921h1.731a1.951,1.951,0,0,0,1.335-.435,1.47,1.47,0,0,0,.5-1.164,1.549,1.549,0,0,0-.473-1.217,2,2,0,0,0-1.364-.429h-1.725Z" transform="translate(-162.264 -82.868)"/>
    <path id="Trazado_112632" data-name="Trazado 112632" d="M575.994,294.023h-1.133l-4.3-6.584v6.584h-1.133v-8.544h1.133l4.313,6.614v-6.614h1.121Z" transform="translate(-165.293 -82.868)"/>
    <path id="Trazado_112633" data-name="Trazado 112633" d="M559.349,309.944h-1.092v-7.236l-2.19.8v-.986l3.111-1.168h.17Z" transform="translate(-161.415 -87.478)"/>
    <path id="Trazado_112634" data-name="Trazado 112634" d="M570.516,306.269a4.966,4.966,0,0,1-.651,2.835,2.707,2.707,0,0,1-4.061.021,4.705,4.705,0,0,1-.681-2.708v-1.45a4.855,4.855,0,0,1,.651-2.8,2.756,2.756,0,0,1,4.073-.033,4.688,4.688,0,0,1,.669,2.726Zm-1.085-1.485a3.978,3.978,0,0,0-.388-2.01,1.332,1.332,0,0,0-1.226-.631,1.314,1.314,0,0,0-1.214.628,3.885,3.885,0,0,0-.394,1.93v1.737a4.043,4.043,0,0,0,.4,2.045,1.332,1.332,0,0,0,1.218.661,1.313,1.313,0,0,0,1.194-.622,3.9,3.9,0,0,0,.408-1.96Z" transform="translate(-164.043 -87.447)"/>
    <path id="Trazado_112635" data-name="Trazado 112635" d="M554.679,321.982a9.065,9.065,0,0,1,.356-2.547,7.4,7.4,0,0,1,1.059-2.218,4.513,4.513,0,0,1,1.461-1.409l.223.716a4.668,4.668,0,0,0-1.405,2.007,8.713,8.713,0,0,0-.6,3.022l-.006.5a8.737,8.737,0,0,0,.828,3.932,4.685,4.685,0,0,0,1.185,1.561l-.223.663a4.655,4.655,0,0,1-1.491-1.456,8.16,8.16,0,0,1-1.385-4.771" transform="translate(-161.012 -91.672)"/>
    <path id="Trazado_112636" data-name="Trazado 112636" d="M564.054,325.882h-1.092v-7.236l-2.189.8v-.986l3.111-1.168h.17Z" transform="translate(-162.781 -92.105)"/>
    <path id="Trazado_112637" data-name="Trazado 112637" d="M572.3,322.041a9.064,9.064,0,0,1-.344,2.509,7.414,7.414,0,0,1-1.05,2.215,4.6,4.6,0,0,1-1.483,1.444l-.229-.663a4.719,4.719,0,0,0,1.453-2.151,9.307,9.307,0,0,0,.56-3.236v-.187a9.642,9.642,0,0,0-.258-2.292,7.734,7.734,0,0,0-.718-1.9,4.384,4.384,0,0,0-1.036-1.309l.229-.663a4.578,4.578,0,0,1,1.476,1.432,7.455,7.455,0,0,1,1.051,2.212,9.293,9.293,0,0,1,.348,2.588" transform="translate(-165.224 -91.673)"/>
    <path id="Trazado_112638" data-name="Trazado 112638" d="M837.422,235.105h-3.7v3.028h4.3v.921h-5.428V230.51h5.37v.921H833.72v2.752h3.7Z" transform="translate(-241.684 -66.912)"/>
    <path id="Trazado_112639" data-name="Trazado 112639" d="M844.522,235.2a5.309,5.309,0,0,1-2.11-1.024,1.956,1.956,0,0,1-.66-1.5,2.068,2.068,0,0,1,.807-1.669,3.209,3.209,0,0,1,2.1-.66,3.5,3.5,0,0,1,1.569.34,2.58,2.58,0,0,1,1.068.939,2.4,2.4,0,0,1,.379,1.309H846.54a1.563,1.563,0,0,0-.493-1.222,2.006,2.006,0,0,0-1.39-.444,2.053,2.053,0,0,0-1.3.368,1.224,1.224,0,0,0-.467,1.02,1.1,1.1,0,0,0,.444.884,4.329,4.329,0,0,0,1.507.661,6.975,6.975,0,0,1,1.667.661,2.524,2.524,0,0,1,.892.842,2.149,2.149,0,0,1,.29,1.133,2,2,0,0,1-.81,1.664,3.453,3.453,0,0,1-2.165.625,4.014,4.014,0,0,1-1.643-.338,2.773,2.773,0,0,1-1.177-.924,2.258,2.258,0,0,1-.413-1.332h1.133a1.471,1.471,0,0,0,.572,1.224,2.408,2.408,0,0,0,1.529.449,2.211,2.211,0,0,0,1.367-.364,1.181,1.181,0,0,0,.476-.991,1.161,1.161,0,0,0-.441-.972,5.067,5.067,0,0,0-1.6-.678" transform="translate(-244.265 -66.864)"/>
    <path id="Trazado_112640" data-name="Trazado 112640" d="M853.391,235.709v3.345h-1.127V230.51h3.152a3.167,3.167,0,0,1,2.2.716,2.428,2.428,0,0,1,.795,1.9,2.4,2.4,0,0,1-.777,1.916,3.31,3.31,0,0,1-2.227.671Zm0-.921h2.025a2.025,2.025,0,0,0,1.385-.427,1.56,1.56,0,0,0,.481-1.231,1.613,1.613,0,0,0-.481-1.223,1.9,1.9,0,0,0-1.321-.476h-2.089Z" transform="translate(-247.394 -66.912)"/>
    <path id="Trazado_112641" data-name="Trazado 112641" d="M841.55,254.976h-1.092V247.74l-2.19.8v-.986l3.111-1.167h.17Z" transform="translate(-243.332 -71.522)"/>
    <path id="Trazado_112642" data-name="Trazado 112642" d="M852.716,251.3a4.967,4.967,0,0,1-.651,2.835,2.707,2.707,0,0,1-4.061.021,4.706,4.706,0,0,1-.681-2.708V250a4.855,4.855,0,0,1,.651-2.8,2.756,2.756,0,0,1,4.073-.033,4.688,4.688,0,0,1,.669,2.726Zm-1.085-1.485a3.976,3.976,0,0,0-.388-2.009,1.332,1.332,0,0,0-1.226-.631,1.316,1.316,0,0,0-1.215.627,3.9,3.9,0,0,0-.393,1.931v1.737a4.044,4.044,0,0,0,.4,2.045,1.332,1.332,0,0,0,1.218.661,1.313,1.313,0,0,0,1.194-.622,3.9,3.9,0,0,0,.408-1.96Z" transform="translate(-245.96 -71.491)"/>
    <path id="Trazado_112643" data-name="Trazado 112643" d="M836.88,267.014a9.065,9.065,0,0,1,.356-2.547,7.4,7.4,0,0,1,1.059-2.218,4.514,4.514,0,0,1,1.461-1.409l.223.716a4.668,4.668,0,0,0-1.405,2.007,8.714,8.714,0,0,0-.6,3.022l-.006.5a8.737,8.737,0,0,0,.828,3.932,4.684,4.684,0,0,0,1.185,1.561l-.223.663a4.655,4.655,0,0,1-1.491-1.456,8.16,8.16,0,0,1-1.385-4.771" transform="translate(-242.929 -75.716)"/>
    <path id="Trazado_112644" data-name="Trazado 112644" d="M846.255,270.914h-1.092v-7.236l-2.189.8V263.5l3.111-1.167h.17Z" transform="translate(-244.698 -76.148)"/>
    <path id="Trazado_112645" data-name="Trazado 112645" d="M854.5,267.072a9.094,9.094,0,0,1-.343,2.509,7.437,7.437,0,0,1-1.05,2.215,4.6,4.6,0,0,1-1.483,1.444l-.229-.663a4.715,4.715,0,0,0,1.453-2.151,9.308,9.308,0,0,0,.56-3.236V267a9.641,9.641,0,0,0-.258-2.292,7.734,7.734,0,0,0-.718-1.9,4.384,4.384,0,0,0-1.036-1.309l.229-.663a4.578,4.578,0,0,1,1.476,1.431,7.456,7.456,0,0,1,1.051,2.212,9.293,9.293,0,0,1,.348,2.588" transform="translate(-247.141 -75.716)"/>
  </g>
</svg>
