<svg xmlns="http://www.w3.org/2000/svg" xmlns:xlink="http://www.w3.org/1999/xlink" width="820" height="613" viewBox="0 0 820 613">
  <defs>
    <clipPath id="clip-path">
      <rect id="Rectángulo_7066" data-name="Rectángulo 7066" width="732.785" height="527.312" fill="none"/>
    </clipPath>
  </defs>
  <g id="Grupo_87892" data-name="Grupo 87892" transform="translate(-3729 8939)">
    <rect id="Rectángulo_7065" data-name="Rectángulo 7065" width="820" height="613" transform="translate(3729 -8939)" fill="#fbfbfb"/>
    <g id="Grupo_87812" data-name="Grupo 87812" transform="translate(3773 -8896)">
      <path id="Trazado_112683" data-name="Trazado 112683" d="M85.753,130.248V340.754l6.956-14.49" transform="translate(-5.906 -8.97)" fill="none" stroke="#000" stroke-miterlimit="10" stroke-width="1"/>
      <path id="Trazado_112684" data-name="Trazado 112684" d="M306.382,184.208V394.714l6.956-14.49" transform="translate(-21.1 -12.686)" fill="none" stroke="#000" stroke-miterlimit="10" stroke-width="1"/>
      <path id="Trazado_112685" data-name="Trazado 112685" d="M615.15,252.125V462.631l6.956-14.49" transform="translate(-42.363 -17.363)" fill="none" stroke="#000" stroke-miterlimit="10" stroke-width="1"/>
      <g id="Grupo_87811" data-name="Grupo 87811">
        <g id="Grupo_87810" data-name="Grupo 87810" clip-path="url(#clip-path)">
          <path id="Trazado_112686" data-name="Trazado 112686" d="M98.718,3.348l24.667,12.557S94.681,84.972,98.718,123.99s34.982,53.818,60.545,57.854c0,0-12.557,63.861-13.454,85.3s6.727,60.905,13.454,73.015c0,0-53.37,12.557-90.145,83.418,0,0-32.74,53.818-42.158,101.358L.5,527.039V134.305s32.291,7.175,54.715-32.291S98.718,3.348,98.718,3.348Z" transform="translate(-0.034 -0.231)" fill="none" stroke="#000" stroke-miterlimit="10" stroke-width="1"/>
          <path id="Trazado_112687" data-name="Trazado 112687" d="M285.2,3.348l-24.986,9.707s11.1,66.283,11.1,85.369,7.635,68.018-54.831,84.675c0,0,12.493,56.565,13.188,90.575S216.483,341,216.483,341s38.521,64.894,64.2,92.657,58.648,62.812,76,92.657l26.722-2.429s-29.151-220.71-29.5-226.61,2.429-30.128,2.429-30.128-37.48-.758-44.42-58.712S291.095,18.28,285.2,3.348Z" transform="translate(-14.908 -0.231)" fill="none" stroke="#000" stroke-miterlimit="10" stroke-width="1"/>
          <path id="Trazado_112688" data-name="Trazado 112688" d="M603.5,131.462s-31.558,5.738-52.049-29.509S505.957.723,505.957.723L482.186,14.248s28.279,72.131,24.181,98.771S498.17,168.757,446.53,179c0,0,12.705,56.558,13.115,82.378s-.819,47.131-13.115,75c0,0,59.427,20.492,85.657,75.82,0,0,42.624,73.771,46.312,109.836h51.64s11.066-49.181,38.934-96.721,47.952-72.132,93.854-88.935c0,0-17.214-42.933-14.345-69.418S762.926,179,762.926,179s-45.9-6.967-56.968-43.032c0,0-8.607-26.64,2.049-65.164S726.86,13.428,726.86,13.428L702.679.723s-25,78.689-54.918,112.705C647.761,113.428,634.646,133.1,603.5,131.462Z" transform="translate(-30.751 -0.05)" fill="none" stroke="#000" stroke-miterlimit="10" stroke-width="1"/>
          <line id="Línea_212" data-name="Línea 212" y2="2.328" transform="translate(572.747 131.412)" fill="none" stroke="#000" stroke-miterlimit="10" stroke-width="1"/>
          <line id="Línea_213" data-name="Línea 213" y2="378.946" transform="translate(572.747 138.389)" fill="none" stroke="#000" stroke-miterlimit="10" stroke-width="1" stroke-dasharray="4.994 4.994"/>
          <line id="Línea_214" data-name="Línea 214" y2="2.328" transform="translate(572.747 519.66)" fill="none" stroke="#000" stroke-miterlimit="10" stroke-width="1"/>
          <path id="Trazado_112689" data-name="Trazado 112689" d="M6.357,258.737l1.2-1.976h1.08l-1.77,2.676,1.825,2.736H7.623l-1.251-2.025-1.251,2.025H4.047l1.825-2.736L4.1,256.761h1.07Z" transform="translate(-0.279 -17.682)"/>
          <path id="Trazado_112690" data-name="Trazado 112690" d="M6.357,268.737l1.2-1.976h1.08l-1.77,2.676,1.825,2.736H7.623l-1.251-2.025-1.251,2.025H4.047l1.825-2.736L4.1,266.761h1.07Z" transform="translate(-0.279 -18.371)"/>
          <path id="Trazado_112691" data-name="Trazado 112691" d="M6.357,278.737l1.2-1.976h1.08l-1.77,2.676,1.825,2.736H7.623l-1.251-2.025-1.251,2.025H4.047l1.825-2.736L4.1,276.761h1.07Z" transform="translate(-0.279 -19.06)"/>
          <path id="Trazado_112692" data-name="Trazado 112692" d="M77.864,223.883H73.419v4.677h-1.4V217.969h6.561v1.142H73.419v3.63h4.444Z" transform="translate(-4.96 -15.011)"/>
          <path id="Trazado_112693" data-name="Trazado 112693" d="M84.75,224.276H82.262v4.284h-1.4V217.969h3.507a4.154,4.154,0,0,1,2.753.815,2.933,2.933,0,0,1,.964,2.372,2.852,2.852,0,0,1-.534,1.724,3.191,3.191,0,0,1-1.488,1.1l2.488,4.5v.088h-1.5Zm-2.488-1.142h2.146a2.421,2.421,0,0,0,1.655-.539,1.824,1.824,0,0,0,.615-1.443,1.922,1.922,0,0,0-.586-1.508,2.477,2.477,0,0,0-1.691-.532H82.262Z" transform="translate(-5.568 -15.011)"/>
          <path id="Trazado_112694" data-name="Trazado 112694" d="M98.858,228.561h-1.4L92.122,220.4v8.162h-1.4V217.969h1.4l5.347,8.2v-8.2h1.389Z" transform="translate(-6.247 -15.011)"/>
          <path id="Trazado_112695" data-name="Trazado 112695" d="M82.163,244.557H80.81v-8.97l-2.713,1v-1.222l3.855-1.448h.211Z" transform="translate(-5.378 -16.109)"/>
          <path id="Trazado_112696" data-name="Trazado 112696" d="M93.336,240.033a6.156,6.156,0,0,1-.807,3.513,3.355,3.355,0,0,1-5.034.025,5.828,5.828,0,0,1-.844-3.357v-1.8a6.016,6.016,0,0,1,.807-3.469,3.415,3.415,0,0,1,5.049-.04,5.8,5.8,0,0,1,.829,3.379Zm-1.345-1.841a4.929,4.929,0,0,0-.48-2.492,1.653,1.653,0,0,0-1.52-.782,1.633,1.633,0,0,0-1.507.778A4.819,4.819,0,0,0,88,238.091v2.153a5.008,5.008,0,0,0,.5,2.535A1.649,1.649,0,0,0,90,243.6a1.627,1.627,0,0,0,1.481-.771,4.837,4.837,0,0,0,.506-2.43Z" transform="translate(-5.967 -16.102)"/>
          <path id="Trazado_112697" data-name="Trazado 112697" d="M76.784,256.161a11.223,11.223,0,0,1,.44-3.157,9.178,9.178,0,0,1,1.313-2.75,5.593,5.593,0,0,1,1.811-1.746l.277.887a5.793,5.793,0,0,0-1.742,2.488,10.788,10.788,0,0,0-.746,3.747l-.007.618a10.833,10.833,0,0,0,1.026,4.874,5.82,5.82,0,0,0,1.469,1.935l-.277.822a5.766,5.766,0,0,1-1.847-1.8,10.107,10.107,0,0,1-1.717-5.915" transform="translate(-5.288 -17.114)"/>
          <path id="Trazado_112698" data-name="Trazado 112698" d="M86.608,260.557H85.255v-8.97l-2.713,1v-1.222l3.855-1.448h.211Z" transform="translate(-5.684 -17.211)"/>
          <path id="Trazado_112699" data-name="Trazado 112699" d="M94.343,256.234a11.239,11.239,0,0,1-.426,3.11,9.215,9.215,0,0,1-1.3,2.746,5.713,5.713,0,0,1-1.837,1.79l-.284-.822a5.859,5.859,0,0,0,1.8-2.666,11.548,11.548,0,0,0,.695-4.012v-.233a11.994,11.994,0,0,0-.32-2.841,9.592,9.592,0,0,0-.891-2.353A5.444,5.444,0,0,0,90.5,249.33l.284-.822a5.7,5.7,0,0,1,1.83,1.775,9.233,9.233,0,0,1,1.3,2.743,11.506,11.506,0,0,1,.433,3.208" transform="translate(-6.232 -17.114)"/>
          <path id="Trazado_112700" data-name="Trazado 112700" d="M299.349,279.255h-4.591v3.753h5.333v1.143h-6.729V273.559h6.657V274.7h-5.26v3.412h4.591Z" transform="translate(-20.203 -18.839)"/>
          <path id="Trazado_112701" data-name="Trazado 112701" d="M305.529,279.419a6.57,6.57,0,0,1-2.616-1.269,2.424,2.424,0,0,1-.818-1.859,2.561,2.561,0,0,1,1-2.07,3.973,3.973,0,0,1,2.6-.818,4.345,4.345,0,0,1,1.946.422,3.2,3.2,0,0,1,1.323,1.164,2.975,2.975,0,0,1,.469,1.622h-1.4a1.936,1.936,0,0,0-.612-1.515,2.485,2.485,0,0,0-1.724-.55,2.544,2.544,0,0,0-1.612.455,1.52,1.52,0,0,0-.578,1.264,1.366,1.366,0,0,0,.549,1.1,5.394,5.394,0,0,0,1.87.819,8.708,8.708,0,0,1,2.066.819,3.14,3.14,0,0,1,1.105,1.044,2.663,2.663,0,0,1,.36,1.4,2.477,2.477,0,0,1-1,2.062,4.285,4.285,0,0,1-2.684.775,4.973,4.973,0,0,1-2.037-.419,3.42,3.42,0,0,1-1.458-1.145,2.8,2.8,0,0,1-.513-1.652h1.4a1.823,1.823,0,0,0,.71,1.517,2.979,2.979,0,0,0,1.895.557,2.745,2.745,0,0,0,1.695-.451,1.465,1.465,0,0,0,.589-1.23,1.438,1.438,0,0,0-.546-1.2,6.325,6.325,0,0,0-1.979-.84" transform="translate(-20.781 -18.828)"/>
          <path id="Trazado_112702" data-name="Trazado 112702" d="M313.345,280v4.146h-1.4V273.559h3.906a3.929,3.929,0,0,1,2.724.887,3.011,3.011,0,0,1,.986,2.349,2.971,2.971,0,0,1-.964,2.375,4.1,4.1,0,0,1-2.761.833Zm0-1.142h2.509a2.513,2.513,0,0,0,1.717-.528,1.933,1.933,0,0,0,.6-1.527,2,2,0,0,0-.6-1.516,2.356,2.356,0,0,0-1.637-.59h-2.589Z" transform="translate(-21.483 -18.839)"/>
          <path id="Trazado_112703" data-name="Trazado 112703" d="M302.792,300.147h-1.353v-8.97l-2.713,1v-1.222l3.855-1.448h.211Z" transform="translate(-20.572 -19.937)"/>
          <path id="Trazado_112704" data-name="Trazado 112704" d="M313.966,295.623a6.156,6.156,0,0,1-.807,3.513,3.355,3.355,0,0,1-5.034.025,5.828,5.828,0,0,1-.844-3.357v-1.8a6.016,6.016,0,0,1,.807-3.469,3.415,3.415,0,0,1,5.049-.04,5.8,5.8,0,0,1,.829,3.379Zm-1.345-1.841a4.929,4.929,0,0,0-.48-2.492,1.653,1.653,0,0,0-1.52-.782,1.631,1.631,0,0,0-1.507.778,4.82,4.82,0,0,0-.487,2.394v2.153a5.008,5.008,0,0,0,.5,2.535,1.649,1.649,0,0,0,1.509.818,1.628,1.628,0,0,0,1.48-.771,4.838,4.838,0,0,0,.506-2.43Z" transform="translate(-21.161 -19.93)"/>
          <path id="Trazado_112705" data-name="Trazado 112705" d="M297.413,311.751a11.224,11.224,0,0,1,.44-3.157,9.157,9.157,0,0,1,1.313-2.75,5.593,5.593,0,0,1,1.811-1.746l.277.887a5.791,5.791,0,0,0-1.742,2.488,10.792,10.792,0,0,0-.746,3.747l-.007.618a10.833,10.833,0,0,0,1.026,4.874,5.82,5.82,0,0,0,1.469,1.935l-.277.822a5.767,5.767,0,0,1-1.847-1.8,10.107,10.107,0,0,1-1.717-5.915" transform="translate(-20.482 -20.942)"/>
          <path id="Trazado_112706" data-name="Trazado 112706" d="M307.237,316.147h-1.353v-8.97l-2.713,1v-1.223l3.855-1.448h.211Z" transform="translate(-20.878 -21.039)"/>
          <path id="Trazado_112707" data-name="Trazado 112707" d="M314.972,311.824a11.239,11.239,0,0,1-.426,3.11,9.238,9.238,0,0,1-1.3,2.746,5.713,5.713,0,0,1-1.837,1.79l-.284-.822a5.859,5.859,0,0,0,1.8-2.666,11.569,11.569,0,0,0,.695-4.012v-.233a11.994,11.994,0,0,0-.32-2.841,9.63,9.63,0,0,0-.891-2.353,5.457,5.457,0,0,0-1.284-1.622l.284-.822a5.707,5.707,0,0,1,1.83,1.775,9.233,9.233,0,0,1,1.3,2.743,11.507,11.507,0,0,1,.433,3.208" transform="translate(-21.426 -20.942)"/>
          <path id="Trazado_112708" data-name="Trazado 112708" d="M608.539,327.137h-4.444v4.677h-1.4V321.222h6.561v1.142h-5.164v3.63h4.444Z" transform="translate(-41.506 -22.121)"/>
          <path id="Trazado_112709" data-name="Trazado 112709" d="M615.425,327.531h-2.488v4.284h-1.4V321.223h3.507a4.153,4.153,0,0,1,2.753.815,2.936,2.936,0,0,1,.964,2.372,2.852,2.852,0,0,1-.534,1.724,3.191,3.191,0,0,1-1.488,1.1l2.488,4.5v.088h-1.5Zm-2.488-1.143h2.146a2.421,2.421,0,0,0,1.655-.539,1.827,1.827,0,0,0,.615-1.443,1.922,1.922,0,0,0-.586-1.508,2.478,2.478,0,0,0-1.691-.532h-2.139Z" transform="translate(-42.114 -22.122)"/>
          <path id="Trazado_112710" data-name="Trazado 112710" d="M629.533,331.814h-1.4l-5.332-8.162v8.162h-1.4V321.223h1.4l5.347,8.2v-8.2h1.389Z" transform="translate(-42.793 -22.122)"/>
          <path id="Trazado_112711" data-name="Trazado 112711" d="M612.838,347.81h-1.353v-8.97l-2.713,1v-1.222l3.855-1.448h.211Z" transform="translate(-41.924 -23.22)"/>
          <path id="Trazado_112712" data-name="Trazado 112712" d="M624.012,343.287a6.157,6.157,0,0,1-.807,3.513,3.355,3.355,0,0,1-5.034.025,5.828,5.828,0,0,1-.844-3.357v-1.8a6.016,6.016,0,0,1,.807-3.469,3.415,3.415,0,0,1,5.049-.04,5.8,5.8,0,0,1,.829,3.379Zm-1.345-1.841a4.929,4.929,0,0,0-.48-2.492,1.653,1.653,0,0,0-1.52-.782,1.631,1.631,0,0,0-1.507.778,4.819,4.819,0,0,0-.487,2.394V343.5a5.008,5.008,0,0,0,.5,2.535,1.649,1.649,0,0,0,1.509.818,1.628,1.628,0,0,0,1.481-.771,4.837,4.837,0,0,0,.506-2.43Z" transform="translate(-42.513 -23.213)"/>
          <path id="Trazado_112713" data-name="Trazado 112713" d="M607.459,359.414a11.222,11.222,0,0,1,.44-3.157,9.154,9.154,0,0,1,1.313-2.75,5.594,5.594,0,0,1,1.811-1.746l.277.887a5.785,5.785,0,0,0-1.742,2.488,10.789,10.789,0,0,0-.746,3.747l-.007.618a10.833,10.833,0,0,0,1.026,4.874,5.82,5.82,0,0,0,1.469,1.935l-.277.822a5.766,5.766,0,0,1-1.847-1.8,10.107,10.107,0,0,1-1.717-5.915" transform="translate(-41.834 -24.225)"/>
          <path id="Trazado_112714" data-name="Trazado 112714" d="M617.284,363.81h-1.353v-8.97l-2.713,1v-1.222l3.855-1.448h.211Z" transform="translate(-42.23 -24.321)"/>
          <path id="Trazado_112715" data-name="Trazado 112715" d="M625.018,359.488a11.239,11.239,0,0,1-.425,3.11,9.238,9.238,0,0,1-1.3,2.746,5.712,5.712,0,0,1-1.837,1.79l-.284-.822a5.859,5.859,0,0,0,1.8-2.666,11.567,11.567,0,0,0,.695-4.012V359.4a12,12,0,0,0-.32-2.841,9.631,9.631,0,0,0-.891-2.353,5.444,5.444,0,0,0-1.284-1.622l.284-.822a5.7,5.7,0,0,1,1.83,1.775,9.234,9.234,0,0,1,1.3,2.743,11.507,11.507,0,0,1,.433,3.208" transform="translate(-42.778 -24.225)"/>
        </g>
      </g>
    </g>
  </g>
</svg>
