<svg id="Grupo_87801" data-name="Grupo 87801" xmlns="http://www.w3.org/2000/svg" xmlns:xlink="http://www.w3.org/1999/xlink" width="263.895" height="431.642" viewBox="0 0 263.895 431.642">
  <defs>
    <clipPath id="clip-path">
      <rect id="Rectángulo_7050" data-name="Rectángulo 7050" width="263.895" height="431.642" fill="none"/>
    </clipPath>
  </defs>
  <g id="Grupo_87800" data-name="Grupo 87800" clip-path="url(#clip-path)">
    <path id="Trazado_112466" data-name="Trazado 112466" d="M45.931,430.294a.389.389,0,0,1-.384-.432c.041-.343,4.341-34.689,27.082-62.611,19.852-24.375,46.744-38.477,53.448-41.752H21.789v-.774H127.351L115.508,237.5a.384.384,0,0,1,0-.126l19.078-97.991c-11.136-1.154-22.757-5.1-25.467-24.674-2.46-17.76,5.16-54.36,6.023-58.411L55.785,40.808c-.87,3.182-6.927,24.146-16.542,28.725-10.14,4.83-17.222,3.706-17.518,3.656l.128-.763c.071.012,7.156,1.123,17.057-3.591,9.87-4.7,16.164-28.358,16.227-28.6a.389.389,0,0,1,.472-.276L115.7,55.638a.385.385,0,0,1,.28.456c-.087.4-8.663,39.919-6.091,58.5,2.671,19.289,14.238,22.983,25.2,24.053a.387.387,0,0,1,.342.459l-19.148,98.346,11.894,87.6c0,.014,0,.028,0,.042v0a.4.4,0,0,1-.015.118h0v0h0v0h0a.389.389,0,0,1-.063.12L46.236,430.145a.388.388,0,0,1-.3.149M126.484,326.16c-6.525,3.181-33.424,17.229-53.256,41.578-19.966,24.516-25.627,54-26.7,60.781Z" transform="translate(-4.92 -9.048)"/>
    <path id="Trazado_112467" data-name="Trazado 112467" d="M263.956,424.138l-80.934-105.42.021-.159,11.47-88.126L175.155,132.25l.429-.038c.2-.018,20.519-2.157,22.447-32.517,1.949-30.69-2.42-71.059-2.465-71.464l-.037-.34,61.047-14.452.143.255c.06.11,6.211,10.9,18.407,10.9h13.867v.774H275.127c-11.588,0-17.9-9.37-18.933-11.045L196.371,28.487c.42,3.991,4.289,42,2.432,71.257-1.815,28.578-19.721,32.691-22.727,33.18l19.22,97.484-.008.063L183.831,318.5,264.57,423.667Z" transform="translate(-39.67 -3.044)"/>
    <path id="Trazado_112468" data-name="Trazado 112468" d="M259.927,505.21c-2.588-3.371-7.816-7.715-13.869-12.744-8.533-7.091-19.154-15.915-27.346-26.1-13.875-17.259-33.2-57.937-33.393-58.346l-.261-.552H291.236v.773H186.282c2.368,4.94,20.1,41.548,33.033,57.639,8.143,10.13,18.73,18.926,27.237,26,6.089,5.059,11.347,9.427,13.988,12.867Z" transform="translate(-41.913 -92.284)"/>
    <rect id="Rectángulo_7041" data-name="Rectángulo 7041" width="9.037" height="0.774" transform="matrix(0.809, -0.588, 0.588, 0.809, 176.875, 373.523)"/>
    <rect id="Rectángulo_7042" data-name="Rectángulo 7042" width="0.773" height="17.157" transform="translate(67.781 358.76) rotate(-54.03)"/>
    <rect id="Rectángulo_7043" data-name="Rectángulo 7043" width="94.089" height="0.774" transform="translate(155.235 226.991)"/>
    <rect id="Rectángulo_7044" data-name="Rectángulo 7044" width="113.376" height="0.774" transform="translate(135.948 129.166)"/>
    <rect id="Rectángulo_7045" data-name="Rectángulo 7045" width="113.261" height="0.774" transform="translate(16.869 129.601)"/>
    <rect id="Rectángulo_7046" data-name="Rectángulo 7046" width="94.102" height="0.774" transform="translate(16.869 228.01)"/>
    <path id="Trazado_112469" data-name="Trazado 112469" d="M254.537,424.307H21.309V33.962H160.68V13.513h93.858Zm-232.455-.774H253.764V14.287H161.453V132.614h-.774V34.736H22.083Z" transform="translate(-4.826 -3.06)"/>
    <rect id="Rectángulo_7047" data-name="Rectángulo 7047" width="0.774" height="98.699" transform="translate(109.051 31.289)"/>
    <rect id="Rectángulo_7048" data-name="Rectángulo 7048" width="4.981" height="0.774" transform="translate(104.456 87.805)"/>
    <path id="Trazado_112470" data-name="Trazado 112470" d="M97.99,294.156V116.005h.774V290.1l5.1-12.895.719.285Z" transform="translate(-22.193 -26.273)"/>
    <path id="Trazado_112471" data-name="Trazado 112471" d="M63,29.68l.336-3.291h3.381v.775H64.049l-.2,1.8a2.129,2.129,0,0,1,1.1-.285,1.82,1.82,0,0,1,1.432.6,2.335,2.335,0,0,1,.531,1.611,2.256,2.256,0,0,1-.551,1.607,2.008,2.008,0,0,1-1.539.587,2.085,2.085,0,0,1-1.427-.485,1.938,1.938,0,0,1-.63-1.342h.794a1.332,1.332,0,0,0,.4.855,1.255,1.255,0,0,0,.861.288,1.132,1.132,0,0,0,.918-.4,1.668,1.668,0,0,0,.333-1.1,1.533,1.533,0,0,0-.36-1.063,1.228,1.228,0,0,0-.958-.4,1.384,1.384,0,0,0-.862.24l-.222.182Z" transform="translate(-14.215 -5.977)"/>
    <path id="Trazado_112472" data-name="Trazado 112472" d="M12.571,41.638h-.843V36.05l-1.69.621V35.91l2.4-.9h.131Z" transform="translate(-2.273 -7.929)"/>
    <path id="Trazado_112473" data-name="Trazado 112473" d="M13.056,80.224v.712H12.9a2.211,2.211,0,0,0-1.559.58,2.415,2.415,0,0,0-.671,1.582,1.788,1.788,0,0,1,1.423-.6,1.709,1.709,0,0,1,1.375.607,2.662,2.662,0,0,1-.041,3.2,1.912,1.912,0,0,1-1.489.612,1.884,1.884,0,0,1-1.536-.728,2.882,2.882,0,0,1-.589-1.874v-.322a4.343,4.343,0,0,1,.777-2.785,2.856,2.856,0,0,1,2.314-.986Zm-1.1,2.973a1.41,1.41,0,0,0-1.3.907v.308a2.164,2.164,0,0,0,.367,1.315,1.1,1.1,0,0,0,.915.5,1.068,1.068,0,0,0,.891-.417,2,2,0,0,0,0-2.191,1.054,1.054,0,0,0-.873-.419" transform="translate(-2.223 -18.169)"/>
    <path id="Trazado_112474" data-name="Trazado 112474" d="M117.147,115.2H116.3v-5.589l-1.69.621v-.761l2.4-.9h.132Z" transform="translate(-25.958 -24.59)"/>
    <path id="Trazado_112475" data-name="Trazado 112475" d="M123.885,115.2h-.843v-5.589l-1.69.621v-.761l2.4-.9h.132Z" transform="translate(-27.484 -24.59)"/>
    <path id="Trazado_112476" data-name="Trazado 112476" d="M150.909,115.2h-.843v-5.589l-1.69.621v-.761l2.4-.9h.132Z" transform="translate(-33.605 -24.59)"/>
    <path id="Trazado_112477" data-name="Trazado 112477" d="M158.956,112.371a3.837,3.837,0,0,1-.5,2.189,2.091,2.091,0,0,1-3.137.016,3.64,3.64,0,0,1-.526-2.092v-1.119a3.746,3.746,0,0,1,.5-2.162,1.8,1.8,0,0,1,1.577-.707,1.821,1.821,0,0,1,1.568.681,3.619,3.619,0,0,1,.517,2.106Zm-.838-1.146a3.071,3.071,0,0,0-.3-1.552,1.029,1.029,0,0,0-.947-.487,1.016,1.016,0,0,0-.938.485,3,3,0,0,0-.3,1.491V112.5a3.116,3.116,0,0,0,.311,1.58,1.026,1.026,0,0,0,.94.511,1.014,1.014,0,0,0,.923-.481,3.008,3.008,0,0,0,.315-1.514Z" transform="translate(-35.058 -24.573)"/>
    <path id="Trazado_112478" data-name="Trazado 112478" d="M151.859,59.379a2.045,2.045,0,0,1-.628.5,1.7,1.7,0,0,1-.8.19,1.759,1.759,0,0,1-.995-.281,1.833,1.833,0,0,1-.655-.791,2.7,2.7,0,0,1-.23-1.126,2.743,2.743,0,0,1,.251-1.192,1.846,1.846,0,0,1,.714-.811,2.035,2.035,0,0,1,1.078-.281,1.842,1.842,0,0,1,1.543.732,3.189,3.189,0,0,1,.565,2v.244a4.264,4.264,0,0,1-.762,2.813,2.924,2.924,0,0,1-2.3.909h-.163v-.712h.176a2,2,0,0,0,2.2-2.194m-1.292,0a1.294,1.294,0,0,0,.777-.258,1.525,1.525,0,0,0,.519-.639v-.336a2.309,2.309,0,0,0-.358-1.341,1.094,1.094,0,0,0-1.795-.093,1.747,1.747,0,0,0-.336,1.117,1.822,1.822,0,0,0,.324,1.113,1.025,1.025,0,0,0,.868.437" transform="translate(-33.644 -12.59)"/>
    <path id="Trazado_112479" data-name="Trazado 112479" d="M165.711,155.638h.916v.685h-.916v1.532h-.843v-1.532h-3v-.494l2.955-4.573h.893Zm-2.9,0h2.053V152.4l-.1.182Z" transform="translate(-36.66 -34.257)"/>
    <path id="Trazado_112480" data-name="Trazado 112480" d="M144.851,176.194l-2.733,6.128h-.879l2.724-5.91h-3.572v-.688h4.46Z" transform="translate(-31.796 -39.798)"/>
    <path id="Trazado_112481" data-name="Trazado 112481" d="M198.944,182.3H194.62v-.6l2.284-2.539a5.4,5.4,0,0,0,.7-.936,1.558,1.558,0,0,0,.193-.745,1.182,1.182,0,0,0-.313-.848,1.093,1.093,0,0,0-.834-.331,1.3,1.3,0,0,0-.972.356,1.359,1.359,0,0,0-.347.99h-.838a1.946,1.946,0,0,1,.587-1.473,2.176,2.176,0,0,1,1.57-.562,2.091,2.091,0,0,1,1.455.483,1.645,1.645,0,0,1,.535,1.285,3.775,3.775,0,0,1-1.242,2.321l-1.767,1.917h3.313Z" transform="translate(-44.049 -39.772)"/>
    <path id="Trazado_112482" data-name="Trazado 112482" d="M205.6,176.194l-2.733,6.128h-.88l2.724-5.91h-3.572v-.688h4.46Z" transform="translate(-45.554 -39.798)"/>
    <path id="Trazado_112483" data-name="Trazado 112483" d="M183.539,292.735h.63a1.386,1.386,0,0,0,.934-.312,1.047,1.047,0,0,0,.34-.821,1.023,1.023,0,0,0-1.156-1.16,1.2,1.2,0,0,0-.868.311,1.084,1.084,0,0,0-.324.822h-.839a1.685,1.685,0,0,1,.573-1.3,2.089,2.089,0,0,1,1.457-.518,2.063,2.063,0,0,1,1.463.493,1.786,1.786,0,0,1,.531,1.374,1.45,1.45,0,0,1-.278.834,1.691,1.691,0,0,1-.76.6,1.623,1.623,0,0,1,.841.571,1.586,1.586,0,0,1,.3.975,1.8,1.8,0,0,1-.58,1.409,2.17,2.17,0,0,1-1.509.521,2.232,2.232,0,0,1-1.511-.5,1.67,1.67,0,0,1-.582-1.328h.842a1.078,1.078,0,0,0,.34.834,1.291,1.291,0,0,0,.911.312,1.268,1.268,0,0,0,.929-.317,1.223,1.223,0,0,0,.322-.91,1.109,1.109,0,0,0-.354-.884,1.54,1.54,0,0,0-1.02-.317h-.63Z" transform="translate(-41.265 -65.624)"/>
    <path id="Trazado_112484" data-name="Trazado 112484" d="M190.277,292.735h.63a1.386,1.386,0,0,0,.934-.312,1.046,1.046,0,0,0,.34-.821,1.023,1.023,0,0,0-1.156-1.16,1.2,1.2,0,0,0-.868.311,1.084,1.084,0,0,0-.324.822h-.838a1.685,1.685,0,0,1,.573-1.3,2.089,2.089,0,0,1,1.457-.518,2.063,2.063,0,0,1,1.464.493,1.786,1.786,0,0,1,.531,1.374,1.45,1.45,0,0,1-.278.834,1.691,1.691,0,0,1-.76.6,1.623,1.623,0,0,1,.841.571,1.586,1.586,0,0,1,.3.975,1.8,1.8,0,0,1-.58,1.409,2.17,2.17,0,0,1-1.509.521,2.232,2.232,0,0,1-1.511-.5,1.67,1.67,0,0,1-.582-1.328h.842a1.078,1.078,0,0,0,.34.834,1.291,1.291,0,0,0,.911.312,1.268,1.268,0,0,0,.929-.317,1.223,1.223,0,0,0,.322-.91,1.109,1.109,0,0,0-.353-.884,1.54,1.54,0,0,0-1.02-.317h-.63Z" transform="translate(-42.791 -65.624)"/>
    <path id="Trazado_112485" data-name="Trazado 112485" d="M153.523,296.459h-.843V290.87l-1.69.621v-.761l2.4-.9h.132Z" transform="translate(-34.197 -65.641)"/>
    <path id="Trazado_112486" data-name="Trazado 112486" d="M161.728,296.442H157.4v-.6l2.284-2.539a5.4,5.4,0,0,0,.7-.936,1.559,1.559,0,0,0,.193-.745,1.182,1.182,0,0,0-.313-.848,1.094,1.094,0,0,0-.834-.331,1.3,1.3,0,0,0-.972.356,1.359,1.359,0,0,0-.347.99h-.839a1.946,1.946,0,0,1,.587-1.473,2.176,2.176,0,0,1,1.57-.562,2.091,2.091,0,0,1,1.455.483,1.645,1.645,0,0,1,.535,1.285,3.775,3.775,0,0,1-1.241,2.321l-1.767,1.917h3.313Z" transform="translate(-35.621 -65.624)"/>
    <path id="Trazado_112487" data-name="Trazado 112487" d="M9.425,296.442H5.1v-.6L7.385,293.3a5.4,5.4,0,0,0,.7-.936,1.558,1.558,0,0,0,.193-.745,1.182,1.182,0,0,0-.313-.848,1.094,1.094,0,0,0-.834-.331,1.3,1.3,0,0,0-.972.356,1.359,1.359,0,0,0-.347.99H4.974a1.946,1.946,0,0,1,.587-1.473,2.176,2.176,0,0,1,1.57-.562,2.091,2.091,0,0,1,1.455.483,1.645,1.645,0,0,1,.535,1.285,3.775,3.775,0,0,1-1.241,2.321l-1.767,1.917H9.425Z" transform="translate(-1.127 -65.624)"/>
    <path id="Trazado_112488" data-name="Trazado 112488" d="M140.255,400.523h-.843v-5.589l-1.69.621v-.761l2.4-.9h.132Z" transform="translate(-31.192 -89.21)"/>
    <path id="Trazado_112489" data-name="Trazado 112489" d="M144.6,397.224l.336-3.291h3.381v.775h-2.669l-.2,1.8a2.129,2.129,0,0,1,1.1-.285,1.82,1.82,0,0,1,1.432.6,2.335,2.335,0,0,1,.531,1.611,2.256,2.256,0,0,1-.551,1.607,2.008,2.008,0,0,1-1.539.587,2.085,2.085,0,0,1-1.427-.485,1.938,1.938,0,0,1-.63-1.342h.794a1.332,1.332,0,0,0,.4.855,1.255,1.255,0,0,0,.861.288,1.132,1.132,0,0,0,.918-.4,1.668,1.668,0,0,0,.333-1.1,1.533,1.533,0,0,0-.36-1.063,1.228,1.228,0,0,0-.958-.4,1.384,1.384,0,0,0-.862.24l-.222.182Z" transform="translate(-32.696 -89.219)"/>
    <path id="Trazado_112490" data-name="Trazado 112490" d="M72.017,458.717h-.843v-5.589l-1.69.621v-.761l2.4-.9h.132Z" transform="translate(-15.737 -102.39)"/>
    <path id="Trazado_112491" data-name="Trazado 112491" d="M79.924,453.823a1.536,1.536,0,0,1-.261.879,1.776,1.776,0,0,1-.7.6,1.9,1.9,0,0,1,.818.648,1.629,1.629,0,0,1,.3.965,1.726,1.726,0,0,1-.578,1.364,2.535,2.535,0,0,1-3.046,0,1.734,1.734,0,0,1-.573-1.362,1.679,1.679,0,0,1,.292-.965,1.825,1.825,0,0,1,.809-.653,1.728,1.728,0,0,1-.694-.6,1.559,1.559,0,0,1-.254-.875,1.706,1.706,0,0,1,.535-1.324,2.27,2.27,0,0,1,2.816,0,1.7,1.7,0,0,1,.538,1.324M79.24,456.9a1.214,1.214,0,0,0-.351-.9,1.246,1.246,0,0,0-.918-.35,1.18,1.18,0,0,0-1.251,1.252,1.171,1.171,0,0,0,.333.883,1.488,1.488,0,0,0,1.851,0,1.168,1.168,0,0,0,.336-.881m-1.26-4.2a1.08,1.08,0,0,0-.8.306,1.264,1.264,0,0,0,0,1.645,1.2,1.2,0,0,0,1.609,0,1.239,1.239,0,0,0-.012-1.634,1.067,1.067,0,0,0-.793-.317" transform="translate(-17.186 -102.373)"/>
    <path id="Trazado_112492" data-name="Trazado 112492" d="M2.534,412.281H1.691v-5.589L0,407.313v-.761l2.4-.9h.131Z" transform="translate(0 -91.873)"/>
    <path id="Trazado_112493" data-name="Trazado 112493" d="M9.9,410.074h.916v.685H9.9v1.532H9.057v-1.532h-3v-.494l2.955-4.573H9.9Zm-2.9,0H9.057v-3.236l-.1.182Z" transform="translate(-1.371 -91.882)"/>
    <path id="Trazado_112494" data-name="Trazado 112494" d="M7.23,555.966H6.387v-5.589L4.7,551v-.761l2.4-.9H7.23Z" transform="translate(-1.064 -124.415)"/>
    <path id="Trazado_112495" data-name="Trazado 112495" d="M12.331,552.242h.63a1.386,1.386,0,0,0,.934-.312,1.046,1.046,0,0,0,.34-.821,1.023,1.023,0,0,0-1.156-1.16,1.2,1.2,0,0,0-.868.311,1.084,1.084,0,0,0-.324.822h-.838a1.685,1.685,0,0,1,.573-1.3,2.089,2.089,0,0,1,1.457-.518,2.063,2.063,0,0,1,1.463.494,1.786,1.786,0,0,1,.531,1.374,1.45,1.45,0,0,1-.278.834,1.691,1.691,0,0,1-.76.6,1.623,1.623,0,0,1,.841.571,1.587,1.587,0,0,1,.3.975,1.8,1.8,0,0,1-.58,1.409,2.17,2.17,0,0,1-1.509.521,2.232,2.232,0,0,1-1.511-.5,1.669,1.669,0,0,1-.582-1.328h.842a1.078,1.078,0,0,0,.34.834,1.291,1.291,0,0,0,.911.313,1.268,1.268,0,0,0,.929-.317,1.223,1.223,0,0,0,.322-.91,1.109,1.109,0,0,0-.353-.884,1.541,1.541,0,0,0-1.02-.317h-.63Z" transform="translate(-2.489 -124.398)"/>
    <path id="Trazado_112496" data-name="Trazado 112496" d="M49.58,555.966h-.843v-5.589l-1.69.621v-.761l2.4-.9h.131Z" transform="translate(-10.655 -124.415)"/>
    <path id="Trazado_112497" data-name="Trazado 112497" d="M56.8,549.371v.712h-.154a2.21,2.21,0,0,0-1.559.58,2.414,2.414,0,0,0-.671,1.582,1.788,1.788,0,0,1,1.423-.6,1.709,1.709,0,0,1,1.375.607,2.662,2.662,0,0,1-.041,3.2,1.912,1.912,0,0,1-1.489.612,1.884,1.884,0,0,1-1.536-.728,2.882,2.882,0,0,1-.589-1.874v-.322a4.343,4.343,0,0,1,.777-2.785,2.856,2.856,0,0,1,2.314-.986Zm-1.1,2.973a1.41,1.41,0,0,0-1.3.907v.308a2.164,2.164,0,0,0,.367,1.315,1.1,1.1,0,0,0,.915.5,1.068,1.068,0,0,0,.891-.417,2,2,0,0,0,0-2.191,1.054,1.054,0,0,0-.873-.419" transform="translate(-12.131 -124.423)"/>
    <path id="Trazado_112498" data-name="Trazado 112498" d="M113.3,488.528h-.843v-5.589l-1.69.621V482.8l2.4-.9h.131Z" transform="translate(-25.087 -109.142)"/>
    <path id="Trazado_112499" data-name="Trazado 112499" d="M121.419,482.41l-2.733,6.128h-.879l2.724-5.91h-3.572v-.688h4.46Z" transform="translate(-26.489 -109.151)"/>
    <path id="Trazado_112500" data-name="Trazado 112500" d="M194.019,396.8h.63a1.386,1.386,0,0,0,.934-.312,1.046,1.046,0,0,0,.34-.821,1.023,1.023,0,0,0-1.156-1.16,1.2,1.2,0,0,0-.868.311,1.084,1.084,0,0,0-.324.822h-.838a1.685,1.685,0,0,1,.573-1.3,2.089,2.089,0,0,1,1.457-.518,2.063,2.063,0,0,1,1.463.493,1.786,1.786,0,0,1,.531,1.374,1.45,1.45,0,0,1-.278.834,1.691,1.691,0,0,1-.76.6,1.623,1.623,0,0,1,.841.571,1.586,1.586,0,0,1,.3.975,1.8,1.8,0,0,1-.58,1.409,2.17,2.17,0,0,1-1.509.521,2.232,2.232,0,0,1-1.511-.5,1.669,1.669,0,0,1-.582-1.328h.842a1.078,1.078,0,0,0,.34.834,1.291,1.291,0,0,0,.911.313,1.268,1.268,0,0,0,.929-.317,1.223,1.223,0,0,0,.322-.91,1.109,1.109,0,0,0-.353-.884,1.54,1.54,0,0,0-1.02-.317h-.63Z" transform="translate(-43.638 -89.193)"/>
    <path id="Trazado_112501" data-name="Trazado 112501" d="M203.023,398.316h.916V399h-.916v1.532h-.843V399h-3v-.494l2.955-4.573h.893Zm-2.9,0h2.053v-3.236l-.1.182Z" transform="translate(-45.11 -89.219)"/>
    <path id="Trazado_112502" data-name="Trazado 112502" d="M245.992,467.378h.63a1.386,1.386,0,0,0,.934-.313,1.046,1.046,0,0,0,.34-.821,1.023,1.023,0,0,0-1.156-1.16,1.2,1.2,0,0,0-.868.311,1.083,1.083,0,0,0-.324.822h-.839a1.685,1.685,0,0,1,.573-1.3,2.089,2.089,0,0,1,1.457-.518,2.063,2.063,0,0,1,1.463.493,1.786,1.786,0,0,1,.531,1.374,1.45,1.45,0,0,1-.278.834,1.692,1.692,0,0,1-.76.6,1.623,1.623,0,0,1,.841.571,1.586,1.586,0,0,1,.3.975,1.8,1.8,0,0,1-.58,1.409,2.17,2.17,0,0,1-1.509.521,2.231,2.231,0,0,1-1.511-.5,1.669,1.669,0,0,1-.582-1.328h.842a1.078,1.078,0,0,0,.34.834,1.291,1.291,0,0,0,.911.313,1.268,1.268,0,0,0,.929-.317,1.223,1.223,0,0,0,.322-.911,1.109,1.109,0,0,0-.353-.884,1.541,1.541,0,0,0-1.02-.317h-.63Z" transform="translate(-55.409 -105.178)"/>
    <path id="Trazado_112503" data-name="Trazado 112503" d="M254.852,464.506v.712H254.7a2.211,2.211,0,0,0-1.559.58,2.414,2.414,0,0,0-.671,1.582,1.788,1.788,0,0,1,1.423-.6,1.709,1.709,0,0,1,1.375.607,2.662,2.662,0,0,1-.041,3.2,1.912,1.912,0,0,1-1.489.612,1.884,1.884,0,0,1-1.536-.728,2.882,2.882,0,0,1-.589-1.874v-.322a4.343,4.343,0,0,1,.777-2.785,2.856,2.856,0,0,1,2.314-.986Zm-1.1,2.973a1.411,1.411,0,0,0-1.3.907v.308a2.164,2.164,0,0,0,.367,1.315,1.1,1.1,0,0,0,.915.5,1.068,1.068,0,0,0,.891-.417,2,2,0,0,0,0-2.191,1.054,1.054,0,0,0-.873-.419" transform="translate(-56.986 -105.203)"/>
    <path id="Trazado_112504" data-name="Trazado 112504" d="M287.284,552.242h.63a1.386,1.386,0,0,0,.934-.312,1.046,1.046,0,0,0,.34-.821,1.023,1.023,0,0,0-1.156-1.16,1.2,1.2,0,0,0-.868.311,1.084,1.084,0,0,0-.324.822H286a1.685,1.685,0,0,1,.573-1.3,2.089,2.089,0,0,1,1.457-.518,2.063,2.063,0,0,1,1.463.494,1.786,1.786,0,0,1,.531,1.374,1.449,1.449,0,0,1-.278.834,1.691,1.691,0,0,1-.76.6,1.623,1.623,0,0,1,.841.571,1.587,1.587,0,0,1,.3.975,1.8,1.8,0,0,1-.58,1.409,2.17,2.17,0,0,1-1.509.521,2.232,2.232,0,0,1-1.511-.5,1.669,1.669,0,0,1-.582-1.328h.842a1.078,1.078,0,0,0,.34.834,1.291,1.291,0,0,0,.911.313,1.268,1.268,0,0,0,.929-.317,1.223,1.223,0,0,0,.322-.91,1.109,1.109,0,0,0-.353-.884,1.541,1.541,0,0,0-1.02-.317h-.63Z" transform="translate(-64.761 -124.398)"/>
    <path id="Trazado_112505" data-name="Trazado 112505" d="M293.268,552.668l.336-3.291h3.381v.775h-2.669l-.2,1.8a2.128,2.128,0,0,1,1.1-.285,1.819,1.819,0,0,1,1.432.6,2.335,2.335,0,0,1,.531,1.611,2.257,2.257,0,0,1-.551,1.607,2.008,2.008,0,0,1-1.539.587,2.085,2.085,0,0,1-1.427-.485,1.938,1.938,0,0,1-.63-1.342h.794a1.332,1.332,0,0,0,.4.855,1.255,1.255,0,0,0,.861.288,1.132,1.132,0,0,0,.918-.4,1.668,1.668,0,0,0,.333-1.1,1.533,1.533,0,0,0-.36-1.063,1.228,1.228,0,0,0-.958-.4,1.385,1.385,0,0,0-.862.24l-.222.182Z" transform="translate(-66.367 -124.425)"/>
    <path id="Trazado_112506" data-name="Trazado 112506" d="M214.205,490.674h.63a1.386,1.386,0,0,0,.934-.312,1.046,1.046,0,0,0,.34-.821,1.024,1.024,0,0,0-1.156-1.16,1.2,1.2,0,0,0-.868.311,1.084,1.084,0,0,0-.324.822h-.838a1.685,1.685,0,0,1,.573-1.3,2.089,2.089,0,0,1,1.457-.518,2.062,2.062,0,0,1,1.463.494,1.786,1.786,0,0,1,.531,1.374,1.45,1.45,0,0,1-.278.834,1.691,1.691,0,0,1-.76.6,1.623,1.623,0,0,1,.841.571,1.587,1.587,0,0,1,.3.975,1.8,1.8,0,0,1-.58,1.409,2.17,2.17,0,0,1-1.509.521,2.232,2.232,0,0,1-1.511-.5,1.67,1.67,0,0,1-.582-1.328h.842a1.078,1.078,0,0,0,.34.834,1.291,1.291,0,0,0,.911.313,1.268,1.268,0,0,0,.929-.317,1.223,1.223,0,0,0,.322-.91,1.109,1.109,0,0,0-.354-.884,1.54,1.54,0,0,0-1.02-.317h-.63Z" transform="translate(-48.21 -110.454)"/>
    <path id="Trazado_112507" data-name="Trazado 112507" d="M223.962,488.28l-2.733,6.128h-.879l2.724-5.91H219.5v-.688h4.46Z" transform="translate(-49.713 -110.481)"/>
    <path id="Trazado_112508" data-name="Trazado 112508" d="M331.778,550.819h-4.324v-.6l2.284-2.539a5.4,5.4,0,0,0,.7-.936,1.559,1.559,0,0,0,.193-.745,1.182,1.182,0,0,0-.313-.848,1.093,1.093,0,0,0-.834-.331,1.3,1.3,0,0,0-.972.356,1.359,1.359,0,0,0-.347.99h-.838a1.946,1.946,0,0,1,.587-1.473,2.176,2.176,0,0,1,1.57-.562,2.091,2.091,0,0,1,1.455.483,1.645,1.645,0,0,1,.534,1.285,3.775,3.775,0,0,1-1.241,2.321l-1.768,1.917h3.313Z" transform="translate(-74.134 -123.236)"/>
    <path id="Trazado_112509" data-name="Trazado 112509" d="M337.678,548.63h.916v.685h-.916v1.532h-.843v-1.532h-3v-.494l2.955-4.573h.893Zm-2.9,0h2.053v-3.236l-.1.182Z" transform="translate(-75.607 -123.263)"/>
    <path id="Trazado_112510" data-name="Trazado 112510" d="M331.778,409.133h-4.324v-.6l2.284-2.539a5.4,5.4,0,0,0,.7-.936,1.559,1.559,0,0,0,.193-.745,1.182,1.182,0,0,0-.313-.848,1.094,1.094,0,0,0-.834-.331,1.3,1.3,0,0,0-.972.356,1.359,1.359,0,0,0-.347.99h-.838a1.946,1.946,0,0,1,.587-1.473,2.176,2.176,0,0,1,1.57-.562,2.091,2.091,0,0,1,1.455.483,1.645,1.645,0,0,1,.534,1.285,3.775,3.775,0,0,1-1.241,2.321l-1.768,1.917h3.313Z" transform="translate(-74.134 -91.147)"/>
    <path id="Trazado_112511" data-name="Trazado 112511" d="M335.413,405.426h.63a1.386,1.386,0,0,0,.934-.312,1.046,1.046,0,0,0,.34-.821,1.024,1.024,0,0,0-1.156-1.16,1.2,1.2,0,0,0-.868.311,1.084,1.084,0,0,0-.324.822h-.838a1.685,1.685,0,0,1,.573-1.3,2.089,2.089,0,0,1,1.457-.518,2.063,2.063,0,0,1,1.464.493,1.786,1.786,0,0,1,.531,1.374,1.45,1.45,0,0,1-.279.834,1.691,1.691,0,0,1-.76.6,1.622,1.622,0,0,1,.841.571,1.587,1.587,0,0,1,.3.975,1.8,1.8,0,0,1-.58,1.409,2.17,2.17,0,0,1-1.509.521,2.231,2.231,0,0,1-1.511-.5,1.67,1.67,0,0,1-.582-1.328h.842a1.078,1.078,0,0,0,.34.834,1.291,1.291,0,0,0,.911.313,1.268,1.268,0,0,0,.929-.317,1.223,1.223,0,0,0,.322-.91,1.109,1.109,0,0,0-.354-.884,1.54,1.54,0,0,0-1.02-.317h-.63Z" transform="translate(-75.662 -91.147)"/>
    <path id="Trazado_112512" data-name="Trazado 112512" d="M333.122,172.349H328.8v-.6l2.284-2.539a5.4,5.4,0,0,0,.7-.936,1.559,1.559,0,0,0,.193-.745,1.182,1.182,0,0,0-.313-.848,1.093,1.093,0,0,0-.834-.331,1.3,1.3,0,0,0-.972.356,1.359,1.359,0,0,0-.347.99h-.839a1.946,1.946,0,0,1,.587-1.473,2.176,2.176,0,0,1,1.57-.562,2.091,2.091,0,0,1,1.455.483,1.645,1.645,0,0,1,.534,1.285,3.775,3.775,0,0,1-1.241,2.321l-1.768,1.917h3.313Z" transform="translate(-74.439 -37.519)"/>
    <path id="Trazado_112513" data-name="Trazado 112513" d="M338.394,172.366h-.843v-5.589l-1.69.621v-.761l2.4-.9h.131Z" transform="translate(-76.067 -37.536)"/>
    <path id="Trazado_112514" data-name="Trazado 112514" d="M333.122,295.124H328.8v-.6l2.284-2.539a5.4,5.4,0,0,0,.7-.936,1.559,1.559,0,0,0,.193-.745,1.182,1.182,0,0,0-.313-.848,1.093,1.093,0,0,0-.834-.331,1.3,1.3,0,0,0-.972.356,1.359,1.359,0,0,0-.347.99h-.839a1.946,1.946,0,0,1,.587-1.473,2.176,2.176,0,0,1,1.57-.562,2.091,2.091,0,0,1,1.455.483,1.645,1.645,0,0,1,.534,1.285,3.775,3.775,0,0,1-1.241,2.321l-1.768,1.917h3.313Z" transform="translate(-74.439 -65.326)"/>
    <path id="Trazado_112515" data-name="Trazado 112515" d="M339.86,295.124h-4.324v-.6l2.284-2.539a5.4,5.4,0,0,0,.7-.936,1.559,1.559,0,0,0,.193-.745,1.182,1.182,0,0,0-.313-.848,1.093,1.093,0,0,0-.834-.331,1.3,1.3,0,0,0-.972.356,1.359,1.359,0,0,0-.347.99h-.839A1.946,1.946,0,0,1,336,289a2.176,2.176,0,0,1,1.57-.562,2.091,2.091,0,0,1,1.455.483,1.645,1.645,0,0,1,.535,1.285,3.775,3.775,0,0,1-1.242,2.321l-1.767,1.917h3.313Z" transform="translate(-75.965 -65.326)"/>
    <path id="Trazado_112516" data-name="Trazado 112516" d="M178.619,157.827h-4.324v-.6l2.284-2.539a5.4,5.4,0,0,0,.7-.936,1.558,1.558,0,0,0,.193-.745,1.182,1.182,0,0,0-.313-.848,1.093,1.093,0,0,0-.834-.331,1.3,1.3,0,0,0-.972.356,1.359,1.359,0,0,0-.347.99h-.838a1.947,1.947,0,0,1,.587-1.473,2.176,2.176,0,0,1,1.57-.562,2.091,2.091,0,0,1,1.455.483,1.645,1.645,0,0,1,.535,1.285,3.775,3.775,0,0,1-1.242,2.321l-1.767,1.917h3.313Z" transform="translate(-39.446 -34.23)"/>
    <path id="Trazado_112517" data-name="Trazado 112517" d="M185.2,155.013a3.837,3.837,0,0,1-.5,2.189,2.091,2.091,0,0,1-3.137.016,3.64,3.64,0,0,1-.526-2.092v-1.119a3.746,3.746,0,0,1,.5-2.162,1.8,1.8,0,0,1,1.577-.707,1.821,1.821,0,0,1,1.568.681,3.62,3.62,0,0,1,.517,2.106Zm-.838-1.146a3.071,3.071,0,0,0-.3-1.552,1.029,1.029,0,0,0-.947-.487,1.016,1.016,0,0,0-.938.485,3,3,0,0,0-.3,1.491v1.341a3.117,3.117,0,0,0,.311,1.58,1.026,1.026,0,0,0,.94.511,1.014,1.014,0,0,0,.923-.481,3.008,3.008,0,0,0,.315-1.514Z" transform="translate(-41.001 -34.23)"/>
    <path id="Trazado_112518" data-name="Trazado 112518" d="M10.934,165.512h.63a1.386,1.386,0,0,0,.934-.312,1.047,1.047,0,0,0,.34-.821,1.023,1.023,0,0,0-1.156-1.16,1.2,1.2,0,0,0-.868.311,1.084,1.084,0,0,0-.324.822H9.652a1.685,1.685,0,0,1,.573-1.3,2.089,2.089,0,0,1,1.457-.518,2.063,2.063,0,0,1,1.463.493,1.786,1.786,0,0,1,.531,1.374,1.45,1.45,0,0,1-.278.834,1.691,1.691,0,0,1-.76.6,1.622,1.622,0,0,1,.841.571,1.586,1.586,0,0,1,.3.975,1.8,1.8,0,0,1-.58,1.409,2.17,2.17,0,0,1-1.509.521,2.232,2.232,0,0,1-1.511-.5,1.67,1.67,0,0,1-.582-1.328h.842a1.078,1.078,0,0,0,.34.834,1.291,1.291,0,0,0,.911.313,1.268,1.268,0,0,0,.929-.317,1.223,1.223,0,0,0,.322-.91,1.109,1.109,0,0,0-.353-.884,1.54,1.54,0,0,0-1.02-.317h-.63Z" transform="translate(-2.173 -36.81)"/>
    <path id="Trazado_112519" data-name="Trazado 112519" d="M142.811,28.085a1.536,1.536,0,0,1-.261.879,1.776,1.776,0,0,1-.7.6,1.9,1.9,0,0,1,.818.648,1.629,1.629,0,0,1,.3.965,1.726,1.726,0,0,1-.578,1.364,2.535,2.535,0,0,1-3.046,0,1.734,1.734,0,0,1-.573-1.362,1.679,1.679,0,0,1,.292-.965,1.825,1.825,0,0,1,.809-.653,1.728,1.728,0,0,1-.694-.6,1.559,1.559,0,0,1-.254-.875,1.706,1.706,0,0,1,.535-1.323,2.27,2.27,0,0,1,2.816,0,1.7,1.7,0,0,1,.538,1.323m-.685,3.078a1.214,1.214,0,0,0-.351-.9,1.246,1.246,0,0,0-.918-.35,1.18,1.18,0,0,0-1.251,1.252,1.171,1.171,0,0,0,.333.883,1.488,1.488,0,0,0,1.851,0,1.168,1.168,0,0,0,.336-.881m-1.26-4.2a1.08,1.08,0,0,0-.8.306,1.264,1.264,0,0,0,0,1.644,1.2,1.2,0,0,0,1.609,0,1.239,1.239,0,0,0-.012-1.634,1.067,1.067,0,0,0-.793-.317" transform="translate(-31.429 -5.95)"/>
    <path id="Trazado_112520" data-name="Trazado 112520" d="M181.7,29.254h.63a1.386,1.386,0,0,0,.934-.312,1.047,1.047,0,0,0,.34-.821,1.024,1.024,0,0,0-1.156-1.16,1.2,1.2,0,0,0-.868.311,1.084,1.084,0,0,0-.324.822h-.838a1.685,1.685,0,0,1,.573-1.3,2.089,2.089,0,0,1,1.457-.518,2.063,2.063,0,0,1,1.464.494,1.786,1.786,0,0,1,.531,1.374,1.45,1.45,0,0,1-.278.834,1.691,1.691,0,0,1-.76.6,1.623,1.623,0,0,1,.841.571,1.587,1.587,0,0,1,.3.975,1.8,1.8,0,0,1-.58,1.409,2.17,2.17,0,0,1-1.509.521,2.232,2.232,0,0,1-1.511-.5,1.669,1.669,0,0,1-.582-1.328h.842a1.078,1.078,0,0,0,.34.834,1.291,1.291,0,0,0,.911.313,1.268,1.268,0,0,0,.929-.317,1.223,1.223,0,0,0,.322-.91,1.109,1.109,0,0,0-.353-.884,1.54,1.54,0,0,0-1.02-.317h-.63Z" transform="translate(-40.849 -5.95)"/>
    <path id="Trazado_112521" data-name="Trazado 112521" d="M191.387,30.147a3.837,3.837,0,0,1-.5,2.189,2.091,2.091,0,0,1-3.137.016,3.64,3.64,0,0,1-.526-2.092V29.141a3.746,3.746,0,0,1,.5-2.162,1.8,1.8,0,0,1,1.577-.707,1.821,1.821,0,0,1,1.568.681,3.619,3.619,0,0,1,.517,2.106ZM190.549,29a3.071,3.071,0,0,0-.3-1.552,1.029,1.029,0,0,0-.947-.487,1.016,1.016,0,0,0-.938.485,3,3,0,0,0-.3,1.491v1.341a3.116,3.116,0,0,0,.311,1.58,1.026,1.026,0,0,0,.94.511,1.014,1.014,0,0,0,.923-.481,3.008,3.008,0,0,0,.315-1.514Z" transform="translate(-42.403 -5.95)"/>
    <path id="Trazado_112522" data-name="Trazado 112522" d="M181.7,97.747h.63a1.386,1.386,0,0,0,.934-.312,1.047,1.047,0,0,0,.34-.821,1.024,1.024,0,0,0-1.156-1.16,1.2,1.2,0,0,0-.868.311,1.084,1.084,0,0,0-.324.822h-.838a1.685,1.685,0,0,1,.573-1.3,2.089,2.089,0,0,1,1.457-.518,2.063,2.063,0,0,1,1.464.494,1.786,1.786,0,0,1,.531,1.374,1.45,1.45,0,0,1-.278.834,1.691,1.691,0,0,1-.76.6,1.623,1.623,0,0,1,.841.571,1.587,1.587,0,0,1,.3.975,1.8,1.8,0,0,1-.58,1.409,2.17,2.17,0,0,1-1.509.521,2.232,2.232,0,0,1-1.511-.5,1.669,1.669,0,0,1-.582-1.328h.842a1.078,1.078,0,0,0,.34.834,1.291,1.291,0,0,0,.911.313,1.268,1.268,0,0,0,.929-.317,1.223,1.223,0,0,0,.322-.91,1.109,1.109,0,0,0-.353-.884,1.54,1.54,0,0,0-1.02-.317h-.63Z" transform="translate(-40.849 -21.463)"/>
    <path id="Trazado_112523" data-name="Trazado 112523" d="M190.079,101.472h-.843V95.883l-1.69.621v-.761l2.4-.9h.132Z" transform="translate(-42.476 -21.48)"/>
    <path id="Trazado_112524" data-name="Trazado 112524" d="M216.505,97.747h.63a1.386,1.386,0,0,0,.934-.312,1.047,1.047,0,0,0,.34-.821,1.023,1.023,0,0,0-1.156-1.16,1.2,1.2,0,0,0-.868.311,1.084,1.084,0,0,0-.324.822h-.838a1.685,1.685,0,0,1,.573-1.3,2.089,2.089,0,0,1,1.457-.518,2.063,2.063,0,0,1,1.463.494,1.786,1.786,0,0,1,.531,1.374,1.45,1.45,0,0,1-.278.834,1.691,1.691,0,0,1-.76.6,1.623,1.623,0,0,1,.841.571,1.587,1.587,0,0,1,.3.975,1.8,1.8,0,0,1-.58,1.409,2.17,2.17,0,0,1-1.509.521,2.231,2.231,0,0,1-1.511-.5,1.669,1.669,0,0,1-.582-1.328h.842a1.078,1.078,0,0,0,.34.834,1.291,1.291,0,0,0,.911.313,1.268,1.268,0,0,0,.929-.317,1.223,1.223,0,0,0,.322-.91,1.109,1.109,0,0,0-.354-.884,1.54,1.54,0,0,0-1.02-.317h-.63Z" transform="translate(-48.731 -21.463)"/>
    <path id="Trazado_112525" data-name="Trazado 112525" d="M226.347,101.454h-4.324v-.6l2.284-2.539a5.4,5.4,0,0,0,.7-.936,1.558,1.558,0,0,0,.193-.745,1.182,1.182,0,0,0-.313-.848,1.093,1.093,0,0,0-.834-.331,1.3,1.3,0,0,0-.972.356,1.359,1.359,0,0,0-.347.99H221.9a1.946,1.946,0,0,1,.587-1.473,2.176,2.176,0,0,1,1.57-.562,2.091,2.091,0,0,1,1.455.483,1.645,1.645,0,0,1,.535,1.285,3.775,3.775,0,0,1-1.242,2.321l-1.767,1.917h3.313Z" transform="translate(-50.256 -21.463)"/>
    <path id="Trazado_112526" data-name="Trazado 112526" d="M201.935,6.689h-4.324v-.6L199.9,3.548a5.4,5.4,0,0,0,.7-.936,1.558,1.558,0,0,0,.193-.745,1.182,1.182,0,0,0-.313-.848,1.093,1.093,0,0,0-.834-.331,1.3,1.3,0,0,0-.972.356,1.359,1.359,0,0,0-.347.99h-.839a1.946,1.946,0,0,1,.587-1.473A2.176,2.176,0,0,1,199.641,0,2.091,2.091,0,0,1,201.1.483a1.645,1.645,0,0,1,.535,1.285,3.775,3.775,0,0,1-1.242,2.321L198.622,6h3.313Z" transform="translate(-44.727 0)"/>
    <path id="Trazado_112527" data-name="Trazado 112527" d="M207.691.111V.823h-.154a2.211,2.211,0,0,0-1.559.58,2.415,2.415,0,0,0-.671,1.582,1.788,1.788,0,0,1,1.423-.6,1.709,1.709,0,0,1,1.375.607,2.343,2.343,0,0,1,.514,1.568,2.335,2.335,0,0,1-.555,1.632,1.912,1.912,0,0,1-1.489.612,1.884,1.884,0,0,1-1.536-.728A2.882,2.882,0,0,1,204.45,4.2V3.882a4.343,4.343,0,0,1,.777-2.785,2.856,2.856,0,0,1,2.314-.986Zm-1.1,2.973a1.411,1.411,0,0,0-1.3.907V4.3a2.164,2.164,0,0,0,.367,1.315,1.1,1.1,0,0,0,.915.5,1.068,1.068,0,0,0,.891-.417,1.731,1.731,0,0,0,.324-1.092,1.731,1.731,0,0,0-.329-1.1,1.054,1.054,0,0,0-.873-.419" transform="translate(-46.305 -0.025)"/>
    <path id="Trazado_112528" data-name="Trazado 112528" d="M279.15,6.689h-4.324v-.6l2.284-2.539a5.4,5.4,0,0,0,.7-.936A1.558,1.558,0,0,0,278,1.867a1.182,1.182,0,0,0-.313-.848,1.093,1.093,0,0,0-.834-.331,1.3,1.3,0,0,0-.972.356,1.359,1.359,0,0,0-.347.99H274.7a1.946,1.946,0,0,1,.587-1.473A2.176,2.176,0,0,1,276.856,0a2.091,2.091,0,0,1,1.455.483,1.645,1.645,0,0,1,.535,1.285A3.775,3.775,0,0,1,277.6,4.088L275.837,6h3.313Z" transform="translate(-62.215 0)"/>
    <path id="Trazado_112529" data-name="Trazado 112529" d="M285.591,1.812a1.536,1.536,0,0,1-.261.879,1.775,1.775,0,0,1-.7.6,1.9,1.9,0,0,1,.818.648,1.629,1.629,0,0,1,.3.965,1.726,1.726,0,0,1-.578,1.364,2.535,2.535,0,0,1-3.046,0,1.734,1.734,0,0,1-.573-1.362,1.679,1.679,0,0,1,.292-.965,1.825,1.825,0,0,1,.809-.653,1.728,1.728,0,0,1-.694-.6,1.559,1.559,0,0,1-.254-.875,1.706,1.706,0,0,1,.535-1.323,2.27,2.27,0,0,1,2.816,0,1.7,1.7,0,0,1,.538,1.323m-.685,3.078a1.214,1.214,0,0,0-.351-.9,1.246,1.246,0,0,0-.918-.35,1.18,1.18,0,0,0-1.251,1.252,1.171,1.171,0,0,0,.333.883,1.488,1.488,0,0,0,1.851,0,1.168,1.168,0,0,0,.336-.881m-1.26-4.2a1.08,1.08,0,0,0-.8.306,1.122,1.122,0,0,0-.306.832,1.117,1.117,0,0,0,.3.813,1.2,1.2,0,0,0,1.609,0,1.117,1.117,0,0,0,.3-.813,1.119,1.119,0,0,0-.313-.821,1.067,1.067,0,0,0-.793-.317" transform="translate(-63.766 0)"/>
    <path id="Trazado_112530" data-name="Trazado 112530" d="M332.05,6.689h-4.324v-.6l2.284-2.539a5.4,5.4,0,0,0,.7-.936,1.558,1.558,0,0,0,.193-.745,1.182,1.182,0,0,0-.313-.848,1.094,1.094,0,0,0-.834-.331,1.3,1.3,0,0,0-.972.356,1.359,1.359,0,0,0-.347.99H327.6a1.946,1.946,0,0,1,.587-1.473A2.176,2.176,0,0,1,329.756,0a2.091,2.091,0,0,1,1.455.483,1.645,1.645,0,0,1,.534,1.285A3.775,3.775,0,0,1,330.5,4.088L328.737,6h3.313Z" transform="translate(-74.196 0)"/>
    <path id="Trazado_112531" data-name="Trazado 112531" d="M334.931,3.408l.336-3.291h3.381V.892h-2.669l-.2,1.8a2.129,2.129,0,0,1,1.1-.285,1.819,1.819,0,0,1,1.432.6,2.335,2.335,0,0,1,.531,1.611,2.256,2.256,0,0,1-.551,1.607,2.008,2.008,0,0,1-1.539.587,2.085,2.085,0,0,1-1.427-.485,1.938,1.938,0,0,1-.63-1.342h.794a1.332,1.332,0,0,0,.4.855,1.255,1.255,0,0,0,.861.288,1.131,1.131,0,0,0,.918-.4,1.668,1.668,0,0,0,.333-1.1,1.533,1.533,0,0,0-.361-1.063,1.228,1.228,0,0,0-.958-.4,1.384,1.384,0,0,0-.862.24l-.222.182Z" transform="translate(-75.803 -0.026)"/>
    <path id="Trazado_112532" data-name="Trazado 112532" d="M332.05,32.961h-4.324v-.6l2.284-2.539a5.4,5.4,0,0,0,.7-.936,1.558,1.558,0,0,0,.193-.745,1.182,1.182,0,0,0-.313-.848,1.094,1.094,0,0,0-.834-.331,1.3,1.3,0,0,0-.972.356,1.359,1.359,0,0,0-.347.99H327.6a1.946,1.946,0,0,1,.587-1.473,2.176,2.176,0,0,1,1.57-.562,2.091,2.091,0,0,1,1.455.483,1.645,1.645,0,0,1,.534,1.285A3.775,3.775,0,0,1,330.5,30.36l-1.768,1.917h3.313Z" transform="translate(-74.196 -5.95)"/>
    <path id="Trazado_112533" data-name="Trazado 112533" d="M337.687,30.061a2.046,2.046,0,0,1-.628.5,1.7,1.7,0,0,1-.8.19,1.759,1.759,0,0,1-.995-.281,1.833,1.833,0,0,1-.655-.791,2.7,2.7,0,0,1-.231-1.126,2.743,2.743,0,0,1,.251-1.192,1.846,1.846,0,0,1,.714-.811,2.035,2.035,0,0,1,1.078-.281,1.842,1.842,0,0,1,1.543.732,3.189,3.189,0,0,1,.565,2v.244a4.264,4.264,0,0,1-.762,2.813,2.925,2.925,0,0,1-2.3.909h-.163v-.712h.176a2,2,0,0,0,2.2-2.194m-1.292,0a1.294,1.294,0,0,0,.777-.258,1.525,1.525,0,0,0,.519-.639v-.336a2.309,2.309,0,0,0-.358-1.341,1.094,1.094,0,0,0-1.795-.093,1.747,1.747,0,0,0-.336,1.117,1.822,1.822,0,0,0,.324,1.113,1.025,1.025,0,0,0,.868.437" transform="translate(-75.731 -5.95)"/>
    <path id="Trazado_112534" data-name="Trazado 112534" d="M70.474,204.57H66.55V208.7H65.317v-9.349h5.792v1.009H66.55v3.2h3.923Z" transform="translate(-14.793 -45.149)"/>
    <path id="Trazado_112535" data-name="Trazado 112535" d="M78.141,204.916h-2.2V208.7H74.706v-9.349H77.8a3.667,3.667,0,0,1,2.43.719,2.588,2.588,0,0,1,.851,2.093,2.519,2.519,0,0,1-.472,1.522,2.816,2.816,0,0,1-1.313.97l2.2,3.968v.077H80.17Zm-2.2-1.008H77.84a2.136,2.136,0,0,0,1.46-.476,1.609,1.609,0,0,0,.543-1.274,1.7,1.7,0,0,0-.517-1.331,2.189,2.189,0,0,0-1.494-.47H75.945Z" transform="translate(-16.92 -45.149)"/>
    <path id="Trazado_112536" data-name="Trazado 112536" d="M92.366,208.7H91.127l-4.707-7.2v7.2H85.181V199.35H86.42l4.72,7.236V199.35h1.226Z" transform="translate(-19.292 -45.149)"/>
    <rect id="Rectángulo_7049" data-name="Rectángulo 7049" width="3.134" height="0.969" transform="translate(74.416 159.093)"/>
    <path id="Trazado_112537" data-name="Trazado 112537" d="M107.275,204.377h-4.052v3.313h4.707V208.7h-5.94v-9.349h5.876v1.009h-4.643v3.011h4.052Z" transform="translate(-23.099 -45.149)"/>
    <path id="Trazado_112538" data-name="Trazado 112538" d="M114.24,204.493a5.786,5.786,0,0,1-2.308-1.121,2.14,2.14,0,0,1-.722-1.64,2.26,2.26,0,0,1,.883-1.827,3.509,3.509,0,0,1,2.3-.723,3.828,3.828,0,0,1,1.717.373,2.819,2.819,0,0,1,1.169,1.027,2.625,2.625,0,0,1,.415,1.432h-1.24a1.711,1.711,0,0,0-.539-1.337,2.194,2.194,0,0,0-1.522-.487,2.245,2.245,0,0,0-1.422.4,1.341,1.341,0,0,0-.511,1.116,1.2,1.2,0,0,0,.485.968,4.745,4.745,0,0,0,1.65.724,7.637,7.637,0,0,1,1.824.723,2.757,2.757,0,0,1,.975.921,2.343,2.343,0,0,1,.318,1.239,2.183,2.183,0,0,1-.886,1.82,3.781,3.781,0,0,1-2.369.684,4.395,4.395,0,0,1-1.8-.369,3.029,3.029,0,0,1-1.288-1.011,2.476,2.476,0,0,1-.453-1.458h1.239a1.611,1.611,0,0,0,.626,1.339,2.635,2.635,0,0,0,1.673.491,2.418,2.418,0,0,0,1.5-.4,1.292,1.292,0,0,0,.52-1.085,1.271,1.271,0,0,0-.481-1.064,5.562,5.562,0,0,0-1.747-.741" transform="translate(-25.12 -45.112)"/>
    <path id="Trazado_112539" data-name="Trazado 112539" d="M122.971,205.038v3.66h-1.233V199.35h3.448a3.462,3.462,0,0,1,2.4.783,2.657,2.657,0,0,1,.87,2.075,2.623,2.623,0,0,1-.85,2.1,3.624,3.624,0,0,1-2.437.735Zm0-1.008h2.215a2.215,2.215,0,0,0,1.515-.466,1.706,1.706,0,0,0,.526-1.347,1.766,1.766,0,0,0-.526-1.338,2.078,2.078,0,0,0-1.445-.521h-2.286Z" transform="translate(-27.572 -45.149)"/>
    <path id="Trazado_112540" data-name="Trazado 112540" d="M92.942,224.685H91.747v-7.917l-2.395.88V216.57l3.4-1.278h.186Z" transform="translate(-20.237 -48.76)"/>
    <path id="Trazado_112541" data-name="Trazado 112541" d="M104.343,220.674a5.427,5.427,0,0,1-.713,3.1,2.961,2.961,0,0,1-4.443.023,5.158,5.158,0,0,1-.745-2.963v-1.586a5.306,5.306,0,0,1,.713-3.062,3.014,3.014,0,0,1,4.455-.036,5.124,5.124,0,0,1,.733,2.983Zm-1.188-1.624a4.355,4.355,0,0,0-.424-2.2,1.458,1.458,0,0,0-1.342-.69,1.44,1.44,0,0,0-1.329.687,4.246,4.246,0,0,0-.43,2.112v1.9a4.42,4.42,0,0,0,.439,2.237,1.457,1.457,0,0,0,1.333.722,1.436,1.436,0,0,0,1.306-.68,4.268,4.268,0,0,0,.446-2.145Z" transform="translate(-22.295 -48.736)"/>
    <path id="Trazado_112542" data-name="Trazado 112542" d="M87.958,236.552a9.926,9.926,0,0,1,.388-2.787,8.108,8.108,0,0,1,1.159-2.427,4.939,4.939,0,0,1,1.6-1.541l.244.783a5.111,5.111,0,0,0-1.538,2.2,9.514,9.514,0,0,0-.658,3.307l-.006.546a9.571,9.571,0,0,0,.905,4.3,5.126,5.126,0,0,0,1.3,1.708l-.244.726a5.1,5.1,0,0,1-1.631-1.592,8.926,8.926,0,0,1-1.515-5.22" transform="translate(-19.921 -52.045)"/>
    <path id="Trazado_112543" data-name="Trazado 112543" d="M97.665,240.685H96.471v-7.917l-2.395.879V232.57l3.4-1.278h.186Z" transform="translate(-21.307 -52.384)"/>
    <path id="Trazado_112544" data-name="Trazado 112544" d="M105.923,236.617a9.918,9.918,0,0,1-.376,2.744,8.112,8.112,0,0,1-1.149,2.424,5.035,5.035,0,0,1-1.621,1.58l-.251-.726a5.167,5.167,0,0,0,1.59-2.353,10.186,10.186,0,0,0,.613-3.541v-.206a10.588,10.588,0,0,0-.282-2.507,8.482,8.482,0,0,0-.787-2.077,4.783,4.783,0,0,0-1.133-1.432l.251-.726a5.01,5.01,0,0,1,1.614,1.566,8.112,8.112,0,0,1,1.149,2.42,10.173,10.173,0,0,1,.382,2.832" transform="translate(-23.22 -52.045)"/>
  </g>
</svg>
