<svg id="Grupo_87885" data-name="Grupo 87885" xmlns="http://www.w3.org/2000/svg" xmlns:xlink="http://www.w3.org/1999/xlink" width="305.533" height="291" viewBox="0 0 305.533 291">
  <defs>
    <clipPath id="clip-path">
      <rect id="Rectángulo_7150" data-name="Rectángulo 7150" width="305.534" height="291" fill="none"/>
    </clipPath>
  </defs>
  <g id="Grupo_87884" data-name="Grupo 87884" clip-path="url(#clip-path)">
    <path id="Trazado_112907" data-name="Trazado 112907" d="M43.407,20.436s27.507,2.038,97.8-9.169V140.144S102.5,169.689,89.762,195.669Z" transform="translate(-14.15 -3.673)" fill="none" stroke="#000" stroke-miterlimit="10" stroke-width="1"/>
    <path id="Trazado_112908" data-name="Trazado 112908" d="M.5,41.646H13.09L57.605,215.659s-20.234,40.468-25.63,72.393H.5Z" transform="translate(-0.163 -13.576)" fill="none" stroke="#000" stroke-miterlimit="10" stroke-width="1"/>
    <path id="Trazado_112909" data-name="Trazado 112909" d="M115.961,74.336V178.2l4.464-11.691" transform="translate(-37.803 -24.233)" fill="none" stroke="#000" stroke-miterlimit="10" stroke-width="1"/>
    <path id="Trazado_112910" data-name="Trazado 112910" d="M43.407,194.418V302.783l3.9-11.241" transform="translate(-14.15 -63.379)" fill="none" stroke="#000" stroke-miterlimit="10" stroke-width="1"/>
    <path id="Trazado_112911" data-name="Trazado 112911" d="M290.7.8S314.981-2.28,399.964,11.178V140.195s-38.67,38.67-54.632,71.044c0,0-25.855-16.188-33.5-17.087s-21.133-1.994-21.133-1.994Z" transform="translate(-94.767 -0.163)" fill="none" stroke="#000" stroke-miterlimit="10" stroke-width="1"/>
    <path id="Trazado_112912" data-name="Trazado 112912" d="M290.7,317.758V394.2h30.126s10.342-34.173,24.506-57.105C345.332,337.092,314.531,315.509,290.7,317.758Z" transform="translate(-94.767 -103.534)" fill="none" stroke="#000" stroke-miterlimit="10" stroke-width="1"/>
    <path id="Trazado_112913" data-name="Trazado 112913" d="M330.228,345.189v41.817l2.811-5.846" transform="translate(-107.653 -112.53)" fill="none" stroke="#000" stroke-miterlimit="10" stroke-width="1"/>
    <path id="Trazado_112914" data-name="Trazado 112914" d="M373.758,67V189.75l4.946-12.14" transform="translate(-121.843 -21.841)" fill="none" stroke="#000" stroke-miterlimit="10" stroke-width="1"/>
    <path id="Trazado_112915" data-name="Trazado 112915" d="M109.177,125.8h-3.419v3.6h-1.074v-8.146h5.047v.879h-3.973v2.791h3.419Z" transform="translate(-34.126 -39.526)"/>
    <path id="Trazado_112916" data-name="Trazado 112916" d="M117.065,126.1h-1.913v3.295h-1.08v-8.146h2.7a3.2,3.2,0,0,1,2.118.627,2.257,2.257,0,0,1,.741,1.824,2.2,2.2,0,0,1-.411,1.327,2.456,2.456,0,0,1-1.144.844l1.913,3.458v.067h-1.153Zm-1.913-.879H116.8a1.861,1.861,0,0,0,1.273-.415,1.4,1.4,0,0,0,.473-1.11,1.476,1.476,0,0,0-.45-1.159,1.9,1.9,0,0,0-1.3-.41h-1.645Z" transform="translate(-37.187 -39.526)"/>
    <path id="Trazado_112917" data-name="Trazado 112917" d="M130.808,129.394h-1.08l-4.1-6.277v6.277h-1.08v-8.146h1.08l4.113,6.306v-6.306h1.068Z" transform="translate(-40.602 -39.526)"/>
    <path id="Trazado_112918" data-name="Trazado 112918" d="M112.163,139.763h.778a1.712,1.712,0,0,0,1.153-.386,1.291,1.291,0,0,0,.419-1.013,1.263,1.263,0,0,0-1.426-1.432,1.485,1.485,0,0,0-1.072.383,1.342,1.342,0,0,0-.4,1.016H110.58a2.08,2.08,0,0,1,.708-1.609,2.58,2.58,0,0,1,1.8-.64,2.549,2.549,0,0,1,1.807.61,2.2,2.2,0,0,1,.654,1.7,1.787,1.787,0,0,1-.344,1.029,2.077,2.077,0,0,1-.938.745,2,2,0,0,1,1.038.7,1.959,1.959,0,0,1,.367,1.2,2.222,2.222,0,0,1-.716,1.74,2.683,2.683,0,0,1-1.863.643,2.756,2.756,0,0,1-1.866-.621,2.06,2.06,0,0,1-.718-1.639h1.041a1.331,1.331,0,0,0,.419,1.029,1.6,1.6,0,0,0,1.125.386,1.567,1.567,0,0,0,1.147-.392,1.509,1.509,0,0,0,.4-1.125A1.368,1.368,0,0,0,114.2,141a1.9,1.9,0,0,0-1.258-.392h-.778Z" transform="translate(-36.025 -44.362)"/>
    <path id="Trazado_112919" data-name="Trazado 112919" d="M125.539,144.34H120.2V143.6l2.82-3.133a6.692,6.692,0,0,0,.864-1.156,1.925,1.925,0,0,0,.238-.92,1.461,1.461,0,0,0-.386-1.046,1.35,1.35,0,0,0-1.029-.408,1.6,1.6,0,0,0-1.2.439,1.68,1.68,0,0,0-.428,1.223h-1.035a2.406,2.406,0,0,1,.724-1.819,2.691,2.691,0,0,1,1.939-.694,2.58,2.58,0,0,1,1.8.6,2.033,2.033,0,0,1,.661,1.586,4.655,4.655,0,0,1-1.533,2.865l-2.182,2.367h4.09Z" transform="translate(-39.134 -44.362)"/>
    <path id="Trazado_112920" data-name="Trazado 112920" d="M103.3,155.582a8.646,8.646,0,0,1,.338-2.428,7.049,7.049,0,0,1,1.01-2.114,4.289,4.289,0,0,1,1.393-1.343l.213.682a4.449,4.449,0,0,0-1.34,1.913,8.288,8.288,0,0,0-.574,2.881l-.005.476a8.342,8.342,0,0,0,.789,3.748,4.466,4.466,0,0,0,1.13,1.488l-.213.632a4.44,4.44,0,0,1-1.421-1.388,7.775,7.775,0,0,1-1.32-4.548" transform="translate(-33.676 -48.801)"/>
    <path id="Trazado_112921" data-name="Trazado 112921" d="M112.548,159.375h-1.041v-6.9l-2.087.766v-.94l2.965-1.113h.162Z" transform="translate(-35.671 -49.287)"/>
    <path id="Trazado_112922" data-name="Trazado 112922" d="M118.383,164.364l-.588-.4a2.7,2.7,0,0,0,.549-1.51v-.934h1.012v.811a2.534,2.534,0,0,1-.277,1.13,2.628,2.628,0,0,1-.7.907" transform="translate(-38.401 -52.654)"/>
    <path id="Trazado_112923" data-name="Trazado 112923" d="M125.43,159.375H124.39v-6.9l-2.087.766v-.94l2.965-1.113h.162Z" transform="translate(-39.87 -49.287)"/>
    <path id="Trazado_112924" data-name="Trazado 112924" d="M133.713,155.638a8.646,8.646,0,0,1-.328,2.391,7.069,7.069,0,0,1-1,2.112,4.387,4.387,0,0,1-1.413,1.376l-.218-.632a4.5,4.5,0,0,0,1.385-2.051,8.872,8.872,0,0,0,.534-3.085v-.179a9.231,9.231,0,0,0-.246-2.185,7.4,7.4,0,0,0-.685-1.809,4.179,4.179,0,0,0-.987-1.248l.218-.632a4.365,4.365,0,0,1,1.407,1.365,7.068,7.068,0,0,1,1,2.109,8.86,8.86,0,0,1,.333,2.467" transform="translate(-42.625 -48.801)"/>
    <path id="Trazado_112925" data-name="Trazado 112925" d="M364.614,128.984H362v7.268h-1.068v-7.268h-2.613v-.878h6.3Z" transform="translate(-116.809 -41.762)"/>
    <path id="Trazado_112926" data-name="Trazado 112926" d="M372.439,132.957h-1.913v3.3h-1.08v-8.146h2.7a3.192,3.192,0,0,1,2.118.627,2.254,2.254,0,0,1,.741,1.824,2.2,2.2,0,0,1-.411,1.326,2.454,2.454,0,0,1-1.145.845l1.913,3.458v.067h-1.153Zm-1.913-.878h1.651a1.861,1.861,0,0,0,1.272-.415,1.4,1.4,0,0,0,.473-1.11,1.477,1.477,0,0,0-.45-1.16,1.908,1.908,0,0,0-1.3-.41h-1.645Z" transform="translate(-120.438 -41.762)"/>
    <path id="Trazado_112927" data-name="Trazado 112927" d="M384.038,134.12h-3.413l-.767,2.132h-1.107l3.11-8.146h.94l3.116,8.146h-1.1Zm-3.088-.878h2.77l-1.388-3.81Z" transform="translate(-123.471 -41.762)"/>
    <path id="Trazado_112928" data-name="Trazado 112928" d="M366.648,146.621h.778a1.711,1.711,0,0,0,1.153-.386,1.288,1.288,0,0,0,.419-1.012,1.263,1.263,0,0,0-1.426-1.432,1.485,1.485,0,0,0-1.072.383,1.34,1.34,0,0,0-.4,1.016h-1.035a2.079,2.079,0,0,1,.708-1.609,2.577,2.577,0,0,1,1.8-.64,2.552,2.552,0,0,1,1.807.609,2.206,2.206,0,0,1,.654,1.7,1.79,1.79,0,0,1-.344,1.029,2.075,2.075,0,0,1-.938.744,2.006,2.006,0,0,1,1.038.705,1.96,1.96,0,0,1,.367,1.2,2.22,2.22,0,0,1-.716,1.74,2.68,2.68,0,0,1-1.863.644,2.756,2.756,0,0,1-1.866-.621,2.059,2.059,0,0,1-.719-1.639h1.041a1.332,1.332,0,0,0,.419,1.029,1.6,1.6,0,0,0,1.125.386,1.565,1.565,0,0,0,1.147-.392,1.508,1.508,0,0,0,.4-1.124,1.37,1.37,0,0,0-.437-1.091,1.9,1.9,0,0,0-1.258-.392h-.778Z" transform="translate(-118.986 -46.598)"/>
    <path id="Trazado_112929" data-name="Trazado 112929" d="M380.024,151.2h-5.337v-.744l2.82-3.133a6.664,6.664,0,0,0,.864-1.155,1.928,1.928,0,0,0,.238-.92,1.463,1.463,0,0,0-.386-1.047,1.352,1.352,0,0,0-1.029-.408,1.6,1.6,0,0,0-1.2.439,1.679,1.679,0,0,0-.428,1.223H374.53a2.4,2.4,0,0,1,.724-1.818,2.688,2.688,0,0,1,1.939-.694,2.58,2.58,0,0,1,1.8.6,2.034,2.034,0,0,1,.661,1.586,4.657,4.657,0,0,1-1.533,2.865l-2.182,2.366h4.09Z" transform="translate(-122.095 -46.598)"/>
    <path id="Trazado_112930" data-name="Trazado 112930" d="M364.229,162.439a8.654,8.654,0,0,1,.338-2.428,7.064,7.064,0,0,1,1.01-2.114,4.3,4.3,0,0,1,1.393-1.343l.213.682a4.457,4.457,0,0,0-1.34,1.913,8.294,8.294,0,0,0-.574,2.882l-.005.475a8.338,8.338,0,0,0,.789,3.748,4.459,4.459,0,0,0,1.13,1.488l-.213.633a4.447,4.447,0,0,1-1.421-1.388,7.777,7.777,0,0,1-1.32-4.549" transform="translate(-118.737 -51.036)"/>
    <path id="Trazado_112931" data-name="Trazado 112931" d="M373.474,166.233h-1.041v-6.9l-2.087.766v-.94l2.965-1.114h.162Z" transform="translate(-120.731 -51.523)"/>
    <path id="Trazado_112932" data-name="Trazado 112932" d="M381.757,162.5a8.652,8.652,0,0,1-.328,2.392,7.078,7.078,0,0,1-1,2.112,4.4,4.4,0,0,1-1.413,1.376l-.218-.633a4.5,4.5,0,0,0,1.385-2.05,8.875,8.875,0,0,0,.534-3.086v-.179a9.225,9.225,0,0,0-.246-2.184,7.4,7.4,0,0,0-.685-1.81,4.175,4.175,0,0,0-.987-1.248l.218-.632a4.372,4.372,0,0,1,1.407,1.365,7.064,7.064,0,0,1,1,2.11,8.857,8.857,0,0,1,.333,2.467" transform="translate(-123.486 -51.036)"/>
    <path id="Trazado_112933" data-name="Trazado 112933" d="M35.928,247.571H34.015v3.294h-1.08v-8.146h2.7a3.2,3.2,0,0,1,2.118.627,2.256,2.256,0,0,1,.741,1.824,2.2,2.2,0,0,1-.411,1.326,2.453,2.453,0,0,1-1.144.845l1.914,3.458v.067H37.7Zm-1.914-.879h1.651a1.861,1.861,0,0,0,1.273-.415,1.4,1.4,0,0,0,.473-1.11,1.478,1.478,0,0,0-.45-1.16,1.907,1.907,0,0,0-1.3-.409H34.015Z" transform="translate(-10.737 -79.125)"/>
    <path id="Trazado_112934" data-name="Trazado 112934" d="M48.015,247.1h-3.53v2.887h4.1v.878H43.41V242.72h5.12v.879H44.485v2.623h3.53Z" transform="translate(-14.152 -79.126)"/>
    <path id="Trazado_112935" data-name="Trazado 112935" d="M57.565,247.268H54.147v3.6H53.073V242.72h5.047v.879H54.147v2.791h3.419Z" transform="translate(-17.301 -79.126)"/>
    <path id="Trazado_112936" data-name="Trazado 112936" d="M39.194,261.234h.778a1.708,1.708,0,0,0,1.153-.386,1.289,1.289,0,0,0,.419-1.013,1.263,1.263,0,0,0-1.426-1.432,1.488,1.488,0,0,0-1.072.383,1.342,1.342,0,0,0-.4,1.016H37.611a2.08,2.08,0,0,1,.708-1.609,2.581,2.581,0,0,1,1.8-.64,2.549,2.549,0,0,1,1.807.61,2.2,2.2,0,0,1,.654,1.7,1.787,1.787,0,0,1-.344,1.029,2.077,2.077,0,0,1-.938.745,2,2,0,0,1,1.038.7,1.959,1.959,0,0,1,.367,1.2,2.224,2.224,0,0,1-.716,1.74,2.685,2.685,0,0,1-1.863.642,2.756,2.756,0,0,1-1.866-.621,2.06,2.06,0,0,1-.718-1.639h1.041A1.33,1.33,0,0,0,39,264.692a1.6,1.6,0,0,0,1.125.386,1.567,1.567,0,0,0,1.147-.392,1.509,1.509,0,0,0,.4-1.125,1.369,1.369,0,0,0-.437-1.091,1.9,1.9,0,0,0-1.258-.391h-.778Z" transform="translate(-12.237 -83.961)"/>
    <path id="Trazado_112937" data-name="Trazado 112937" d="M52.57,265.811H47.232v-.744l2.82-3.133a6.693,6.693,0,0,0,.864-1.156,1.926,1.926,0,0,0,.238-.92,1.461,1.461,0,0,0-.386-1.046,1.35,1.35,0,0,0-1.029-.408,1.6,1.6,0,0,0-1.2.439,1.68,1.68,0,0,0-.428,1.223H47.076a2.406,2.406,0,0,1,.724-1.819,2.691,2.691,0,0,1,1.939-.694,2.581,2.581,0,0,1,1.8.6,2.034,2.034,0,0,1,.661,1.586,4.655,4.655,0,0,1-1.533,2.864l-2.182,2.367h4.09Z" transform="translate(-15.347 -83.961)"/>
    <path id="Trazado_112938" data-name="Trazado 112938" d="M30.333,277.053a8.646,8.646,0,0,1,.338-2.428,7.049,7.049,0,0,1,1.01-2.114,4.289,4.289,0,0,1,1.393-1.343l.213.682a4.449,4.449,0,0,0-1.34,1.913,8.287,8.287,0,0,0-.574,2.881l-.005.476a8.342,8.342,0,0,0,.789,3.748,4.465,4.465,0,0,0,1.13,1.488l-.213.632a4.44,4.44,0,0,1-1.421-1.388,7.776,7.776,0,0,1-1.32-4.548" transform="translate(-9.888 -88.4)"/>
    <path id="Trazado_112939" data-name="Trazado 112939" d="M39.578,280.847H38.537v-6.9l-2.087.766v-.94l2.965-1.113h.162Z" transform="translate(-11.883 -88.886)"/>
    <path id="Trazado_112940" data-name="Trazado 112940" d="M45.413,285.836l-.588-.4a2.7,2.7,0,0,0,.549-1.51v-.934h1.012v.811a2.535,2.535,0,0,1-.277,1.13,2.628,2.628,0,0,1-.7.907" transform="translate(-14.613 -92.253)"/>
    <path id="Trazado_112941" data-name="Trazado 112941" d="M52.461,280.847H51.42v-6.9l-2.087.766v-.94l2.965-1.113h.162Z" transform="translate(-16.082 -88.886)"/>
    <path id="Trazado_112942" data-name="Trazado 112942" d="M60.743,277.109a8.646,8.646,0,0,1-.328,2.391,7.069,7.069,0,0,1-1,2.112A4.387,4.387,0,0,1,58,282.989l-.218-.632a4.5,4.5,0,0,0,1.385-2.051,8.872,8.872,0,0,0,.534-3.085v-.179a9.232,9.232,0,0,0-.246-2.185,7.4,7.4,0,0,0-.685-1.809,4.179,4.179,0,0,0-.987-1.248l.218-.632a4.365,4.365,0,0,1,1.407,1.365,7.068,7.068,0,0,1,1,2.109,8.861,8.861,0,0,1,.333,2.468" transform="translate(-18.837 -88.4)"/>
    <path id="Trazado_112943" data-name="Trazado 112943" d="M321.937,351.222h-1.914v3.295h-1.08v-8.146h2.7a3.2,3.2,0,0,1,2.118.627,2.256,2.256,0,0,1,.741,1.824,2.2,2.2,0,0,1-.411,1.326,2.452,2.452,0,0,1-1.144.844l1.914,3.458v.067h-1.153Zm-1.914-.879h1.651a1.861,1.861,0,0,0,1.273-.415,1.4,1.4,0,0,0,.473-1.11,1.478,1.478,0,0,0-.45-1.16,1.908,1.908,0,0,0-1.3-.409h-1.645Z" transform="translate(-103.974 -112.915)"/>
    <path id="Trazado_112944" data-name="Trazado 112944" d="M334.024,350.753h-3.53v2.887h4.1v.878h-5.176v-8.146h5.12v.879h-4.045v2.623h3.53Z" transform="translate(-107.389 -112.916)"/>
    <path id="Trazado_112945" data-name="Trazado 112945" d="M343.574,350.921h-3.419v3.6h-1.074v-8.146h5.047v.879h-3.973v2.791h3.419Z" transform="translate(-110.539 -112.916)"/>
    <path id="Trazado_112946" data-name="Trazado 112946" d="M325.2,364.887h.778a1.711,1.711,0,0,0,1.153-.386,1.291,1.291,0,0,0,.419-1.013,1.263,1.263,0,0,0-1.426-1.432,1.485,1.485,0,0,0-1.072.383,1.342,1.342,0,0,0-.4,1.016H323.62a2.08,2.08,0,0,1,.708-1.609,2.581,2.581,0,0,1,1.8-.64,2.548,2.548,0,0,1,1.807.61,2.2,2.2,0,0,1,.655,1.7,1.787,1.787,0,0,1-.344,1.029,2.077,2.077,0,0,1-.938.745,2,2,0,0,1,1.038.7,1.958,1.958,0,0,1,.367,1.2,2.222,2.222,0,0,1-.716,1.74,2.683,2.683,0,0,1-1.863.643,2.756,2.756,0,0,1-1.866-.621,2.06,2.06,0,0,1-.718-1.639h1.041a1.331,1.331,0,0,0,.419,1.029,1.6,1.6,0,0,0,1.125.386,1.567,1.567,0,0,0,1.147-.392,1.509,1.509,0,0,0,.4-1.125,1.368,1.368,0,0,0-.437-1.091,1.9,1.9,0,0,0-1.258-.392H325.2Z" transform="translate(-105.475 -117.752)"/>
    <path id="Trazado_112947" data-name="Trazado 112947" d="M338.579,369.464h-5.337v-.744l2.82-3.133a6.693,6.693,0,0,0,.864-1.156,1.926,1.926,0,0,0,.238-.92,1.461,1.461,0,0,0-.386-1.046,1.35,1.35,0,0,0-1.029-.408,1.6,1.6,0,0,0-1.2.439,1.68,1.68,0,0,0-.428,1.223h-1.035a2.406,2.406,0,0,1,.724-1.819,2.691,2.691,0,0,1,1.939-.694,2.58,2.58,0,0,1,1.8.6,2.033,2.033,0,0,1,.661,1.586,4.655,4.655,0,0,1-1.533,2.864l-2.182,2.367h4.09Z" transform="translate(-108.584 -117.752)"/>
    <path id="Trazado_112948" data-name="Trazado 112948" d="M316.341,380.706a8.646,8.646,0,0,1,.338-2.428,7.05,7.05,0,0,1,1.01-2.114,4.289,4.289,0,0,1,1.393-1.343l.213.682a4.448,4.448,0,0,0-1.34,1.913,8.286,8.286,0,0,0-.574,2.881l-.005.476a8.342,8.342,0,0,0,.789,3.748,4.464,4.464,0,0,0,1.13,1.488l-.213.632a4.44,4.44,0,0,1-1.421-1.388,7.776,7.776,0,0,1-1.32-4.548" transform="translate(-103.126 -122.19)"/>
    <path id="Trazado_112949" data-name="Trazado 112949" d="M325.587,384.5h-1.041v-6.9l-2.087.766v-.94l2.965-1.113h.162Z" transform="translate(-105.12 -122.677)"/>
    <path id="Trazado_112950" data-name="Trazado 112950" d="M331.422,389.488l-.588-.4a2.7,2.7,0,0,0,.549-1.51v-.934H332.4v.811a2.535,2.535,0,0,1-.277,1.13,2.628,2.628,0,0,1-.7.907" transform="translate(-107.85 -126.043)"/>
    <path id="Trazado_112951" data-name="Trazado 112951" d="M338.469,384.5h-1.041v-6.9l-2.087.766v-.94l2.965-1.113h.163Z" transform="translate(-109.32 -122.677)"/>
    <path id="Trazado_112952" data-name="Trazado 112952" d="M346.752,380.762a8.648,8.648,0,0,1-.328,2.391,7.07,7.07,0,0,1-1,2.112,4.388,4.388,0,0,1-1.413,1.376l-.218-.632a4.5,4.5,0,0,0,1.385-2.051,8.872,8.872,0,0,0,.534-3.085v-.179a9.233,9.233,0,0,0-.246-2.185,7.4,7.4,0,0,0-.685-1.809,4.179,4.179,0,0,0-.987-1.248l.218-.632a4.365,4.365,0,0,1,1.407,1.365,7.068,7.068,0,0,1,1,2.109,8.862,8.862,0,0,1,.333,2.468" transform="translate(-112.075 -122.19)"/>
  </g>
</svg>
