<svg id="Grupo_87802" data-name="Grupo 87802" xmlns="http://www.w3.org/2000/svg" xmlns:xlink="http://www.w3.org/1999/xlink" width="656" height="431.642" viewBox="0 0 656 431.642">
  <defs>
    <clipPath id="clip-path">
      <rect id="Rectángulo_7040" data-name="Rectángulo 7040" width="656" height="431.642" fill="none"/>
    </clipPath>
  </defs>
  <g id="Grupo_87797" data-name="Grupo 87797" clip-path="url(#clip-path)">
    <path id="Trazado_112363" data-name="Trazado 112363" d="M45.931,430.294a.382.382,0,0,1-.148-.03.386.386,0,0,1-.237-.4c.041-.343,4.341-34.689,27.082-62.611,19.852-24.375,46.744-38.477,53.448-41.752H21.789v-.774H127.351L115.508,237.5a.384.384,0,0,1,0-.126l19.078-97.991c-11.136-1.154-22.757-5.1-25.467-24.674-2.46-17.76,5.16-54.36,6.023-58.411L55.785,40.808c-.87,3.182-6.927,24.146-16.542,28.725-10.14,4.83-17.222,3.706-17.518,3.656l.128-.763c.071.012,7.156,1.123,17.057-3.591,9.87-4.7,16.164-28.358,16.227-28.6a.389.389,0,0,1,.472-.276L115.7,55.638a.385.385,0,0,1,.28.456c-.087.4-8.663,39.919-6.091,58.5,2.671,19.289,14.238,22.984,25.2,24.053a.387.387,0,0,1,.342.459l-19.148,98.346,11.894,87.6c0,.014,0,.028,0,.042v0a.4.4,0,0,1-.015.118h0v0h0v0h0a.389.389,0,0,1-.063.12L46.236,430.145a.388.388,0,0,1-.3.149M126.484,326.16c-6.525,3.181-33.424,17.229-53.256,41.578-19.966,24.516-25.627,54-26.7,60.781Z" transform="translate(-4.92 -9.048)"/>
    <path id="Trazado_112364" data-name="Trazado 112364" d="M263.956,424.138l-80.934-105.42.021-.159,11.47-88.126L175.155,132.25l.429-.038c.2-.018,20.519-2.157,22.447-32.517,1.948-30.69-2.42-71.059-2.465-71.464l-.037-.34,61.047-14.452.143.255c.06.11,6.211,10.9,18.407,10.9h13.867v.774H275.127c-11.588,0-17.9-9.37-18.933-11.045L196.371,28.487c.42,3.991,4.289,42,2.432,71.257-1.815,28.578-19.721,32.691-22.727,33.18l19.22,97.484-.008.063L183.831,318.5,264.57,423.667Z" transform="translate(-39.67 -3.044)"/>
    <path id="Trazado_112365" data-name="Trazado 112365" d="M259.927,505.21c-2.588-3.371-7.816-7.715-13.869-12.744-8.533-7.091-19.154-15.915-27.346-26.1-13.875-17.259-33.2-57.937-33.393-58.346l-.261-.552H291.236v.773H186.282c2.368,4.94,20.1,41.548,33.033,57.639,8.143,10.13,18.73,18.926,27.237,26,6.089,5.059,11.347,9.427,13.988,12.867Z" transform="translate(-41.913 -92.284)"/>
    <rect id="Rectángulo_7031" data-name="Rectángulo 7031" width="9.037" height="0.774" transform="matrix(0.809, -0.588, 0.588, 0.809, 176.875, 373.523)"/>
    <rect id="Rectángulo_7032" data-name="Rectángulo 7032" width="0.773" height="17.157" transform="translate(67.781 358.76) rotate(-54.03)"/>
    <rect id="Rectángulo_7033" data-name="Rectángulo 7033" width="94.089" height="0.774" transform="translate(155.235 226.991)"/>
    <rect id="Rectángulo_7034" data-name="Rectángulo 7034" width="113.376" height="0.774" transform="translate(135.948 129.166)"/>
    <rect id="Rectángulo_7035" data-name="Rectángulo 7035" width="113.261" height="0.774" transform="translate(16.869 129.601)"/>
    <rect id="Rectángulo_7036" data-name="Rectángulo 7036" width="94.102" height="0.774" transform="translate(16.869 228.009)"/>
    <path id="Trazado_112366" data-name="Trazado 112366" d="M254.537,424.307H21.309V33.962H160.68V13.513h93.858Zm-232.455-.773H253.764V14.287H161.453V132.614h-.774V34.736H22.083Z" transform="translate(-4.826 -3.06)"/>
    <rect id="Rectángulo_7037" data-name="Rectángulo 7037" width="0.774" height="98.699" transform="translate(109.051 31.289)"/>
    <rect id="Rectángulo_7038" data-name="Rectángulo 7038" width="4.981" height="0.774" transform="translate(104.456 87.805)"/>
    <path id="Trazado_112367" data-name="Trazado 112367" d="M97.99,294.156V116.005h.774V290.1l5.1-12.895.719.285Z" transform="translate(-22.193 -26.273)"/>
    <path id="Trazado_112368" data-name="Trazado 112368" d="M63,29.68l.336-3.291h3.381v.775H64.049l-.2,1.8a2.129,2.129,0,0,1,1.1-.285,1.82,1.82,0,0,1,1.432.6,2.335,2.335,0,0,1,.531,1.611,2.256,2.256,0,0,1-.551,1.607,2.008,2.008,0,0,1-1.539.587,2.085,2.085,0,0,1-1.427-.485,1.938,1.938,0,0,1-.63-1.342h.794a1.332,1.332,0,0,0,.4.855,1.255,1.255,0,0,0,.861.288,1.132,1.132,0,0,0,.918-.4,1.668,1.668,0,0,0,.333-1.1,1.533,1.533,0,0,0-.36-1.063,1.228,1.228,0,0,0-.958-.4,1.384,1.384,0,0,0-.862.24l-.222.182Z" transform="translate(-14.215 -5.977)"/>
    <path id="Trazado_112369" data-name="Trazado 112369" d="M12.571,41.638h-.843V36.05l-1.69.621V35.91l2.4-.9h.131Z" transform="translate(-2.273 -7.929)"/>
    <path id="Trazado_112370" data-name="Trazado 112370" d="M13.056,80.224v.712H12.9a2.211,2.211,0,0,0-1.559.58,2.415,2.415,0,0,0-.671,1.582,1.788,1.788,0,0,1,1.423-.6,1.709,1.709,0,0,1,1.375.607,2.662,2.662,0,0,1-.041,3.2,1.912,1.912,0,0,1-1.489.612,1.884,1.884,0,0,1-1.536-.728,2.882,2.882,0,0,1-.589-1.874v-.322a4.343,4.343,0,0,1,.777-2.785,2.856,2.856,0,0,1,2.314-.986Zm-1.1,2.973a1.41,1.41,0,0,0-1.3.907v.308a2.164,2.164,0,0,0,.367,1.315,1.1,1.1,0,0,0,.915.5,1.068,1.068,0,0,0,.891-.417,2,2,0,0,0,0-2.191,1.054,1.054,0,0,0-.873-.419" transform="translate(-2.223 -18.169)"/>
    <path id="Trazado_112371" data-name="Trazado 112371" d="M117.147,115.2H116.3v-5.589l-1.69.621v-.761l2.4-.9h.132Z" transform="translate(-25.958 -24.59)"/>
    <path id="Trazado_112372" data-name="Trazado 112372" d="M123.885,115.2h-.843v-5.589l-1.69.621v-.761l2.4-.9h.132Z" transform="translate(-27.484 -24.59)"/>
    <path id="Trazado_112373" data-name="Trazado 112373" d="M150.909,115.2h-.843v-5.589l-1.69.621v-.761l2.4-.9h.132Z" transform="translate(-33.605 -24.59)"/>
    <path id="Trazado_112374" data-name="Trazado 112374" d="M158.956,112.371a3.837,3.837,0,0,1-.5,2.189,2.091,2.091,0,0,1-3.137.016,3.64,3.64,0,0,1-.526-2.092v-1.119a3.746,3.746,0,0,1,.5-2.162,1.8,1.8,0,0,1,1.577-.707,1.821,1.821,0,0,1,1.568.681,3.62,3.62,0,0,1,.517,2.106Zm-.839-1.146a3.071,3.071,0,0,0-.3-1.552,1.029,1.029,0,0,0-.947-.487,1.016,1.016,0,0,0-.938.485,3,3,0,0,0-.3,1.491V112.5a3.117,3.117,0,0,0,.311,1.58,1.026,1.026,0,0,0,.94.511,1.014,1.014,0,0,0,.923-.481,3.008,3.008,0,0,0,.315-1.514Z" transform="translate(-35.058 -24.573)"/>
    <path id="Trazado_112375" data-name="Trazado 112375" d="M151.859,59.379a2.045,2.045,0,0,1-.628.5,1.7,1.7,0,0,1-.8.19,1.759,1.759,0,0,1-.995-.281,1.833,1.833,0,0,1-.655-.791,2.7,2.7,0,0,1-.231-1.126,2.743,2.743,0,0,1,.251-1.192,1.846,1.846,0,0,1,.714-.811,2.035,2.035,0,0,1,1.078-.281,1.842,1.842,0,0,1,1.543.732,3.189,3.189,0,0,1,.565,2v.244a4.264,4.264,0,0,1-.762,2.813,2.925,2.925,0,0,1-2.3.909h-.163v-.712h.176a2,2,0,0,0,2.2-2.194m-1.292,0a1.294,1.294,0,0,0,.777-.258,1.525,1.525,0,0,0,.519-.639v-.336a2.309,2.309,0,0,0-.358-1.341,1.094,1.094,0,0,0-1.795-.093,1.747,1.747,0,0,0-.336,1.117,1.822,1.822,0,0,0,.324,1.113,1.025,1.025,0,0,0,.868.437" transform="translate(-33.644 -12.59)"/>
    <path id="Trazado_112376" data-name="Trazado 112376" d="M165.711,155.638h.916v.685h-.916v1.532h-.843v-1.532h-3v-.494l2.955-4.573h.893Zm-2.9,0h2.053V152.4l-.1.182Z" transform="translate(-36.66 -34.257)"/>
    <path id="Trazado_112377" data-name="Trazado 112377" d="M144.851,176.194l-2.733,6.128h-.88l2.724-5.91h-3.572v-.688h4.46Z" transform="translate(-31.796 -39.798)"/>
    <path id="Trazado_112378" data-name="Trazado 112378" d="M198.944,182.3H194.62v-.6l2.284-2.539a5.4,5.4,0,0,0,.7-.936,1.558,1.558,0,0,0,.193-.745,1.182,1.182,0,0,0-.313-.848,1.093,1.093,0,0,0-.834-.331,1.3,1.3,0,0,0-.972.356,1.359,1.359,0,0,0-.347.99h-.838a1.946,1.946,0,0,1,.587-1.473,2.176,2.176,0,0,1,1.57-.562,2.091,2.091,0,0,1,1.455.483,1.645,1.645,0,0,1,.535,1.285,3.775,3.775,0,0,1-1.242,2.321l-1.767,1.917h3.313Z" transform="translate(-44.049 -39.772)"/>
    <path id="Trazado_112379" data-name="Trazado 112379" d="M205.6,176.194l-2.733,6.128h-.879l2.724-5.91h-3.572v-.688h4.46Z" transform="translate(-45.554 -39.798)"/>
    <path id="Trazado_112380" data-name="Trazado 112380" d="M183.539,292.735h.63a1.386,1.386,0,0,0,.934-.312,1.047,1.047,0,0,0,.34-.821,1.024,1.024,0,0,0-1.156-1.16,1.2,1.2,0,0,0-.868.311,1.084,1.084,0,0,0-.324.822h-.839a1.685,1.685,0,0,1,.573-1.3,2.089,2.089,0,0,1,1.457-.518,2.063,2.063,0,0,1,1.464.494,1.786,1.786,0,0,1,.531,1.374,1.45,1.45,0,0,1-.278.834,1.691,1.691,0,0,1-.76.6,1.622,1.622,0,0,1,.841.571,1.587,1.587,0,0,1,.3.975,1.8,1.8,0,0,1-.58,1.409,2.17,2.17,0,0,1-1.509.521,2.232,2.232,0,0,1-1.511-.5,1.669,1.669,0,0,1-.582-1.328h.842a1.078,1.078,0,0,0,.34.834,1.291,1.291,0,0,0,.911.313,1.268,1.268,0,0,0,.929-.317,1.223,1.223,0,0,0,.322-.91,1.109,1.109,0,0,0-.354-.884,1.54,1.54,0,0,0-1.02-.317h-.63Z" transform="translate(-41.265 -65.624)"/>
    <path id="Trazado_112381" data-name="Trazado 112381" d="M190.277,292.735h.63a1.386,1.386,0,0,0,.934-.312,1.047,1.047,0,0,0,.34-.821,1.024,1.024,0,0,0-1.156-1.16,1.2,1.2,0,0,0-.868.311,1.084,1.084,0,0,0-.324.822h-.838a1.685,1.685,0,0,1,.573-1.3,2.089,2.089,0,0,1,1.457-.518,2.063,2.063,0,0,1,1.464.494,1.786,1.786,0,0,1,.531,1.374,1.45,1.45,0,0,1-.278.834,1.691,1.691,0,0,1-.76.6,1.622,1.622,0,0,1,.841.571,1.586,1.586,0,0,1,.3.975,1.8,1.8,0,0,1-.58,1.409,2.17,2.17,0,0,1-1.509.521,2.232,2.232,0,0,1-1.511-.5,1.669,1.669,0,0,1-.582-1.328h.842a1.078,1.078,0,0,0,.34.834,1.291,1.291,0,0,0,.911.313,1.268,1.268,0,0,0,.929-.317,1.223,1.223,0,0,0,.322-.91,1.109,1.109,0,0,0-.353-.884,1.54,1.54,0,0,0-1.02-.317h-.63Z" transform="translate(-42.791 -65.624)"/>
    <path id="Trazado_112382" data-name="Trazado 112382" d="M153.523,296.459h-.843V290.87l-1.69.621v-.761l2.4-.9h.132Z" transform="translate(-34.197 -65.641)"/>
    <path id="Trazado_112383" data-name="Trazado 112383" d="M161.728,296.442H157.4v-.6l2.284-2.539a5.4,5.4,0,0,0,.7-.936,1.559,1.559,0,0,0,.193-.745,1.182,1.182,0,0,0-.313-.848,1.093,1.093,0,0,0-.834-.331,1.3,1.3,0,0,0-.972.356,1.359,1.359,0,0,0-.347.99h-.839a1.946,1.946,0,0,1,.587-1.473,2.176,2.176,0,0,1,1.57-.562,2.091,2.091,0,0,1,1.455.483,1.645,1.645,0,0,1,.535,1.285,3.775,3.775,0,0,1-1.241,2.321l-1.767,1.917h3.313Z" transform="translate(-35.621 -65.624)"/>
    <path id="Trazado_112384" data-name="Trazado 112384" d="M9.425,296.442H5.1v-.6L7.385,293.3a5.4,5.4,0,0,0,.7-.936,1.559,1.559,0,0,0,.193-.745,1.182,1.182,0,0,0-.313-.848,1.093,1.093,0,0,0-.834-.331,1.3,1.3,0,0,0-.972.356,1.359,1.359,0,0,0-.347.99H4.974a1.946,1.946,0,0,1,.587-1.473,2.176,2.176,0,0,1,1.57-.562,2.091,2.091,0,0,1,1.455.483,1.645,1.645,0,0,1,.535,1.285,3.775,3.775,0,0,1-1.241,2.321l-1.767,1.917H9.425Z" transform="translate(-1.127 -65.624)"/>
    <path id="Trazado_112385" data-name="Trazado 112385" d="M140.255,400.523h-.843v-5.589l-1.69.621v-.761l2.4-.9h.132Z" transform="translate(-31.192 -89.21)"/>
    <path id="Trazado_112386" data-name="Trazado 112386" d="M144.6,397.224l.336-3.291h3.381v.775h-2.669l-.2,1.8a2.129,2.129,0,0,1,1.1-.285,1.819,1.819,0,0,1,1.432.6,2.335,2.335,0,0,1,.531,1.611,2.257,2.257,0,0,1-.551,1.607,2.008,2.008,0,0,1-1.539.587,2.085,2.085,0,0,1-1.427-.485,1.938,1.938,0,0,1-.63-1.342h.794a1.332,1.332,0,0,0,.4.855,1.255,1.255,0,0,0,.861.288,1.132,1.132,0,0,0,.918-.4,1.668,1.668,0,0,0,.333-1.1,1.533,1.533,0,0,0-.36-1.063,1.228,1.228,0,0,0-.958-.4,1.384,1.384,0,0,0-.862.24l-.222.182Z" transform="translate(-32.696 -89.219)"/>
    <path id="Trazado_112387" data-name="Trazado 112387" d="M72.017,458.717h-.843v-5.589l-1.69.621v-.761l2.4-.9h.132Z" transform="translate(-15.737 -102.39)"/>
    <path id="Trazado_112388" data-name="Trazado 112388" d="M79.924,453.823a1.536,1.536,0,0,1-.261.879,1.776,1.776,0,0,1-.7.6,1.9,1.9,0,0,1,.818.648,1.629,1.629,0,0,1,.3.965,1.726,1.726,0,0,1-.578,1.365,2.535,2.535,0,0,1-3.046,0,1.734,1.734,0,0,1-.573-1.362,1.679,1.679,0,0,1,.292-.965,1.825,1.825,0,0,1,.809-.653,1.728,1.728,0,0,1-.694-.6,1.559,1.559,0,0,1-.254-.875,1.706,1.706,0,0,1,.535-1.323,2.27,2.27,0,0,1,2.816,0,1.7,1.7,0,0,1,.538,1.323M79.24,456.9a1.214,1.214,0,0,0-.351-.9,1.246,1.246,0,0,0-.918-.35,1.18,1.18,0,0,0-1.251,1.252,1.171,1.171,0,0,0,.333.883,1.488,1.488,0,0,0,1.851,0,1.168,1.168,0,0,0,.336-.881m-1.26-4.2a1.08,1.08,0,0,0-.8.306,1.264,1.264,0,0,0,0,1.645,1.2,1.2,0,0,0,1.609,0,1.239,1.239,0,0,0-.012-1.634,1.066,1.066,0,0,0-.793-.317" transform="translate(-17.186 -102.373)"/>
    <path id="Trazado_112389" data-name="Trazado 112389" d="M2.534,412.281H1.691v-5.589L0,407.313v-.761l2.4-.9h.131Z" transform="translate(0 -91.873)"/>
    <path id="Trazado_112390" data-name="Trazado 112390" d="M9.9,410.074h.916v.685H9.9v1.532H9.057v-1.532h-3v-.494l2.955-4.573H9.9Zm-2.9,0H9.057v-3.236l-.1.182Z" transform="translate(-1.371 -91.882)"/>
    <path id="Trazado_112391" data-name="Trazado 112391" d="M7.23,555.966H6.387v-5.589L4.7,551v-.761l2.4-.9H7.23Z" transform="translate(-1.064 -124.416)"/>
    <path id="Trazado_112392" data-name="Trazado 112392" d="M12.331,552.242h.63a1.386,1.386,0,0,0,.934-.312,1.047,1.047,0,0,0,.34-.821,1.023,1.023,0,0,0-1.156-1.16,1.2,1.2,0,0,0-.868.311,1.084,1.084,0,0,0-.324.822h-.838a1.685,1.685,0,0,1,.573-1.3,2.089,2.089,0,0,1,1.457-.518,2.063,2.063,0,0,1,1.463.494,1.786,1.786,0,0,1,.531,1.374,1.45,1.45,0,0,1-.278.834,1.691,1.691,0,0,1-.76.6,1.623,1.623,0,0,1,.841.571,1.587,1.587,0,0,1,.3.975,1.8,1.8,0,0,1-.58,1.409,2.17,2.17,0,0,1-1.509.521,2.232,2.232,0,0,1-1.511-.5,1.67,1.67,0,0,1-.582-1.328h.842a1.078,1.078,0,0,0,.34.834,1.291,1.291,0,0,0,.911.313,1.267,1.267,0,0,0,.929-.317,1.222,1.222,0,0,0,.322-.91,1.109,1.109,0,0,0-.353-.884,1.54,1.54,0,0,0-1.02-.317h-.63Z" transform="translate(-2.489 -124.398)"/>
    <path id="Trazado_112393" data-name="Trazado 112393" d="M49.58,555.966h-.843v-5.589l-1.69.621v-.761l2.4-.9h.132Z" transform="translate(-10.655 -124.416)"/>
    <path id="Trazado_112394" data-name="Trazado 112394" d="M56.8,549.371v.712h-.154a2.21,2.21,0,0,0-1.559.58,2.414,2.414,0,0,0-.671,1.582,1.788,1.788,0,0,1,1.423-.6,1.709,1.709,0,0,1,1.375.607,2.662,2.662,0,0,1-.041,3.2,1.912,1.912,0,0,1-1.489.612,1.884,1.884,0,0,1-1.536-.728,2.882,2.882,0,0,1-.589-1.874v-.322a4.343,4.343,0,0,1,.777-2.785,2.856,2.856,0,0,1,2.314-.986Zm-1.1,2.973a1.41,1.41,0,0,0-1.3.906v.308a2.164,2.164,0,0,0,.367,1.315,1.1,1.1,0,0,0,.915.5,1.068,1.068,0,0,0,.891-.417,2,2,0,0,0,0-2.191,1.053,1.053,0,0,0-.873-.419" transform="translate(-12.131 -124.423)"/>
    <path id="Trazado_112395" data-name="Trazado 112395" d="M113.3,488.528h-.843v-5.589l-1.69.621V482.8l2.4-.9h.132Z" transform="translate(-25.087 -109.142)"/>
    <path id="Trazado_112396" data-name="Trazado 112396" d="M121.419,482.41l-2.733,6.128h-.879l2.724-5.91h-3.572v-.688h4.46Z" transform="translate(-26.489 -109.151)"/>
    <path id="Trazado_112397" data-name="Trazado 112397" d="M194.019,396.8h.63a1.386,1.386,0,0,0,.934-.312,1.047,1.047,0,0,0,.34-.821,1.024,1.024,0,0,0-1.156-1.16,1.2,1.2,0,0,0-.868.311,1.084,1.084,0,0,0-.324.822h-.839a1.685,1.685,0,0,1,.573-1.3,2.089,2.089,0,0,1,1.457-.518,2.063,2.063,0,0,1,1.464.494,1.786,1.786,0,0,1,.531,1.374,1.45,1.45,0,0,1-.278.834,1.691,1.691,0,0,1-.76.6,1.623,1.623,0,0,1,.841.571,1.586,1.586,0,0,1,.3.975,1.8,1.8,0,0,1-.58,1.409,2.171,2.171,0,0,1-1.509.521,2.232,2.232,0,0,1-1.511-.5,1.67,1.67,0,0,1-.582-1.328h.842a1.078,1.078,0,0,0,.34.834,1.291,1.291,0,0,0,.911.313,1.268,1.268,0,0,0,.929-.317,1.223,1.223,0,0,0,.322-.91,1.109,1.109,0,0,0-.354-.884,1.54,1.54,0,0,0-1.02-.317h-.63Z" transform="translate(-43.638 -89.193)"/>
    <path id="Trazado_112398" data-name="Trazado 112398" d="M203.023,398.316h.916V399h-.916v1.532h-.843V399h-3v-.494l2.955-4.573h.893Zm-2.9,0h2.053v-3.236l-.1.182Z" transform="translate(-45.11 -89.219)"/>
    <path id="Trazado_112399" data-name="Trazado 112399" d="M245.992,467.378h.63a1.386,1.386,0,0,0,.934-.312,1.046,1.046,0,0,0,.34-.821,1.023,1.023,0,0,0-1.156-1.16,1.2,1.2,0,0,0-.868.311,1.084,1.084,0,0,0-.324.822h-.839a1.685,1.685,0,0,1,.573-1.3,2.089,2.089,0,0,1,1.457-.518,2.063,2.063,0,0,1,1.463.493,1.786,1.786,0,0,1,.531,1.374,1.45,1.45,0,0,1-.278.834,1.691,1.691,0,0,1-.76.6,1.623,1.623,0,0,1,.841.571,1.587,1.587,0,0,1,.3.975,1.8,1.8,0,0,1-.58,1.409,2.17,2.17,0,0,1-1.509.521,2.231,2.231,0,0,1-1.511-.5,1.669,1.669,0,0,1-.582-1.328h.842a1.078,1.078,0,0,0,.34.834,1.291,1.291,0,0,0,.911.312,1.268,1.268,0,0,0,.929-.317,1.223,1.223,0,0,0,.322-.91,1.109,1.109,0,0,0-.353-.884,1.54,1.54,0,0,0-1.02-.317h-.63Z" transform="translate(-55.409 -105.178)"/>
    <path id="Trazado_112400" data-name="Trazado 112400" d="M254.852,464.506v.712H254.7a2.21,2.21,0,0,0-1.559.58,2.415,2.415,0,0,0-.671,1.582,1.788,1.788,0,0,1,1.423-.6,1.709,1.709,0,0,1,1.375.607,2.662,2.662,0,0,1-.041,3.2,1.912,1.912,0,0,1-1.489.612,1.884,1.884,0,0,1-1.536-.728,2.882,2.882,0,0,1-.589-1.874v-.322a4.343,4.343,0,0,1,.777-2.785,2.856,2.856,0,0,1,2.314-.986Zm-1.1,2.973a1.41,1.41,0,0,0-1.3.907v.308a2.164,2.164,0,0,0,.367,1.315,1.1,1.1,0,0,0,.915.5,1.068,1.068,0,0,0,.891-.417,2,2,0,0,0,0-2.191,1.054,1.054,0,0,0-.873-.419" transform="translate(-56.986 -105.203)"/>
    <path id="Trazado_112401" data-name="Trazado 112401" d="M287.284,552.242h.63a1.386,1.386,0,0,0,.934-.312,1.047,1.047,0,0,0,.34-.821,1.023,1.023,0,0,0-1.156-1.16,1.2,1.2,0,0,0-.868.311,1.083,1.083,0,0,0-.324.822H286a1.685,1.685,0,0,1,.573-1.3,2.089,2.089,0,0,1,1.457-.518,2.063,2.063,0,0,1,1.464.494,1.786,1.786,0,0,1,.531,1.374,1.45,1.45,0,0,1-.278.834,1.691,1.691,0,0,1-.76.6,1.623,1.623,0,0,1,.841.571,1.587,1.587,0,0,1,.3.975,1.8,1.8,0,0,1-.58,1.409,2.17,2.17,0,0,1-1.509.521,2.232,2.232,0,0,1-1.511-.5,1.67,1.67,0,0,1-.582-1.328h.842a1.078,1.078,0,0,0,.34.834,1.291,1.291,0,0,0,.911.313,1.268,1.268,0,0,0,.929-.317,1.223,1.223,0,0,0,.322-.91,1.109,1.109,0,0,0-.353-.884,1.54,1.54,0,0,0-1.02-.317h-.63Z" transform="translate(-64.761 -124.398)"/>
    <path id="Trazado_112402" data-name="Trazado 112402" d="M293.268,552.668l.336-3.291h3.381v.775h-2.669l-.2,1.8a2.129,2.129,0,0,1,1.1-.285,1.82,1.82,0,0,1,1.432.6,2.335,2.335,0,0,1,.531,1.611,2.256,2.256,0,0,1-.551,1.607,2.008,2.008,0,0,1-1.539.587,2.085,2.085,0,0,1-1.427-.485,1.938,1.938,0,0,1-.63-1.342h.794a1.332,1.332,0,0,0,.4.855,1.255,1.255,0,0,0,.861.288,1.132,1.132,0,0,0,.918-.4,1.668,1.668,0,0,0,.333-1.1,1.533,1.533,0,0,0-.36-1.063,1.228,1.228,0,0,0-.958-.4,1.384,1.384,0,0,0-.862.24l-.222.182Z" transform="translate(-66.367 -124.425)"/>
    <path id="Trazado_112403" data-name="Trazado 112403" d="M214.205,490.674h.63a1.386,1.386,0,0,0,.934-.312,1.046,1.046,0,0,0,.34-.821,1.023,1.023,0,0,0-1.156-1.16,1.2,1.2,0,0,0-.868.311,1.084,1.084,0,0,0-.324.822h-.838a1.685,1.685,0,0,1,.573-1.3,2.089,2.089,0,0,1,1.457-.518,2.063,2.063,0,0,1,1.463.494,1.786,1.786,0,0,1,.531,1.374,1.45,1.45,0,0,1-.278.834,1.691,1.691,0,0,1-.76.6,1.623,1.623,0,0,1,.841.571,1.587,1.587,0,0,1,.3.975,1.8,1.8,0,0,1-.58,1.409,2.17,2.17,0,0,1-1.509.521,2.232,2.232,0,0,1-1.511-.5,1.669,1.669,0,0,1-.582-1.328h.842a1.078,1.078,0,0,0,.34.834,1.291,1.291,0,0,0,.911.313,1.268,1.268,0,0,0,.929-.317,1.223,1.223,0,0,0,.322-.91,1.109,1.109,0,0,0-.354-.884,1.54,1.54,0,0,0-1.02-.317h-.63Z" transform="translate(-48.21 -110.454)"/>
    <path id="Trazado_112404" data-name="Trazado 112404" d="M223.962,488.28l-2.733,6.128h-.88l2.724-5.91H219.5v-.688h4.46Z" transform="translate(-49.713 -110.481)"/>
    <path id="Trazado_112405" data-name="Trazado 112405" d="M331.778,550.819h-4.324v-.6l2.284-2.539a5.4,5.4,0,0,0,.7-.936,1.558,1.558,0,0,0,.193-.745,1.182,1.182,0,0,0-.313-.848,1.093,1.093,0,0,0-.834-.331,1.3,1.3,0,0,0-.972.356,1.359,1.359,0,0,0-.347.99h-.839a1.946,1.946,0,0,1,.587-1.473,2.176,2.176,0,0,1,1.57-.562,2.091,2.091,0,0,1,1.455.483,1.645,1.645,0,0,1,.534,1.285,3.775,3.775,0,0,1-1.241,2.321l-1.767,1.917h3.313Z" transform="translate(-74.134 -123.236)"/>
    <path id="Trazado_112406" data-name="Trazado 112406" d="M337.678,548.63h.916v.685h-.916v1.532h-.843v-1.532h-3v-.494l2.955-4.573h.893Zm-2.9,0h2.053v-3.236l-.1.182Z" transform="translate(-75.607 -123.263)"/>
    <path id="Trazado_112407" data-name="Trazado 112407" d="M331.778,409.133h-4.324v-.6l2.284-2.539a5.4,5.4,0,0,0,.7-.936,1.558,1.558,0,0,0,.193-.745,1.182,1.182,0,0,0-.313-.848,1.093,1.093,0,0,0-.834-.331,1.3,1.3,0,0,0-.972.356,1.359,1.359,0,0,0-.347.99h-.839a1.946,1.946,0,0,1,.587-1.473,2.176,2.176,0,0,1,1.57-.562,2.091,2.091,0,0,1,1.455.483,1.645,1.645,0,0,1,.534,1.285,3.775,3.775,0,0,1-1.241,2.321l-1.767,1.917h3.313Z" transform="translate(-74.134 -91.147)"/>
    <path id="Trazado_112408" data-name="Trazado 112408" d="M335.413,405.426h.63a1.386,1.386,0,0,0,.934-.312,1.047,1.047,0,0,0,.34-.821,1.023,1.023,0,0,0-1.156-1.16,1.2,1.2,0,0,0-.868.311,1.083,1.083,0,0,0-.324.822h-.838a1.685,1.685,0,0,1,.573-1.3,2.089,2.089,0,0,1,1.457-.518,2.063,2.063,0,0,1,1.463.494,1.786,1.786,0,0,1,.531,1.374,1.45,1.45,0,0,1-.278.834,1.691,1.691,0,0,1-.76.6,1.623,1.623,0,0,1,.841.571,1.587,1.587,0,0,1,.3.975,1.8,1.8,0,0,1-.58,1.409,2.17,2.17,0,0,1-1.509.521,2.231,2.231,0,0,1-1.511-.5,1.669,1.669,0,0,1-.582-1.328h.842a1.078,1.078,0,0,0,.34.834,1.291,1.291,0,0,0,.911.312,1.268,1.268,0,0,0,.929-.317,1.223,1.223,0,0,0,.322-.91,1.109,1.109,0,0,0-.353-.884,1.54,1.54,0,0,0-1.02-.317h-.63Z" transform="translate(-75.662 -91.147)"/>
    <path id="Trazado_112409" data-name="Trazado 112409" d="M333.122,172.349H328.8v-.6l2.284-2.539a5.4,5.4,0,0,0,.7-.936,1.559,1.559,0,0,0,.193-.745,1.182,1.182,0,0,0-.313-.848,1.093,1.093,0,0,0-.834-.331,1.3,1.3,0,0,0-.972.356,1.359,1.359,0,0,0-.347.99h-.839a1.947,1.947,0,0,1,.587-1.473,2.176,2.176,0,0,1,1.57-.562,2.091,2.091,0,0,1,1.455.483,1.645,1.645,0,0,1,.535,1.285,3.775,3.775,0,0,1-1.242,2.321l-1.767,1.917h3.313Z" transform="translate(-74.439 -37.519)"/>
    <path id="Trazado_112410" data-name="Trazado 112410" d="M338.394,172.366h-.843v-5.589l-1.69.621v-.761l2.4-.9h.132Z" transform="translate(-76.067 -37.536)"/>
    <path id="Trazado_112411" data-name="Trazado 112411" d="M333.122,295.124H328.8v-.6l2.284-2.539a5.4,5.4,0,0,0,.7-.936,1.559,1.559,0,0,0,.193-.745,1.182,1.182,0,0,0-.313-.848,1.093,1.093,0,0,0-.834-.331,1.3,1.3,0,0,0-.972.356,1.359,1.359,0,0,0-.347.99h-.839a1.946,1.946,0,0,1,.587-1.473,2.176,2.176,0,0,1,1.57-.562,2.091,2.091,0,0,1,1.455.483,1.645,1.645,0,0,1,.535,1.285,3.775,3.775,0,0,1-1.242,2.321l-1.767,1.917h3.313Z" transform="translate(-74.439 -65.326)"/>
    <path id="Trazado_112412" data-name="Trazado 112412" d="M339.86,295.124h-4.324v-.6l2.284-2.539a5.4,5.4,0,0,0,.7-.936,1.559,1.559,0,0,0,.193-.745,1.182,1.182,0,0,0-.313-.848,1.093,1.093,0,0,0-.834-.331,1.3,1.3,0,0,0-.972.356,1.359,1.359,0,0,0-.346.99h-.839A1.946,1.946,0,0,1,336,289a2.176,2.176,0,0,1,1.57-.562,2.091,2.091,0,0,1,1.455.483,1.645,1.645,0,0,1,.535,1.285,3.775,3.775,0,0,1-1.241,2.321l-1.767,1.917h3.313Z" transform="translate(-75.965 -65.326)"/>
    <path id="Trazado_112413" data-name="Trazado 112413" d="M178.619,157.827h-4.324v-.6l2.284-2.539a5.4,5.4,0,0,0,.7-.936,1.559,1.559,0,0,0,.193-.745,1.182,1.182,0,0,0-.313-.848,1.093,1.093,0,0,0-.834-.331,1.3,1.3,0,0,0-.972.356,1.359,1.359,0,0,0-.347.99h-.838a1.946,1.946,0,0,1,.587-1.473,2.176,2.176,0,0,1,1.57-.562,2.091,2.091,0,0,1,1.455.483,1.645,1.645,0,0,1,.535,1.285,3.775,3.775,0,0,1-1.242,2.321l-1.767,1.917h3.313Z" transform="translate(-39.446 -34.23)"/>
    <path id="Trazado_112414" data-name="Trazado 112414" d="M185.2,155.013a3.837,3.837,0,0,1-.5,2.189,2.091,2.091,0,0,1-3.137.016,3.64,3.64,0,0,1-.526-2.092v-1.119a3.746,3.746,0,0,1,.5-2.162,1.8,1.8,0,0,1,1.577-.707,1.821,1.821,0,0,1,1.568.681,3.62,3.62,0,0,1,.517,2.106Zm-.838-1.146a3.071,3.071,0,0,0-.3-1.552,1.029,1.029,0,0,0-.947-.487,1.016,1.016,0,0,0-.938.485,3,3,0,0,0-.3,1.491v1.341a3.116,3.116,0,0,0,.311,1.58,1.026,1.026,0,0,0,.94.511,1.014,1.014,0,0,0,.923-.481,3.008,3.008,0,0,0,.315-1.514Z" transform="translate(-41.001 -34.23)"/>
    <path id="Trazado_112415" data-name="Trazado 112415" d="M10.934,165.512h.63a1.386,1.386,0,0,0,.934-.312,1.046,1.046,0,0,0,.34-.821,1.023,1.023,0,0,0-1.156-1.16,1.2,1.2,0,0,0-.868.311,1.084,1.084,0,0,0-.324.822H9.652a1.685,1.685,0,0,1,.573-1.3,2.089,2.089,0,0,1,1.457-.518,2.063,2.063,0,0,1,1.463.493,1.786,1.786,0,0,1,.531,1.374,1.45,1.45,0,0,1-.278.834,1.691,1.691,0,0,1-.76.6,1.623,1.623,0,0,1,.841.571,1.587,1.587,0,0,1,.3.975,1.8,1.8,0,0,1-.58,1.409,2.17,2.17,0,0,1-1.509.521,2.232,2.232,0,0,1-1.511-.5,1.67,1.67,0,0,1-.582-1.328h.842a1.078,1.078,0,0,0,.34.834,1.291,1.291,0,0,0,.911.313,1.268,1.268,0,0,0,.929-.317,1.223,1.223,0,0,0,.322-.91,1.109,1.109,0,0,0-.353-.884,1.54,1.54,0,0,0-1.02-.317h-.63Z" transform="translate(-2.173 -36.81)"/>
    <path id="Trazado_112416" data-name="Trazado 112416" d="M142.811,28.085a1.536,1.536,0,0,1-.261.879,1.776,1.776,0,0,1-.7.6,1.9,1.9,0,0,1,.818.648,1.629,1.629,0,0,1,.3.965,1.726,1.726,0,0,1-.578,1.364,2.535,2.535,0,0,1-3.046,0,1.734,1.734,0,0,1-.573-1.362,1.679,1.679,0,0,1,.292-.965,1.825,1.825,0,0,1,.809-.653,1.728,1.728,0,0,1-.694-.6,1.559,1.559,0,0,1-.254-.875,1.706,1.706,0,0,1,.535-1.323,2.27,2.27,0,0,1,2.816,0,1.7,1.7,0,0,1,.538,1.323m-.685,3.078a1.214,1.214,0,0,0-.351-.9,1.246,1.246,0,0,0-.918-.35,1.18,1.18,0,0,0-1.251,1.252,1.171,1.171,0,0,0,.333.883,1.488,1.488,0,0,0,1.851,0,1.168,1.168,0,0,0,.336-.881m-1.26-4.2a1.08,1.08,0,0,0-.8.306,1.264,1.264,0,0,0,0,1.644,1.2,1.2,0,0,0,1.609,0,1.239,1.239,0,0,0-.012-1.634,1.067,1.067,0,0,0-.793-.317" transform="translate(-31.429 -5.95)"/>
    <path id="Trazado_112417" data-name="Trazado 112417" d="M181.7,29.254h.63a1.386,1.386,0,0,0,.934-.312,1.046,1.046,0,0,0,.34-.821,1.024,1.024,0,0,0-1.156-1.16,1.2,1.2,0,0,0-.868.311,1.084,1.084,0,0,0-.324.822h-.839a1.685,1.685,0,0,1,.573-1.3,2.089,2.089,0,0,1,1.457-.518,2.063,2.063,0,0,1,1.464.494,1.786,1.786,0,0,1,.531,1.374,1.45,1.45,0,0,1-.278.834,1.691,1.691,0,0,1-.76.6,1.623,1.623,0,0,1,.841.571,1.586,1.586,0,0,1,.3.975,1.8,1.8,0,0,1-.58,1.409,2.17,2.17,0,0,1-1.509.521,2.232,2.232,0,0,1-1.511-.5,1.67,1.67,0,0,1-.582-1.328h.842a1.078,1.078,0,0,0,.34.834,1.291,1.291,0,0,0,.911.313,1.268,1.268,0,0,0,.929-.317,1.223,1.223,0,0,0,.322-.91,1.109,1.109,0,0,0-.354-.884,1.54,1.54,0,0,0-1.02-.317h-.63Z" transform="translate(-40.849 -5.95)"/>
    <path id="Trazado_112418" data-name="Trazado 112418" d="M191.387,30.147a3.837,3.837,0,0,1-.5,2.189,2.091,2.091,0,0,1-3.137.016,3.64,3.64,0,0,1-.526-2.092V29.141a3.746,3.746,0,0,1,.5-2.162,1.8,1.8,0,0,1,1.577-.707,1.821,1.821,0,0,1,1.568.681,3.62,3.62,0,0,1,.517,2.106ZM190.549,29a3.071,3.071,0,0,0-.3-1.552,1.029,1.029,0,0,0-.947-.487,1.016,1.016,0,0,0-.938.485,3,3,0,0,0-.3,1.491v1.341a3.117,3.117,0,0,0,.311,1.58,1.026,1.026,0,0,0,.94.511,1.014,1.014,0,0,0,.923-.481,3.008,3.008,0,0,0,.315-1.514Z" transform="translate(-42.403 -5.95)"/>
    <path id="Trazado_112419" data-name="Trazado 112419" d="M181.7,97.747h.63a1.386,1.386,0,0,0,.934-.312,1.047,1.047,0,0,0,.34-.821,1.024,1.024,0,0,0-1.156-1.16,1.2,1.2,0,0,0-.868.311,1.084,1.084,0,0,0-.324.822h-.839a1.685,1.685,0,0,1,.573-1.3,2.089,2.089,0,0,1,1.457-.518,2.063,2.063,0,0,1,1.464.493,1.786,1.786,0,0,1,.531,1.374,1.45,1.45,0,0,1-.278.834,1.691,1.691,0,0,1-.76.6,1.623,1.623,0,0,1,.841.571,1.586,1.586,0,0,1,.3.975,1.8,1.8,0,0,1-.58,1.409,2.17,2.17,0,0,1-1.509.521,2.232,2.232,0,0,1-1.511-.5,1.67,1.67,0,0,1-.582-1.328h.842a1.078,1.078,0,0,0,.34.834,1.291,1.291,0,0,0,.911.313,1.268,1.268,0,0,0,.929-.317,1.223,1.223,0,0,0,.322-.91,1.109,1.109,0,0,0-.354-.884,1.54,1.54,0,0,0-1.02-.317h-.63Z" transform="translate(-40.849 -21.463)"/>
    <path id="Trazado_112420" data-name="Trazado 112420" d="M190.079,101.472h-.843V95.883l-1.69.621v-.761l2.4-.9h.132Z" transform="translate(-42.476 -21.48)"/>
    <path id="Trazado_112421" data-name="Trazado 112421" d="M216.505,97.747h.63a1.386,1.386,0,0,0,.934-.312,1.047,1.047,0,0,0,.34-.821,1.023,1.023,0,0,0-1.156-1.16,1.2,1.2,0,0,0-.868.311,1.084,1.084,0,0,0-.324.822h-.838a1.685,1.685,0,0,1,.573-1.3,2.089,2.089,0,0,1,1.457-.518,2.063,2.063,0,0,1,1.464.493,1.786,1.786,0,0,1,.531,1.374,1.45,1.45,0,0,1-.278.834,1.691,1.691,0,0,1-.76.6,1.623,1.623,0,0,1,.841.571,1.587,1.587,0,0,1,.3.975,1.8,1.8,0,0,1-.58,1.409,2.17,2.17,0,0,1-1.509.521,2.232,2.232,0,0,1-1.511-.5,1.669,1.669,0,0,1-.582-1.328h.842a1.078,1.078,0,0,0,.34.834,1.291,1.291,0,0,0,.911.313,1.268,1.268,0,0,0,.929-.317,1.223,1.223,0,0,0,.322-.91,1.109,1.109,0,0,0-.354-.884,1.54,1.54,0,0,0-1.02-.317h-.63Z" transform="translate(-48.731 -21.463)"/>
    <path id="Trazado_112422" data-name="Trazado 112422" d="M226.347,101.454h-4.324v-.6l2.284-2.539a5.4,5.4,0,0,0,.7-.936,1.559,1.559,0,0,0,.193-.745,1.182,1.182,0,0,0-.313-.848,1.094,1.094,0,0,0-.834-.331,1.3,1.3,0,0,0-.972.356,1.359,1.359,0,0,0-.347.99H221.9a1.946,1.946,0,0,1,.587-1.473,2.176,2.176,0,0,1,1.57-.562,2.091,2.091,0,0,1,1.455.483,1.645,1.645,0,0,1,.535,1.285,3.775,3.775,0,0,1-1.241,2.321l-1.767,1.917h3.313Z" transform="translate(-50.256 -21.463)"/>
    <path id="Trazado_112423" data-name="Trazado 112423" d="M201.935,6.689h-4.324v-.6L199.9,3.548a5.4,5.4,0,0,0,.7-.936,1.558,1.558,0,0,0,.193-.745,1.182,1.182,0,0,0-.313-.848,1.093,1.093,0,0,0-.834-.331,1.3,1.3,0,0,0-.972.356,1.359,1.359,0,0,0-.347.99h-.839a1.946,1.946,0,0,1,.587-1.473A2.176,2.176,0,0,1,199.641,0,2.091,2.091,0,0,1,201.1.483a1.645,1.645,0,0,1,.535,1.285,3.775,3.775,0,0,1-1.242,2.321L198.622,6h3.313Z" transform="translate(-44.727 0)"/>
    <path id="Trazado_112424" data-name="Trazado 112424" d="M207.691.111V.823h-.154a2.211,2.211,0,0,0-1.559.58,2.415,2.415,0,0,0-.671,1.582,1.788,1.788,0,0,1,1.423-.6,1.709,1.709,0,0,1,1.375.607,2.343,2.343,0,0,1,.514,1.568,2.335,2.335,0,0,1-.555,1.632,1.912,1.912,0,0,1-1.489.612,1.884,1.884,0,0,1-1.536-.728A2.882,2.882,0,0,1,204.45,4.2V3.882a4.343,4.343,0,0,1,.777-2.785,2.856,2.856,0,0,1,2.314-.986Zm-1.1,2.973a1.41,1.41,0,0,0-1.3.907V4.3a2.164,2.164,0,0,0,.367,1.315,1.1,1.1,0,0,0,.915.5,1.068,1.068,0,0,0,.891-.417,1.731,1.731,0,0,0,.324-1.092,1.731,1.731,0,0,0-.329-1.1,1.054,1.054,0,0,0-.873-.419" transform="translate(-46.305 -0.025)"/>
    <path id="Trazado_112425" data-name="Trazado 112425" d="M279.15,6.689h-4.324v-.6l2.284-2.539a5.4,5.4,0,0,0,.7-.936A1.558,1.558,0,0,0,278,1.867a1.182,1.182,0,0,0-.313-.848,1.094,1.094,0,0,0-.834-.331,1.3,1.3,0,0,0-.972.356,1.359,1.359,0,0,0-.347.99H274.7a1.947,1.947,0,0,1,.587-1.473A2.176,2.176,0,0,1,276.856,0a2.091,2.091,0,0,1,1.455.483,1.645,1.645,0,0,1,.535,1.285A3.775,3.775,0,0,1,277.6,4.088L275.837,6h3.313Z" transform="translate(-62.215 0)"/>
    <path id="Trazado_112426" data-name="Trazado 112426" d="M285.591,1.812a1.536,1.536,0,0,1-.261.879,1.776,1.776,0,0,1-.7.6,1.9,1.9,0,0,1,.818.648,1.629,1.629,0,0,1,.3.965,1.726,1.726,0,0,1-.578,1.364,2.535,2.535,0,0,1-3.046,0,1.734,1.734,0,0,1-.573-1.362,1.679,1.679,0,0,1,.292-.965,1.825,1.825,0,0,1,.809-.653,1.728,1.728,0,0,1-.694-.6,1.559,1.559,0,0,1-.254-.875,1.706,1.706,0,0,1,.535-1.323,2.27,2.27,0,0,1,2.816,0,1.7,1.7,0,0,1,.538,1.323m-.685,3.078a1.214,1.214,0,0,0-.351-.9,1.246,1.246,0,0,0-.918-.35,1.18,1.18,0,0,0-1.251,1.252,1.171,1.171,0,0,0,.333.883,1.488,1.488,0,0,0,1.851,0,1.168,1.168,0,0,0,.336-.881m-1.26-4.2a1.08,1.08,0,0,0-.8.306,1.122,1.122,0,0,0-.306.832,1.116,1.116,0,0,0,.3.813,1.2,1.2,0,0,0,1.609,0,1.117,1.117,0,0,0,.3-.813,1.119,1.119,0,0,0-.313-.821,1.067,1.067,0,0,0-.793-.317" transform="translate(-63.766 0)"/>
    <path id="Trazado_112427" data-name="Trazado 112427" d="M332.05,6.689h-4.324v-.6l2.284-2.539a5.4,5.4,0,0,0,.7-.936,1.559,1.559,0,0,0,.193-.745,1.182,1.182,0,0,0-.313-.848,1.093,1.093,0,0,0-.834-.331,1.3,1.3,0,0,0-.972.356,1.359,1.359,0,0,0-.347.99H327.6a1.946,1.946,0,0,1,.587-1.473A2.176,2.176,0,0,1,329.756,0a2.091,2.091,0,0,1,1.455.483,1.645,1.645,0,0,1,.534,1.285A3.775,3.775,0,0,1,330.5,4.088L328.737,6h3.313Z" transform="translate(-74.196 0)"/>
    <path id="Trazado_112428" data-name="Trazado 112428" d="M334.931,3.408l.336-3.291h3.381V.892h-2.669l-.2,1.8a2.129,2.129,0,0,1,1.1-.285,1.82,1.82,0,0,1,1.432.6,2.335,2.335,0,0,1,.531,1.611,2.256,2.256,0,0,1-.551,1.607,2.008,2.008,0,0,1-1.539.587,2.085,2.085,0,0,1-1.427-.485,1.938,1.938,0,0,1-.63-1.342h.794a1.332,1.332,0,0,0,.4.855,1.255,1.255,0,0,0,.861.288,1.132,1.132,0,0,0,.918-.4,1.668,1.668,0,0,0,.333-1.1,1.533,1.533,0,0,0-.36-1.063,1.228,1.228,0,0,0-.958-.4,1.385,1.385,0,0,0-.862.24l-.222.182Z" transform="translate(-75.803 -0.026)"/>
    <path id="Trazado_112429" data-name="Trazado 112429" d="M332.05,32.961h-4.324v-.6l2.284-2.539a5.4,5.4,0,0,0,.7-.936,1.559,1.559,0,0,0,.193-.745,1.182,1.182,0,0,0-.313-.848,1.093,1.093,0,0,0-.834-.331,1.3,1.3,0,0,0-.972.356,1.359,1.359,0,0,0-.347.99H327.6a1.946,1.946,0,0,1,.587-1.473,2.176,2.176,0,0,1,1.57-.562,2.091,2.091,0,0,1,1.455.483,1.645,1.645,0,0,1,.534,1.285A3.775,3.775,0,0,1,330.5,30.36l-1.767,1.917h3.313Z" transform="translate(-74.196 -5.95)"/>
    <path id="Trazado_112430" data-name="Trazado 112430" d="M337.687,30.061a2.045,2.045,0,0,1-.628.5,1.7,1.7,0,0,1-.8.19,1.759,1.759,0,0,1-.995-.281,1.833,1.833,0,0,1-.655-.791,2.7,2.7,0,0,1-.23-1.126,2.743,2.743,0,0,1,.251-1.192,1.846,1.846,0,0,1,.714-.811,2.035,2.035,0,0,1,1.078-.281,1.842,1.842,0,0,1,1.543.732,3.189,3.189,0,0,1,.565,2v.244a4.264,4.264,0,0,1-.762,2.813,2.925,2.925,0,0,1-2.3.909h-.163v-.712h.176a2,2,0,0,0,2.2-2.194m-1.292,0a1.294,1.294,0,0,0,.777-.258,1.525,1.525,0,0,0,.519-.639v-.336a2.309,2.309,0,0,0-.358-1.341,1.094,1.094,0,0,0-1.795-.093,1.747,1.747,0,0,0-.336,1.117,1.822,1.822,0,0,0,.324,1.113,1.025,1.025,0,0,0,.868.437" transform="translate(-75.731 -5.95)"/>
    <path id="Trazado_112431" data-name="Trazado 112431" d="M70.474,204.57H66.55V208.7H65.317v-9.349h5.792v1.009H66.55v3.2h3.923Z" transform="translate(-14.793 -45.149)"/>
    <path id="Trazado_112432" data-name="Trazado 112432" d="M78.141,204.916h-2.2V208.7H74.706v-9.349H77.8a3.667,3.667,0,0,1,2.43.719,2.588,2.588,0,0,1,.851,2.093,2.519,2.519,0,0,1-.472,1.522,2.816,2.816,0,0,1-1.313.97l2.2,3.968v.077H80.17Zm-2.2-1.008H77.84a2.136,2.136,0,0,0,1.46-.476,1.609,1.609,0,0,0,.543-1.274,1.7,1.7,0,0,0-.517-1.331,2.189,2.189,0,0,0-1.494-.47H75.945Z" transform="translate(-16.92 -45.149)"/>
    <path id="Trazado_112433" data-name="Trazado 112433" d="M92.366,208.7H91.127l-4.707-7.2v7.2H85.181V199.35H86.42l4.72,7.236V199.35h1.226Z" transform="translate(-19.292 -45.149)"/>
    <rect id="Rectángulo_7039" data-name="Rectángulo 7039" width="3.134" height="0.969" transform="translate(74.416 159.093)"/>
    <path id="Trazado_112434" data-name="Trazado 112434" d="M107.275,204.377h-4.052v3.313h4.707V208.7h-5.94v-9.349h5.876v1.009h-4.643v3.011h4.052Z" transform="translate(-23.099 -45.149)"/>
    <path id="Trazado_112435" data-name="Trazado 112435" d="M114.24,204.493a5.786,5.786,0,0,1-2.308-1.121,2.14,2.14,0,0,1-.722-1.64,2.26,2.26,0,0,1,.883-1.827,3.509,3.509,0,0,1,2.3-.722,3.828,3.828,0,0,1,1.717.373,2.818,2.818,0,0,1,1.169,1.027,2.625,2.625,0,0,1,.415,1.432h-1.24a1.71,1.71,0,0,0-.539-1.337,2.193,2.193,0,0,0-1.522-.487,2.245,2.245,0,0,0-1.422.4,1.341,1.341,0,0,0-.511,1.116,1.2,1.2,0,0,0,.485.968,4.745,4.745,0,0,0,1.65.724,7.635,7.635,0,0,1,1.824.723,2.757,2.757,0,0,1,.975.921,2.343,2.343,0,0,1,.318,1.239,2.183,2.183,0,0,1-.886,1.82,3.781,3.781,0,0,1-2.369.684,4.395,4.395,0,0,1-1.8-.369,3.029,3.029,0,0,1-1.288-1.011,2.476,2.476,0,0,1-.453-1.458h1.239a1.611,1.611,0,0,0,.626,1.339,2.635,2.635,0,0,0,1.673.491,2.418,2.418,0,0,0,1.5-.4,1.292,1.292,0,0,0,.52-1.084,1.271,1.271,0,0,0-.481-1.064,5.562,5.562,0,0,0-1.747-.741" transform="translate(-25.12 -45.112)"/>
    <path id="Trazado_112436" data-name="Trazado 112436" d="M122.971,205.038v3.66h-1.233V199.35h3.448a3.461,3.461,0,0,1,2.4.783,2.657,2.657,0,0,1,.87,2.075,2.623,2.623,0,0,1-.85,2.1,3.624,3.624,0,0,1-2.437.735Zm0-1.008h2.215a2.215,2.215,0,0,0,1.515-.466,1.706,1.706,0,0,0,.526-1.347,1.766,1.766,0,0,0-.526-1.338,2.078,2.078,0,0,0-1.445-.521h-2.286Z" transform="translate(-27.572 -45.149)"/>
    <path id="Trazado_112437" data-name="Trazado 112437" d="M92.942,224.685H91.747v-7.917l-2.395.879V216.57l3.4-1.278h.186Z" transform="translate(-20.237 -48.76)"/>
    <path id="Trazado_112438" data-name="Trazado 112438" d="M104.343,220.674a5.427,5.427,0,0,1-.713,3.1,2.961,2.961,0,0,1-4.443.023,5.158,5.158,0,0,1-.745-2.963v-1.586a5.306,5.306,0,0,1,.713-3.062,3.014,3.014,0,0,1,4.455-.036,5.124,5.124,0,0,1,.733,2.983Zm-1.188-1.624a4.355,4.355,0,0,0-.424-2.2,1.458,1.458,0,0,0-1.342-.69,1.44,1.44,0,0,0-1.329.687,4.246,4.246,0,0,0-.43,2.112v1.9a4.42,4.42,0,0,0,.439,2.237,1.457,1.457,0,0,0,1.333.722,1.436,1.436,0,0,0,1.306-.68,4.268,4.268,0,0,0,.446-2.145Z" transform="translate(-22.295 -48.736)"/>
    <path id="Trazado_112439" data-name="Trazado 112439" d="M87.958,236.552a9.926,9.926,0,0,1,.388-2.787,8.108,8.108,0,0,1,1.159-2.427,4.938,4.938,0,0,1,1.6-1.541l.244.783a5.111,5.111,0,0,0-1.538,2.2,9.515,9.515,0,0,0-.658,3.307l-.006.546a9.571,9.571,0,0,0,.905,4.3,5.125,5.125,0,0,0,1.3,1.708l-.244.726a5.1,5.1,0,0,1-1.631-1.592,8.926,8.926,0,0,1-1.515-5.22" transform="translate(-19.921 -52.045)"/>
    <path id="Trazado_112440" data-name="Trazado 112440" d="M97.665,240.685H96.471v-7.917l-2.395.879V232.57l3.4-1.278h.186Z" transform="translate(-21.307 -52.384)"/>
    <path id="Trazado_112441" data-name="Trazado 112441" d="M105.923,236.617a9.918,9.918,0,0,1-.376,2.744,8.113,8.113,0,0,1-1.149,2.424,5.035,5.035,0,0,1-1.621,1.58l-.251-.726a5.167,5.167,0,0,0,1.59-2.353,10.186,10.186,0,0,0,.613-3.541v-.206a10.588,10.588,0,0,0-.282-2.507,8.483,8.483,0,0,0-.787-2.077,4.783,4.783,0,0,0-1.133-1.432l.251-.726a5.009,5.009,0,0,1,1.614,1.566,8.111,8.111,0,0,1,1.149,2.42,10.172,10.172,0,0,1,.382,2.832" transform="translate(-23.22 -52.045)"/>
    <path id="Trazado_112442" data-name="Trazado 112442" d="M444.138,408.857H424.63a.387.387,0,0,1-.387-.387V66.7a.387.387,0,0,1,.469-.378c.155.034,15.593,3.216,28.909-7.418,12.842-10.257,19.493-29.471,19.768-57.11a.386.386,0,0,1,.564-.34l49.521,25.511a.386.386,0,0,1,.189.468c-.146.428-14.583,42.931-12.736,63.618,1.8,20.173,8.527,32.929,37.578,38.441a.387.387,0,0,1,.3.476c-.135.527-13.5,53.257-14.992,104.737.887,2.387,22.347,60.6,30.383,122.692a.387.387,0,0,1-.162.366.383.383,0,0,1-.4.027c-.408-.21-41.04-20.915-62.422-17.968-20.549,2.834-48.867,16.6-51.462,17.877l-5.23,50.809a.387.387,0,0,1-.385.347m-19.121-.773h18.772l5.217-50.675a.385.385,0,0,1,.212-.306c.3-.151,30.319-15.069,51.892-18.045,20.124-2.777,56.871,15.05,62.226,17.717-8.227-62.73-30.052-121.281-30.272-121.868a.42.42,0,0,1-.025-.148c1.417-49.222,13.677-99.6,14.919-104.584-29.189-5.645-35.976-18.608-37.8-39.056-1.777-19.9,11.339-59.659,12.668-63.62L474.155,2.428c-.372,27.555-7.12,46.76-20.061,57.089-12.292,9.81-26.354,8.1-29.077,7.647Z" transform="translate(-96.084 -0.32)"/>
    <path id="Trazado_112443" data-name="Trazado 112443" d="M521.146,350.328a.4.4,0,0,1-.067-.005.387.387,0,0,1-.319-.381V151.778h.773V347.733l3.751-10.383.728.263-4.5,12.46a.387.387,0,0,1-.364.255" transform="translate(-117.943 -34.375)"/>
    <path id="Trazado_112444" data-name="Trazado 112444" d="M752.447,363.943a.4.4,0,0,1-.067-.005.387.387,0,0,1-.32-.381V137.071h.773V361.348l3.751-10.382.728.263-4.5,12.459a.387.387,0,0,1-.364.255" transform="translate(-170.329 -31.044)"/>
    <path id="Trazado_112445" data-name="Trazado 112445" d="M784.171,430.19l-.04,0c-6.007-.632-36.122-11.339-56.051-18.424-5.348-1.9-9.967-3.543-12.792-4.514-12.752-4.384-54.727-27.936-55.149-28.175a.386.386,0,0,1-.195-.381c8.208-70.347,28.828-121.992,29.751-124.272-.809-46.447-15.122-104.2-15.267-104.778a.387.387,0,0,1,.327-.477c.127-.016,12.867-1.771,24.68-15.948s.036-83.825-.084-84.527a.387.387,0,0,1,.235-.424l62.324-25.331a.386.386,0,0,1,.4.07c15.354,13.779,36.037,9.206,36.245,9.159a.387.387,0,0,1,.473.4L783.35,253.717l22.112,172.418a.387.387,0,0,1-.317.43l-20.909,3.618a.374.374,0,0,1-.066.006M660.742,378.527c3.348,1.875,42.594,23.8,54.8,27.992,2.829.971,7.449,2.614,12.8,4.517,18.63,6.623,49.773,17.695,55.819,18.377l20.49-3.547L782.581,253.738,798.224,33.022c-3.3.611-21.976,3.364-36.245-9.278L700.166,48.867c.965,5.716,11.621,70.739-.136,84.847-10.8,12.955-22.4,15.709-24.752,16.148,1.287,5.268,14.431,60.132,15.191,104.625a.4.4,0,0,1-.029.153c-.213.518-21.337,52.533-29.7,123.886" transform="translate(-149.466 -5.188)"/>
    <path id="Trazado_112446" data-name="Trazado 112446" d="M430.636,253.22l1.088-1.79h.979l-1.6,2.424,1.654,2.479h-.97L430.65,254.5l-1.133,1.836h-.975l1.655-2.479-1.605-2.424h.97Z" transform="translate(-97.058 -56.945)"/>
    <path id="Trazado_112447" data-name="Trazado 112447" d="M430.636,263.22l1.088-1.79h.979l-1.6,2.424,1.654,2.479h-.97L430.65,264.5l-1.133,1.836h-.975l1.655-2.479-1.605-2.424h.97Z" transform="translate(-97.058 -59.21)"/>
    <path id="Trazado_112448" data-name="Trazado 112448" d="M430.636,273.22l1.088-1.79h.979l-1.6,2.424,1.654,2.479h-.97L430.65,274.5l-1.133,1.836h-.975l1.655-2.479-1.605-2.424h.97Z" transform="translate(-97.058 -61.474)"/>
    <path id="Trazado_112449" data-name="Trazado 112449" d="M509.576,258.491h-3v3.157h-.943V254.5h4.428v.771h-3.485v2.45h3Z" transform="translate(-114.518 -57.64)"/>
    <path id="Trazado_112450" data-name="Trazado 112450" d="M515.44,258.756h-1.679v2.891h-.948V254.5h2.366a2.8,2.8,0,0,1,1.859.55,1.978,1.978,0,0,1,.651,1.6,1.929,1.929,0,0,1-.36,1.164,2.156,2.156,0,0,1-1,.741L518,261.589v.059h-1.011Zm-1.679-.771h1.449a1.633,1.633,0,0,0,1.117-.364,1.23,1.23,0,0,0,.415-.973,1.3,1.3,0,0,0-.4-1.019,1.675,1.675,0,0,0-1.142-.359h-1.443Z" transform="translate(-116.144 -57.64)"/>
    <path id="Trazado_112451" data-name="Trazado 112451" d="M526.318,261.648h-.948l-3.6-5.509v5.509h-.948V254.5h.948l3.609,5.534V254.5h.938Z" transform="translate(-117.958 -57.64)"/>
    <path id="Trazado_112452" data-name="Trazado 112452" d="M513.313,274.638H512.4v-6.054l-1.831.673v-.825l2.6-.978h.142Z" transform="translate(-115.635 -60.574)"/>
    <path id="Trazado_112453" data-name="Trazado 112453" d="M522.031,271.571a4.16,4.16,0,0,1-.545,2.372,2.265,2.265,0,0,1-3.4.017,3.943,3.943,0,0,1-.569-2.266v-1.213a4.066,4.066,0,0,1,.545-2.342,2.306,2.306,0,0,1,3.408-.027,3.922,3.922,0,0,1,.559,2.281Zm-.908-1.242a3.329,3.329,0,0,0-.324-1.682,1.115,1.115,0,0,0-1.026-.527,1.1,1.1,0,0,0-1.016.525,3.253,3.253,0,0,0-.329,1.615v1.453a3.379,3.379,0,0,0,.337,1.711,1.112,1.112,0,0,0,1.019.552,1.1,1.1,0,0,0,1-.521,3.264,3.264,0,0,0,.341-1.64Z" transform="translate(-117.21 -60.556)"/>
    <path id="Trazado_112454" data-name="Trazado 112454" d="M509.5,284.478a7.59,7.59,0,0,1,.3-2.131,6.184,6.184,0,0,1,.886-1.856,3.773,3.773,0,0,1,1.222-1.179l.187.6a3.9,3.9,0,0,0-1.176,1.679,7.273,7.273,0,0,0-.5,2.529l-.005.417a7.326,7.326,0,0,0,.692,3.29,3.934,3.934,0,0,0,.992,1.306l-.187.555a3.89,3.89,0,0,1-1.247-1.218,6.831,6.831,0,0,1-1.159-3.992" transform="translate(-115.394 -63.26)"/>
    <path id="Trazado_112455" data-name="Trazado 112455" d="M516.925,287.638h-.914v-6.054l-1.831.673v-.825l2.6-.978h.142Z" transform="translate(-116.454 -63.518)"/>
    <path id="Trazado_112456" data-name="Trazado 112456" d="M523.24,284.526a7.578,7.578,0,0,1-.288,2.1,6.209,6.209,0,0,1-.878,1.854,3.863,3.863,0,0,1-1.24,1.207l-.192-.555a3.946,3.946,0,0,0,1.215-1.8,7.767,7.767,0,0,0,.469-2.707v-.157a8.089,8.089,0,0,0-.216-1.918,6.431,6.431,0,0,0-.6-1.588,3.66,3.66,0,0,0-.866-1.1l.192-.555a3.842,3.842,0,0,1,1.235,1.2,6.215,6.215,0,0,1,.879,1.851,7.786,7.786,0,0,1,.292,2.165" transform="translate(-117.917 -63.26)"/>
    <path id="Trazado_112457" data-name="Trazado 112457" d="M748.552,261.476h-3.1v2.533h3.6v.771h-4.541v-7.149H749v.77h-3.55v2.3h3.1Z" transform="translate(-168.619 -58.349)"/>
    <path id="Trazado_112458" data-name="Trazado 112458" d="M753.878,261.565a4.419,4.419,0,0,1-1.765-.857,1.635,1.635,0,0,1-.552-1.254,1.731,1.731,0,0,1,.675-1.4,2.686,2.686,0,0,1,1.755-.552,2.922,2.922,0,0,1,1.313.285,2.156,2.156,0,0,1,.893.785,2.011,2.011,0,0,1,.317,1.1h-.948a1.306,1.306,0,0,0-.413-1.023,1.675,1.675,0,0,0-1.163-.372,1.712,1.712,0,0,0-1.088.308,1.024,1.024,0,0,0-.391.853.923.923,0,0,0,.371.74,3.624,3.624,0,0,0,1.262.553,5.873,5.873,0,0,1,1.394.553,2.1,2.1,0,0,1,.746.7,1.794,1.794,0,0,1,.244.948,1.671,1.671,0,0,1-.678,1.392,2.893,2.893,0,0,1-1.812.523,3.353,3.353,0,0,1-1.374-.283,2.317,2.317,0,0,1-.985-.773,1.889,1.889,0,0,1-.346-1.115h.948a1.231,1.231,0,0,0,.479,1.023,2.015,2.015,0,0,0,1.279.376,1.847,1.847,0,0,0,1.144-.3.988.988,0,0,0,.4-.829.972.972,0,0,0-.368-.813,4.265,4.265,0,0,0-1.336-.567" transform="translate(-170.165 -58.32)"/>
    <path id="Trazado_112459" data-name="Trazado 112459" d="M760.555,261.981v2.8h-.943v-7.149h2.637a2.65,2.65,0,0,1,1.839.6,2.029,2.029,0,0,1,.665,1.586,2,2,0,0,1-.651,1.6,2.769,2.769,0,0,1-1.863.562Zm0-.771h1.694a1.694,1.694,0,0,0,1.159-.357,1.3,1.3,0,0,0,.4-1.03,1.348,1.348,0,0,0-.4-1.023,1.59,1.59,0,0,0-1.1-.4h-1.748Z" transform="translate(-172.04 -58.349)"/>
    <path id="Trazado_112460" data-name="Trazado 112460" d="M751.937,277.77h-.913v-6.054l-1.831.673v-.825l2.6-.978h.142Z" transform="translate(-169.68 -61.283)"/>
    <path id="Trazado_112461" data-name="Trazado 112461" d="M760.655,274.7a4.161,4.161,0,0,1-.545,2.372,2.265,2.265,0,0,1-3.4.017,3.943,3.943,0,0,1-.569-2.266v-1.213a4.066,4.066,0,0,1,.545-2.342,2.306,2.306,0,0,1,3.408-.027,3.923,3.923,0,0,1,.559,2.281Zm-.908-1.242a3.329,3.329,0,0,0-.324-1.682,1.115,1.115,0,0,0-1.026-.528,1.1,1.1,0,0,0-1.016.525,3.253,3.253,0,0,0-.329,1.615v1.453a3.379,3.379,0,0,0,.337,1.711,1.112,1.112,0,0,0,1.019.552,1.1,1.1,0,0,0,1-.521,3.263,3.263,0,0,0,.341-1.64Z" transform="translate(-171.254 -61.265)"/>
    <path id="Trazado_112462" data-name="Trazado 112462" d="M748.45,287.61a7.59,7.59,0,0,1,.3-2.131,6.185,6.185,0,0,1,.886-1.856,3.773,3.773,0,0,1,1.222-1.179l.187.6a3.9,3.9,0,0,0-1.176,1.679,7.27,7.27,0,0,0-.5,2.529l-.005.417a7.327,7.327,0,0,0,.692,3.29,3.935,3.935,0,0,0,.992,1.306l-.187.555a3.89,3.89,0,0,1-1.247-1.218,6.831,6.831,0,0,1-1.159-3.992" transform="translate(-169.512 -63.969)"/>
    <path id="Trazado_112463" data-name="Trazado 112463" d="M755.873,290.77h-.914v-6.054l-1.831.673v-.825l2.6-.978h.142Z" transform="translate(-170.571 -64.228)"/>
    <path id="Trazado_112464" data-name="Trazado 112464" d="M762.188,287.658a7.578,7.578,0,0,1-.288,2.1,6.208,6.208,0,0,1-.878,1.854,3.863,3.863,0,0,1-1.24,1.207l-.192-.555a3.947,3.947,0,0,0,1.215-1.8,7.77,7.77,0,0,0,.469-2.707V287.6a8.086,8.086,0,0,0-.216-1.918,6.434,6.434,0,0,0-.6-1.588,3.662,3.662,0,0,0-.866-1.1l.192-.555a3.841,3.841,0,0,1,1.235,1.2,6.211,6.211,0,0,1,.879,1.851,7.784,7.784,0,0,1,.292,2.165" transform="translate(-172.035 -63.969)"/>
  </g>
</svg>
