<svg id="Grupo_87918" data-name="Grupo 87918" xmlns="http://www.w3.org/2000/svg" xmlns:xlink="http://www.w3.org/1999/xlink" width="943" height="359.132" viewBox="0 0 943 359.132">
  <defs>
    <clipPath id="clip-path">
      <rect id="Rectángulo_7182" data-name="Rectángulo 7182" width="943" height="359.132" fill="none"/>
    </clipPath>
  </defs>
  <line id="Línea_255" data-name="Línea 255" x1="3.44" transform="translate(384.673 33.06)" fill="none" stroke="#ff1f1f" stroke-miterlimit="10" stroke-width="1"/>
  <rect id="Rectángulo_7173" data-name="Rectángulo 7173" width="1.008" height="6.556" transform="translate(384.168 29.782)" fill="#ff1f1f"/>
  <line id="Línea_256" data-name="Línea 256" x2="3.44" transform="translate(225.147 42.285)" fill="none" stroke="#ff1f1f" stroke-miterlimit="10" stroke-width="1"/>
  <rect id="Rectángulo_7174" data-name="Rectángulo 7174" width="1.008" height="6.555" transform="translate(228.083 39.007)" fill="#ff1f1f"/>
  <g id="Grupo_87917" data-name="Grupo 87917">
    <g id="Grupo_87916" data-name="Grupo 87916" clip-path="url(#clip-path)">
      <path id="Trazado_113317" data-name="Trazado 113317" d="M223.454,14.021l160.8-9.8,22.136,222.2S417.67,252.738,424.352,259l15.454,15.872,28.4,15.036L451.082,353.4s-60.98-23.807-88.963-30.49-72.674-17.959-108.594-17.959c0,0-12.947-61.815-22.554-137.413S223.454,14.021,223.454,14.021Z" transform="translate(1.885 0.036)" fill="none" stroke="#000" stroke-miterlimit="10" stroke-width="1"/>
      <path id="Trazado_113318" data-name="Trazado 113318" d="M223.262,69.4h31.517L389.751,58.93" transform="translate(1.885 0.498)" fill="none" stroke="#000" stroke-miterlimit="10" stroke-width="1"/>
      <line id="Línea_257" data-name="Línea 257" x1="1.441" y2="324.643" transform="translate(384.699 4.261)" fill="none" stroke="#000" stroke-miterlimit="10" stroke-width="1"/>
      <path id="Trazado_113319" data-name="Trazado 113319" d="M253.322,304.4s-6.683-145.766-5.847-180.015c0,0,.417-32.032,7.1-55.068" transform="translate(2.089 0.585)" fill="none" stroke="#000" stroke-miterlimit="10" stroke-width="1"/>
      <path id="Trazado_113320" data-name="Trazado 113320" d="M341.076,117.294v158.3l5.429-16.289" transform="translate(2.88 0.99)" fill="none" stroke="#000" stroke-miterlimit="10" stroke-width="1"/>
      <path id="Trazado_113321" data-name="Trazado 113321" d="M569.616,67.083V247.616l5.521-18" transform="translate(4.809 0.566)" fill="none" stroke="#000" stroke-miterlimit="10" stroke-width="1"/>
      <line id="Línea_258" data-name="Línea 258" x1="3.44" transform="translate(629.539 37.403)" fill="none" stroke="#ff1f1f" stroke-miterlimit="10" stroke-width="1"/>
      <rect id="Rectángulo_7175" data-name="Rectángulo 7175" width="1.008" height="6.555" transform="translate(629.034 34.126)" fill="#ff1f1f"/>
      <line id="Línea_259" data-name="Línea 259" x2="3.44" transform="translate(481.092 36.217)" fill="none" stroke="#ff1f1f" stroke-miterlimit="10" stroke-width="1"/>
      <rect id="Rectángulo_7176" data-name="Rectángulo 7176" width="1.008" height="6.555" transform="translate(484.027 32.94)" fill="#ff1f1f"/>
      <path id="Trazado_113322" data-name="Trazado 113322" d="M477.2,7.61l149.99-2.385,9.272,197.644s3.272,27.817,27.271,37.089l-10.364,68.177H508.831s-16.908-77.994-25.089-154.352A1269.6,1269.6,0,0,1,477.2,7.61Z" transform="translate(4.028 0.044)" fill="none" stroke="#000" stroke-miterlimit="10" stroke-width="1"/>
      <path id="Trazado_113323" data-name="Trazado 113323" d="M563.708,136.205h-3.84v4.041h-1.207v-9.152h5.669v.987h-4.462v3.136h3.84Z" transform="translate(4.717 1.107)"/>
      <path id="Trazado_113324" data-name="Trazado 113324" d="M569.073,136.544h-2.15v3.7H565.71V131.1h3.029a3.586,3.586,0,0,1,2.38.7,2.532,2.532,0,0,1,.832,2.049,2.452,2.452,0,0,1-.462,1.488,2.749,2.749,0,0,1-1.285.95l2.149,3.885v.076h-1.295Zm-2.15-.986h1.855a2.089,2.089,0,0,0,1.429-.466,1.575,1.575,0,0,0,.531-1.247,1.658,1.658,0,0,0-.506-1.3,2.138,2.138,0,0,0-1.461-.459h-1.848Z" transform="translate(4.776 1.107)"/>
      <path id="Trazado_113325" data-name="Trazado 113325" d="M580.61,140.246H579.4l-4.608-7.052v7.052h-1.213v-9.152h1.213l4.621,7.083v-7.083h1.2Z" transform="translate(4.843 1.107)"/>
      <path id="Trazado_113326" data-name="Trazado 113326" d="M566.655,143.86l2.992,7.468,2.992-7.468H574.2v9.152H573v-3.564l.113-3.846-3,7.41h-.924l-3-7.392.119,3.828v3.564H565.1V143.86Z" transform="translate(4.771 1.215)"/>
      <path id="Trazado_113327" data-name="Trazado 113327" d="M557.623,162.072a9.7,9.7,0,0,1,.38-2.729,7.933,7.933,0,0,1,1.134-2.375,4.827,4.827,0,0,1,1.565-1.509l.239.766a5.011,5.011,0,0,0-1.506,2.15,9.32,9.32,0,0,0-.644,3.237l-.006.534a9.356,9.356,0,0,0,.887,4.21,5.037,5.037,0,0,0,1.27,1.673l-.239.71a4.987,4.987,0,0,1-1.6-1.559,8.734,8.734,0,0,1-1.484-5.11" transform="translate(4.708 1.313)"/>
      <path id="Trazado_113328" data-name="Trazado 113328" d="M565.731,165.777h-1.169v-7.751l-2.345.862v-1.056l3.331-1.25h.183Z" transform="translate(4.747 1.322)"/>
      <path id="Trazado_113329" data-name="Trazado 113329" d="M569.165,167.534l-.659-.453a3.03,3.03,0,0,0,.615-1.7v-1.049h1.138v.911a2.855,2.855,0,0,1-.312,1.27,2.965,2.965,0,0,1-.783,1.019" transform="translate(4.8 1.387)"/>
      <path id="Trazado_113330" data-name="Trazado 113330" d="M575.4,165.777h-1.169v-7.751l-2.345.862v-1.056l3.331-1.25h.183Z" transform="translate(4.828 1.322)"/>
      <path id="Trazado_113331" data-name="Trazado 113331" d="M581.561,162.134a9.765,9.765,0,0,1-.367,2.688,7.963,7.963,0,0,1-1.126,2.373,4.919,4.919,0,0,1-1.586,1.546l-.245-.71a5.054,5.054,0,0,0,1.555-2.3,9.972,9.972,0,0,0,.6-3.467v-.2a10.329,10.329,0,0,0-.277-2.454,8.237,8.237,0,0,0-.769-2.033,4.713,4.713,0,0,0-1.109-1.4l.245-.71a4.923,4.923,0,0,1,1.581,1.534,7.963,7.963,0,0,1,1.124,2.37,9.953,9.953,0,0,1,.374,2.771" transform="translate(4.882 1.313)"/>
      <path id="Trazado_113332" data-name="Trazado 113332" d="M336.558,176.571h-2.942v8.164h-1.2v-8.164H329.48v-.987h7.077Z" transform="translate(2.782 1.482)"/>
      <path id="Trazado_113333" data-name="Trazado 113333" d="M341.2,181.034h-2.15v3.7h-1.213v-9.152h3.029a3.586,3.586,0,0,1,2.38.7,2.533,2.533,0,0,1,.832,2.049,2.453,2.453,0,0,1-.462,1.488,2.75,2.75,0,0,1-1.285.95l2.149,3.885v.076h-1.295Zm-2.15-.986h1.855a2.089,2.089,0,0,0,1.429-.466,1.575,1.575,0,0,0,.531-1.247,1.658,1.658,0,0,0-.506-1.3,2.138,2.138,0,0,0-1.461-.459h-1.848Z" transform="translate(2.852 1.482)"/>
      <path id="Trazado_113334" data-name="Trazado 113334" d="M350.766,182.341h-3.835l-.86,2.4h-1.245l3.5-9.152h1.056l3.5,9.152h-1.238Zm-3.47-.986h3.111l-1.558-4.28Z" transform="translate(2.911 1.482)"/>
      <path id="Trazado_113335" data-name="Trazado 113335" d="M338.116,188.349l2.992,7.468,2.992-7.468h1.565V197.5h-1.207v-3.564l.113-3.846-3,7.41h-.924l-3-7.392.119,3.828V197.5h-1.207v-9.152Z" transform="translate(2.842 1.59)"/>
      <path id="Trazado_113336" data-name="Trazado 113336" d="M329.084,206.561a9.707,9.707,0,0,1,.38-2.729,7.909,7.909,0,0,1,1.134-2.375,4.826,4.826,0,0,1,1.565-1.509l.239.766a5,5,0,0,0-1.506,2.15,9.321,9.321,0,0,0-.644,3.237l-.006.534a9.358,9.358,0,0,0,.886,4.21,5.039,5.039,0,0,0,1.27,1.673l-.239.71a4.986,4.986,0,0,1-1.6-1.559,8.735,8.735,0,0,1-1.483-5.11" transform="translate(2.778 1.688)"/>
      <path id="Trazado_113337" data-name="Trazado 113337" d="M337.191,210.266h-1.169v-7.751l-2.345.862v-1.056l3.331-1.25h.183Z" transform="translate(2.817 1.698)"/>
      <path id="Trazado_113338" data-name="Trazado 113338" d="M340.627,212.024l-.66-.453a3.03,3.03,0,0,0,.615-1.7v-1.049h1.139v.911a2.87,2.87,0,0,1-.312,1.27,2.965,2.965,0,0,1-.783,1.019" transform="translate(2.87 1.763)"/>
      <path id="Trazado_113339" data-name="Trazado 113339" d="M346.865,210.266H345.7v-7.751l-2.345.862v-1.056l3.331-1.25h.183Z" transform="translate(2.899 1.698)"/>
      <path id="Trazado_113340" data-name="Trazado 113340" d="M353.022,206.624a9.767,9.767,0,0,1-.367,2.687,7.963,7.963,0,0,1-1.126,2.373,4.919,4.919,0,0,1-1.586,1.546l-.245-.71a5.053,5.053,0,0,0,1.555-2.3,9.972,9.972,0,0,0,.6-3.467v-.2a10.333,10.333,0,0,0-.277-2.454,8.237,8.237,0,0,0-.769-2.033,4.713,4.713,0,0,0-1.109-1.4l.245-.71a4.924,4.924,0,0,1,1.581,1.534,7.962,7.962,0,0,1,1.124,2.37,9.952,9.952,0,0,1,.374,2.771" transform="translate(2.952 1.688)"/>
      <path id="Trazado_113341" data-name="Trazado 113341" d="M793.746,61.237V249.456l5.316-15.951" transform="translate(6.701 0.517)" fill="none" stroke="#000" stroke-miterlimit="10" stroke-width="1"/>
      <line id="Línea_260" data-name="Línea 260" x1="3.341" transform="translate(858.15 34.078)" fill="none" stroke="#ff1f1f" stroke-miterlimit="10" stroke-width="1"/>
      <rect id="Rectángulo_7177" data-name="Rectángulo 7177" width="1.008" height="6.555" transform="translate(857.646 30.801)" fill="#ff1f1f"/>
      <line id="Línea_261" data-name="Línea 261" x2="3.341" transform="translate(700.447 44.498)" fill="none" stroke="#ff1f1f" stroke-miterlimit="10" stroke-width="1"/>
      <rect id="Rectángulo_7178" data-name="Rectángulo 7178" width="1.008" height="6.555" transform="translate(703.283 41.22)" fill="#ff1f1f"/>
      <path id="Trazado_113342" data-name="Trazado 113342" d="M723.337,308.423s94.109,6.38,196.195,49.979l17.013-64.336-28.71-14.887s-14.888-12.229-21.269-26.585a155.967,155.967,0,0,0-12.227-22.863S854.665,13.865,852.006,4.3l-157.381,8.84s-1.064,116.108,7.442,165.024S723.337,308.423,723.337,308.423Z" transform="translate(5.864 0.036)" fill="none" stroke="#000" stroke-miterlimit="10" stroke-width="1"/>
      <path id="Trazado_113343" data-name="Trazado 113343" d="M789.341,131h-2.868v7.959H785.3V131h-2.862v-.962h6.9Z" transform="translate(6.606 1.098)"/>
      <path id="Trazado_113344" data-name="Trazado 113344" d="M793.868,135.348h-2.1v3.609h-1.183v-8.922h2.954a3.5,3.5,0,0,1,2.319.687,2.468,2.468,0,0,1,.812,2,2.4,2.4,0,0,1-.451,1.452,2.685,2.685,0,0,1-1.252.926l2.1,3.787v.074H795.8Zm-2.1-.962h1.807a2.042,2.042,0,0,0,1.395-.454,1.54,1.54,0,0,0,.517-1.216,1.619,1.619,0,0,0-.493-1.271,2.09,2.09,0,0,0-1.425-.448h-1.8Z" transform="translate(6.675 1.098)"/>
      <path id="Trazado_113345" data-name="Trazado 113345" d="M803.192,136.623h-3.737l-.84,2.335H797.4l3.406-8.922h1.03l3.414,8.922h-1.207Zm-3.382-.962h3.033l-1.52-4.172Z" transform="translate(6.732 1.098)"/>
      <path id="Trazado_113346" data-name="Trazado 113346" d="M790.86,142.48l2.916,7.279,2.916-7.279h1.526V151.4h-1.176v-3.474l.11-3.75-2.929,7.224h-.9L790.4,144.2l.117,3.732V151.4h-1.177V142.48Z" transform="translate(6.664 1.203)"/>
      <path id="Trazado_113347" data-name="Trazado 113347" d="M782.056,160.234a9.492,9.492,0,0,1,.37-2.66,7.734,7.734,0,0,1,1.106-2.315,4.719,4.719,0,0,1,1.526-1.47l.233.746a4.894,4.894,0,0,0-1.467,2.1,9.1,9.1,0,0,0-.628,3.155l-.006.521a9.13,9.13,0,0,0,.864,4.1,4.9,4.9,0,0,0,1.237,1.631l-.233.692a4.853,4.853,0,0,1-1.556-1.52,8.514,8.514,0,0,1-1.446-4.981" transform="translate(6.603 1.298)"/>
      <path id="Trazado_113348" data-name="Trazado 113348" d="M789.959,163.845h-1.14V156.29l-2.285.84V156.1l3.247-1.219h.178Z" transform="translate(6.641 1.308)"/>
      <path id="Trazado_113349" data-name="Trazado 113349" d="M793.307,165.559l-.643-.441a2.955,2.955,0,0,0,.6-1.655v-1.023h1.109v.887a2.8,2.8,0,0,1-.3,1.238,2.9,2.9,0,0,1-.763.992" transform="translate(6.692 1.371)"/>
      <path id="Trazado_113350" data-name="Trazado 113350" d="M799.389,163.845H798.25V156.29l-2.286.84V156.1l3.248-1.219h.177Z" transform="translate(6.72 1.308)"/>
      <path id="Trazado_113351" data-name="Trazado 113351" d="M805.391,160.294a9.482,9.482,0,0,1-.359,2.62,7.732,7.732,0,0,1-1.1,2.313,4.808,4.808,0,0,1-1.547,1.507l-.239-.692a4.927,4.927,0,0,0,1.516-2.246,9.7,9.7,0,0,0,.587-3.379v-.2a10.092,10.092,0,0,0-.27-2.392,8.083,8.083,0,0,0-.751-1.982,4.541,4.541,0,0,0-1.081-1.367l.239-.692a4.783,4.783,0,0,1,1.541,1.5,7.729,7.729,0,0,1,1.1,2.309,9.693,9.693,0,0,1,.366,2.7" transform="translate(6.772 1.298)"/>
      <line id="Línea_262" data-name="Línea 262" x1="149.555" transform="translate(11.306 61.831)" fill="none" stroke="#000" stroke-miterlimit="10" stroke-width="1"/>
      <line id="Línea_263" data-name="Línea 263" x1="0.519" y2="289.135" transform="translate(112.019 5.989)" fill="none" stroke="#000" stroke-miterlimit="10" stroke-width="1"/>
      <path id="Trazado_113352" data-name="Trazado 113352" d="M40.578,61.313s-11.95,62.1-9.872,88.726,8.833,144.567,8.833,144.567" transform="translate(0.257 0.518)" fill="none" stroke="#000" stroke-miterlimit="10" stroke-width="1"/>
      <path id="Trazado_113353" data-name="Trazado 113353" d="M79.651,121.6V226.552L83.8,215.664" transform="translate(0.672 1.027)" fill="none" stroke="#000" stroke-miterlimit="10" stroke-width="1"/>
      <line id="Línea_264" data-name="Línea 264" x1="3.44" transform="translate(156.873 35.532)" fill="none" stroke="#ff1f1f" stroke-miterlimit="10" stroke-width="1"/>
      <rect id="Rectángulo_7179" data-name="Rectángulo 7179" width="1.008" height="6.555" transform="translate(156.368 32.255)" fill="#ff1f1f"/>
      <line id="Línea_265" data-name="Línea 265" x1="3.291" transform="translate(10.319 35.532)" fill="none" stroke="#ff1f1f" stroke-miterlimit="10" stroke-width="1"/>
      <rect id="Rectángulo_7180" data-name="Rectángulo 7180" width="1.008" height="6.555" transform="translate(13.106 32.255)" fill="#ff1f1f"/>
      <path id="Trazado_113354" data-name="Trazado 113354" d="M10.233,5.939H158.127l2.648,55.842,6.232,131.455s1.559,16.108,8.833,22.862c0,0,7.794,9.872,17.666,13.509l-9.352,65.467H39.71S23.6,211.695,16.848,150.506C13.742,122.375,12.095,89.551,11.22,62.3,10.193,30.274,10.233,5.939,10.233,5.939Z" transform="translate(0.086 0.05)" fill="none" stroke="#000" stroke-miterlimit="10" stroke-width="1"/>
      <path id="Trazado_113355" data-name="Trazado 113355" d="M4.22,5.491H3.492V2.954H.724V5.491H0V0H.724V2.361H3.492V0H4.22Z" transform="translate(0 0)"/>
      <path id="Trazado_113356" data-name="Trazado 113356" d="M3.642,34.918h-2.3v2.425H.613V31.852h3.4v.592H1.337v1.882h2.3Z" transform="translate(0.005 0.269)"/>
      <rect id="Rectángulo_7181" data-name="Rectángulo 7181" width="0.724" height="5.491" transform="translate(164.085)"/>
      <path id="Trazado_113357" data-name="Trazado 113357" d="M168.7,35a1.668,1.668,0,0,1-.779.6,3.147,3.147,0,0,1-1.164.2,2.249,2.249,0,0,1-1.192-.315,2.094,2.094,0,0,1-.8-.9,3.08,3.08,0,0,1-.292-1.346v-.479a2.89,2.89,0,0,1,.579-1.924,2.022,2.022,0,0,1,1.628-.682,2.084,2.084,0,0,1,1.384.439,1.914,1.914,0,0,1,.641,1.247h-.724a1.2,1.2,0,0,0-1.3-1.094,1.279,1.279,0,0,0-1.1.511,2.49,2.49,0,0,0-.379,1.482v.448a2.339,2.339,0,0,0,.423,1.471,1.37,1.37,0,0,0,1.143.546,2.515,2.515,0,0,0,.713-.091,1.1,1.1,0,0,0,.505-.3v-1.23H166.71V32.99H168.7Z" transform="translate(1.389 0.255)"/>
      <path id="Trazado_113358" data-name="Trazado 113358" d="M168.182,60.884H165.8V62.83h2.764v.591h-3.488V57.93h3.451v.592H165.8v1.769h2.38Z" transform="translate(1.394 0.489)"/>
      <path id="Trazado_113359" data-name="Trazado 113359" d="M75.334,153.681h-3.84v4.041H70.286V148.57h5.669v.987H71.494v3.136h3.84Z" transform="translate(0.593 1.254)"/>
      <path id="Trazado_113360" data-name="Trazado 113360" d="M80.7,154.02h-2.15v3.7H77.336v-9.152h3.029a3.584,3.584,0,0,1,2.38.7,2.533,2.533,0,0,1,.832,2.049,2.453,2.453,0,0,1-.462,1.488,2.75,2.75,0,0,1-1.285.95l2.149,3.885v.076H82.685Zm-2.15-.986H80.4a2.089,2.089,0,0,0,1.429-.466,1.575,1.575,0,0,0,.531-1.247,1.658,1.658,0,0,0-.506-1.3,2.138,2.138,0,0,0-1.461-.459H78.549Z" transform="translate(0.653 1.254)"/>
      <path id="Trazado_113361" data-name="Trazado 113361" d="M92.235,157.722H91.022l-4.608-7.052v7.052H85.2V148.57h1.213l4.621,7.083V148.57h1.2Z" transform="translate(0.719 1.254)"/>
      <path id="Trazado_113362" data-name="Trazado 113362" d="M78.281,161.335l2.992,7.468,2.992-7.468H85.83v9.152H84.623v-3.564l.113-3.846-3,7.41h-.924l-3-7.392.119,3.828v3.564H76.722v-9.152Z" transform="translate(0.648 1.362)"/>
      <path id="Trazado_113363" data-name="Trazado 113363" d="M69.249,179.547a9.743,9.743,0,0,1,.38-2.729,7.935,7.935,0,0,1,1.134-2.375,4.826,4.826,0,0,1,1.565-1.509l.239.766a5.011,5.011,0,0,0-1.506,2.15,9.32,9.32,0,0,0-.644,3.237l-.006.534a9.358,9.358,0,0,0,.886,4.21,5.04,5.04,0,0,0,1.27,1.673l-.239.71a4.986,4.986,0,0,1-1.6-1.559,8.735,8.735,0,0,1-1.483-5.11" transform="translate(0.585 1.46)"/>
      <path id="Trazado_113364" data-name="Trazado 113364" d="M77.356,183.253H76.187V175.5l-2.345.862v-1.056l3.331-1.25h.183Z" transform="translate(0.623 1.47)"/>
      <path id="Trazado_113365" data-name="Trazado 113365" d="M80.792,185.01l-.66-.453a3.03,3.03,0,0,0,.615-1.7v-1.049h1.139v.911a2.87,2.87,0,0,1-.312,1.27,2.966,2.966,0,0,1-.783,1.019" transform="translate(0.677 1.535)"/>
      <path id="Trazado_113366" data-name="Trazado 113366" d="M87.03,183.253H85.861V175.5l-2.345.862v-1.056l3.331-1.25h.183Z" transform="translate(0.705 1.47)"/>
      <path id="Trazado_113367" data-name="Trazado 113367" d="M93.186,179.61a9.766,9.766,0,0,1-.367,2.687,7.963,7.963,0,0,1-1.126,2.373,4.919,4.919,0,0,1-1.586,1.546l-.245-.71a5.054,5.054,0,0,0,1.555-2.3,9.972,9.972,0,0,0,.6-3.467v-.2a10.327,10.327,0,0,0-.277-2.454,8.236,8.236,0,0,0-.769-2.033,4.712,4.712,0,0,0-1.109-1.4l.245-.71a4.924,4.924,0,0,1,1.581,1.534,7.963,7.963,0,0,1,1.124,2.37,9.953,9.953,0,0,1,.374,2.771" transform="translate(0.759 1.46)"/>
      <path id="Trazado_113368" data-name="Trazado 113368" d="M2.432,63.421V57.93h1.8a2.083,2.083,0,0,1,1.344.37,1.331,1.331,0,0,1,.45,1.093,1.11,1.11,0,0,1-.219.681,1.416,1.416,0,0,1-.6.459,1.271,1.271,0,0,1,.7.473,1.369,1.369,0,0,1,.257.832A1.47,1.47,0,0,1,5.69,63a1.981,1.981,0,0,1-1.353.422Zm.725-3.149H4.25a1.146,1.146,0,0,0,.76-.238.8.8,0,0,0,.283-.646.789.789,0,0,0-.262-.66,1.3,1.3,0,0,0-.8-.206H3.157Zm0,.582V62.83h1.2a1.159,1.159,0,0,0,.8-.263.927.927,0,0,0,.291-.722q0-.992-1.079-.991Z" transform="translate(0.021 0.489)"/>
      <path id="Trazado_113369" data-name="Trazado 113369" d="M36.2,294.794a2.019,2.019,0,0,1-.642,1.344,2.111,2.111,0,0,1-1.439.474,1.936,1.936,0,0,1-1.56-.7,2.806,2.806,0,0,1-.586-1.867v-.528a3.125,3.125,0,0,1,.273-1.346,2.043,2.043,0,0,1,.774-.892,2.166,2.166,0,0,1,1.162-.311,1.982,1.982,0,0,1,1.4.488,2.044,2.044,0,0,1,.615,1.352h-.728a1.571,1.571,0,0,0-.409-.953,1.237,1.237,0,0,0-.88-.3,1.3,1.3,0,0,0-1.088.513,2.359,2.359,0,0,0-.393,1.461v.531a2.419,2.419,0,0,0,.373,1.423,1.208,1.208,0,0,0,1.045.529,1.393,1.393,0,0,0,.926-.274,1.516,1.516,0,0,0,.428-.952Z" transform="translate(0.27 2.457)"/>
      <path id="Trazado_113370" data-name="Trazado 113370" d="M250.275,312.034h.524a1.152,1.152,0,0,0,.776-.26.87.87,0,0,0,.283-.683.852.852,0,0,0-.962-.965,1,1,0,0,0-.722.258.9.9,0,0,0-.27.685h-.7a1.4,1.4,0,0,1,.477-1.085,1.964,1.964,0,0,1,2.43-.021,1.487,1.487,0,0,1,.442,1.144,1.207,1.207,0,0,1-.232.694,1.4,1.4,0,0,1-.632.5,1.364,1.364,0,0,1,.7.476,1.322,1.322,0,0,1,.247.811,1.5,1.5,0,0,1-.483,1.172,1.8,1.8,0,0,1-1.256.435,1.853,1.853,0,0,1-1.259-.42,1.386,1.386,0,0,1-.484-1.1h.7a.9.9,0,0,0,.282.694,1.077,1.077,0,0,0,.758.26,1.056,1.056,0,0,0,.772-.263,1.02,1.02,0,0,0,.268-.758.92.92,0,0,0-.294-.735,1.284,1.284,0,0,0-.848-.265h-.524Z" transform="translate(2.104 2.614)"/>
      <path id="Trazado_113371" data-name="Trazado 113371" d="M217.039,73.485h-3.6v-.5l1.9-2.112a4.517,4.517,0,0,0,.583-.78,1.3,1.3,0,0,0,.16-.62.989.989,0,0,0-.26-.706.914.914,0,0,0-.694-.274,1.083,1.083,0,0,0-.81.3,1.136,1.136,0,0,0-.288.824h-.7a1.619,1.619,0,0,1,.488-1.225,1.812,1.812,0,0,1,1.307-.468,1.741,1.741,0,0,1,1.21.4,1.372,1.372,0,0,1,.445,1.07,3.138,3.138,0,0,1-1.033,1.93l-1.471,1.6h2.757Z" transform="translate(1.801 0.573)"/>
      <path id="Trazado_113372" data-name="Trazado 113372" d="M216.179,38.229v.591h-.128a1.829,1.829,0,0,0-1.3.483,2.011,2.011,0,0,0-.558,1.316,1.489,1.489,0,0,1,1.184-.5,1.422,1.422,0,0,1,1.145.507,2.214,2.214,0,0,1-.034,2.661,1.589,1.589,0,0,1-1.238.509,1.565,1.565,0,0,1-1.279-.605,2.4,2.4,0,0,1-.49-1.56v-.266a3.621,3.621,0,0,1,.646-2.319,2.379,2.379,0,0,1,1.925-.818Zm-.917,2.473a1.177,1.177,0,0,0-1.079.755v.256a1.8,1.8,0,0,0,.306,1.093.915.915,0,0,0,.762.415.89.89,0,0,0,.741-.347,1.669,1.669,0,0,0,0-1.824.879.879,0,0,0-.726-.349" transform="translate(1.802 0.323)"/>
      <path id="Trazado_113373" data-name="Trazado 113373" d="M215.331,8.863l-2.274,5.1h-.732l2.267-4.917h-2.972V8.471h3.711Z" transform="translate(1.787 0.072)"/>
      <path id="Trazado_113374" data-name="Trazado 113374" d="M260.01,82.409h-.7v-4.65l-1.407.516v-.633l2-.751h.109Z" transform="translate(2.177 0.649)"/>
      <path id="Trazado_113375" data-name="Trazado 113375" d="M391.546,2.275a1.279,1.279,0,0,1-.217.732,1.477,1.477,0,0,1-.586.5,1.576,1.576,0,0,1,.681.539,1.363,1.363,0,0,1,.251.8,1.432,1.432,0,0,1-.482,1.134,2.109,2.109,0,0,1-2.534,0,1.444,1.444,0,0,1-.477-1.133,1.4,1.4,0,0,1,.244-.8A1.511,1.511,0,0,1,389.1,3.5a1.435,1.435,0,0,1-.577-.5,1.286,1.286,0,0,1-.211-.728,1.422,1.422,0,0,1,.445-1.1,1.893,1.893,0,0,1,2.344,0,1.42,1.42,0,0,1,.447,1.1m-.569,2.561a1.011,1.011,0,0,0-.292-.75,1.038,1.038,0,0,0-.763-.29.981.981,0,0,0-1.042,1.041.975.975,0,0,0,.277.735,1.241,1.241,0,0,0,1.541,0,.974.974,0,0,0,.279-.733m-1.049-3.5a.9.9,0,0,0-.666.255.936.936,0,0,0-.255.692.931.931,0,0,0,.251.677.995.995,0,0,0,1.339,0,.935.935,0,0,0,.251-.677.929.929,0,0,0-.261-.683.885.885,0,0,0-.66-.264" transform="translate(3.277 0.006)"/>
      <path id="Trazado_113376" data-name="Trazado 113376" d="M392.09,32.138l.279-2.738h2.814v.645h-2.222l-.166,1.5a1.775,1.775,0,0,1,.917-.238,1.519,1.519,0,0,1,1.192.5,1.943,1.943,0,0,1,.441,1.341,1.872,1.872,0,0,1-.458,1.336,1.667,1.667,0,0,1-1.281.489,1.732,1.732,0,0,1-1.188-.4,1.606,1.606,0,0,1-.523-1.116h.66a1.105,1.105,0,0,0,.336.712,1.043,1.043,0,0,0,.716.239.937.937,0,0,0,.763-.332,1.382,1.382,0,0,0,.278-.917,1.271,1.271,0,0,0-.3-.884,1.018,1.018,0,0,0-.8-.333,1.144,1.144,0,0,0-.716.2l-.186.15Z" transform="translate(3.309 0.248)"/>
      <path id="Trazado_113377" data-name="Trazado 113377" d="M396.565,59.195h.762v.569h-.762v1.275h-.7V59.763h-2.5v-.411l2.459-3.8h.742Zm-2.409,0h1.708V56.5l-.084.151Z" transform="translate(3.321 0.469)"/>
    </g>
  </g>
</svg>
