<svg xmlns="http://www.w3.org/2000/svg" xmlns:xlink="http://www.w3.org/1999/xlink" width="903.939" height="703" viewBox="0 0 903.939 703">
  <defs>
    <clipPath id="clip-path">
      <rect id="Rectángulo_7018" data-name="Rectángulo 7018" width="437" height="438.733" fill="none"/>
    </clipPath>
    <clipPath id="clip-path-2">
      <rect id="Rectángulo_7026" data-name="Rectángulo 7026" width="410.366" height="123.96" fill="none"/>
    </clipPath>
    <clipPath id="clip-path-3">
      <rect id="Rectángulo_7029" data-name="Rectángulo 7029" width="181" height="124.448" fill="none"/>
    </clipPath>
  </defs>
  <g id="Grupo_87886" data-name="Grupo 87886" transform="translate(-348.03 -837)">
    <g id="Grupo_87885" data-name="Grupo 87885">
      <g id="Rectángulo_7030" data-name="Rectángulo 7030" transform="translate(390 837)" fill="#f9fdff" stroke="#339ce9" stroke-width="5">
        <rect width="820" height="703" rx="25" stroke="none"/>
        <rect x="2.5" y="2.5" width="815" height="698" rx="22.5" fill="none"/>
      </g>
      <g id="Grupo_87790" data-name="Grupo 87790" transform="translate(582 889.634)">
        <g id="Grupo_87789" data-name="Grupo 87789" clip-path="url(#clip-path)">
          <path id="Trazado_112225" data-name="Trazado 112225" d="M391.5,440.6,220.514,418.1,74.5,436.6l-.062-.342L0,31.614l.436-.005C.879,31.6,44.894,30.835,63.53,7.3l.156-.2.24.073,95.567,29.019.009.263,3.992,110.785a59.178,59.178,0,0,0,6.279,26.268c6.285,12.722,20.291,29.341,51.322,36.264.014,0,.2,0,.539,0a110.842,110.842,0,0,0,29.921-4.43c14.413-4.355,32.613-14,37.47-35.218.1-.317,8.77-30.181-6.992-134.6l-.048-.318.31-.09L379.535,7.048l.039.444c.035.4,3.66,39.976,18.86,55.668,11.793,12.173,17.376,13.53,27.511,15.992,3.077.746,6.564,1.594,10.759,2.875l.3.09-.038.307ZM220.516,417.36l.047.006,170.3,22.408L436.193,82.64c-4.043-1.226-7.427-2.047-10.421-2.775C415.5,77.372,409.848,76,397.907,63.671,383.4,48.7,379.332,12.435,378.884,8L282.807,35.733c15.731,104.4,7.016,134.295,6.925,134.585-4.93,21.541-23.377,31.326-37.984,35.737A110.527,110.527,0,0,1,221,210.5c-31.4-7-45.555-23.819-51.908-36.7a59.93,59.93,0,0,1-6.338-26.568L158.776,36.744,63.95,7.949C46.022,30.309,5.537,32.192.88,32.333L75.1,435.786Z" transform="translate(0 -1.866)"/>
          <path id="Trazado_112226" data-name="Trazado 112226" d="M58,327.424l-.153-.72L234.59,289.162a203.09,203.09,0,0,0,39.421-9.949l-39.574-12.957L50.925,289.107l-.092-.73,183.678-22.871.079.025L275.115,278.8c23.685-8.9,39.292-20.713,49.1-30.556,15.771-15.826,20.344-30.082,20.388-30.224l.14-.452.4.25c60.723,37.612,82.8,94.8,83.02,95.372l.215.569-78.44-9.69-74.806-24.491a202.768,202.768,0,0,1-40.413,10.3ZM276.23,279.168l73.871,24.19,77.152,9.524c-2.464-6.063-25.14-58.736-82.1-94.193-.913,2.556-6.085,15.7-20.415,30.078-9.746,9.782-25.179,21.493-48.505,30.4" transform="translate(-13.461 -57.616)"/>
          <path id="Trazado_112227" data-name="Trazado 112227" d="M376.472,423.153l-22.3-87.828-45.515,72.824-.319-.234c-31.453-23.036-67.667-33.749-69.38-34.246L67.238,385.054l-.049-.734,171.849-11.393.061.017c.37.106,37.257,10.745,69.354,34.145l46.009-73.613,22.549,88.814a233.44,233.44,0,0,1,45.681-4.033l-.013.735a231.25,231.25,0,0,0-45.861,4.088Z" transform="translate(-17.793 -88.309)"/>
          <rect id="Rectángulo_7009" data-name="Rectángulo 7009" width="0.735" height="63.968" transform="translate(340.135 332.487) rotate(-82.059)"/>
          <rect id="Rectángulo_7010" data-name="Rectángulo 7010" width="0.736" height="94.107" transform="matrix(0.345, -0.939, 0.939, 0.345, 221.078, 294.487)"/>
          <path id="Trazado_112228" data-name="Trazado 112228" d="M444.945,520.219l-8.669-184.2L378.411,511.468l-.7-.23,59.109-179.23,8.857,188.177Z" transform="translate(-100.024 -87.921)"/>
          <rect id="Rectángulo_7011" data-name="Rectángulo 7011" width="0.735" height="224.318" transform="translate(125.362 24.491) rotate(-5.231)"/>
          <rect id="Rectángulo_7012" data-name="Rectángulo 7012" width="0.735" height="231.126" transform="matrix(0.996, -0.091, 0.091, 0.996, 111.977, 20.427)"/>
          <path id="Trazado_112229" data-name="Trazado 112229" d="M114.964,262.778h-.014a.368.368,0,0,1-.351-.321L81.889,12.674l.729-.095,32.425,247.61,4.53-22.12.72.148-4.969,24.268a.368.368,0,0,1-.36.293" transform="translate(-21.685 -3.331)"/>
          <rect id="Rectángulo_7013" data-name="Rectángulo 7013" width="0.735" height="30.22" transform="translate(63.613 265.368) rotate(-10.007)"/>
          <rect id="Rectángulo_7014" data-name="Rectángulo 7014" width="0.735" height="207.599" transform="translate(220.646 208.266)"/>
          <rect id="Rectángulo_7015" data-name="Rectángulo 7015" width="0.735" height="149.475" transform="translate(316.505 24.477) rotate(-3.058)"/>
          <rect id="Rectángulo_7016" data-name="Rectángulo 7016" width="0.735" height="145.948" transform="translate(331.358 19.381) rotate(-2.711)"/>
          <path id="Trazado_112230" data-name="Trazado 112230" d="M416.577,254.193l-.435-.054-115.32-14.186.09-.729L415.8,253.356,404.14,29.053l.734-.039Z" transform="translate(-79.662 -7.683)"/>
          <path id="Trazado_112231" data-name="Trazado 112231" d="M472.364,258.682,503.932,7.633l.729.092L473.553,255.12l11.486-20.1.638.365Z" transform="translate(-125.089 -2.021)"/>
          <path id="Trazado_112232" data-name="Trazado 112232" d="M150.384,10.66h1.451v1.084h-1.451v2.426h-1.335V11.745h-4.76v-.783l4.681-7.244h1.414Zm-4.588,0h3.252V5.534l-.158.287Z" transform="translate(-38.21 -0.985)"/>
          <path id="Trazado_112233" data-name="Trazado 112233" d="M175.442,13.539h1a2.189,2.189,0,0,0,1.479-.5,1.654,1.654,0,0,0,.539-1.3,1.622,1.622,0,0,0-1.831-1.838,1.9,1.9,0,0,0-1.374.492,1.717,1.717,0,0,0-.513,1.3h-1.329a2.667,2.667,0,0,1,.909-2.064,3.31,3.31,0,0,1,2.308-.822,3.271,3.271,0,0,1,2.32.783,2.829,2.829,0,0,1,.84,2.175,2.3,2.3,0,0,1-.44,1.321,2.663,2.663,0,0,1-1.2.954,2.575,2.575,0,0,1,1.331.905,2.51,2.51,0,0,1,.471,1.543,2.853,2.853,0,0,1-.919,2.233,3.44,3.44,0,0,1-2.391.826,3.532,3.532,0,0,1-2.394-.8,2.641,2.641,0,0,1-.923-2.1h1.336a1.711,1.711,0,0,0,.538,1.321,2.05,2.05,0,0,0,1.443.5,2.008,2.008,0,0,0,1.472-.5,1.936,1.936,0,0,0,.509-1.443,1.758,1.758,0,0,0-.559-1.4,2.443,2.443,0,0,0-1.616-.5h-1Z" transform="translate(-45.897 -2.334)"/>
          <path id="Trazado_112234" data-name="Trazado 112234" d="M234.208,46.45h-6.849v-.955l3.618-4.021a8.563,8.563,0,0,0,1.109-1.482,2.475,2.475,0,0,0,.305-1.181,1.873,1.873,0,0,0-.5-1.342,1.731,1.731,0,0,0-1.32-.524,2.049,2.049,0,0,0-1.54.564,2.153,2.153,0,0,0-.549,1.569h-1.328a3.083,3.083,0,0,1,.93-2.333,3.444,3.444,0,0,1,2.488-.89,3.312,3.312,0,0,1,2.3.765,2.606,2.606,0,0,1,.848,2.036q0,1.543-1.967,3.676l-2.8,3.036h5.249Z" transform="translate(-60.155 -9.494)"/>
          <path id="Trazado_112235" data-name="Trazado 112235" d="M420.063,15.731a7.461,7.461,0,0,1-2.968-1.441,2.751,2.751,0,0,1-.929-2.109A2.907,2.907,0,0,1,417.3,9.832a4.509,4.509,0,0,1,2.952-.929,4.937,4.937,0,0,1,2.208.479,3.638,3.638,0,0,1,1.5,1.321,3.384,3.384,0,0,1,.531,1.842H422.9a2.2,2.2,0,0,0-.693-1.72,2.822,2.822,0,0,0-1.956-.625,2.886,2.886,0,0,0-1.829.517,1.724,1.724,0,0,0-.656,1.435,1.551,1.551,0,0,0,.623,1.245,6.119,6.119,0,0,0,2.122.931,9.852,9.852,0,0,1,2.345.929,3.561,3.561,0,0,1,1.255,1.185,3.025,3.025,0,0,1,.408,1.593,2.807,2.807,0,0,1-1.139,2.34,4.856,4.856,0,0,1-3.047.88,5.642,5.642,0,0,1-2.311-.475,3.887,3.887,0,0,1-1.655-1.3,3.169,3.169,0,0,1-.582-1.875h1.594a2.072,2.072,0,0,0,.8,1.722,3.392,3.392,0,0,0,2.15.632,3.115,3.115,0,0,0,1.924-.512,1.663,1.663,0,0,0,.669-1.4,1.632,1.632,0,0,0-.619-1.366,7.132,7.132,0,0,0-2.246-.954" transform="translate(-110.106 -2.358)"/>
          <path id="Trazado_112236" data-name="Trazado 112236" d="M297.022,263.939a7.46,7.46,0,0,1-2.969-1.441,2.751,2.751,0,0,1-.929-2.109,2.907,2.907,0,0,1,1.135-2.349,4.509,4.509,0,0,1,2.953-.929,4.937,4.937,0,0,1,2.208.479,3.638,3.638,0,0,1,1.5,1.321,3.384,3.384,0,0,1,.532,1.842h-1.593a2.2,2.2,0,0,0-.693-1.72,2.822,2.822,0,0,0-1.956-.625,2.886,2.886,0,0,0-1.829.517,1.724,1.724,0,0,0-.657,1.435,1.551,1.551,0,0,0,.623,1.245,6.121,6.121,0,0,0,2.122.931,9.854,9.854,0,0,1,2.345.929,3.56,3.56,0,0,1,1.255,1.185,3.025,3.025,0,0,1,.408,1.593,2.806,2.806,0,0,1-1.139,2.34,4.856,4.856,0,0,1-3.047.88,5.642,5.642,0,0,1-2.311-.475,3.887,3.887,0,0,1-1.655-1.3,3.17,3.17,0,0,1-.582-1.875h1.594a2.072,2.072,0,0,0,.8,1.722,3.392,3.392,0,0,0,2.15.632,3.116,3.116,0,0,0,1.924-.512,1.663,1.663,0,0,0,.669-1.4,1.631,1.631,0,0,0-.619-1.366,7.133,7.133,0,0,0-2.245-.954" transform="translate(-77.523 -68.087)"/>
          <path id="Trazado_112237" data-name="Trazado 112237" d="M463.081,320.322l3.435-9.916h1.734l-4.458,12.021h-1.4l-4.45-12.021h1.726Z" transform="translate(-121.269 -82.2)"/>
          <path id="Trazado_112238" data-name="Trazado 112238" d="M482.665,222.665H478.8V233.39h-1.576V222.665h-3.856v-1.3h9.3Z" transform="translate(-125.355 -58.622)"/>
          <path id="Trazado_112239" data-name="Trazado 112239" d="M424.458,223.975l2.882-4.607h1.865l-3.8,5.962,3.889,6.06h-1.882l-2.956-4.69-2.972,4.69h-1.874l3.9-6.06-3.807-5.962h1.859Z" transform="translate(-111.12 -58.092)"/>
          <path id="Trazado_112240" data-name="Trazado 112240" d="M445.015,195.585h6.877v1.3H443.14v-1.189l6.589-9.536h-6.481v-1.3h8.38v1.156Z" transform="translate(-117.35 -48.954)"/>
          <path id="Trazado_112241" data-name="Trazado 112241" d="M487.789,156.717h-3.509v3.693h-1.1v-8.363h5.18v.9h-4.077v2.866h3.509Z" transform="translate(-127.952 -40.264)"/>
          <path id="Trazado_112242" data-name="Trazado 112242" d="M495.085,157.027h-1.964v3.383h-1.109v-8.363h2.769a3.28,3.28,0,0,1,2.174.643,2.316,2.316,0,0,1,.761,1.873,2.25,2.25,0,0,1-.422,1.362,2.517,2.517,0,0,1-1.175.867l1.964,3.549v.069H496.9Zm-1.964-.9h1.695a1.907,1.907,0,0,0,1.306-.426,1.439,1.439,0,0,0,.485-1.14,1.518,1.518,0,0,0-.462-1.191,1.962,1.962,0,0,0-1.335-.42h-1.689Z" transform="translate(-130.292 -40.264)"/>
          <path id="Trazado_112243" data-name="Trazado 112243" d="M508.3,160.41H507.19l-4.21-6.445v6.445h-1.109v-8.363h1.109l4.221,6.473v-6.473h1.1Z" transform="translate(-132.903 -40.264)"/>
          <path id="Trazado_112244" data-name="Trazado 112244" d="M486.395,179.6h-1.068v-7.082l-2.142.787v-.965l3.044-1.143h.167Z" transform="translate(-127.954 -45.334)"/>
          <path id="Trazado_112245" data-name="Trazado 112245" d="M497.017,176a4.857,4.857,0,0,1-.637,2.774,2.649,2.649,0,0,1-3.974.02,4.608,4.608,0,0,1-.666-2.65v-1.419a4.75,4.75,0,0,1,.637-2.739,2.7,2.7,0,0,1,3.986-.032,4.585,4.585,0,0,1,.654,2.668Zm-1.062-1.453a3.894,3.894,0,0,0-.379-1.967,1.3,1.3,0,0,0-1.2-.618,1.29,1.29,0,0,0-1.189.615,3.813,3.813,0,0,0-.385,1.89v1.7a3.962,3.962,0,0,0,.393,2,1.3,1.3,0,0,0,1.192.646,1.285,1.285,0,0,0,1.169-.609,3.812,3.812,0,0,0,.4-1.919Z" transform="translate(-130.22 -45.307)"/>
          <path id="Trazado_112246" data-name="Trazado 112246" d="M504.825,175.828a8.86,8.86,0,0,1,.348-2.493,7.246,7.246,0,0,1,1.037-2.171,4.416,4.416,0,0,1,1.43-1.378l.218.7a4.579,4.579,0,0,0-1.376,1.964,8.519,8.519,0,0,0-.589,2.958l-.006.488a8.55,8.55,0,0,0,.81,3.848,4.588,4.588,0,0,0,1.16,1.528l-.218.649a4.559,4.559,0,0,1-1.459-1.424,7.98,7.98,0,0,1-1.356-4.67" transform="translate(-133.685 -44.962)"/>
          <path id="Trazado_112247" data-name="Trazado 112247" d="M513.793,179.6h-1.068v-7.082l-2.142.787v-.965l3.044-1.143h.167Z" transform="translate(-135.21 -45.334)"/>
          <path id="Trazado_112248" data-name="Trazado 112248" d="M521.574,175.886a8.876,8.876,0,0,1-.337,2.456,7.275,7.275,0,0,1-1.028,2.168,4.517,4.517,0,0,1-1.45,1.413l-.225-.649a4.616,4.616,0,0,0,1.422-2.1,9.137,9.137,0,0,0,.549-3.168v-.184a9.4,9.4,0,0,0-.254-2.243,7.547,7.547,0,0,0-.7-1.858,4.286,4.286,0,0,0-1.014-1.281l.225-.649a4.5,4.5,0,0,1,1.444,1.4,7.272,7.272,0,0,1,1.028,2.166,9.085,9.085,0,0,1,.343,2.533" transform="translate(-137.316 -44.962)"/>
          <path id="Trazado_112249" data-name="Trazado 112249" d="M88.036,156.545H84.411v2.964h4.21v.9H83.308v-8.363h5.256v.9H84.411v2.694h3.624Z" transform="translate(-22.061 -40.264)"/>
          <path id="Trazado_112250" data-name="Trazado 112250" d="M94.682,156.641a5.183,5.183,0,0,1-2.065-1,1.914,1.914,0,0,1-.646-1.467,2.024,2.024,0,0,1,.79-1.634,3.138,3.138,0,0,1,2.053-.646,3.431,3.431,0,0,1,1.537.333,2.531,2.531,0,0,1,1.045.919,2.349,2.349,0,0,1,.371,1.281H96.658a1.53,1.53,0,0,0-.483-1.2,1.962,1.962,0,0,0-1.361-.435,2.01,2.01,0,0,0-1.273.359,1.2,1.2,0,0,0-.457,1,1.078,1.078,0,0,0,.434.866,4.267,4.267,0,0,0,1.476.647,6.874,6.874,0,0,1,1.631.647,2.473,2.473,0,0,1,.873.824,2.1,2.1,0,0,1,.285,1.109,1.956,1.956,0,0,1-.793,1.628,3.384,3.384,0,0,1-2.12.612,3.927,3.927,0,0,1-1.609-.331,2.7,2.7,0,0,1-1.151-.9,2.208,2.208,0,0,1-.405-1.3h1.109a1.439,1.439,0,0,0,.56,1.2,2.354,2.354,0,0,0,1.5.44,2.166,2.166,0,0,0,1.338-.356,1.157,1.157,0,0,0,.465-.971,1.136,1.136,0,0,0-.431-.951,4.985,4.985,0,0,0-1.562-.663" transform="translate(-24.285 -40.223)"/>
          <path id="Trazado_112251" data-name="Trazado 112251" d="M103,157.137v3.274h-1.1v-8.363h3.084a3.1,3.1,0,0,1,2.15.7,2.375,2.375,0,0,1,.779,1.855,2.343,2.343,0,0,1-.761,1.875,3.237,3.237,0,0,1-2.18.658Zm0-.9h1.981a1.977,1.977,0,0,0,1.355-.417,1.526,1.526,0,0,0,.471-1.206,1.577,1.577,0,0,0-.471-1.2,1.859,1.859,0,0,0-1.292-.466H103Z" transform="translate(-26.983 -40.265)"/>
          <path id="Trazado_112252" data-name="Trazado 112252" d="M86.527,179.6H85.459v-7.082l-2.142.787v-.965l3.044-1.143h.167Z" transform="translate(-22.063 -45.334)"/>
          <path id="Trazado_112253" data-name="Trazado 112253" d="M97.149,176a4.858,4.858,0,0,1-.637,2.774,2.649,2.649,0,0,1-3.974.02,4.607,4.607,0,0,1-.666-2.65v-1.419a4.75,4.75,0,0,1,.637-2.739,2.7,2.7,0,0,1,3.986-.032,4.584,4.584,0,0,1,.654,2.668Zm-1.062-1.453a3.894,3.894,0,0,0-.379-1.967,1.3,1.3,0,0,0-1.2-.618,1.29,1.29,0,0,0-1.19.615,3.813,3.813,0,0,0-.384,1.89v1.7a3.962,3.962,0,0,0,.393,2,1.3,1.3,0,0,0,1.192.646,1.285,1.285,0,0,0,1.169-.609,3.812,3.812,0,0,0,.4-1.919Z" transform="translate(-24.329 -45.307)"/>
          <path id="Trazado_112254" data-name="Trazado 112254" d="M104.957,175.828a8.861,8.861,0,0,1,.348-2.493,7.247,7.247,0,0,1,1.037-2.171,4.416,4.416,0,0,1,1.43-1.378l.218.7a4.578,4.578,0,0,0-1.376,1.964,8.518,8.518,0,0,0-.589,2.958l-.006.488a8.551,8.551,0,0,0,.81,3.848,4.588,4.588,0,0,0,1.16,1.528l-.218.649a4.56,4.56,0,0,1-1.459-1.424,7.98,7.98,0,0,1-1.356-4.67" transform="translate(-27.794 -44.962)"/>
          <path id="Trazado_112255" data-name="Trazado 112255" d="M113.926,179.6h-1.068v-7.082l-2.142.787v-.965l3.044-1.143h.167Z" transform="translate(-29.319 -45.334)"/>
          <path id="Trazado_112256" data-name="Trazado 112256" d="M121.707,175.886a8.874,8.874,0,0,1-.336,2.456,7.276,7.276,0,0,1-1.028,2.168,4.511,4.511,0,0,1-1.451,1.413l-.224-.649a4.622,4.622,0,0,0,1.422-2.1,9.118,9.118,0,0,0,.548-3.168v-.184a9.432,9.432,0,0,0-.253-2.243,7.573,7.573,0,0,0-.7-1.858,4.3,4.3,0,0,0-1.014-1.281l.224-.649a4.5,4.5,0,0,1,1.445,1.4,7.272,7.272,0,0,1,1.028,2.166,9.085,9.085,0,0,1,.342,2.533" transform="translate(-31.425 -44.962)"/>
          <path id="Trazado_112257" data-name="Trazado 112257" d="M208.957,347.038h-2.823V351.9H204.54V339.879h3.98a4.713,4.713,0,0,1,3.125.925,3.328,3.328,0,0,1,1.094,2.691,3.233,3.233,0,0,1-.607,1.957,3.617,3.617,0,0,1-1.689,1.247l2.825,5.1v.1h-1.7Zm-2.823-1.3h2.436a2.746,2.746,0,0,0,1.878-.612,2.071,2.071,0,0,0,.7-1.639,2.179,2.179,0,0,0-.665-1.711,2.812,2.812,0,0,0-1.92-.6h-2.427Z" transform="translate(-54.165 -90.005)"/>
          <path id="Trazado_112258" data-name="Trazado 112258" d="M287.271,304.061h-5.037l-1.131,3.145h-1.635l4.591-12.022h1.387l4.6,12.022h-1.627Zm-4.557-1.3H286.8l-2.048-5.621Z" transform="translate(-74.007 -78.169)"/>
          <path id="Trazado_112259" data-name="Trazado 112259" d="M174.262,353.763a7.419,7.419,0,0,1-.554,3,4.633,4.633,0,0,1-1.552,1.969l2.147,1.684-1.082,1-2.534-2.014a5.185,5.185,0,0,1-1.255.149,4.485,4.485,0,0,1-4.223-2.689,7.123,7.123,0,0,1-.623-2.992V353a7.355,7.355,0,0,1,.6-3.063,4.456,4.456,0,0,1,4.227-2.741,4.656,4.656,0,0,1,2.556.7,4.527,4.527,0,0,1,1.7,2.018,7.421,7.421,0,0,1,.594,3.076Zm-1.585-.776a5.452,5.452,0,0,0-.846-3.273,3.054,3.054,0,0,0-4.773-.009,5.28,5.28,0,0,0-.887,3.174v.884a5.441,5.441,0,0,0,.862,3.252,3.048,3.048,0,0,0,4.777.07,5.365,5.365,0,0,0,.868-3.207Z" transform="translate(-43.585 -91.943)"/>
          <path id="Trazado_112260" data-name="Trazado 112260" d="M96.119,338.342a7.439,7.439,0,0,1-.595,3.084,4.507,4.507,0,0,1-1.684,2.01,4.649,4.649,0,0,1-6.767-1.994,7.138,7.138,0,0,1-.623-2.993v-.867a7.366,7.366,0,0,1,.6-3.063,4.459,4.459,0,0,1,4.227-2.741,4.657,4.657,0,0,1,2.547.7,4.493,4.493,0,0,1,1.7,2.023,7.474,7.474,0,0,1,.595,3.083Zm-1.578-.776a5.4,5.4,0,0,0-.859-3.282,2.832,2.832,0,0,0-2.4-1.144,2.8,2.8,0,0,0-2.364,1.144,5.27,5.27,0,0,0-.887,3.175v.884a5.394,5.394,0,0,0,.87,3.257,3.052,3.052,0,0,0,4.777.066,5.363,5.363,0,0,0,.867-3.208Z" transform="translate(-22.893 -87.86)"/>
          <path id="Trazado_112261" data-name="Trazado 112261" d="M34.049,314.869H32.455L26.4,305.605v9.264H24.811V302.848H26.4l6.068,9.305v-9.305h1.577Z" transform="translate(-6.57 -80.199)"/>
          <path id="Trazado_112262" data-name="Trazado 112262" d="M37.785,361.765l3.93,9.809,3.93-9.809H47.7v12.022H46.116v-4.682l.149-5.053-3.946,9.735H41.1l-3.938-9.71.157,5.028v4.682H35.738V361.765Z" transform="translate(-9.464 -95.801)"/>
          <path id="Trazado_112263" data-name="Trazado 112263" d="M54.969,402.246v8.174A3.835,3.835,0,0,1,53.9,413.2a4.306,4.306,0,0,1-2.878,1.215l-.421.015a4.5,4.5,0,0,1-3.147-1.065,3.81,3.81,0,0,1-1.189-2.931v-8.191h1.569v8.141a2.508,2.508,0,0,0,2.766,2.749,2.776,2.776,0,0,0,2.059-.718,2.741,2.741,0,0,0,.715-2.022v-8.15Z" transform="translate(-12.252 -106.521)"/>
          <path id="Trazado_112264" data-name="Trazado 112264" d="M100.639,414.962v4.705H99.054V407.645h4.433a4.454,4.454,0,0,1,3.092,1.009,3.413,3.413,0,0,1,1.119,2.667,3.369,3.369,0,0,1-1.095,2.7,4.653,4.653,0,0,1-3.133.946Zm0-1.3h2.848a2.846,2.846,0,0,0,1.948-.6,2.191,2.191,0,0,0,.677-1.733,2.264,2.264,0,0,0-.677-1.721,2.669,2.669,0,0,0-1.857-.67h-2.939Z" transform="translate(-26.231 -107.95)"/>
          <path id="Trazado_112265" data-name="Trazado 112265" d="M309.578,369.45l-1.469,1.527v4.063h-1.585V363.018h1.585v5.945l5.342-5.945h1.915l-4.732,5.31,5.1,6.712h-1.9Z" transform="translate(-81.172 -96.133)"/>
          <path id="Trazado_112266" data-name="Trazado 112266" d="M380.918,438.422h1.594v8.513a3.526,3.526,0,0,1-1.036,2.7,3.868,3.868,0,0,1-2.762.974,3.975,3.975,0,0,1-2.791-.916,3.309,3.309,0,0,1-1-2.568h1.585a1.991,1.991,0,0,0,2.2,2.188,2.128,2.128,0,0,0,1.589-.619,2.4,2.4,0,0,0,.615-1.734Z" transform="translate(-99.286 -116.101)"/>
          <path id="Trazado_112267" data-name="Trazado 112267" d="M449.539,465.375h-5.044v5.309h-1.586V458.662h7.447v1.3h-5.861v4.119h5.044Z" transform="translate(-117.289 -121.461)"/>
          <path id="Trazado_112268" data-name="Trazado 112268" d="M407.178,465.713h-1.594v-5.557h-6.059v5.557h-1.585V453.691h1.585v5.169h6.059v-5.169h1.594Z" transform="translate(-105.38 -120.144)"/>
          <path id="Trazado_112269" data-name="Trazado 112269" d="M494.265,476.177a3.654,3.654,0,0,1-1.7,1.309,6.874,6.874,0,0,1-2.547.434,4.94,4.94,0,0,1-2.609-.689,4.6,4.6,0,0,1-1.763-1.961,6.765,6.765,0,0,1-.64-2.947v-1.049a6.322,6.322,0,0,1,1.267-4.21,4.417,4.417,0,0,1,3.563-1.495,4.56,4.56,0,0,1,3.03.962,4.187,4.187,0,0,1,1.4,2.728H492.68a2.622,2.622,0,0,0-2.841-2.394,2.807,2.807,0,0,0-2.415,1.12,5.472,5.472,0,0,0-.83,3.244v.983a5.126,5.126,0,0,0,.925,3.219,3,3,0,0,0,2.5,1.194,5.5,5.5,0,0,0,1.56-.2,2.42,2.42,0,0,0,1.106-.667v-2.694h-2.783v-1.3h4.36Z" transform="translate(-128.435 -123.289)"/>
          <path id="Trazado_112270" data-name="Trazado 112270" d="M565.711,433.834H560.5v4.26h6.052v1.3h-7.637V427.37h7.554v1.3H560.5v3.872h5.21Z" transform="translate(-148.009 -113.174)"/>
          <path id="Trazado_112271" data-name="Trazado 112271" d="M519.975,391.688a5,5,0,0,1-1.591,3.327,5.217,5.217,0,0,1-3.561,1.171,4.79,4.79,0,0,1-3.86-1.726,6.952,6.952,0,0,1-1.451-4.621v-1.306a7.736,7.736,0,0,1,.676-3.332,5.054,5.054,0,0,1,1.918-2.207,5.344,5.344,0,0,1,2.875-.77,4.911,4.911,0,0,1,3.472,1.209,5.062,5.062,0,0,1,1.521,3.346h-1.8a3.908,3.908,0,0,0-1.013-2.359,3.062,3.062,0,0,0-2.179-.73,3.205,3.205,0,0,0-2.693,1.271,5.834,5.834,0,0,0-.975,3.615v1.317a6,6,0,0,0,.924,3.522,2.985,2.985,0,0,0,2.585,1.307,3.451,3.451,0,0,0,2.292-.676,3.764,3.764,0,0,0,1.059-2.357Z" transform="translate(-134.927 -101.219)"/>
          <rect id="Rectángulo_7017" data-name="Rectángulo 7017" width="1.585" height="12.022" transform="translate(425.202 249.842)"/>
          <path id="Trazado_112272" data-name="Trazado 112272" d="M503.662,286.9h-5.693l-1.279,3.556h-1.848l5.189-13.589H501.6l5.2,13.589h-1.839Zm-5.152-1.465h4.62l-2.314-6.356Z" transform="translate(-131.041 -73.318)"/>
          <path id="Trazado_112273" data-name="Trazado 112273" d="M563.351,476.93a4.426,4.426,0,0,1-1.408,2.944,4.614,4.614,0,0,1-3.15,1.036,4.236,4.236,0,0,1-3.414-1.527,6.148,6.148,0,0,1-1.284-4.088v-1.156a6.848,6.848,0,0,1,.6-2.947,4.469,4.469,0,0,1,1.7-1.953,4.722,4.722,0,0,1,2.543-.681,4.35,4.35,0,0,1,3.072,1.069,4.479,4.479,0,0,1,1.345,2.961h-1.594a3.452,3.452,0,0,0-.9-2.087,2.712,2.712,0,0,0-1.928-.645,2.837,2.837,0,0,0-2.382,1.123,5.163,5.163,0,0,0-.863,3.2v1.165a5.308,5.308,0,0,0,.817,3.115,2.642,2.642,0,0,0,2.288,1.157,3.049,3.049,0,0,0,2.027-.6,3.32,3.32,0,0,0,.937-2.085Z" transform="translate(-146.733 -124.081)"/>
          <path id="Trazado_112274" data-name="Trazado 112274" d="M387.33,385.948v-13.59h4.443a5.162,5.162,0,0,1,3.328.914,3.3,3.3,0,0,1,1.115,2.707,2.762,2.762,0,0,1-.541,1.685A3.5,3.5,0,0,1,394.2,378.8a3.147,3.147,0,0,1,1.741,1.172,3.357,3.357,0,0,1,.64,2.057,3.635,3.635,0,0,1-1.186,2.875,4.9,4.9,0,0,1-3.35,1.045Zm1.792-7.794h2.707a2.835,2.835,0,0,0,1.88-.589,1.975,1.975,0,0,0,.705-1.6,1.945,1.945,0,0,0-.653-1.632,3.213,3.213,0,0,0-1.989-.51h-2.65Zm0,1.437v4.89h2.958a2.855,2.855,0,0,0,1.975-.648,2.282,2.282,0,0,0,.723-1.788q0-2.455-2.669-2.455Z" transform="translate(-102.571 -98.606)"/>
          <path id="Trazado_112275" data-name="Trazado 112275" d="M284.9,419.667V407.646h3.93a4.559,4.559,0,0,1,2.943.81,2.915,2.915,0,0,1,.987,2.394,2.445,2.445,0,0,1-.479,1.491,3.1,3.1,0,0,1-1.3,1,2.789,2.789,0,0,1,1.539,1.035,2.976,2.976,0,0,1,.566,1.821,3.217,3.217,0,0,1-1.048,2.543,4.335,4.335,0,0,1-2.964.924Zm1.585-6.893h2.394a2.516,2.516,0,0,0,1.664-.521,1.748,1.748,0,0,0,.623-1.414,1.72,1.72,0,0,0-.578-1.445,2.842,2.842,0,0,0-1.759-.451h-2.345Zm0,1.271v4.327H289.1a2.524,2.524,0,0,0,1.746-.574,2.015,2.015,0,0,0,.64-1.581q0-2.172-2.361-2.172Z" transform="translate(-75.445 -107.951)"/>
          <path id="Trazado_112276" data-name="Trazado 112276" d="M437.923,6.036,441.061,0h1.8l-4.144,7.539v4.483H437.13V7.539L432.985,0H434.8Z" transform="translate(-114.661 0)"/>
        </g>
      </g>
      <g id="Grupo_87792" data-name="Grupo 87792" transform="translate(486 1363.546)">
        <g id="Grupo_87791" data-name="Grupo 87791" clip-path="url(#clip-path-2)">
          <path id="Trazado_112277" data-name="Trazado 112277" d="M141.662,130.953v1.083H141.3v-2.767h1.02a1.025,1.025,0,0,1,.712.232.785.785,0,0,1,.257.614.776.776,0,0,1-.252.62,1.071,1.071,0,0,1-.721.218Zm0-.3h.655a.656.656,0,0,0,.448-.138.505.505,0,0,0,.156-.4.522.522,0,0,0-.156-.4.613.613,0,0,0-.427-.154h-.676Z" transform="translate(-62.754 -57.412)"/>
          <rect id="Rectángulo_7019" data-name="Rectángulo 7019" width="0.365" height="2.767" transform="translate(81.024 71.857)"/>
          <path id="Trazado_112278" data-name="Trazado 112278" d="M149.18,130.757h-1.2v.981h1.392v.3h-1.758v-2.766h1.738v.3h-1.373v.891h1.2Z" transform="translate(-65.561 -57.412)"/>
          <path id="Trazado_112279" data-name="Trazado 112279" d="M151.743,131.737h1.583v.3h-2.014v-.274l1.516-2.194h-1.491v-.3h1.928v.266Z" transform="translate(-67.202 -57.412)"/>
          <path id="Trazado_112280" data-name="Trazado 112280" d="M157.143,131.312h-1.16l-.26.724h-.376l1.057-2.767h.319l1.058,2.767h-.375Zm-1.049-.3h.94l-.471-1.294Z" transform="translate(-68.994 -57.412)"/>
          <path id="Trazado_112281" data-name="Trazado 112281" d="M162.81,130.771a1.726,1.726,0,0,1-.683-.331.636.636,0,0,1-.213-.486.668.668,0,0,1,.261-.54,1.038,1.038,0,0,1,.68-.214,1.125,1.125,0,0,1,.508.111.835.835,0,0,1,.346.3.779.779,0,0,1,.122.424h-.366a.507.507,0,0,0-.16-.4.649.649,0,0,0-.45-.144.665.665,0,0,0-.421.119.4.4,0,0,0-.151.33.356.356,0,0,0,.143.286,1.386,1.386,0,0,0,.489.214,2.3,2.3,0,0,1,.539.214.827.827,0,0,1,.289.273.7.7,0,0,1,.094.367.646.646,0,0,1-.262.538,1.113,1.113,0,0,1-.7.2,1.3,1.3,0,0,1-.532-.109.891.891,0,0,1-.38-.3.73.73,0,0,1-.135-.431h.367a.476.476,0,0,0,.185.4.778.778,0,0,0,.494.145.718.718,0,0,0,.443-.118.383.383,0,0,0,.155-.321.375.375,0,0,0-.143-.314,1.636,1.636,0,0,0-.517-.22" transform="translate(-71.872 -57.381)"/>
          <path id="Trazado_112282" data-name="Trazado 112282" d="M168.186,129.269v1.881a.882.882,0,0,1-.246.64,1,1,0,0,1-.663.279l-.1,0a1.034,1.034,0,0,1-.724-.245.876.876,0,0,1-.274-.674v-1.885h.361v1.873a.577.577,0,0,0,.636.633.64.64,0,0,0,.474-.165.632.632,0,0,0,.165-.465v-1.876Z" transform="translate(-73.807 -57.412)"/>
          <path id="Trazado_112283" data-name="Trazado 112283" d="M171.187,130.953v1.083h-.365v-2.767h1.02a1.027,1.027,0,0,1,.712.232.787.787,0,0,1,.257.614.776.776,0,0,1-.252.62,1.071,1.071,0,0,1-.721.218Zm0-.3h.655a.656.656,0,0,0,.448-.138.5.5,0,0,0,.156-.4.522.522,0,0,0-.156-.4.613.613,0,0,0-.427-.154h-.676Z" transform="translate(-75.867 -57.412)"/>
          <path id="Trazado_112284" data-name="Trazado 112284" d="M142.362,140.425h-.354v-2.342l-.708.26v-.319l1.007-.378h.056Z" transform="translate(-62.755 -61.132)"/>
          <path id="Trazado_112285" data-name="Trazado 112285" d="M146.789,139.225a1.6,1.6,0,0,1-.211.918.876.876,0,0,1-1.315.006,1.528,1.528,0,0,1-.221-.877V138.8a1.571,1.571,0,0,1,.211-.906.891.891,0,0,1,1.319-.011,1.517,1.517,0,0,1,.217.882Zm-.351-.481a1.283,1.283,0,0,0-.126-.651.485.485,0,0,0-.79,0,1.258,1.258,0,0,0-.127.625v.563a1.311,1.311,0,0,0,.13.662.432.432,0,0,0,.394.214.425.425,0,0,0,.387-.2,1.27,1.27,0,0,0,.132-.634Z" transform="translate(-64.417 -61.112)"/>
          <path id="Trazado_112286" data-name="Trazado 112286" d="M150.768,139.029a2.933,2.933,0,0,1,.115-.824,2.394,2.394,0,0,1,.343-.718,1.468,1.468,0,0,1,.473-.456l.073.232a1.516,1.516,0,0,0-.456.65,2.824,2.824,0,0,0-.195.978l0,.162a2.842,2.842,0,0,0,.267,1.273,1.525,1.525,0,0,0,.385.505l-.073.215a1.5,1.5,0,0,1-.482-.471,2.64,2.64,0,0,1-.449-1.545" transform="translate(-66.96 -60.859)"/>
          <path id="Trazado_112287" data-name="Trazado 112287" d="M154.349,140.425h-.354v-2.342l-.708.26v-.319l1.007-.378h.056Z" transform="translate(-68.079 -61.132)"/>
          <path id="Trazado_112288" data-name="Trazado 112288" d="M157.77,139.048a2.945,2.945,0,0,1-.111.812,2.4,2.4,0,0,1-.341.717,1.479,1.479,0,0,1-.479.467l-.074-.215a1.527,1.527,0,0,0,.47-.7,3.022,3.022,0,0,0,.182-1.048v-.061a3.16,3.16,0,0,0-.083-.742,2.506,2.506,0,0,0-.233-.615,1.415,1.415,0,0,0-.336-.424l.074-.215a1.489,1.489,0,0,1,.478.464,2.416,2.416,0,0,1,.34.717,3,3,0,0,1,.113.838" transform="translate(-69.624 -60.859)"/>
          <path id="Trazado_112289" data-name="Trazado 112289" d="M545.461,130.953v1.083H545.1v-2.767h1.02a1.025,1.025,0,0,1,.712.232.785.785,0,0,1,.257.614.776.776,0,0,1-.252.62,1.071,1.071,0,0,1-.721.218Zm0-.3h.655a.656.656,0,0,0,.448-.138.5.5,0,0,0,.156-.4.522.522,0,0,0-.156-.4.613.613,0,0,0-.427-.154h-.677Z" transform="translate(-242.093 -57.412)"/>
          <rect id="Rectángulo_7020" data-name="Rectángulo 7020" width="0.365" height="2.767" transform="translate(305.484 71.857)"/>
          <path id="Trazado_112290" data-name="Trazado 112290" d="M552.979,130.757h-1.2v.981h1.392v.3h-1.758v-2.766h1.738v.3h-1.373v.891h1.2Z" transform="translate(-244.9 -57.412)"/>
          <path id="Trazado_112291" data-name="Trazado 112291" d="M555.542,131.737h1.583v.3h-2.014v-.274l1.516-2.194h-1.491v-.3h1.928v.266Z" transform="translate(-246.541 -57.412)"/>
          <path id="Trazado_112292" data-name="Trazado 112292" d="M560.942,131.312h-1.16l-.26.724h-.376l1.057-2.767h.319l1.058,2.767h-.375Zm-1.049-.3h.94l-.471-1.294Z" transform="translate(-248.333 -57.412)"/>
          <rect id="Rectángulo_7021" data-name="Rectángulo 7021" width="0.365" height="2.767" transform="translate(314.61 71.857)"/>
          <path id="Trazado_112293" data-name="Trazado 112293" d="M569.96,132.035h-.367L568.2,129.9v2.132h-.366v-2.767h.366l1.4,2.141v-2.141h.362Z" transform="translate(-252.192 -57.412)"/>
          <path id="Trazado_112294" data-name="Trazado 112294" d="M574.35,130.814h-1.161v1.222h-.365v-2.767h1.713v.3h-1.349v.948h1.161Z" transform="translate(-254.408 -57.412)"/>
          <path id="Trazado_112295" data-name="Trazado 112295" d="M546.161,140.425h-.354v-2.342l-.708.26v-.319l1.007-.378h.056Z" transform="translate(-242.094 -61.132)"/>
          <path id="Trazado_112296" data-name="Trazado 112296" d="M550.588,139.225a1.6,1.6,0,0,1-.211.918.876.876,0,0,1-1.315.006,1.527,1.527,0,0,1-.221-.877V138.8a1.57,1.57,0,0,1,.211-.906.891.891,0,0,1,1.318-.011,1.516,1.516,0,0,1,.217.882Zm-.351-.481a1.283,1.283,0,0,0-.126-.651.485.485,0,0,0-.79,0,1.259,1.259,0,0,0-.127.625v.563a1.311,1.311,0,0,0,.13.662.432.432,0,0,0,.394.214.425.425,0,0,0,.387-.2,1.27,1.27,0,0,0,.132-.634Z" transform="translate(-243.756 -61.112)"/>
          <path id="Trazado_112297" data-name="Trazado 112297" d="M554.566,139.029a2.935,2.935,0,0,1,.115-.824,2.4,2.4,0,0,1,.343-.718,1.468,1.468,0,0,1,.473-.456l.073.232a1.516,1.516,0,0,0-.456.65,2.823,2.823,0,0,0-.195.978l0,.162a2.842,2.842,0,0,0,.267,1.273,1.526,1.526,0,0,0,.385.505l-.073.215a1.5,1.5,0,0,1-.482-.471,2.641,2.641,0,0,1-.449-1.545" transform="translate(-246.299 -60.859)"/>
          <path id="Trazado_112298" data-name="Trazado 112298" d="M558.147,140.425h-.354v-2.342l-.708.26v-.319l1.007-.378h.056Z" transform="translate(-247.418 -61.132)"/>
          <path id="Trazado_112299" data-name="Trazado 112299" d="M561.569,139.048a2.943,2.943,0,0,1-.111.812,2.4,2.4,0,0,1-.341.717,1.478,1.478,0,0,1-.479.467l-.075-.215a1.527,1.527,0,0,0,.47-.7,3.023,3.023,0,0,0,.182-1.048v-.061a3.16,3.16,0,0,0-.083-.742,2.506,2.506,0,0,0-.233-.615,1.413,1.413,0,0,0-.336-.424l.075-.215a1.489,1.489,0,0,1,.478.464,2.413,2.413,0,0,1,.34.717,2.993,2.993,0,0,1,.113.838" transform="translate(-248.963 -60.859)"/>
          <path id="Trazado_112300" data-name="Trazado 112300" d="M263.121,42.1v1.083h-.365V40.421h1.02a1.025,1.025,0,0,1,.712.232.785.785,0,0,1,.257.614.775.775,0,0,1-.252.62,1.071,1.071,0,0,1-.721.218Zm0-.3h.655a.656.656,0,0,0,.448-.138.5.5,0,0,0,.156-.4.522.522,0,0,0-.156-.4.613.613,0,0,0-.427-.154h-.676Z" transform="translate(-116.698 -17.952)"/>
          <rect id="Rectángulo_7022" data-name="Rectángulo 7022" width="0.365" height="2.767" transform="translate(148.539 22.468)"/>
          <path id="Trazado_112301" data-name="Trazado 112301" d="M270.639,41.909h-1.2v.981h1.392v.3h-1.758V40.421h1.738v.3H269.44v.891h1.2Z" transform="translate(-119.504 -17.952)"/>
          <path id="Trazado_112302" data-name="Trazado 112302" d="M273.2,42.889h1.583v.3H272.77v-.274l1.516-2.194h-1.491v-.3h1.928v.266Z" transform="translate(-121.145 -17.952)"/>
          <path id="Trazado_112303" data-name="Trazado 112303" d="M278.6,42.464h-1.16l-.26.724h-.376l1.057-2.767h.319l1.058,2.767h-.375Zm-1.049-.3h.94l-.471-1.294Z" transform="translate(-122.938 -17.952)"/>
          <path id="Trazado_112304" data-name="Trazado 112304" d="M284.268,41.923a1.726,1.726,0,0,1-.683-.331.636.636,0,0,1-.213-.486.668.668,0,0,1,.261-.54,1.038,1.038,0,0,1,.68-.214,1.125,1.125,0,0,1,.508.111.834.834,0,0,1,.346.3.779.779,0,0,1,.122.424h-.366a.507.507,0,0,0-.16-.4.649.649,0,0,0-.45-.144.665.665,0,0,0-.421.119.4.4,0,0,0-.151.33.357.357,0,0,0,.143.286,1.386,1.386,0,0,0,.489.214,2.3,2.3,0,0,1,.539.214.828.828,0,0,1,.289.273.7.7,0,0,1,.094.367.646.646,0,0,1-.262.538,1.113,1.113,0,0,1-.7.2,1.3,1.3,0,0,1-.532-.11.891.891,0,0,1-.38-.3.73.73,0,0,1-.135-.431h.367a.476.476,0,0,0,.185.4.778.778,0,0,0,.494.145.718.718,0,0,0,.443-.118.383.383,0,0,0,.155-.321.375.375,0,0,0-.143-.314,1.636,1.636,0,0,0-.517-.22" transform="translate(-125.815 -17.921)"/>
          <path id="Trazado_112305" data-name="Trazado 112305" d="M289.645,40.421V42.3a.882.882,0,0,1-.246.64,1,1,0,0,1-.663.279l-.1,0a1.034,1.034,0,0,1-.724-.245.876.876,0,0,1-.274-.674V40.421H288v1.873a.577.577,0,0,0,.636.633.641.641,0,0,0,.474-.165.632.632,0,0,0,.165-.465V40.421Z" transform="translate(-127.75 -17.952)"/>
          <path id="Trazado_112306" data-name="Trazado 112306" d="M292.646,42.1v1.083h-.365V40.421h1.02a1.025,1.025,0,0,1,.711.232.785.785,0,0,1,.257.614.776.776,0,0,1-.252.62,1.071,1.071,0,0,1-.721.218Zm0-.3h.655a.656.656,0,0,0,.448-.138.505.505,0,0,0,.156-.4.522.522,0,0,0-.156-.4.613.613,0,0,0-.427-.154h-.676Z" transform="translate(-129.811 -17.952)"/>
          <path id="Trazado_112307" data-name="Trazado 112307" d="M263.821,51.577h-.354V49.234l-.708.26v-.319l1.007-.378h.056Z" transform="translate(-116.699 -21.672)"/>
          <path id="Trazado_112308" data-name="Trazado 112308" d="M268.247,50.377a1.6,1.6,0,0,1-.211.918.876.876,0,0,1-1.315.006,1.528,1.528,0,0,1-.221-.877v-.469a1.571,1.571,0,0,1,.211-.906.891.891,0,0,1,1.319-.011,1.517,1.517,0,0,1,.217.882ZM267.9,49.9a1.283,1.283,0,0,0-.126-.651.485.485,0,0,0-.79,0,1.259,1.259,0,0,0-.127.625v.563a1.311,1.311,0,0,0,.13.662.432.432,0,0,0,.394.214.425.425,0,0,0,.387-.2,1.269,1.269,0,0,0,.132-.634Z" transform="translate(-118.36 -21.652)"/>
          <path id="Trazado_112309" data-name="Trazado 112309" d="M272.226,50.18a2.934,2.934,0,0,1,.114-.824,2.4,2.4,0,0,1,.343-.718,1.468,1.468,0,0,1,.473-.456l.073.232a1.516,1.516,0,0,0-.456.65,2.824,2.824,0,0,0-.195.978l0,.162a2.842,2.842,0,0,0,.267,1.273,1.524,1.524,0,0,0,.385.505l-.073.215a1.5,1.5,0,0,1-.482-.471,2.641,2.641,0,0,1-.449-1.545" transform="translate(-120.904 -21.399)"/>
          <path id="Trazado_112310" data-name="Trazado 112310" d="M275.807,51.577h-.354V49.234l-.708.26v-.319l1.007-.378h.056Z" transform="translate(-122.022 -21.672)"/>
          <path id="Trazado_112311" data-name="Trazado 112311" d="M279.229,50.2a2.944,2.944,0,0,1-.111.812,2.4,2.4,0,0,1-.341.717,1.478,1.478,0,0,1-.479.467l-.074-.215a1.527,1.527,0,0,0,.47-.7,3.024,3.024,0,0,0,.182-1.048v-.061a3.157,3.157,0,0,0-.083-.742,2.506,2.506,0,0,0-.233-.615,1.416,1.416,0,0,0-.336-.424l.074-.215a1.489,1.489,0,0,1,.478.464,2.416,2.416,0,0,1,.34.717,2.994,2.994,0,0,1,.113.838" transform="translate(-123.567 -21.399)"/>
          <path id="Trazado_112312" data-name="Trazado 112312" d="M306.76,158v1.083H306.4v-2.767h1.02a1.025,1.025,0,0,1,.711.232.785.785,0,0,1,.257.614.775.775,0,0,1-.252.62,1.071,1.071,0,0,1-.721.218Zm0-.3h.655a.656.656,0,0,0,.448-.138.505.505,0,0,0,.156-.4.522.522,0,0,0-.156-.4.613.613,0,0,0-.427-.154h-.676Z" transform="translate(-136.079 -69.425)"/>
          <rect id="Rectángulo_7023" data-name="Rectángulo 7023" width="0.365" height="2.767" transform="translate(172.797 86.892)"/>
          <path id="Trazado_112313" data-name="Trazado 112313" d="M314.278,157.805h-1.2v.981h1.392v.3h-1.758v-2.766h1.738v.3h-1.373v.891h1.2Z" transform="translate(-138.886 -69.425)"/>
          <path id="Trazado_112314" data-name="Trazado 112314" d="M316.841,158.785h1.583v.3H316.41v-.274l1.516-2.194h-1.491v-.3h1.928v.266Z" transform="translate(-140.527 -69.425)"/>
          <path id="Trazado_112315" data-name="Trazado 112315" d="M322.241,158.36h-1.16l-.26.724h-.376l1.057-2.767h.319l1.058,2.767H322.5Zm-1.049-.3h.94l-.471-1.294Z" transform="translate(-142.319 -69.425)"/>
          <path id="Trazado_112316" data-name="Trazado 112316" d="M329.187,158.176a1.02,1.02,0,0,1-.324.678,1.064,1.064,0,0,1-.725.238.974.974,0,0,1-.785-.351,1.414,1.414,0,0,1-.3-.941v-.266a1.577,1.577,0,0,1,.138-.678,1.023,1.023,0,0,1,.391-.45,1.086,1.086,0,0,1,.585-.157,1,1,0,0,1,.707.246,1.031,1.031,0,0,1,.31.681h-.367a.8.8,0,0,0-.206-.48.625.625,0,0,0-.444-.148.652.652,0,0,0-.548.258,1.184,1.184,0,0,0-.2.736v.268a1.223,1.223,0,0,0,.188.717.61.61,0,0,0,.526.266.7.7,0,0,0,.466-.138.764.764,0,0,0,.216-.48Z" transform="translate(-145.256 -69.395)"/>
          <path id="Trazado_112317" data-name="Trazado 112317" d="M333.348,157.805h-1.2v.981h1.392v.3h-1.758v-2.766h1.738v.3H332.15v.891h1.2Z" transform="translate(-147.355 -69.425)"/>
          <path id="Trazado_112318" data-name="Trazado 112318" d="M337.89,159.084h-.367l-1.392-2.132v2.132h-.366v-2.767h.366l1.4,2.141v-2.141h.362Z" transform="translate(-149.123 -69.425)"/>
          <path id="Trazado_112319" data-name="Trazado 112319" d="M307.46,167.473h-.354v-2.342l-.708.26v-.319l1.007-.378h.056Z" transform="translate(-136.08 -73.145)"/>
          <path id="Trazado_112320" data-name="Trazado 112320" d="M311.886,166.274a1.6,1.6,0,0,1-.211.918.876.876,0,0,1-1.315.006,1.528,1.528,0,0,1-.221-.877v-.469a1.57,1.57,0,0,1,.211-.906.891.891,0,0,1,1.319-.011,1.517,1.517,0,0,1,.217.882Zm-.351-.481a1.283,1.283,0,0,0-.126-.651.485.485,0,0,0-.79,0,1.258,1.258,0,0,0-.127.625v.563a1.311,1.311,0,0,0,.13.662.432.432,0,0,0,.394.214.425.425,0,0,0,.387-.2,1.27,1.27,0,0,0,.132-.634Z" transform="translate(-137.742 -73.125)"/>
          <path id="Trazado_112321" data-name="Trazado 112321" d="M315.865,166.077a2.931,2.931,0,0,1,.115-.824,2.394,2.394,0,0,1,.343-.718,1.468,1.468,0,0,1,.473-.456l.073.232a1.515,1.515,0,0,0-.456.65,2.824,2.824,0,0,0-.195.978l0,.162a2.842,2.842,0,0,0,.267,1.273,1.524,1.524,0,0,0,.385.505l-.073.215a1.5,1.5,0,0,1-.482-.471,2.641,2.641,0,0,1-.449-1.545" transform="translate(-140.285 -72.872)"/>
          <path id="Trazado_112322" data-name="Trazado 112322" d="M319.446,167.473h-.354v-2.342l-.708.26v-.319l1.007-.378h.056Z" transform="translate(-141.404 -73.145)"/>
          <path id="Trazado_112323" data-name="Trazado 112323" d="M322.868,166.1a2.944,2.944,0,0,1-.111.812,2.4,2.4,0,0,1-.341.717,1.478,1.478,0,0,1-.479.467l-.074-.215a1.527,1.527,0,0,0,.47-.7,3.022,3.022,0,0,0,.182-1.048v-.061a3.158,3.158,0,0,0-.083-.742,2.506,2.506,0,0,0-.233-.615,1.416,1.416,0,0,0-.336-.424l.074-.215a1.488,1.488,0,0,1,.478.464,2.414,2.414,0,0,1,.34.717,2.992,2.992,0,0,1,.113.838" transform="translate(-142.949 -72.872)"/>
          <path id="Trazado_112324" data-name="Trazado 112324" d="M127.5,158.738l-.249-.168c-21.277-14.413-36.342-18.293-37.229-18.512L2.96,146.5,0,131.949l90.505-19.582.048.007,58.951,7.668ZM90.064,139.5l.042.01c.152.036,15.417,3.724,37.2,18.434l21.3-37.455L90.53,112.931.655,132.376l2.752,13.532Z" transform="translate(0 -49.905)"/>
          <rect id="Rectángulo_7024" data-name="Rectángulo 7024" width="0.556" height="15.66" transform="translate(9.638 80.233) rotate(-10.262)"/>
          <path id="Trazado_112325" data-name="Trazado 112325" d="M281.476,49.752,182.038,36.605l.024-.554a82.75,82.75,0,0,0,22.982-5.194c11.261-4.3,26.2-13.087,33.41-30.568l.12-.29.273.153c.32.18,32.1,18.258,42.486,49.176ZM184.615,36.385l96.048,12.7C270.722,20.144,241.955,2.618,238.846.795c-7.336,17.475-22.314,26.278-33.62,30.588a86.437,86.437,0,0,1-20.612,5" transform="translate(-80.848)"/>
          <path id="Trazado_112326" data-name="Trazado 112326" d="M295.586,170.124l-11.829-46.456,40.9,4.943-.034.276-4.8,39.341-.306-.078c-.083-.021-8.454-2.073-23.658,1.9Zm-11.091-45.807,11.492,45.128c13.568-3.5,21.716-2.228,23.357-1.9l4.689-38.448Z" transform="translate(-126.024 -54.925)"/>
          <path id="Trazado_112327" data-name="Trazado 112327" d="M316.574,170.089l3.644-26,.275.038L317,169.059l1.461-1.948.222.166Z" transform="translate(-140.6 -63.995)"/>
          <path id="Trazado_112328" data-name="Trazado 112328" d="M267.794,50.258l2.752-20.877.276.037-2.629,19.946,1.361-1.594.211.18Z" transform="translate(-118.935 -13.049)"/>
          <path id="Trazado_112329" data-name="Trazado 112329" d="M152.235,143.376l1.55-17.054.277.025-1.451,15.965,1.2-1.8.231.154Z" transform="translate(-67.612 -56.103)"/>
          <path id="Trazado_112330" data-name="Trazado 112330" d="M565.78,173.827l-.17-.177c-.248-.26-25.173-26.011-53.57-33.5l-87.552,6.068-3.341-14.579,90.685-19.355.041,0,60.152,4.995,25.385,33.045Zm-53.688-34.24.044.012c27.327,7.191,51.44,31.19,53.7,33.491l30.785-22.875-24.892-32.4-59.866-4.971-90.053,19.22,3.11,13.567Z" transform="translate(-187.043 -49.867)"/>
          <rect id="Rectángulo_7025" data-name="Rectángulo 7025" width="0.556" height="15.749" transform="translate(243.546 80.035) rotate(-11.561)"/>
          <path id="Trazado_112331" data-name="Trazado 112331" d="M555.553,143.239l2.162-16.27.276.037-1.97,14.828.678-1.213.242.136Z" transform="translate(-246.737 -56.391)"/>
        </g>
      </g>
      <g id="Grupo_87794" data-name="Grupo 87794" transform="translate(933 1363.546)">
        <g id="Grupo_87793" data-name="Grupo 87793" clip-path="url(#clip-path-3)">
          <path id="Trazado_112332" data-name="Trazado 112332" d="M288.042,52.236a1.2,1.2,0,0,1-.379.794,1.249,1.249,0,0,1-.85.28,1.144,1.144,0,0,1-.921-.412,1.658,1.658,0,0,1-.346-1.1v-.311a1.85,1.85,0,0,1,.162-.8,1.2,1.2,0,0,1,.457-.526,1.271,1.271,0,0,1,.686-.184,1.172,1.172,0,0,1,.828.288,1.21,1.21,0,0,1,.363.8h-.43a.929.929,0,0,0-.242-.563.731.731,0,0,0-.519-.174.765.765,0,0,0-.643.3,1.392,1.392,0,0,0-.233.862v.315a1.43,1.43,0,0,0,.22.84.713.713,0,0,0,.617.312.824.824,0,0,0,.547-.161.9.9,0,0,0,.253-.562Z" transform="translate(-155.33 -27.187)"/>
          <path id="Trazado_112333" data-name="Trazado 112333" d="M294.658,51.748a2.008,2.008,0,0,1-.161.832,1.214,1.214,0,0,1-.454.542,1.252,1.252,0,0,1-.686.187,1.21,1.21,0,0,1-1.139-.725,1.922,1.922,0,0,1-.168-.807v-.233a1.987,1.987,0,0,1,.162-.826,1.2,1.2,0,0,1,1.14-.739,1.258,1.258,0,0,1,.687.188,1.213,1.213,0,0,1,.457.545,2.017,2.017,0,0,1,.161.832Zm-.425-.209a1.453,1.453,0,0,0-.232-.885.764.764,0,0,0-.648-.308.756.756,0,0,0-.638.308,1.426,1.426,0,0,0-.239.856v.238a1.456,1.456,0,0,0,.235.878.823.823,0,0,0,1.288.018,1.448,1.448,0,0,0,.234-.865Z" transform="translate(-158.869 -27.187)"/>
          <path id="Trazado_112334" data-name="Trazado 112334" d="M299.6,52.048v1.269h-.427V50.075h1.2a1.2,1.2,0,0,1,.834.272.921.921,0,0,1,.3.719.91.91,0,0,1-.3.727,1.257,1.257,0,0,1-.845.255Zm0-.35h.768a.769.769,0,0,0,.525-.161.592.592,0,0,0,.182-.467.611.611,0,0,0-.182-.464.721.721,0,0,0-.5-.181H299.6Z" transform="translate(-162.744 -27.24)"/>
          <path id="Trazado_112335" data-name="Trazado 112335" d="M306.224,52.47h-1.358l-.305.848h-.441l1.238-3.242h.374l1.24,3.242h-.439ZM305,52.12h1.1l-.552-1.516Z" transform="translate(-165.435 -27.24)"/>
          <path id="Trazado_112336" data-name="Trazado 112336" d="M314.526,51.819a2.013,2.013,0,0,1-.8-.389.745.745,0,0,1-.25-.569.784.784,0,0,1,.306-.633,1.216,1.216,0,0,1,.8-.25,1.325,1.325,0,0,1,.6.129.976.976,0,0,1,.405.356.907.907,0,0,1,.144.5h-.43a.592.592,0,0,0-.187-.463.761.761,0,0,0-.528-.169.78.78,0,0,0-.493.139.464.464,0,0,0-.177.387.419.419,0,0,0,.168.336,1.64,1.64,0,0,0,.572.251,2.662,2.662,0,0,1,.632.251.959.959,0,0,1,.339.32.812.812,0,0,1,.11.43.759.759,0,0,1-.307.632,1.312,1.312,0,0,1-.822.237,1.525,1.525,0,0,1-.623-.128,1.057,1.057,0,0,1-.447-.351.861.861,0,0,1-.156-.506h.43a.558.558,0,0,0,.217.464.915.915,0,0,0,.58.171.84.84,0,0,0,.519-.138.449.449,0,0,0,.18-.376.44.44,0,0,0-.167-.368,1.93,1.93,0,0,0-.606-.257" transform="translate(-170.468 -27.187)"/>
          <path id="Trazado_112337" data-name="Trazado 112337" d="M321.946,50.076v2.2a1.032,1.032,0,0,1-.289.75,1.16,1.16,0,0,1-.776.327l-.114,0a1.213,1.213,0,0,1-.848-.287,1.026,1.026,0,0,1-.321-.79V50.076h.423v2.2a.676.676,0,0,0,.746.741.75.75,0,0,0,.555-.193.741.741,0,0,0,.193-.546v-2.2Z" transform="translate(-173.855 -27.24)"/>
          <path id="Trazado_112338" data-name="Trazado 112338" d="M326.652,52.048v1.269h-.427V50.075h1.2a1.2,1.2,0,0,1,.834.272.921.921,0,0,1,.3.719.91.91,0,0,1-.3.727,1.256,1.256,0,0,1-.845.255Zm0-.35h.768a.769.769,0,0,0,.525-.161.592.592,0,0,0,.182-.467.611.611,0,0,0-.182-.464.721.721,0,0,0-.5-.181h-.793Z" transform="translate(-177.459 -27.24)"/>
          <path id="Trazado_112339" data-name="Trazado 112339" d="M287.04,65.3h-.414V62.553l-.83.305v-.374l1.18-.443h.065Z" transform="translate(-155.467 -33.749)"/>
          <path id="Trazado_112340" data-name="Trazado 112340" d="M293.188,63.882a1.882,1.882,0,0,1-.247,1.076,1.027,1.027,0,0,1-1.541.008,1.79,1.79,0,0,1-.258-1.028v-.55a1.843,1.843,0,0,1,.247-1.062.885.885,0,0,1,.775-.347.9.9,0,0,1,.771.335,1.778,1.778,0,0,1,.254,1.034Zm-.412-.563a1.508,1.508,0,0,0-.147-.762.506.506,0,0,0-.466-.239.5.5,0,0,0-.461.238,1.48,1.48,0,0,0-.149.733v.659a1.541,1.541,0,0,0,.152.776.506.506,0,0,0,.462.25.5.5,0,0,0,.453-.236,1.482,1.482,0,0,0,.155-.744Z" transform="translate(-158.375 -33.715)"/>
          <path id="Trazado_112341" data-name="Trazado 112341" d="M299.32,63.5a3.44,3.44,0,0,1,.135-.966,2.792,2.792,0,0,1,.4-.842,1.709,1.709,0,0,1,.555-.534l.084.272a1.773,1.773,0,0,0-.533.762,3.29,3.29,0,0,0-.228,1.147l0,.189a3.318,3.318,0,0,0,.314,1.492,1.781,1.781,0,0,0,.45.592l-.084.252a1.768,1.768,0,0,1-.566-.552,3.1,3.1,0,0,1-.525-1.81" transform="translate(-162.824 -33.271)"/>
          <path id="Trazado_112342" data-name="Trazado 112342" d="M304.164,65.3h-.414V62.553l-.83.305v-.374l1.18-.443h.065Z" transform="translate(-164.782 -33.749)"/>
          <path id="Trazado_112343" data-name="Trazado 112343" d="M309.068,63.527a3.433,3.433,0,0,1-.13.952,2.823,2.823,0,0,1-.4.841,1.751,1.751,0,0,1-.563.548l-.087-.252a1.793,1.793,0,0,0,.551-.816,3.543,3.543,0,0,0,.212-1.228V63.5a3.644,3.644,0,0,0-.1-.869,2.936,2.936,0,0,0-.273-.721,1.66,1.66,0,0,0-.393-.5l.087-.252a1.739,1.739,0,0,1,.56.544,2.809,2.809,0,0,1,.4.84,3.534,3.534,0,0,1,.132.982" transform="translate(-167.486 -33.271)"/>
          <path id="Trazado_112344" data-name="Trazado 112344" d="M247.638,174.828a1.194,1.194,0,0,1-.379.794,1.247,1.247,0,0,1-.85.28,1.144,1.144,0,0,1-.921-.412,1.658,1.658,0,0,1-.346-1.1v-.311a1.85,1.85,0,0,1,.162-.8,1.2,1.2,0,0,1,.457-.526,1.271,1.271,0,0,1,.686-.184,1.172,1.172,0,0,1,.828.288,1.207,1.207,0,0,1,.363.8h-.43a.929.929,0,0,0-.242-.563.731.731,0,0,0-.519-.174.765.765,0,0,0-.643.3,1.392,1.392,0,0,0-.233.862v.315a1.431,1.431,0,0,0,.22.84.713.713,0,0,0,.617.312.824.824,0,0,0,.547-.161.9.9,0,0,0,.253-.562Z" transform="translate(-133.352 -93.874)"/>
          <path id="Trazado_112345" data-name="Trazado 112345" d="M254.254,174.34a2.008,2.008,0,0,1-.161.832,1.214,1.214,0,0,1-.454.542,1.252,1.252,0,0,1-.686.187,1.21,1.21,0,0,1-1.139-.725,1.922,1.922,0,0,1-.168-.807v-.233a1.987,1.987,0,0,1,.162-.826,1.2,1.2,0,0,1,1.14-.739,1.258,1.258,0,0,1,.687.188,1.213,1.213,0,0,1,.457.545,2.017,2.017,0,0,1,.161.832Zm-.425-.209a1.453,1.453,0,0,0-.232-.885.825.825,0,0,0-1.286,0,1.426,1.426,0,0,0-.239.856v.238a1.457,1.457,0,0,0,.235.878.823.823,0,0,0,1.288.018,1.448,1.448,0,0,0,.234-.865Z" transform="translate(-136.89 -93.874)"/>
          <path id="Trazado_112346" data-name="Trazado 112346" d="M259.2,174.64v1.269h-.427v-3.242h1.2a1.2,1.2,0,0,1,.834.272.921.921,0,0,1,.3.719.91.91,0,0,1-.3.727,1.256,1.256,0,0,1-.845.255Zm0-.35h.768a.769.769,0,0,0,.525-.161.592.592,0,0,0,.182-.467.611.611,0,0,0-.182-.464.721.721,0,0,0-.5-.181H259.2Z" transform="translate(-140.765 -93.927)"/>
          <path id="Trazado_112347" data-name="Trazado 112347" d="M265.82,175.062h-1.358l-.305.848h-.441l1.238-3.242h.374l1.24,3.242h-.439Zm-1.229-.35h1.1l-.552-1.516Z" transform="translate(-143.456 -93.928)"/>
          <rect id="Rectángulo_7027" data-name="Rectángulo 7027" width="1.087" height="0.336" transform="translate(123.255 80.437)"/>
          <path id="Trazado_112348" data-name="Trazado 112348" d="M275.939,174.828a1.2,1.2,0,0,1-.379.794,1.249,1.249,0,0,1-.85.28,1.145,1.145,0,0,1-.921-.412,1.657,1.657,0,0,1-.346-1.1v-.311a1.85,1.85,0,0,1,.162-.8,1.2,1.2,0,0,1,.457-.526,1.271,1.271,0,0,1,.686-.184,1.172,1.172,0,0,1,.828.288,1.21,1.21,0,0,1,.363.8h-.43a.929.929,0,0,0-.242-.563.731.731,0,0,0-.519-.174.765.765,0,0,0-.643.3,1.392,1.392,0,0,0-.233.862v.315a1.431,1.431,0,0,0,.22.84.713.713,0,0,0,.617.312.827.827,0,0,0,.547-.161.9.9,0,0,0,.252-.562Z" transform="translate(-148.747 -93.874)"/>
          <path id="Trazado_112349" data-name="Trazado 112349" d="M282.555,174.34a2.008,2.008,0,0,1-.161.832,1.214,1.214,0,0,1-.454.542,1.252,1.252,0,0,1-.686.187,1.21,1.21,0,0,1-1.139-.725,1.921,1.921,0,0,1-.168-.807v-.233a1.986,1.986,0,0,1,.162-.826,1.2,1.2,0,0,1,1.14-.739,1.258,1.258,0,0,1,.687.188,1.213,1.213,0,0,1,.457.545,2.017,2.017,0,0,1,.161.832Zm-.425-.209a1.453,1.453,0,0,0-.232-.885.764.764,0,0,0-.648-.308.756.756,0,0,0-.638.308,1.426,1.426,0,0,0-.239.856v.238a1.457,1.457,0,0,0,.235.878.823.823,0,0,0,1.288.018,1.448,1.448,0,0,0,.234-.865Z" transform="translate(-152.285 -93.874)"/>
          <path id="Trazado_112350" data-name="Trazado 112350" d="M287.789,174.411a2.013,2.013,0,0,1-.8-.389.744.744,0,0,1-.25-.569.784.784,0,0,1,.306-.633,1.216,1.216,0,0,1,.8-.25,1.325,1.325,0,0,1,.6.129.976.976,0,0,1,.405.356.907.907,0,0,1,.144.5h-.43a.592.592,0,0,0-.187-.463.761.761,0,0,0-.528-.169.78.78,0,0,0-.493.139.464.464,0,0,0-.177.387.419.419,0,0,0,.168.336,1.64,1.64,0,0,0,.572.251,2.661,2.661,0,0,1,.632.251.958.958,0,0,1,.339.32.812.812,0,0,1,.11.43.759.759,0,0,1-.307.632,1.312,1.312,0,0,1-.822.237,1.525,1.525,0,0,1-.623-.128,1.056,1.056,0,0,1-.447-.351.861.861,0,0,1-.156-.506h.43a.559.559,0,0,0,.217.464.915.915,0,0,0,.58.171.84.84,0,0,0,.519-.138.449.449,0,0,0,.18-.376.44.44,0,0,0-.167-.368,1.93,1.93,0,0,0-.606-.257" transform="translate(-155.924 -93.874)"/>
          <path id="Trazado_112351" data-name="Trazado 112351" d="M246.636,187.891h-.414v-2.746l-.83.305v-.374l1.18-.443h.065Z" transform="translate(-133.488 -100.436)"/>
          <path id="Trazado_112352" data-name="Trazado 112352" d="M252.784,186.473a1.882,1.882,0,0,1-.247,1.076,1.027,1.027,0,0,1-1.541.008,1.791,1.791,0,0,1-.258-1.028v-.55a1.843,1.843,0,0,1,.247-1.062.885.885,0,0,1,.775-.347.9.9,0,0,1,.771.335,1.777,1.777,0,0,1,.254,1.034Zm-.412-.563a1.508,1.508,0,0,0-.147-.762.506.506,0,0,0-.466-.239.5.5,0,0,0-.461.238,1.48,1.48,0,0,0-.149.733v.659a1.54,1.54,0,0,0,.152.776.506.506,0,0,0,.462.25.5.5,0,0,0,.453-.236,1.481,1.481,0,0,0,.155-.744Z" transform="translate(-136.396 -100.402)"/>
          <path id="Trazado_112353" data-name="Trazado 112353" d="M258.917,186.1a3.455,3.455,0,0,1,.135-.966,2.792,2.792,0,0,1,.4-.842,1.71,1.71,0,0,1,.555-.534l.084.272a1.773,1.773,0,0,0-.533.762,3.279,3.279,0,0,0-.229,1.147l0,.189a3.317,3.317,0,0,0,.314,1.492,1.781,1.781,0,0,0,.45.592l-.084.252a1.769,1.769,0,0,1-.566-.552,3.1,3.1,0,0,1-.525-1.81" transform="translate(-140.845 -99.958)"/>
          <path id="Trazado_112354" data-name="Trazado 112354" d="M263.76,187.891h-.414v-2.746l-.83.305v-.374l1.18-.443h.065Z" transform="translate(-142.803 -100.436)"/>
          <path id="Trazado_112355" data-name="Trazado 112355" d="M268.664,186.119a3.431,3.431,0,0,1-.13.952,2.822,2.822,0,0,1-.4.841,1.752,1.752,0,0,1-.563.548l-.087-.252a1.792,1.792,0,0,0,.551-.816,3.543,3.543,0,0,0,.213-1.228v-.072a3.644,3.644,0,0,0-.1-.869,2.935,2.935,0,0,0-.273-.721,1.66,1.66,0,0,0-.393-.5l.087-.252a1.74,1.74,0,0,1,.56.544,2.809,2.809,0,0,1,.4.84,3.533,3.533,0,0,1,.132.982" transform="translate(-145.507 -99.958)"/>
          <path id="Trazado_112356" data-name="Trazado 112356" d="M222.166,51.195c-21.008,0-55.625-7.435-55.976-7.512l-1.16-.251,1.171-.2a98.724,98.724,0,0,0,24.463-8.32C202.327,29.121,217.222,18.4,221.956.256L222.023,0l.243.1c.333.142,33.5,14.527,48.378,43.936l.128.254-.276.069c-.265.067-26.7,6.66-47.636,6.829l-.695,0M167.392,43.47c6.166,1.283,36.687,7.4,55.465,7.266,19.724-.159,44.365-6.041,47.251-6.746-14.185-27.764-44.744-42-47.778-43.36-4.852,18.162-19.777,28.89-31.473,34.7a101.326,101.326,0,0,1-23.465,8.141" transform="translate(-89.773)"/>
          <path id="Trazado_112357" data-name="Trazado 112357" d="M182.077,92.23c-.436-.119-.661-.186-.661-.186l.129-.437s.224.066.653.183Z" transform="translate(-98.686 -49.832)"/>
          <path id="Trazado_112358" data-name="Trazado 112358" d="M232.894,98.681h-.111q-.627,0-1.247,0l0-.456q.619,0,1.244,0h.111Zm1.36-.005,0-.456q.675,0,1.356-.014l.006.456q-.683.009-1.359.014m-4.078-.011q-.683-.009-1.359-.022l.009-.456q.674.013,1.356.022Zm6.8-.026-.01-.456q.675-.014,1.356-.032l.012.456q-.682.018-1.358.032m-9.513-.026q-.683-.018-1.359-.04l.015-.456q.674.022,1.356.039Zm12.23-.048-.016-.456q.674-.023,1.355-.051l.019.456q-.682.028-1.358.051m-14.946-.039q-.683-.027-1.358-.057l.021-.456q.673.031,1.355.057Zm17.662-.072L242.383,98q.675-.032,1.354-.069l.025.455q-.681.038-1.357.069M222.027,98.4q-.683-.035-1.357-.075l.027-.455q.672.039,1.354.074Zm23.092-.1-.028-.455q.674-.042,1.353-.088l.031.455q-.681.047-1.356.088m-25.805-.062q-.683-.044-1.356-.093l.033-.455q.672.047,1.353.092Zm28.517-.124-.034-.455q.674-.051,1.352-.107l.037.455q-.679.056-1.355.107M216.6,98.05q-.683-.053-1.355-.11l.038-.454q.67.057,1.352.11Zm33.937-.154-.041-.455q.673-.06,1.35-.125l.043.454q-.679.065-1.353.126m-36.646-.075q-.683-.062-1.353-.127l.044-.454q.669.065,1.351.127Zm39.351-.187-.047-.453q.672-.07,1.348-.145l.05.453q-.677.075-1.351.145m-42.057-.076q-.683-.071-1.351-.145l.05-.453q.668.074,1.349.145Zm44.759-.224-.054-.453q.672-.079,1.346-.164l.057.452q-.676.085-1.349.165m-47.461-.075q-.683-.081-1.349-.163l.056-.453q.666.083,1.347.162Zm50.157-.265-.06-.452q.67-.09,1.343-.184l.063.452q-.675.094-1.347.184m-52.855-.07q-.683-.089-1.347-.18l.062-.452q.663.091,1.344.18Zm55.547-.309-.067-.451q.669-.1,1.34-.2l.071.451q-.674.105-1.344.2m-58.241-.061q-.682-.1-1.344-.2l.068-.451q.661.1,1.342.2Zm60.927-.358-.073-.45q.668-.109,1.337-.223l.077.449q-.672.116-1.341.224m-63.615-.049q-.683-.108-1.342-.217l.074-.45q.657.108,1.339.217Zm66.294-.41-.08-.449q.666-.12,1.333-.244l.084.448q-.67.125-1.337.244M197.724,95.7q-.685-.118-1.339-.236l.081-.449q.653.118,1.336.236Zm71.648-.466-.087-.447q.664-.13,1.33-.264l.09.447q-.668.135-1.333.264m-74.325-.016q-.686-.129-1.335-.256l.088-.447q.648.127,1.333.256Zm-2.669-.523q-.691-.141-1.331-.277l.095-.446q.638.136,1.327.277Zm79.658,0-.094-.446q.66-.139,1.322-.284l.1.445q-.664.146-1.325.285m-82.318-.565q-.7-.156-1.327-.3l.1-.444q.622.144,1.323.3Zm84.966-.014-.1-.445q.658-.149,1.317-.3l.1.444q-.661.155-1.32.306m-87.617-.6q-.74-.18-1.321-.33l.113-.441q.577.148,1.315.328Zm90.256-.02-.108-.443q.657-.16,1.315-.326l.111.442q-.66.166-1.318.327" transform="translate(-101.042 -50.443)"/>
          <rect id="Rectángulo_7028" data-name="Rectángulo 7028" width="0.684" height="0.456" transform="matrix(0.968, -0.252, 0.252, 0.968, 178.814, 41.946)"/>
          <path id="Trazado_112359" data-name="Trazado 112359" d="M302.885,63.21V39.762h.228V62.6l1.706-1.95.171.15Z" transform="translate(-164.763 -21.63)"/>
          <path id="Trazado_112360" data-name="Trazado 112360" d="M144.18,191.8l-.156-.219c-.052-.074-5.5-7.473-27.355-17.109-21.808-9.614-28.436-8.294-28.5-8.279L4.178,182.4,0,168.148l74.4-25.6c26.26-22.691,49.81-18.447,50.045-18.4a56.492,56.492,0,0,1,38.589,20.305,63.974,63.974,0,0,1,10.752,17.794l.048.136ZM89.342,165.65c2.776,0,10.53.916,27.51,8.4,19.952,8.8,26.325,15.774,27.378,17.053L173.3,162.268a64.189,64.189,0,0,0-10.632-17.53A56.068,56.068,0,0,0,124.378,124.6c-.256-.049-23.62-4.246-49.716,18.324l-.075.043L.56,168.438,4.5,181.874l83.576-16.13a6.089,6.089,0,0,1,1.267-.094" transform="translate(0 -67.349)"/>
          <path id="Trazado_112361" data-name="Trazado 112361" d="M260.172,168.363s-.113-.481-.37-1.309l.436-.135c.263.846.374,1.321.378,1.341Zm-.8-2.6c-.136-.39-.293-.819-.471-1.281l.426-.163c.179.466.337.9.475,1.293Zm-.979-2.547q-.25-.6-.542-1.251l.416-.187q.295.656.547,1.263Zm-1.117-2.488q-.287-.6-.607-1.221l.406-.208q.323.63.612,1.232Zm-1.243-2.427q-.319-.585-.667-1.189l.395-.228q.351.609.672,1.2Zm-1.363-2.362q-.349-.572-.725-1.155l.383-.247q.38.588.731,1.164Zm-1.478-2.291q-.378-.555-.782-1.116l.37-.266q.407.566.788,1.126Zm-1.591-2.214q-.406-.536-.836-1.076l.357-.285q.434.544.843,1.085Zm-1.7-2.13q-.434-.516-.89-1.032l.342-.3q.46.521.9,1.041ZM248.1,147.26q-.46-.494-.941-.985l.326-.32q.486.5.949.993ZM164.824,146l-.147-.431,1.295-.442.147.431Zm81.368-.68q-.485-.47-.99-.935l.309-.336q.51.469,1,.943Zm-78.778-.2-.148-.431,1.295-.442.148.431Zm2.589-.884-.147-.431,1.3-.442.147.432Zm74.184-.756q-.509-.444-1.038-.882l.291-.351q.534.442,1.047.889Zm-71.594-.129-.148-.431,1.3-.442.147.432Zm2.444-1.312-.277-.363c.3-.233.675-.508,1.108-.819l.265.37c-.429.307-.8.581-1.1.811m67.052-.3q-.532-.417-1.082-.826l.272-.366q.555.413,1.091.834Zm-64.835-1.295-.256-.378q.534-.362,1.148-.758l.246.384q-.609.392-1.139.752m62.65-.33q-.552-.389-1.124-.769l.253-.379q.576.384,1.133.776Zm-60.354-1.146-.238-.39q.565-.344,1.181-.7l.229.395q-.612.355-1.172.7m58.088-.364q-.572-.36-1.161-.71l.233-.392q.6.353,1.172.716ZM181.909,137.6l-.22-.4q.586-.323,1.211-.65l.212.4q-.62.325-1.2.646m53.387-.385q-.589-.33-1.2-.651l.213-.4q.612.323,1.206.657Zm-50.97-.88-.2-.409q.6-.3,1.238-.6l.193.413q-.629.3-1.229.593m48.562-.392q-.6-.3-1.227-.591l.193-.413q.627.293,1.237.6Zm-46.092-.767-.185-.417q.619-.274,1.262-.542l.176.42q-.639.267-1.253.539m43.624-.385q-.619-.27-1.255-.53l.173-.422q.64.262,1.265.535Zm-41.105-.663-.166-.425q.632-.247,1.285-.485l.156.428q-.648.237-1.275.482m38.584-.368q-.631-.241-1.278-.471l.153-.43q.652.232,1.288.475Zm-36.023-.567-.146-.432q.644-.218,1.306-.426l.136.435q-.657.206-1.3.423m33.455-.346q-.652-.215-1.3-.41l.132-.436q.653.2,1.31.414Zm-30.854-.469-.126-.438q.655-.188,1.324-.364l.116.441q-.665.174-1.314.361m28.246-.318q-.661-.181-1.318-.342l.109-.443q.663.163,1.33.345Zm-25.609-.373-.1-.444q.664-.157,1.341-.3l.094.446q-.672.142-1.33.3m22.964-.277q-.67-.146-1.335-.272l.086-.448q.67.128,1.346.275Zm-20.3-.284-.083-.448q.67-.124,1.354-.233l.072.45q-.679.108-1.343.231M217.4,130.9q-.677-.11-1.348-.2l.061-.452q.677.092,1.36.2Zm-14.932-.2-.06-.452q.676-.09,1.364-.163l.048.453q-.681.073-1.352.162m12.23-.163q-.682-.073-1.357-.128l.037-.455q.681.055,1.369.129Zm-9.522-.125-.036-.455q.681-.055,1.371-.092l.025.456q-.684.037-1.359.091m6.8-.093q-.684-.037-1.362-.054l.012-.456q.683.018,1.374.055Zm-4.085-.053-.012-.456q.682-.018,1.374-.019v.456q-.685,0-1.362.019" transform="translate(-89.581 -70.601)"/>
          <path id="Trazado_112362" data-name="Trazado 112362" d="M265.574,184.7V167.084h.342v16.308l.628-1.117.3.168Z" transform="translate(-144.467 -90.89)"/>
        </g>
      </g>
      <g id="Grupo_87795" data-name="Grupo 87795" transform="translate(348.03 963.363)">
        <g id="Grupo_57901" data-name="Grupo 57901" transform="translate(0 450.273) rotate(-90)">
          <g id="Grupo_57898" data-name="Grupo 57898" transform="translate(355.635 1.071)">
            <g id="Grupo_57897" data-name="Grupo 57897" transform="translate(0.428)">
              <path id="Trazado_111885" data-name="Trazado 111885" d="M0,36.337H6.993a6.808,6.808,0,0,0,6.6-5.218,40.89,40.89,0,1,1,.637,21.87,6.813,6.813,0,0,0-6.5-4.835H0Z" fill="#f1bf00"/>
            </g>
            <path id="Trazado_111886" data-name="Trazado 111886" d="M12.826,9.668a40.831,40.831,0,0,0,1.663,11.579,6.8,6.8,0,0,0-6.329-4.36H0V5.069H7.423A6.8,6.8,0,0,0,13.978,0,40.846,40.846,0,0,0,12.826,9.668Z" transform="translate(0 31.266)" fill="#339ce9"/>
          </g>
          <circle id="Elipse_6201" data-name="Elipse 6201" cx="32.729" cy="32.729" r="32.729" transform="translate(374.539 72.417) rotate(-86.133)" fill="#fff"/>
          <path id="Trazado_111887" data-name="Trazado 111887" d="M0,36.337H6.993a6.807,6.807,0,0,0,6.6-5.218,40.891,40.891,0,1,1,.637,21.87,6.813,6.813,0,0,0-6.5-4.835H0Z" transform="translate(263.404 1.071)" fill="#0ac4bf"/>
          <g id="Grupo_57899" data-name="Grupo 57899" transform="translate(275.843 1.071)">
            <path id="Trazado_111888" data-name="Trazado 111888" d="M91.874,36.337H87.216a6.808,6.808,0,0,1-6.6-5.218,40.89,40.89,0,1,0-.637,21.87,6.813,6.813,0,0,1,6.5-4.835h5.4Z" fill="#339ce9"/>
          </g>
          <circle id="Elipse_6202" data-name="Elipse 6202" cx="32.729" cy="32.729" r="32.729" transform="matrix(0.32, -0.947, 0.947, 0.32, 275.26, 62.504)" fill="#fff"/>
          <g id="Grupo_57900" data-name="Grupo 57900" transform="translate(183.181 1.071)">
            <path id="Trazado_111889" data-name="Trazado 111889" d="M91.874,36.337H87.216a6.808,6.808,0,0,1-6.6-5.218,40.891,40.891,0,1,0-.637,21.87,6.813,6.813,0,0,1,6.5-4.835h5.4Z" fill="#0ac4bf"/>
          </g>
          <g id="Grupo_87778" data-name="Grupo 87778" transform="translate(92.126 1.071)">
            <path id="Trazado_111889-2" data-name="Trazado 111889" d="M91.874,36.337H87.216a6.808,6.808,0,0,1-6.6-5.218,40.891,40.891,0,1,0-.637,21.87,6.813,6.813,0,0,1,6.5-4.835h5.4Z" fill="#bf3976"/>
          </g>
          <g id="Grupo_87779" data-name="Grupo 87779" transform="translate(1.071 1.071)">
            <path id="Trazado_111889-3" data-name="Trazado 111889" d="M91.874,36.337H87.216a6.808,6.808,0,0,1-6.6-5.218,40.891,40.891,0,1,0-.637,21.87,6.813,6.813,0,0,1,6.5-4.835h5.4Z" fill="#8f2b58"/>
          </g>
          <circle id="Elipse_6203" data-name="Elipse 6203" cx="32.729" cy="32.729" r="32.729" transform="translate(182.11 61.488) rotate(-69.941)" fill="#fff"/>
          <circle id="Elipse_6204" data-name="Elipse 6204" cx="32.729" cy="32.729" r="32.729" transform="translate(91.055 61.488) rotate(-69.941)" fill="#fff"/>
          <circle id="Elipse_6205" data-name="Elipse 6205" cx="32.729" cy="32.729" r="32.729" transform="translate(0 61.488) rotate(-69.941)" fill="#fff"/>
        </g>
        <path id="Trazado_112856" data-name="Trazado 112856" d="M17.729,15.121a7.2,7.2,0,0,1-1.221,4.512A4.261,4.261,0,0,1,12.934,21.2,4.291,4.291,0,0,1,9.38,19.662a6.992,6.992,0,0,1-1.26-4.395V12.65A7.109,7.109,0,0,1,9.355,8.129a4.293,4.293,0,0,1,3.56-1.543,4.3,4.3,0,0,1,3.555,1.528,6.97,6.97,0,0,1,1.26,4.39Zm-2.822-2.878a5.207,5.207,0,0,0-.483-2.576,1.634,1.634,0,0,0-1.509-.806,1.6,1.6,0,0,0-1.47.767,4.873,4.873,0,0,0-.5,2.4v3.46a5.466,5.466,0,0,0,.474,2.586,1.612,1.612,0,0,0,1.519.846,1.585,1.585,0,0,0,1.494-.811,5.335,5.335,0,0,0,.479-2.483ZM26.489,21H23.667V10.121L20.3,11.166V8.871l5.889-2.109h.3Z" transform="translate(23.467 27.733)" fill="#12263f"/>
        <path id="Trazado_112857" data-name="Trazado 112857" d="M17.729,15.121a7.2,7.2,0,0,1-1.221,4.512A4.261,4.261,0,0,1,12.934,21.2,4.291,4.291,0,0,1,9.38,19.662a6.992,6.992,0,0,1-1.26-4.395V12.65A7.109,7.109,0,0,1,9.355,8.129a4.293,4.293,0,0,1,3.56-1.543,4.3,4.3,0,0,1,3.555,1.528,6.97,6.97,0,0,1,1.26,4.39Zm-2.822-2.878a5.207,5.207,0,0,0-.483-2.576,1.634,1.634,0,0,0-1.509-.806,1.6,1.6,0,0,0-1.47.767,4.873,4.873,0,0,0-.5,2.4v3.46a5.466,5.466,0,0,0,.474,2.586,1.612,1.612,0,0,0,1.519.846,1.585,1.585,0,0,0,1.494-.811,5.335,5.335,0,0,0,.479-2.483ZM29.38,21H19.633V19.066l4.6-4.9a11.347,11.347,0,0,0,1.4-1.807,2.9,2.9,0,0,0,.454-1.465A2.172,2.172,0,0,0,25.61,9.4a1.727,1.727,0,0,0-1.367-.542,1.863,1.863,0,0,0-1.509.659,2.611,2.611,0,0,0-.552,1.733H19.35a4.661,4.661,0,0,1,.62-2.373A4.371,4.371,0,0,1,21.723,7.2a5.328,5.328,0,0,1,2.568-.61A5.045,5.045,0,0,1,27.7,7.641a3.731,3.731,0,0,1,1.216,2.979,4.781,4.781,0,0,1-.547,2.148A11.939,11.939,0,0,1,26.5,15.316l-3.232,3.408H29.38Z" transform="translate(23.467 119.467)" fill="#12263f"/>
        <path id="Trazado_112858" data-name="Trazado 112858" d="M17.729,15.121a7.2,7.2,0,0,1-1.221,4.512A4.261,4.261,0,0,1,12.934,21.2,4.291,4.291,0,0,1,9.38,19.662a6.992,6.992,0,0,1-1.26-4.395V12.65A7.109,7.109,0,0,1,9.355,8.129a4.293,4.293,0,0,1,3.56-1.543,4.3,4.3,0,0,1,3.555,1.528,6.97,6.97,0,0,1,1.26,4.39Zm-2.822-2.878a5.207,5.207,0,0,0-.483-2.576,1.634,1.634,0,0,0-1.509-.806,1.6,1.6,0,0,0-1.47.767,4.873,4.873,0,0,0-.5,2.4v3.46a5.466,5.466,0,0,0,.474,2.586,1.612,1.612,0,0,0,1.519.846,1.585,1.585,0,0,0,1.494-.811,5.335,5.335,0,0,0,.479-2.483Zm7.6.4h1.5A2.119,2.119,0,0,0,25.6,12.1a1.968,1.968,0,0,0,.518-1.426,1.74,1.74,0,0,0-.513-1.338,1.987,1.987,0,0,0-1.411-.479,2.083,2.083,0,0,0-1.357.444,1.421,1.421,0,0,0-.547,1.157H19.467a3.471,3.471,0,0,1,.6-2,4,4,0,0,1,1.68-1.382,5.606,5.606,0,0,1,2.378-.5,5.316,5.316,0,0,1,3.535,1.079,3.682,3.682,0,0,1,1.279,2.974,2.992,2.992,0,0,1-.6,1.8,3.87,3.87,0,0,1-1.562,1.26,3.533,3.533,0,0,1,1.792,1.289,3.5,3.5,0,0,1,.591,2.031,3.743,3.743,0,0,1-1.382,3.037A5.556,5.556,0,0,1,24.126,21.2a5.268,5.268,0,0,1-3.481-1.123A3.668,3.668,0,0,1,19.292,17.1h2.822a1.635,1.635,0,0,0,.6,1.309,2.505,2.505,0,0,0,3.057-.024,1.837,1.837,0,0,0,.571-1.411q0-2.129-2.344-2.129H22.5Z" transform="translate(23.467 212.267)" fill="#12263f"/>
        <path id="Trazado_112859" data-name="Trazado 112859" d="M17.729,15.121a7.2,7.2,0,0,1-1.221,4.512A4.261,4.261,0,0,1,12.934,21.2,4.291,4.291,0,0,1,9.38,19.662a6.992,6.992,0,0,1-1.26-4.395V12.65A7.109,7.109,0,0,1,9.355,8.129a4.293,4.293,0,0,1,3.56-1.543,4.3,4.3,0,0,1,3.555,1.528,6.97,6.97,0,0,1,1.26,4.39Zm-2.822-2.878a5.207,5.207,0,0,0-.483-2.576,1.634,1.634,0,0,0-1.509-.806,1.6,1.6,0,0,0-1.47.767,4.873,4.873,0,0,0-.5,2.4v3.46a5.466,5.466,0,0,0,.474,2.586,1.612,1.612,0,0,0,1.519.846,1.585,1.585,0,0,0,1.494-.811,5.335,5.335,0,0,0,.479-2.483Zm13.076,3.4h1.611v2.275H27.983V21H25.161V17.924h-5.83L19.2,16.146l5.928-9.365h2.852Zm-5.967,0h3.145v-5.02l-.186.322Z" transform="translate(23.467 304)" fill="#12263f"/>
        <path id="Trazado_112860" data-name="Trazado 112860" d="M17.729,15.121a7.2,7.2,0,0,1-1.221,4.512A4.261,4.261,0,0,1,12.934,21.2,4.291,4.291,0,0,1,9.38,19.662a6.992,6.992,0,0,1-1.26-4.395V12.65A7.109,7.109,0,0,1,9.355,8.129a4.293,4.293,0,0,1,3.56-1.543,4.3,4.3,0,0,1,3.555,1.528,6.97,6.97,0,0,1,1.26,4.39Zm-2.822-2.878a5.207,5.207,0,0,0-.483-2.576,1.634,1.634,0,0,0-1.509-.806,1.6,1.6,0,0,0-1.47.767,4.873,4.873,0,0,0-.5,2.4v3.46a5.466,5.466,0,0,0,.474,2.586,1.612,1.612,0,0,0,1.519.846,1.585,1.585,0,0,0,1.494-.811,5.335,5.335,0,0,0,.479-2.483Zm5.146,1.764.82-7.227h7.969V9.135H23.188l-.352,3.057a4.474,4.474,0,0,1,2.139-.537,4.1,4.1,0,0,1,3.184,1.26,5.032,5.032,0,0,1,1.152,3.525,5.155,5.155,0,0,1-.581,2.466,4.1,4.1,0,0,1-1.665,1.689,5.2,5.2,0,0,1-2.559.6,5.52,5.52,0,0,1-2.393-.522,4.244,4.244,0,0,1-1.743-1.47,4.006,4.006,0,0,1-.679-2.158h2.793a2.086,2.086,0,0,0,.62,1.382,1.966,1.966,0,0,0,1.392.493,1.735,1.735,0,0,0,1.475-.688,3.189,3.189,0,0,0,.518-1.948,2.637,2.637,0,0,0-.6-1.855,2.186,2.186,0,0,0-1.689-.645,2.443,2.443,0,0,0-1.631.527l-.273.254Z" transform="translate(23.467 395.733)" fill="#12263f"/>
      </g>
      <g id="Grupo_87796" data-name="Grupo 87796" transform="translate(1168.03 963.364)">
        <g id="Grupo_87780" data-name="Grupo 87780" transform="translate(0 450.273) rotate(-90)">
          <g id="Grupo_57898-2" data-name="Grupo 57898" transform="translate(355.635 1.071)">
            <g id="Grupo_57897-2" data-name="Grupo 57897" transform="translate(0.428)">
              <path id="Trazado_111885-2" data-name="Trazado 111885" d="M0,36.337H6.993a6.808,6.808,0,0,0,6.6-5.218,40.89,40.89,0,1,1,.637,21.87,6.813,6.813,0,0,0-6.5-4.835H0Z" fill="#f1bf00"/>
            </g>
            <path id="Trazado_111886-2" data-name="Trazado 111886" d="M12.826,9.668a40.831,40.831,0,0,0,1.663,11.579,6.8,6.8,0,0,0-6.329-4.36H0V5.069H7.423A6.8,6.8,0,0,0,13.978,0,40.846,40.846,0,0,0,12.826,9.668Z" transform="translate(0 31.266)" fill="#339ce9"/>
          </g>
          <circle id="Elipse_6201-2" data-name="Elipse 6201" cx="32.729" cy="32.729" r="32.729" transform="translate(374.539 72.417) rotate(-86.133)" fill="#fff"/>
          <path id="Trazado_111887-2" data-name="Trazado 111887" d="M0,36.337H6.993a6.807,6.807,0,0,0,6.6-5.218,40.891,40.891,0,1,1,.637,21.87,6.813,6.813,0,0,0-6.5-4.835H0Z" transform="translate(263.404 1.071)" fill="#0ac4bf"/>
          <g id="Grupo_57899-2" data-name="Grupo 57899" transform="translate(275.843 1.071)">
            <path id="Trazado_111888-2" data-name="Trazado 111888" d="M91.874,36.337H87.216a6.808,6.808,0,0,1-6.6-5.218,40.89,40.89,0,1,0-.637,21.87,6.813,6.813,0,0,1,6.5-4.835h5.4Z" fill="#339ce9"/>
          </g>
          <circle id="Elipse_6202-2" data-name="Elipse 6202" cx="32.729" cy="32.729" r="32.729" transform="matrix(0.32, -0.947, 0.947, 0.32, 275.26, 62.504)" fill="#fff"/>
          <g id="Grupo_57900-2" data-name="Grupo 57900" transform="translate(183.181 1.071)">
            <path id="Trazado_111889-4" data-name="Trazado 111889" d="M91.874,36.337H87.216a6.808,6.808,0,0,1-6.6-5.218,40.891,40.891,0,1,0-.637,21.87,6.813,6.813,0,0,1,6.5-4.835h5.4Z" fill="#0ac4bf"/>
          </g>
          <g id="Grupo_87778-2" data-name="Grupo 87778" transform="translate(92.126 1.071)">
            <path id="Trazado_111889-5" data-name="Trazado 111889" d="M91.874,36.337H87.216a6.808,6.808,0,0,1-6.6-5.218,40.891,40.891,0,1,0-.637,21.87,6.813,6.813,0,0,1,6.5-4.835h5.4Z" fill="#bf3976"/>
          </g>
          <g id="Grupo_87779-2" data-name="Grupo 87779" transform="translate(1.071 1.071)">
            <path id="Trazado_111889-6" data-name="Trazado 111889" d="M91.874,36.337H87.216a6.808,6.808,0,0,1-6.6-5.218,40.891,40.891,0,1,0-.637,21.87,6.813,6.813,0,0,1,6.5-4.835h5.4Z" fill="#8f2b58"/>
          </g>
          <circle id="Elipse_6203-2" data-name="Elipse 6203" cx="32.729" cy="32.729" r="32.729" transform="translate(182.11 61.488) rotate(-69.941)" fill="#fff"/>
          <circle id="Elipse_6204-2" data-name="Elipse 6204" cx="32.729" cy="32.729" r="32.729" transform="translate(91.055 61.488) rotate(-69.941)" fill="#fff"/>
          <circle id="Elipse_6205-2" data-name="Elipse 6205" cx="32.729" cy="32.729" r="32.729" transform="translate(0 61.488) rotate(-69.941)" fill="#fff"/>
        </g>
        <path id="Trazado_112861" data-name="Trazado 112861" d="M17.729,15.121a7.2,7.2,0,0,1-1.221,4.512A4.261,4.261,0,0,1,12.934,21.2,4.291,4.291,0,0,1,9.38,19.662a6.992,6.992,0,0,1-1.26-4.395V12.65A7.109,7.109,0,0,1,9.355,8.129a4.293,4.293,0,0,1,3.56-1.543,4.3,4.3,0,0,1,3.555,1.528,6.97,6.97,0,0,1,1.26,4.39Zm-2.822-2.878a5.207,5.207,0,0,0-.483-2.576,1.634,1.634,0,0,0-1.509-.806,1.6,1.6,0,0,0-1.47.767,4.873,4.873,0,0,0-.5,2.4v3.46a5.466,5.466,0,0,0,.474,2.586,1.612,1.612,0,0,0,1.519.846,1.585,1.585,0,0,0,1.494-.811,5.335,5.335,0,0,0,.479-2.483ZM27.29,6.635V8.959h-.273a4.8,4.8,0,0,0-3.081,1,4.047,4.047,0,0,0-1.4,2.686A3.844,3.844,0,0,1,25.4,11.488a3.622,3.622,0,0,1,2.949,1.328,5.324,5.324,0,0,1,1.094,3.5,5.237,5.237,0,0,1-.6,2.51,4.307,4.307,0,0,1-1.7,1.748,4.937,4.937,0,0,1-2.485.625,4.611,4.611,0,0,1-3.628-1.562,6.065,6.065,0,0,1-1.382-4.17V14.447a9.128,9.128,0,0,1,.874-4.087,6.409,6.409,0,0,1,2.51-2.744,7.354,7.354,0,0,1,3.794-.981Zm-2.754,7.129a2.255,2.255,0,0,0-1.24.356,2.143,2.143,0,0,0-.82.941v.858a3.8,3.8,0,0,0,.557,2.208,1.8,1.8,0,0,0,1.563.794,1.779,1.779,0,0,0,1.47-.716,2.922,2.922,0,0,0,.562-1.857,2.916,2.916,0,0,0-.566-1.871A1.846,1.846,0,0,0,24.536,13.764Z" transform="translate(23.139 27.733)" fill="#12263f"/>
        <path id="Trazado_112862" data-name="Trazado 112862" d="M17.729,15.121a7.2,7.2,0,0,1-1.221,4.512A4.261,4.261,0,0,1,12.934,21.2,4.291,4.291,0,0,1,9.38,19.662a6.992,6.992,0,0,1-1.26-4.395V12.65A7.109,7.109,0,0,1,9.355,8.129a4.293,4.293,0,0,1,3.56-1.543,4.3,4.3,0,0,1,3.555,1.528,6.97,6.97,0,0,1,1.26,4.39Zm-2.822-2.878a5.207,5.207,0,0,0-.483-2.576,1.634,1.634,0,0,0-1.509-.806,1.6,1.6,0,0,0-1.47.767,4.873,4.873,0,0,0-.5,2.4v3.46a5.466,5.466,0,0,0,.474,2.586,1.612,1.612,0,0,0,1.519.846,1.585,1.585,0,0,0,1.494-.811,5.335,5.335,0,0,0,.479-2.483ZM29.3,8.357,23.8,21H20.825L26.333,9.057h-7.07V6.781H29.3Z" transform="translate(23.139 119.467)" fill="#12263f"/>
        <path id="Trazado_112863" data-name="Trazado 112863" d="M17.729,15.121a7.2,7.2,0,0,1-1.221,4.512A4.261,4.261,0,0,1,12.934,21.2,4.291,4.291,0,0,1,9.38,19.662a6.992,6.992,0,0,1-1.26-4.395V12.65A7.109,7.109,0,0,1,9.355,8.129a4.293,4.293,0,0,1,3.56-1.543,4.3,4.3,0,0,1,3.555,1.528,6.97,6.97,0,0,1,1.26,4.39Zm-2.822-2.878a5.207,5.207,0,0,0-.483-2.576,1.634,1.634,0,0,0-1.509-.806,1.6,1.6,0,0,0-1.47.767,4.873,4.873,0,0,0-.5,2.4v3.46a5.466,5.466,0,0,0,.474,2.586,1.612,1.612,0,0,0,1.519.846,1.585,1.585,0,0,0,1.494-.811,5.335,5.335,0,0,0,.479-2.483ZM28.9,10.561a3.307,3.307,0,0,1-.518,1.836,3.725,3.725,0,0,1-1.426,1.279A4.124,4.124,0,0,1,28.6,15.048,3.52,3.52,0,0,1,29.2,17.1,3.727,3.727,0,0,1,27.915,20.1a5.229,5.229,0,0,1-3.506,1.1,5.253,5.253,0,0,1-3.516-1.1,3.718,3.718,0,0,1-1.3-2.988,3.542,3.542,0,0,1,.605-2.061,4.049,4.049,0,0,1,1.631-1.367A3.687,3.687,0,0,1,20.41,12.4a3.331,3.331,0,0,1-.513-1.836,3.685,3.685,0,0,1,1.211-2.9A4.768,4.768,0,0,1,24.4,6.586a4.8,4.8,0,0,1,3.286,1.069A3.671,3.671,0,0,1,28.9,10.561ZM26.372,16.9a2.047,2.047,0,0,0-.537-1.484,2.149,2.149,0,0,0-2.881,0,2.044,2.044,0,0,0-.537,1.489,2.042,2.042,0,0,0,.527,1.465,2.2,2.2,0,0,0,2.905.02A2.039,2.039,0,0,0,26.372,16.9Zm-.293-6.2a1.953,1.953,0,0,0-.439-1.333,1.788,1.788,0,0,0-2.471-.015,1.942,1.942,0,0,0-.439,1.348,2.041,2.041,0,0,0,.439,1.367,1.739,1.739,0,0,0,2.476,0A2.056,2.056,0,0,0,26.079,10.7Z" transform="translate(23.139 212.267)" fill="#12263f"/>
        <path id="Trazado_112864" data-name="Trazado 112864" d="M17.729,15.121a7.2,7.2,0,0,1-1.221,4.512A4.261,4.261,0,0,1,12.934,21.2,4.291,4.291,0,0,1,9.38,19.662a6.992,6.992,0,0,1-1.26-4.395V12.65A7.109,7.109,0,0,1,9.355,8.129a4.293,4.293,0,0,1,3.56-1.543,4.3,4.3,0,0,1,3.555,1.528,6.97,6.97,0,0,1,1.26,4.39Zm-2.822-2.878a5.207,5.207,0,0,0-.483-2.576,1.634,1.634,0,0,0-1.509-.806,1.6,1.6,0,0,0-1.47.767,4.873,4.873,0,0,0-.5,2.4v3.46a5.466,5.466,0,0,0,.474,2.586,1.612,1.612,0,0,0,1.519.846,1.585,1.585,0,0,0,1.494-.811,5.335,5.335,0,0,0,.479-2.483Zm11.328,3.073A3.564,3.564,0,0,1,23.657,16.4a3.811,3.811,0,0,1-3.018-1.294,5.114,5.114,0,0,1-1.133-3.491,5.447,5.447,0,0,1,.61-2.563,4.477,4.477,0,0,1,1.7-1.816,4.728,4.728,0,0,1,2.461-.649,4.522,4.522,0,0,1,2.5.7,4.623,4.623,0,0,1,1.7,2.021,7.258,7.258,0,0,1,.615,3.018v1.045a8.224,8.224,0,0,1-1.768,5.586,6.683,6.683,0,0,1-5.01,2.168l-.693.01V18.783l.625-.01Q25.932,18.607,26.235,15.316ZM24.35,14.242a1.974,1.974,0,0,0,1.177-.352,2.349,2.349,0,0,0,.747-.85V11.879a3.881,3.881,0,0,0-.547-2.227,1.7,1.7,0,0,0-1.465-.791,1.648,1.648,0,0,0-1.4.776,3.3,3.3,0,0,0-.547,1.948,3.212,3.212,0,0,0,.532,1.909A1.734,1.734,0,0,0,24.35,14.242Z" transform="translate(23.139 304)" fill="#12263f"/>
        <path id="Trazado_112865" data-name="Trazado 112865" d="M15.014,21H12.192V10.121L8.823,11.166V8.871l5.889-2.109h.3ZM29.2,15.121a7.2,7.2,0,0,1-1.221,4.512A4.261,4.261,0,0,1,24.409,21.2a4.291,4.291,0,0,1-3.555-1.533,6.992,6.992,0,0,1-1.26-4.395V12.65A7.109,7.109,0,0,1,20.83,8.129a4.293,4.293,0,0,1,3.56-1.543,4.3,4.3,0,0,1,3.555,1.528A6.97,6.97,0,0,1,29.2,12.5Zm-2.822-2.878A5.207,5.207,0,0,0,25.9,9.668a1.634,1.634,0,0,0-1.509-.806,1.6,1.6,0,0,0-1.47.767,4.873,4.873,0,0,0-.5,2.4v3.46a5.466,5.466,0,0,0,.474,2.586,1.612,1.612,0,0,0,1.519.846,1.585,1.585,0,0,0,1.494-.811,5.335,5.335,0,0,0,.479-2.483Z" transform="translate(23.139 395.733)" fill="#12263f"/>
      </g>
    </g>
  </g>
</svg>
