<svg xmlns="http://www.w3.org/2000/svg" xmlns:xlink="http://www.w3.org/1999/xlink" width="440" height="376.414" viewBox="0 0 440 376.414">
  <defs>
    <clipPath id="clip-path">
      <rect id="Rectángulo_7147" data-name="Rectángulo 7147" width="433.498" height="369.545" fill="none"/>
    </clipPath>
  </defs>
  <g id="Grupo_87881" data-name="Grupo 87881" transform="translate(-909 -1080.586)">
    <g id="Grupo_87879" data-name="Grupo 87879" transform="translate(915.503 1080.586)">
      <g id="Grupo_87878" data-name="Grupo 87878" clip-path="url(#clip-path)">
        <path id="Trazado_112856" data-name="Trazado 112856" d="M19.536,29.984s84.422.287,142.427-13.209V184.759s-47.38,41.063-67.767,75.52-33.6,93.9-33.6,93.9H19.536V16.775H161.963" transform="translate(-3.953 -3.394)" fill="none" stroke="#000" stroke-miterlimit="10" stroke-width="1"/>
        <path id="Trazado_112857" data-name="Trazado 112857" d="M172.379,227.37,71.015,396.789H172.379Z" transform="translate(-14.369 -46.006)" fill="none" stroke="#000" stroke-miterlimit="10" stroke-width="1"/>
        <path id="Trazado_112858" data-name="Trazado 112858" d="M114.9,272.776l-17.085-9.189L37.423,33.122" transform="translate(-7.572 -6.702)" fill="none" stroke="#000" stroke-miterlimit="10" stroke-width="1"/>
        <line id="Línea_215" data-name="Línea 215" x2="142.427" transform="translate(15.583 182.082)" fill="none" stroke="#000" stroke-miterlimit="10" stroke-width="1"/>
        <path id="Trazado_112859" data-name="Trazado 112859" d="M118.774,39.034V242.345l8.224-16.9" transform="translate(-24.032 -7.898)" fill="none" stroke="#000" stroke-miterlimit="10" stroke-width="1"/>
        <path id="Trazado_112860" data-name="Trazado 112860" d="M350.173,4.095s72.644,1.827,141.632,14.62V186.847s-35.179,37.212-62.593,80.056-38.377,88.989-38.377,88.989H350.173Z" transform="translate(-70.853 -0.829)" fill="none" stroke="#000" stroke-miterlimit="10" stroke-width="1"/>
        <line id="Línea_216" data-name="Línea 216" x2="141.632" transform="translate(279.32 18.344)" fill="none" stroke="#000" stroke-miterlimit="10" stroke-width="1"/>
        <path id="Trazado_112861" data-name="Trazado 112861" d="M502.12,233.2,401.15,402.248H502.12Z" transform="translate(-81.168 -47.186)" fill="none" stroke="#000" stroke-miterlimit="10" stroke-width="1"/>
        <line id="Línea_217" data-name="Línea 217" x2="10.957" y2="6.243" transform="translate(358.712 265.095)" fill="none" stroke="#000" stroke-miterlimit="10" stroke-width="1"/>
        <path id="Trazado_112862" data-name="Trazado 112862" d="M350.173,321.955s32.88-3.251,69.429,25.532" transform="translate(-70.853 -65.121)" fill="none" stroke="#000" stroke-miterlimit="10" stroke-width="1"/>
        <line id="Línea_218" data-name="Línea 218" x1="141.632" transform="translate(279.32 186.018)" fill="none" stroke="#000" stroke-miterlimit="10" stroke-width="1"/>
        <path id="Trazado_112863" data-name="Trazado 112863" d="M444.465,38.539V240.866l7-16.584" transform="translate(-89.932 -7.798)" fill="none" stroke="#000" stroke-miterlimit="10" stroke-width="1"/>
        <path id="Trazado_112864" data-name="Trazado 112864" d="M110.593,140.194h-3.57v3.756H105.9v-8.506h5.27v.917h-4.149v2.915h3.57Z" transform="translate(-21.428 -27.406)"/>
        <path id="Trazado_112865" data-name="Trazado 112865" d="M117.311,140.51h-2v3.441h-1.127v-8.506H117a3.34,3.34,0,0,1,2.213.654,2.356,2.356,0,0,1,.773,1.9,2.286,2.286,0,0,1-.429,1.385,2.569,2.569,0,0,1-1.195.882l2,3.61v.07h-1.2Zm-2-.917h1.724a1.946,1.946,0,0,0,1.329-.433,1.466,1.466,0,0,0,.494-1.159,1.544,1.544,0,0,0-.471-1.212,1.992,1.992,0,0,0-1.358-.427h-1.717Z" transform="translate(-23.104 -27.406)"/>
        <path id="Trazado_112866" data-name="Trazado 112866" d="M129.966,143.951h-1.127l-4.283-6.555v6.555h-1.128v-8.506h1.128l4.294,6.584v-6.584h1.116Z" transform="translate(-24.974 -27.406)"/>
        <path id="Trazado_112867" data-name="Trazado 112867" d="M112.768,153.142h.812a1.783,1.783,0,0,0,1.2-.4,1.349,1.349,0,0,0,.438-1.058,1.319,1.319,0,0,0-1.489-1.5,1.548,1.548,0,0,0-1.119.4,1.4,1.4,0,0,0-.418,1.059h-1.08a2.167,2.167,0,0,1,.739-1.678,3.042,3.042,0,0,1,3.765-.034,2.3,2.3,0,0,1,.684,1.771,1.866,1.866,0,0,1-.361,1.075,2.168,2.168,0,0,1-.978.777,2.083,2.083,0,0,1,1.083.736,2.041,2.041,0,0,1,.383,1.256,2.32,2.32,0,0,1-.748,1.817,2.8,2.8,0,0,1-1.945.672,2.878,2.878,0,0,1-1.949-.648,2.153,2.153,0,0,1-.751-1.712h1.086a1.385,1.385,0,0,0,.439,1.074,1.665,1.665,0,0,0,1.174.4,1.633,1.633,0,0,0,1.2-.409,1.576,1.576,0,0,0,.415-1.174,1.428,1.428,0,0,0-.455-1.139,1.987,1.987,0,0,0-1.315-.409h-.812Z" transform="translate(-22.467 -30.209)"/>
        <path id="Trazado_112868" data-name="Trazado 112868" d="M125.191,157.922h-5.572v-.777l2.944-3.272a6.963,6.963,0,0,0,.9-1.206,2.021,2.021,0,0,0,.248-.961,1.53,1.53,0,0,0-.4-1.093,1.414,1.414,0,0,0-1.075-.426,1.669,1.669,0,0,0-1.253.459,1.749,1.749,0,0,0-.448,1.276h-1.08a2.506,2.506,0,0,1,.756-1.9,2.8,2.8,0,0,1,2.024-.725,2.694,2.694,0,0,1,1.875.623,2.121,2.121,0,0,1,.689,1.656,4.865,4.865,0,0,1-1.6,2.991l-2.279,2.471h4.271Z" transform="translate(-24.17 -30.209)"/>
        <path id="Trazado_112869" data-name="Trazado 112869" d="M104.682,168.221a9.046,9.046,0,0,1,.353-2.536,7.361,7.361,0,0,1,1.055-2.208,4.481,4.481,0,0,1,1.455-1.4l.221.712a4.657,4.657,0,0,0-1.4,2,8.639,8.639,0,0,0-.6,3.009l-.006.5a8.69,8.69,0,0,0,.825,3.914,4.669,4.669,0,0,0,1.179,1.554l-.221.66a4.621,4.621,0,0,1-1.484-1.449,8.119,8.119,0,0,1-1.379-4.75" transform="translate(-21.181 -32.794)"/>
        <path id="Trazado_112870" data-name="Trazado 112870" d="M113.345,171.941H112.26v-7.2l-2.18.8v-.982l3.1-1.162h.169Z" transform="translate(-22.273 -33.061)"/>
        <path id="Trazado_112871" data-name="Trazado 112871" d="M118.083,175.479l-.613-.42a2.816,2.816,0,0,0,.572-1.578v-.976H119.1v.847a2.666,2.666,0,0,1-.289,1.18,2.764,2.764,0,0,1-.727.947" transform="translate(-23.769 -34.904)"/>
        <path id="Trazado_112872" data-name="Trazado 112872" d="M124.713,171.941h-1.086v-7.2l-2.18.8v-.982l3.1-1.162h.169Z" transform="translate(-24.573 -33.061)"/>
        <path id="Trazado_112873" data-name="Trazado 112873" d="M131.993,168.279a9.051,9.051,0,0,1-.341,2.5,7.377,7.377,0,0,1-1.046,2.206,4.586,4.586,0,0,1-1.475,1.437l-.228-.66a4.693,4.693,0,0,0,1.445-2.141,9.259,9.259,0,0,0,.559-3.223v-.187a9.614,9.614,0,0,0-.258-2.281,7.681,7.681,0,0,0-.715-1.89,4.38,4.38,0,0,0-1.031-1.3l.228-.66A4.56,4.56,0,0,1,130.6,163.5a7.415,7.415,0,0,1,1.045,2.2,9.234,9.234,0,0,1,.348,2.576" transform="translate(-26.082 -32.794)"/>
        <path id="Trazado_112874" data-name="Trazado 112874" d="M437.417,136.362h-2.734v7.589h-1.115v-7.589h-2.729v-.917h6.578Z" transform="translate(-87.175 -27.406)"/>
        <path id="Trazado_112875" data-name="Trazado 112875" d="M443.786,140.51h-2v3.441H440.66v-8.506h2.817a3.332,3.332,0,0,1,2.211.654,2.357,2.357,0,0,1,.774,1.9,2.286,2.286,0,0,1-.43,1.385,2.558,2.558,0,0,1-1.194.882l2,3.61v.07h-1.2Zm-2-.917h1.723a1.941,1.941,0,0,0,1.329-.433,1.464,1.464,0,0,0,.494-1.159,1.542,1.542,0,0,0-.471-1.212,1.988,1.988,0,0,0-1.358-.427h-1.717Z" transform="translate(-89.162 -27.406)"/>
        <path id="Trazado_112876" data-name="Trazado 112876" d="M454.392,141.725h-3.565l-.8,2.225h-1.157l3.248-8.506h.982l3.254,8.506H455.2Zm-3.225-.917h2.892l-1.449-3.979Z" transform="translate(-90.824 -27.405)"/>
        <path id="Trazado_112877" data-name="Trazado 112877" d="M438.459,153.142h.813a1.781,1.781,0,0,0,1.2-.4,1.346,1.346,0,0,0,.438-1.058,1.319,1.319,0,0,0-1.489-1.5,1.546,1.546,0,0,0-1.118.4,1.4,1.4,0,0,0-.418,1.059h-1.081a2.167,2.167,0,0,1,.739-1.678,2.69,2.69,0,0,1,1.879-.669,2.661,2.661,0,0,1,1.886.636,2.3,2.3,0,0,1,.684,1.771,1.866,1.866,0,0,1-.361,1.075,2.164,2.164,0,0,1-.978.777,2.088,2.088,0,0,1,1.084.736,2.041,2.041,0,0,1,.383,1.256,2.32,2.32,0,0,1-.748,1.817,2.8,2.8,0,0,1-1.945.672,2.879,2.879,0,0,1-1.949-.648,2.153,2.153,0,0,1-.751-1.712h1.087a1.388,1.388,0,0,0,.438,1.074,1.669,1.669,0,0,0,1.175.4,1.635,1.635,0,0,0,1.2-.409,1.579,1.579,0,0,0,.415-1.174,1.429,1.429,0,0,0-.456-1.139,1.986,1.986,0,0,0-1.314-.409h-.813Z" transform="translate(-88.367 -30.209)"/>
        <path id="Trazado_112878" data-name="Trazado 112878" d="M450.884,157.922h-5.573v-.777l2.944-3.272a6.965,6.965,0,0,0,.9-1.206,2.013,2.013,0,0,0,.249-.961,1.527,1.527,0,0,0-.4-1.093,1.412,1.412,0,0,0-1.075-.426,1.668,1.668,0,0,0-1.252.459,1.746,1.746,0,0,0-.447,1.276h-1.081a2.507,2.507,0,0,1,.757-1.9,2.8,2.8,0,0,1,2.024-.725,2.7,2.7,0,0,1,1.876.623,2.121,2.121,0,0,1,.688,1.656,4.863,4.863,0,0,1-1.6,2.991l-2.279,2.471h4.271Z" transform="translate(-90.07 -30.209)"/>
        <path id="Trazado_112879" data-name="Trazado 112879" d="M430.374,168.221a9.045,9.045,0,0,1,.353-2.536,7.38,7.38,0,0,1,1.055-2.208,4.49,4.49,0,0,1,1.455-1.4l.222.712a4.658,4.658,0,0,0-1.4,2,8.676,8.676,0,0,0-.6,3.009l-.006.5a8.7,8.7,0,0,0,.825,3.914,4.671,4.671,0,0,0,1.18,1.554l-.222.66a4.62,4.62,0,0,1-1.484-1.449,8.119,8.119,0,0,1-1.379-4.75" transform="translate(-87.081 -32.794)"/>
        <path id="Trazado_112880" data-name="Trazado 112880" d="M439.038,171.941h-1.086v-7.2l-2.18.8v-.982l3.1-1.162h.169Z" transform="translate(-88.173 -33.061)"/>
        <path id="Trazado_112881" data-name="Trazado 112881" d="M443.776,175.479l-.614-.42a2.817,2.817,0,0,0,.573-1.578v-.976h1.057v.847a2.677,2.677,0,0,1-.288,1.18,2.776,2.776,0,0,1-.727.947" transform="translate(-89.668 -34.904)"/>
        <path id="Trazado_112882" data-name="Trazado 112882" d="M450.4,171.941h-1.086v-7.2l-2.18.8v-.982l3.1-1.162h.169Z" transform="translate(-90.473 -33.061)"/>
        <path id="Trazado_112883" data-name="Trazado 112883" d="M457.686,168.279a9.055,9.055,0,0,1-.342,2.5,7.377,7.377,0,0,1-1.045,2.206,4.587,4.587,0,0,1-1.476,1.437l-.227-.66a4.7,4.7,0,0,0,1.445-2.141,9.259,9.259,0,0,0,.558-3.223v-.187a9.616,9.616,0,0,0-.258-2.281,7.682,7.682,0,0,0-.715-1.89,4.393,4.393,0,0,0-1.031-1.3l.227-.66a4.559,4.559,0,0,1,1.469,1.425,7.376,7.376,0,0,1,1.045,2.2,9.233,9.233,0,0,1,.349,2.576" transform="translate(-91.982 -32.794)"/>
        <path id="Trazado_112884" data-name="Trazado 112884" d="M540.512,22.3h-3.44v2.813h4v.857h-5.044V18.03h4.989v.857h-3.942v2.557h3.44Z" transform="translate(-108.458 -3.648)"/>
        <path id="Trazado_112885" data-name="Trazado 112885" d="M340.834,0h1.051V5.622A2.327,2.327,0,0,1,341.2,7.4a2.554,2.554,0,0,1-1.824.644,2.628,2.628,0,0,1-1.843-.605,2.189,2.189,0,0,1-.659-1.7h1.047a1.459,1.459,0,0,0,.373,1.063,1.448,1.448,0,0,0,1.082.382,1.4,1.4,0,0,0,1.05-.409,1.586,1.586,0,0,0,.407-1.145Z" transform="translate(-68.163)"/>
        <path id="Trazado_112886" data-name="Trazado 112886" d="M337.651,27.026h-3.325l-.747,2.078H332.5l3.032-7.939h.917l3.037,7.939H338.41Zm-3.01-.856h2.7l-1.353-3.713Z" transform="translate(-67.277 -4.282)"/>
        <path id="Trazado_112887" data-name="Trazado 112887" d="M208.725,12.639h1.1v.823h-1.1v1.843h-1.014V13.462H204.1v-.594l3.555-5.5h1.075Zm-3.485,0h2.471V8.745l-.12.219Z" transform="translate(-41.296 -1.49)"/>
        <path id="Trazado_112888" data-name="Trazado 112888" d="M12.3,16.886H11.281V10.162l-2.034.747V9.993l2.89-1.085H12.3Z" transform="translate(-1.871 -1.803)"/>
        <path id="Trazado_112889" data-name="Trazado 112889" d="M12.749,35.086a2.471,2.471,0,0,1-.756.605,2.05,2.05,0,0,1-.962.229,2.116,2.116,0,0,1-1.2-.338,2.2,2.2,0,0,1-.787-.952,3.235,3.235,0,0,1-.278-1.355,3.29,3.29,0,0,1,.3-1.433,2.216,2.216,0,0,1,.858-.976,2.446,2.446,0,0,1,1.3-.338,2.219,2.219,0,0,1,1.857.881,3.838,3.838,0,0,1,.679,2.4v.3a5.129,5.129,0,0,1-.916,3.383,3.522,3.522,0,0,1-2.765,1.094h-.2v-.856H10.1a2.774,2.774,0,0,0,1.919-.651,2.794,2.794,0,0,0,.731-1.989m-1.554,0a1.56,1.56,0,0,0,.935-.311,1.839,1.839,0,0,0,.625-.769v-.4a2.789,2.789,0,0,0-.431-1.614,1.318,1.318,0,0,0-2.16-.112,2.1,2.1,0,0,0-.4,1.344,2.193,2.193,0,0,0,.389,1.338,1.237,1.237,0,0,0,1.046.526" transform="translate(-1.774 -6.177)"/>
        <path id="Trazado_112890" data-name="Trazado 112890" d="M14.076,230.677h-5.2v-.725l2.748-3.053a6.519,6.519,0,0,0,.842-1.126,1.868,1.868,0,0,0,.233-.9,1.427,1.427,0,0,0-.376-1.02,1.32,1.32,0,0,0-1-.4,1.559,1.559,0,0,0-1.17.428,1.636,1.636,0,0,0-.416,1.191H8.721a2.341,2.341,0,0,1,.706-1.772,2.62,2.62,0,0,1,1.89-.676,2.516,2.516,0,0,1,1.75.581,1.985,1.985,0,0,1,.644,1.546,4.543,4.543,0,0,1-1.494,2.792l-2.127,2.307h3.986Z" transform="translate(-1.765 -45.046)"/>
        <path id="Trazado_112891" data-name="Trazado 112891" d="M3.048,325.385H2.034v-6.723L0,319.409v-.917l2.89-1.085h.158Z" transform="translate(0 -64.223)"/>
        <path id="Trazado_112892" data-name="Trazado 112892" d="M10.909,325.385H9.9v-6.723l-2.034.747v-.917l2.89-1.085h.158Z" transform="translate(-1.591 -64.223)"/>
        <path id="Trazado_112893" data-name="Trazado 112893" d="M101.94,315.268a1.837,1.837,0,0,1-.314,1.058,2.135,2.135,0,0,1-.848.726,2.277,2.277,0,0,1,.984.779,1.963,1.963,0,0,1,.363,1.161,2.074,2.074,0,0,1-.7,1.642,3.046,3.046,0,0,1-3.664,0,2.081,2.081,0,0,1-.689-1.638,2.021,2.021,0,0,1,.351-1.161,2.188,2.188,0,0,1,.973-.785,2.087,2.087,0,0,1-.834-.725,1.866,1.866,0,0,1-.306-1.053,2.052,2.052,0,0,1,.644-1.592,2.732,2.732,0,0,1,3.388,0,2.049,2.049,0,0,1,.647,1.592m-.825,3.7a1.46,1.46,0,0,0-.422-1.085,1.5,1.5,0,0,0-1.1-.42,1.42,1.42,0,0,0-1.5,1.505,1.41,1.41,0,0,0,.4,1.063,1.792,1.792,0,0,0,2.227,0,1.408,1.408,0,0,0,.4-1.061M99.6,313.916a1.3,1.3,0,0,0-.962.368,1.523,1.523,0,0,0-.006,1.98,1.442,1.442,0,0,0,1.936,0,1.494,1.494,0,0,0-.014-1.965,1.284,1.284,0,0,0-.955-.382" transform="translate(-19.642 -63.349)"/>
        <path id="Trazado_112894" data-name="Trazado 112894" d="M146.087,334.681l-3.288,7.372h-1.058l3.277-7.11h-4.3v-.829h5.366Z" transform="translate(-28.473 -67.604)"/>
        <path id="Trazado_112895" data-name="Trazado 112895" d="M70.28,446.229v.856h-.185a2.657,2.657,0,0,0-1.876.7,2.908,2.908,0,0,0-.807,1.9,2.155,2.155,0,0,1,1.713-.72,2.058,2.058,0,0,1,1.655.731,3.2,3.2,0,0,1-.049,3.849,2.3,2.3,0,0,1-1.792.736,2.265,2.265,0,0,1-1.848-.875,3.471,3.471,0,0,1-.709-2.255v-.387a5.226,5.226,0,0,1,.936-3.351,3.437,3.437,0,0,1,2.784-1.185Zm-1.325,3.577A1.7,1.7,0,0,0,67.4,450.9v.371a2.6,2.6,0,0,0,.442,1.581,1.322,1.322,0,0,0,1.1.6,1.283,1.283,0,0,0,1.072-.5A2.409,2.409,0,0,0,70,450.31a1.269,1.269,0,0,0-1.05-.5" transform="translate(-13.431 -90.289)"/>
        <path id="Trazado_112896" data-name="Trazado 112896" d="M7.9,436.4h.758a1.664,1.664,0,0,0,1.123-.377,1.255,1.255,0,0,0,.409-.987,1.232,1.232,0,0,0-1.39-1.4,1.447,1.447,0,0,0-1.044.373,1.307,1.307,0,0,0-.39.99H6.355a2.024,2.024,0,0,1,.691-1.567,2.51,2.51,0,0,1,1.752-.625,2.482,2.482,0,0,1,1.761.594,2.148,2.148,0,0,1,.638,1.652,1.745,1.745,0,0,1-.335,1,2.016,2.016,0,0,1-.914.725,1.959,1.959,0,0,1,1.012.688,1.91,1.91,0,0,1,.357,1.172,2.164,2.164,0,0,1-.7,1.7,2.613,2.613,0,0,1-1.815.628,2.682,2.682,0,0,1-1.819-.605,2.01,2.01,0,0,1-.7-1.6H7.3a1.3,1.3,0,0,0,.409,1,1.557,1.557,0,0,0,1.1.376,1.524,1.524,0,0,0,1.118-.381,1.469,1.469,0,0,0,.387-1.1,1.333,1.333,0,0,0-.425-1.063,1.855,1.855,0,0,0-1.227-.382H7.9Z" transform="translate(-1.272 -87.574)"/>
        <path id="Trazado_112897" data-name="Trazado 112897" d="M206.321,226.724l.4-3.959h4.067v.932h-3.211l-.24,2.165a2.563,2.563,0,0,1,1.325-.344,2.193,2.193,0,0,1,1.724.717,2.81,2.81,0,0,1,.637,1.938,2.713,2.713,0,0,1-.663,1.934,2.413,2.413,0,0,1-1.851.706,2.509,2.509,0,0,1-1.717-.583,2.326,2.326,0,0,1-.758-1.614h.954a1.6,1.6,0,0,0,.485,1.028,1.51,1.51,0,0,0,1.036.346,1.361,1.361,0,0,0,1.1-.48,2,2,0,0,0,.4-1.325,1.843,1.843,0,0,0-.434-1.279,1.474,1.474,0,0,0-1.153-.483,1.664,1.664,0,0,0-1.036.289l-.267.219Z" transform="translate(-41.689 -45.074)"/>
        <path id="Trazado_112898" data-name="Trazado 112898" d="M33.772,27.8H32.758V21.072l-2.034.747V20.9l2.89-1.085h.158Z" transform="translate(-6.217 -4.01)"/>
        <path id="Trazado_112899" data-name="Trazado 112899" d="M43.221,24.391a4.613,4.613,0,0,1-.605,2.634,2.516,2.516,0,0,1-3.774.019,4.393,4.393,0,0,1-.633-2.517V23.18a4.511,4.511,0,0,1,.605-2.6,2.56,2.56,0,0,1,3.784-.03,4.354,4.354,0,0,1,.622,2.533Zm-1.009-1.379a3.692,3.692,0,0,0-.36-1.867,1.239,1.239,0,0,0-1.14-.586,1.223,1.223,0,0,0-1.129.583,3.621,3.621,0,0,0-.365,1.794v1.614a3.748,3.748,0,0,0,.374,1.9,1.235,1.235,0,0,0,1.131.613,1.219,1.219,0,0,0,1.11-.578,3.62,3.62,0,0,0,.379-1.821Z" transform="translate(-7.731 -3.992)"/>
        <path id="Trazado_112900" data-name="Trazado 112900" d="M334.471,236.491v-7.939h2.595a3.014,3.014,0,0,1,1.945.534,1.927,1.927,0,0,1,.651,1.581,1.619,1.619,0,0,1-.316.984,2.051,2.051,0,0,1-.861.663A1.84,1.84,0,0,1,339.5,233a1.964,1.964,0,0,1,.373,1.2,2.127,2.127,0,0,1-.692,1.68,2.865,2.865,0,0,1-1.957.61Zm1.047-4.553H337.1a1.652,1.652,0,0,0,1.1-.344,1.154,1.154,0,0,0,.412-.935,1.131,1.131,0,0,0-.382-.953,1.872,1.872,0,0,0-1.161-.3h-1.548Zm0,.84v2.857h1.729a1.664,1.664,0,0,0,1.153-.379,1.332,1.332,0,0,0,.423-1.044q0-1.435-1.559-1.434Z" transform="translate(-67.676 -46.245)"/>
        <path id="Trazado_112901" data-name="Trazado 112901" d="M541.673,235.434h-3.332v3.507h-1.047V231h4.918v.857h-3.872v2.721h3.332Z" transform="translate(-108.715 -46.74)"/>
        <path id="Trazado_112902" data-name="Trazado 112902" d="M478.983,350.289H477.93v-3.67h-4v3.67h-1.047V342.35h1.047v3.413h4V342.35h1.053Z" transform="translate(-95.682 -69.27)"/>
        <path id="Trazado_112903" data-name="Trazado 112903" d="M336.457,320.144l-.971,1.009v2.683H334.44V315.9h1.047v3.926l3.529-3.926h1.265l-3.125,3.506,3.37,4.433H339.27Z" transform="translate(-67.67 -63.918)"/>
        <rect id="Rectángulo_7145" data-name="Rectángulo 7145" width="1.047" height="7.939" transform="translate(351.809 257.16)"/>
        <path id="Trazado_112904" data-name="Trazado 112904" d="M444.507,324.517l-.573-.392a2.619,2.619,0,0,0,.523-1.494v-.786h1v.709a2.693,2.693,0,0,1-.948,1.963" transform="translate(-89.825 -65.121)"/>
        <rect id="Rectángulo_7146" data-name="Rectángulo 7146" width="1.047" height="7.939" transform="translate(340.528 280.713)"/>
        <path id="Trazado_112905" data-name="Trazado 112905" d="M400.668,460.066a2.42,2.42,0,0,1-1.126.864,4.538,4.538,0,0,1-1.682.286,3.266,3.266,0,0,1-1.723-.455,3.04,3.04,0,0,1-1.165-1.3,4.482,4.482,0,0,1-.422-1.946v-.693a4.178,4.178,0,0,1,.837-2.781,2.917,2.917,0,0,1,2.353-.987,3.013,3.013,0,0,1,2,.635,2.771,2.771,0,0,1,.927,1.8h-1.047a1.732,1.732,0,0,0-1.876-1.581,1.854,1.854,0,0,0-1.6.739,3.609,3.609,0,0,0-.548,2.142v.65a3.378,3.378,0,0,0,.611,2.125,1.977,1.977,0,0,0,1.652.789,3.68,3.68,0,0,0,1.031-.13,1.6,1.6,0,0,0,.731-.441V458.01h-1.837v-.856h2.879Z" transform="translate(-79.832 -91.671)"/>
        <path id="Trazado_112906" data-name="Trazado 112906" d="M340.043,446a2.921,2.921,0,0,1-.93,1.944,3.044,3.044,0,0,1-2.079.684,2.8,2.8,0,0,1-2.255-1.009,4.057,4.057,0,0,1-.848-2.7v-.763a4.528,4.528,0,0,1,.395-1.946,2.956,2.956,0,0,1,1.121-1.29,3.122,3.122,0,0,1,1.68-.45,2.867,2.867,0,0,1,2.028.707,2.96,2.96,0,0,1,.889,1.954h-1.052a2.29,2.29,0,0,0-.592-1.378,1.791,1.791,0,0,0-1.273-.426,1.872,1.872,0,0,0-1.573.742,3.408,3.408,0,0,0-.57,2.112v.77a3.5,3.5,0,0,0,.54,2.057,1.746,1.746,0,0,0,1.511.764,2.008,2.008,0,0,0,1.338-.4,2.189,2.189,0,0,0,.62-1.377Z" transform="translate(-67.567 -89.124)"/>
      </g>
    </g>
    <g id="Elipse_6285" data-name="Elipse 6285" transform="translate(909 1094)" fill="none" stroke="#bf3976" stroke-width="2">
      <circle cx="15" cy="15" r="15" stroke="none"/>
      <circle cx="15" cy="15" r="14" fill="none"/>
    </g>
    <g id="Elipse_6292" data-name="Elipse 6292" transform="translate(931 1084)" fill="none" stroke="#bf3976" stroke-width="2">
      <circle cx="15" cy="15" r="15" stroke="none"/>
      <circle cx="15" cy="15" r="14" fill="none"/>
    </g>
    <g id="Elipse_6286" data-name="Elipse 6286" transform="translate(909 1322)" fill="none" stroke="#bf3976" stroke-width="2">
      <circle cx="15" cy="15" r="15" stroke="none"/>
      <circle cx="15" cy="15" r="14" fill="none"/>
    </g>
    <g id="Elipse_6289" data-name="Elipse 6289" transform="translate(1015 1334)" fill="none" stroke="#bf3976" stroke-width="2">
      <circle cx="15" cy="15" r="15" stroke="none"/>
      <circle cx="15" cy="15" r="14" fill="none"/>
    </g>
    <g id="Elipse_6293" data-name="Elipse 6293" transform="translate(1218 1427)" fill="none" stroke="#bf3976" stroke-width="2">
      <circle cx="15" cy="15" r="15" stroke="none"/>
      <circle cx="15" cy="15" r="14" fill="none"/>
    </g>
    <g id="Elipse_6290" data-name="Elipse 6290" transform="translate(957 1422)" fill="none" stroke="#bf3976" stroke-width="2">
      <circle cx="15" cy="15" r="15" stroke="none"/>
      <circle cx="15" cy="15" r="14" fill="none"/>
    </g>
    <g id="Elipse_6288" data-name="Elipse 6288" transform="translate(982 1319)" fill="none" stroke="#bf3976" stroke-width="2">
      <circle cx="15" cy="15" r="15" stroke="none"/>
      <circle cx="15" cy="15" r="14" fill="none"/>
    </g>
  </g>
</svg>
