<svg id="Grupo_87776" data-name="Grupo 87776" xmlns="http://www.w3.org/2000/svg" xmlns:xlink="http://www.w3.org/1999/xlink" width="662.349" height="313.619" viewBox="0 0 662.349 313.619">
  <defs>
    <clipPath id="clip-path">
      <rect id="Rectángulo_6997" data-name="Rectángulo 6997" width="662.349" height="313.619" fill="none"/>
    </clipPath>
  </defs>
  <g id="Grupo_87775" data-name="Grupo 87775" clip-path="url(#clip-path)">
    <path id="Trazado_112159" data-name="Trazado 112159" d="M582.172,105.306h.882a1.934,1.934,0,0,0,1.308-.438,1.464,1.464,0,0,0,.476-1.149,1.434,1.434,0,0,0-1.619-1.625,1.682,1.682,0,0,0-1.215.435,1.52,1.52,0,0,0-.454,1.152h-1.174a2.356,2.356,0,0,1,.8-1.825,3.3,3.3,0,0,1,4.091-.035,2.5,2.5,0,0,1,.742,1.923,2.029,2.029,0,0,1-.39,1.168,2.361,2.361,0,0,1-1.063.845,2.265,2.265,0,0,1,1.177.8,2.226,2.226,0,0,1,.416,1.365,2.518,2.518,0,0,1-.813,1.974,3.039,3.039,0,0,1-2.113.73,3.124,3.124,0,0,1-2.117-.7,2.338,2.338,0,0,1-.816-1.86h1.181a1.508,1.508,0,0,0,.476,1.168,1.811,1.811,0,0,0,1.276.438,1.776,1.776,0,0,0,1.3-.444,1.716,1.716,0,0,0,.451-1.276,1.553,1.553,0,0,0-.5-1.238,2.163,2.163,0,0,0-1.429-.445h-.882Z"/>
    <path id="Trazado_112160" data-name="Trazado 112160" d="M505.54,313.619c-86.465,0-156.81-70.345-156.81-156.81S419.075,0,505.54,0,662.349,70.344,662.349,156.809s-70.344,156.81-156.809,156.81M505.54.75c-86.052,0-156.06,70.008-156.06,156.059s70.008,156.06,156.06,156.06S661.6,242.861,661.6,156.809,591.591.75,505.54.75"/>
    <path id="Trazado_112161" data-name="Trazado 112161" d="M505.54,262.59A105.78,105.78,0,1,1,611.32,156.809,105.9,105.9,0,0,1,505.54,262.59m0-210.811a105.03,105.03,0,1,0,105.03,105.03A105.149,105.149,0,0,0,505.54,51.779"/>
    <path id="Trazado_112162" data-name="Trazado 112162" d="M354.727,196.214l-.341-.668c37.32-19.061,76.437-30.922,116.263-35.254a326.814,326.814,0,0,1,96.25,3.917c54.5,10.327,89.471,31.141,89.818,31.35l-.387.642c-.346-.209-35.227-20.962-89.6-31.26-50.172-9.5-127.681-11.792-212,31.273"/>
    <path id="Trazado_112163" data-name="Trazado 112163" d="M505.486,157.183A322.12,322.12,0,0,1,470.65,155.3c-39.828-4.332-78.944-16.193-116.263-35.254l.341-.668c84.331,43.073,161.851,40.776,212.031,31.269,54.367-10.3,89.225-31.048,89.572-31.256l.385.643c-.346.209-35.319,21.022-89.817,31.35a329.854,329.854,0,0,1-61.413,5.8"/>
    <path id="Trazado_112164" data-name="Trazado 112164" d="M536.522,222.992V78.832h1v140.3l6.623-11.934.874.484Z"/>
    <rect id="Rectángulo_6995" data-name="Rectángulo 6995" width="0.75" height="312.869" transform="translate(505.165 0.375)"/>
    <path id="Trazado_112165" data-name="Trazado 112165" d="M553.751,107.566a3.4,3.4,0,0,1-1.082,2.263,3.548,3.548,0,0,1-2.422.8,3.259,3.259,0,0,1-2.625-1.174,4.727,4.727,0,0,1-.986-3.143v-.889a5.256,5.256,0,0,1,.46-2.265,3.44,3.44,0,0,1,1.3-1.5,3.638,3.638,0,0,1,1.956-.524,3.338,3.338,0,0,1,2.361.823,3.44,3.44,0,0,1,1.035,2.275h-1.225a2.659,2.659,0,0,0-.689-1.6,2.086,2.086,0,0,0-1.482-.5,2.182,2.182,0,0,0-1.832.864,3.967,3.967,0,0,0-.663,2.459v.9a4.072,4.072,0,0,0,.629,2.4,2.029,2.029,0,0,0,1.758.889,2.354,2.354,0,0,0,1.559-.46,2.561,2.561,0,0,0,.72-1.6Z"/>
    <path id="Trazado_112166" data-name="Trazado 112166" d="M554.918,107a4.048,4.048,0,0,1,.4-1.814,2.951,2.951,0,0,1,1.1-1.244,3,3,0,0,1,1.616-.439,2.9,2.9,0,0,1,2.269.972,3.735,3.735,0,0,1,.866,2.583v.083a4.092,4.092,0,0,1-.384,1.8,2.909,2.909,0,0,1-1.1,1.241,3.043,3.043,0,0,1-1.641.444,2.892,2.892,0,0,1-2.262-.97,3.716,3.716,0,0,1-.867-2.572Zm1.18.141a2.938,2.938,0,0,0,.53,1.834,1.8,1.8,0,0,0,2.841-.01A3.208,3.208,0,0,0,560,107a2.931,2.931,0,0,0-.537-1.831,1.7,1.7,0,0,0-1.424-.7,1.687,1.687,0,0,0-1.4.693,3.188,3.188,0,0,0-.533,1.98"/>
    <path id="Trazado_112167" data-name="Trazado 112167" d="M568.445,107.141a4.1,4.1,0,0,1-.718,2.525,2.3,2.3,0,0,1-1.941.959,2.52,2.52,0,0,1-1.969-.793v3.307h-1.174V103.63h1.072l.058.762a2.418,2.418,0,0,1,1.993-.889,2.344,2.344,0,0,1,1.958.933,4.156,4.156,0,0,1,.721,2.6Zm-1.175-.134a3.038,3.038,0,0,0-.494-1.835,1.6,1.6,0,0,0-1.36-.672,1.726,1.726,0,0,0-1.6.945v3.282a1.728,1.728,0,0,0,1.613.939,1.584,1.584,0,0,0,1.342-.669,3.313,3.313,0,0,0,.5-1.99"/>
    <path id="Trazado_112168" data-name="Trazado 112168" d="M574.176,110.5a2.487,2.487,0,0,1-.165-.724,2.619,2.619,0,0,1-1.955.85,2.424,2.424,0,0,1-1.666-.574,1.859,1.859,0,0,1-.651-1.457,1.941,1.941,0,0,1,.816-1.666,3.852,3.852,0,0,1,2.295-.594h1.143v-.539a1.313,1.313,0,0,0-.37-.981,1.477,1.477,0,0,0-1.084-.364,1.715,1.715,0,0,0-1.054.316.939.939,0,0,0-.426.769h-1.18a1.614,1.614,0,0,1,.365-.993,2.481,2.481,0,0,1,.99-.759,3.319,3.319,0,0,1,1.374-.28,2.717,2.717,0,0,1,1.86.594,2.14,2.14,0,0,1,.7,1.634v3.162a3.858,3.858,0,0,0,.242,1.5v.1Zm-1.949-.9a2.068,2.068,0,0,0,1.048-.286,1.743,1.743,0,0,0,.718-.743v-1.409h-.921q-2.159,0-2.158,1.263a1.069,1.069,0,0,0,.368.863,1.409,1.409,0,0,0,.945.312"/>
    <path id="Trazado_112169" data-name="Trazado 112169" d="M550.506,124.5h-1.18v-7.826l-2.368.869v-1.066l3.364-1.264h.184Z"/>
    <path id="Trazado_112170" data-name="Trazado 112170" d="M559.743,120.556a5.387,5.387,0,0,1-.7,3.066,2.928,2.928,0,0,1-4.393.022,5.092,5.092,0,0,1-.736-2.929v-1.569a5.249,5.249,0,0,1,.7-3.027,2.981,2.981,0,0,1,4.4-.035,5.069,5.069,0,0,1,.724,2.949Zm-1.175-1.606a4.309,4.309,0,0,0-.418-2.174,1.442,1.442,0,0,0-1.327-.682,1.422,1.422,0,0,0-1.314.679,4.2,4.2,0,0,0-.425,2.088v1.879a4.37,4.37,0,0,0,.434,2.212,1.439,1.439,0,0,0,1.318.714,1.421,1.421,0,0,0,1.292-.672,4.216,4.216,0,0,0,.44-2.121Z"/>
    <path id="Trazado_112171" data-name="Trazado 112171" d="M546.723,134.746a9.81,9.81,0,0,1,.385-2.754,7.987,7.987,0,0,1,1.145-2.4,4.881,4.881,0,0,1,1.581-1.524l.241.776a5.049,5.049,0,0,0-1.52,2.17,9.4,9.4,0,0,0-.65,3.269l-.007.539a9.459,9.459,0,0,0,.9,4.254,5.094,5.094,0,0,0,1.282,1.688l-.241.717a5.041,5.041,0,0,1-1.613-1.574,8.827,8.827,0,0,1-1.5-5.161"/>
    <path id="Trazado_112172" data-name="Trazado 112172" d="M554.95,138.5h-1.18v-7.826l-2.368.869v-1.066l3.364-1.264h.184Z"/>
    <path id="Trazado_112173" data-name="Trazado 112173" d="M561.222,134.811a9.8,9.8,0,0,1-.372,2.713,8.009,8.009,0,0,1-1.136,2.4,4.979,4.979,0,0,1-1.6,1.562l-.247-.718a5.105,5.105,0,0,0,1.571-2.326,10.047,10.047,0,0,0,.6-3.5v-.2a10.417,10.417,0,0,0-.279-2.48,8.333,8.333,0,0,0-.777-2.053,4.728,4.728,0,0,0-1.12-1.415l.247-.718a4.975,4.975,0,0,1,1.6,1.549,8.041,8.041,0,0,1,1.137,2.393,10.04,10.04,0,0,1,.378,2.8"/>
    <path id="Trazado_112174" data-name="Trazado 112174" d="M98.592,189.2V68.917h.75V186.233l6.855-12.687.66.357Z"/>
    <path id="Trazado_112175" data-name="Trazado 112175" d="M156.622,312.694C70.412,312.694.275,242.557.275,156.347S70.412,0,156.622,0,312.97,70.137,312.97,156.347,242.832,312.694,156.622,312.694m0-311.944c-85.8,0-155.6,69.8-155.6,155.6s69.8,155.6,155.6,155.6,155.6-69.8,155.6-155.6S242.419.75,156.622.75"/>
    <path id="Trazado_112176" data-name="Trazado 112176" d="M156.622,261.816A105.469,105.469,0,1,1,262.091,156.348,105.588,105.588,0,0,1,156.622,261.816m0-210.187A104.719,104.719,0,1,0,261.341,156.348,104.837,104.837,0,0,0,156.622,51.629"/>
    <path id="Trazado_112177" data-name="Trazado 112177" d="M26.892,243.159l-.2-.723c.91-.256,91.456-26.348,129.617-86.29l.283-.444.327.413c.512.646,52.1,64.792,132.135,82.414l-.161.733c-76.953-16.943-127.679-76.742-132.231-82.276C118.182,216.859,27.8,242.9,26.892,243.159"/>
    <path id="Trazado_112178" data-name="Trazado 112178" d="M312.6,156.722H0l.325-.562c.347-.6,35.487-60.23,112.538-95.8C153.184,41.749,202,52.069,235.844,64a345.942,345.942,0,0,1,64.4,30.642l-.4.631a345.172,345.172,0,0,0-64.261-30.571c-33.712-11.885-82.314-22.169-122.4-3.663C40.361,94.656,5.09,149.8,1.314,155.972H312.6Z"/>
    <rect id="Rectángulo_6996" data-name="Rectángulo 6996" width="0.75" height="311.944" transform="translate(156.247 0.375)"/>
    <path id="Trazado_112179" data-name="Trazado 112179" d="M118.612,102.014a3.4,3.4,0,0,1-1.082,2.263,3.548,3.548,0,0,1-2.422.8,3.259,3.259,0,0,1-2.625-1.174,4.727,4.727,0,0,1-.986-3.143v-.889a5.256,5.256,0,0,1,.46-2.265,3.44,3.44,0,0,1,1.3-1.5,3.638,3.638,0,0,1,1.956-.524,3.338,3.338,0,0,1,2.361.823,3.44,3.44,0,0,1,1.035,2.275h-1.225a2.659,2.659,0,0,0-.689-1.6,2.086,2.086,0,0,0-1.482-.5,2.182,2.182,0,0,0-1.832.864,3.967,3.967,0,0,0-.663,2.459v.895a4.072,4.072,0,0,0,.629,2.4,2.029,2.029,0,0,0,1.758.889,2.354,2.354,0,0,0,1.559-.46,2.561,2.561,0,0,0,.72-1.6Z"/>
    <path id="Trazado_112180" data-name="Trazado 112180" d="M119.78,101.449a4.048,4.048,0,0,1,.4-1.814,2.951,2.951,0,0,1,1.1-1.244,3,3,0,0,1,1.616-.439,2.9,2.9,0,0,1,2.269.972,3.735,3.735,0,0,1,.866,2.583v.083a4.092,4.092,0,0,1-.384,1.8,2.909,2.909,0,0,1-1.1,1.241,3.043,3.043,0,0,1-1.641.444,2.892,2.892,0,0,1-2.262-.97,3.716,3.716,0,0,1-.867-2.572Zm1.18.141a2.938,2.938,0,0,0,.53,1.834,1.8,1.8,0,0,0,2.841-.01,3.208,3.208,0,0,0,.527-1.965,2.931,2.931,0,0,0-.537-1.831,1.7,1.7,0,0,0-1.424-.7,1.687,1.687,0,0,0-1.4.693,3.188,3.188,0,0,0-.533,1.98"/>
    <path id="Trazado_112181" data-name="Trazado 112181" d="M133.307,101.59a4.1,4.1,0,0,1-.718,2.525,2.3,2.3,0,0,1-1.941.959,2.52,2.52,0,0,1-1.969-.793v3.307H127.5V98.079h1.072l.058.762a2.418,2.418,0,0,1,1.993-.889,2.344,2.344,0,0,1,1.958.933,4.156,4.156,0,0,1,.721,2.6Zm-1.175-.134a3.039,3.039,0,0,0-.494-1.835,1.6,1.6,0,0,0-1.36-.672,1.726,1.726,0,0,0-1.6.945v3.282a1.728,1.728,0,0,0,1.613.939,1.584,1.584,0,0,0,1.342-.669,3.313,3.313,0,0,0,.5-1.99"/>
    <path id="Trazado_112182" data-name="Trazado 112182" d="M139.038,104.948a2.488,2.488,0,0,1-.165-.724,2.619,2.619,0,0,1-1.955.85,2.424,2.424,0,0,1-1.666-.574,1.859,1.859,0,0,1-.651-1.457,1.941,1.941,0,0,1,.816-1.666,3.852,3.852,0,0,1,2.295-.594h1.143v-.539a1.313,1.313,0,0,0-.37-.981A1.477,1.477,0,0,0,137.4,98.9a1.715,1.715,0,0,0-1.054.316.939.939,0,0,0-.426.769h-1.18a1.614,1.614,0,0,1,.365-.993,2.481,2.481,0,0,1,.99-.759,3.319,3.319,0,0,1,1.374-.28,2.717,2.717,0,0,1,1.86.594,2.141,2.141,0,0,1,.7,1.634v3.162a3.858,3.858,0,0,0,.242,1.5v.1Zm-1.949-.895a2.068,2.068,0,0,0,1.048-.286,1.743,1.743,0,0,0,.718-.743v-1.409h-.921q-2.159,0-2.158,1.263a1.069,1.069,0,0,0,.368.863,1.409,1.409,0,0,0,.945.312"/>
    <path id="Trazado_112183" data-name="Trazado 112183" d="M115.368,118.947h-1.18v-7.826l-2.368.869v-1.066l3.364-1.264h.184Z"/>
    <path id="Trazado_112184" data-name="Trazado 112184" d="M124.605,115a5.387,5.387,0,0,1-.7,3.066,2.928,2.928,0,0,1-4.393.022,5.092,5.092,0,0,1-.736-2.929V113.6a5.249,5.249,0,0,1,.7-3.027,2.981,2.981,0,0,1,4.4-.035,5.069,5.069,0,0,1,.724,2.949ZM123.43,113.4a4.309,4.309,0,0,0-.418-2.174,1.442,1.442,0,0,0-1.327-.682,1.422,1.422,0,0,0-1.314.679,4.2,4.2,0,0,0-.425,2.088v1.879a4.37,4.37,0,0,0,.434,2.212,1.439,1.439,0,0,0,1.318.714,1.421,1.421,0,0,0,1.292-.672,4.217,4.217,0,0,0,.44-2.121Z"/>
    <path id="Trazado_112185" data-name="Trazado 112185" d="M111.585,129.2a9.81,9.81,0,0,1,.385-2.754,7.986,7.986,0,0,1,1.145-2.4,4.881,4.881,0,0,1,1.581-1.524l.241.776a5.049,5.049,0,0,0-1.52,2.17,9.4,9.4,0,0,0-.65,3.269l-.007.539a9.46,9.46,0,0,0,.895,4.254,5.094,5.094,0,0,0,1.282,1.688l-.241.717a5.041,5.041,0,0,1-1.613-1.574,8.827,8.827,0,0,1-1.5-5.161"/>
    <path id="Trazado_112186" data-name="Trazado 112186" d="M119.812,132.947h-1.18v-7.826l-2.368.869v-1.066l3.364-1.264h.184Z"/>
    <path id="Trazado_112187" data-name="Trazado 112187" d="M126.084,129.26a9.8,9.8,0,0,1-.372,2.713,8.011,8.011,0,0,1-1.136,2.4,4.979,4.979,0,0,1-1.6,1.562l-.247-.718a5.105,5.105,0,0,0,1.571-2.326,10.049,10.049,0,0,0,.605-3.5v-.2a10.418,10.418,0,0,0-.279-2.48,8.332,8.332,0,0,0-.777-2.053,4.727,4.727,0,0,0-1.12-1.415l.247-.718a4.975,4.975,0,0,1,1.6,1.549,8.042,8.042,0,0,1,1.137,2.393,10.041,10.041,0,0,1,.378,2.8"/>
    <path id="Trazado_112188" data-name="Trazado 112188" d="M151.119,105.011h-6.056v-.844l3.2-3.555a7.665,7.665,0,0,0,.981-1.311,2.194,2.194,0,0,0,.269-1.044,1.659,1.659,0,0,0-.438-1.187,1.53,1.53,0,0,0-1.168-.463,1.816,1.816,0,0,0-1.362.5,1.907,1.907,0,0,0-.485,1.387h-1.174a2.729,2.729,0,0,1,.821-2.063,3.05,3.05,0,0,1,2.2-.787,2.929,2.929,0,0,1,2.038.676,2.306,2.306,0,0,1,.749,1.8,5.284,5.284,0,0,1-1.74,3.25l-2.475,2.686h4.64Z"/>
  </g>
</svg>
