<svg id="Grupo_87773" data-name="Grupo 87773" xmlns="http://www.w3.org/2000/svg" xmlns:xlink="http://www.w3.org/1999/xlink" width="353.164" height="359.639" viewBox="0 0 353.164 359.639">
  <defs>
    <clipPath id="clip-path">
      <rect id="Rectángulo_6993" data-name="Rectángulo 6993" width="353.164" height="359.639" fill="none"/>
    </clipPath>
  </defs>
  <g id="Grupo_87774" data-name="Grupo 87774" clip-path="url(#clip-path)">
    <path id="Trazado_112130" data-name="Trazado 112130" d="M327.388,145.95a2.358,2.358,0,1,1-2.358-2.358,2.358,2.358,0,0,1,2.358,2.358"/>
    <path id="Trazado_112131" data-name="Trazado 112131" d="M327.388,222.119a2.358,2.358,0,1,1-2.358-2.358,2.358,2.358,0,0,1,2.358,2.358"/>
    <path id="Trazado_112132" data-name="Trazado 112132" d="M217.445,334.067a2.358,2.358,0,1,1-2.358-2.358,2.358,2.358,0,0,1,2.358,2.358"/>
    <path id="Trazado_112133" data-name="Trazado 112133" d="M138.844,335.042a2.358,2.358,0,1,1-2.358-2.358,2.358,2.358,0,0,1,2.358,2.358"/>
    <path id="Trazado_112134" data-name="Trazado 112134" d="M24.421,145.95a2.358,2.358,0,1,1-2.358-2.358,2.358,2.358,0,0,1,2.358,2.358"/>
    <path id="Trazado_112135" data-name="Trazado 112135" d="M138.812,30.857a2.358,2.358,0,1,1-2.358-2.358,2.358,2.358,0,0,1,2.358,2.358"/>
    <path id="Trazado_112136" data-name="Trazado 112136" d="M217.445,32.065a2.358,2.358,0,1,1-2.358-2.358,2.358,2.358,0,0,1,2.358,2.358"/>
    <path id="Trazado_112137" data-name="Trazado 112137" d="M25.421,222.119a2.358,2.358,0,1,1-2.358-2.358,2.358,2.358,0,0,1,2.358,2.358"/>
    <path id="Trazado_112138" data-name="Trazado 112138" d="M174.046,339.858c-86.465,0-156.809-70.345-156.809-156.81S87.581,26.239,174.046,26.239s156.81,70.344,156.81,156.809-70.345,156.81-156.81,156.81m0-312.869C88,26.989,17.987,97,17.987,183.048S88,339.108,174.046,339.108s156.06-70.008,156.06-156.06S260.1,26.989,174.046,26.989"/>
    <path id="Trazado_112139" data-name="Trazado 112139" d="M174.046,288.829a105.781,105.781,0,1,1,105.78-105.781,105.9,105.9,0,0,1-105.78,105.781m0-210.811a105.031,105.031,0,1,0,105.03,105.03,105.148,105.148,0,0,0-105.03-105.03"/>
    <path id="Trazado_112140" data-name="Trazado 112140" d="M214.753,334.238c-19.061-37.32-30.922-76.437-35.254-116.263a326.816,326.816,0,0,1,3.917-96.25c10.327-54.5,31.141-89.471,31.35-89.818l.642.387c-.209.346-20.962,35.226-31.26,89.6-9.5,50.174-11.791,127.682,31.273,212Z"/>
    <path id="Trazado_112141" data-name="Trazado 112141" d="M137.281,334.2l-.668-.342c43.064-84.319,40.776-161.828,31.273-212-10.3-54.374-31.051-89.255-31.26-89.6l.642-.387c.209.347,21.023,35.32,31.35,89.818a326.816,326.816,0,0,1,3.917,96.25c-4.332,39.826-16.193,78.944-35.254,116.264"/>
    <path id="Trazado_112142" data-name="Trazado 112142" d="M23.233,222.453l-.342-.668c37.321-19.061,76.438-30.922,116.264-35.254a326.818,326.818,0,0,1,96.25,3.917c54.5,10.327,89.471,31.141,89.817,31.35l-.386.642c-.346-.209-35.227-20.962-89.6-31.26-50.173-9.5-127.681-11.792-212,31.273"/>
    <path id="Trazado_112143" data-name="Trazado 112143" d="M173.991,183.422a322.157,322.157,0,0,1-34.836-1.885c-39.826-4.332-78.943-16.193-116.264-35.254l.342-.668c84.32,43.065,161.827,40.776,212,31.274,54.375-10.3,89.256-31.052,89.6-31.261l.386.643c-.346.209-35.32,21.022-89.817,31.349a329.773,329.773,0,0,1-61.414,5.8"/>
    <path id="Trazado_112144" data-name="Trazado 112144" d="M175.425,278.652V88.871h.75V274.929l6.839-16.284.691.291Z"/>
    <path id="Trazado_112145" data-name="Trazado 112145" d="M181.037,6.825h-3.871l-.87,2.418h-1.257L178.568,0h1.067l3.535,9.242h-1.25Zm-3.5-1h3.143L179.1,1.5Z"/>
    <path id="Trazado_112146" data-name="Trazado 112146" d="M353.164,183.084a3.4,3.4,0,0,1-1.082,2.263,3.548,3.548,0,0,1-2.422.8,3.259,3.259,0,0,1-2.625-1.174,4.727,4.727,0,0,1-.986-3.143v-.889a5.256,5.256,0,0,1,.46-2.265,3.44,3.44,0,0,1,1.3-1.5,3.638,3.638,0,0,1,1.956-.524,3.338,3.338,0,0,1,2.361.823,3.44,3.44,0,0,1,1.035,2.275h-1.225a2.659,2.659,0,0,0-.689-1.6,2.086,2.086,0,0,0-1.482-.5,2.182,2.182,0,0,0-1.832.864,3.967,3.967,0,0,0-.663,2.459v.9a4.072,4.072,0,0,0,.629,2.4,2.029,2.029,0,0,0,1.758.889,2.354,2.354,0,0,0,1.559-.46,2.561,2.561,0,0,0,.72-1.6Z"/>
    <path id="Trazado_112147" data-name="Trazado 112147" d="M0,186.017v-9.242H2.61a4.2,4.2,0,0,1,2.132.533,3.6,3.6,0,0,1,1.432,1.518,4.933,4.933,0,0,1,.511,2.259v.59a4.943,4.943,0,0,1-.505,2.291,3.547,3.547,0,0,1-1.44,1.512,4.481,4.481,0,0,1-2.181.539Zm1.219-8.246v7.25H2.5a2.791,2.791,0,0,0,2.193-.877,3.627,3.627,0,0,0,.784-2.5v-.54a3.677,3.677,0,0,0-.739-2.449,2.638,2.638,0,0,0-2.1-.887Z"/>
    <path id="Trazado_112148" data-name="Trazado 112148" d="M174.341,359.639V350.4h3.022a3.5,3.5,0,0,1,2.263.622,2.241,2.241,0,0,1,.758,1.841,1.876,1.876,0,0,1-.367,1.145,2.378,2.378,0,0,1-1,.772,2.144,2.144,0,0,1,1.185.8,2.281,2.281,0,0,1,.434,1.4,2.469,2.469,0,0,1-.806,1.955,3.332,3.332,0,0,1-2.278.711Zm1.22-5.3H177.4a1.919,1.919,0,0,0,1.278-.4,1.346,1.346,0,0,0,.48-1.088,1.318,1.318,0,0,0-.445-1.109,2.176,2.176,0,0,0-1.352-.348h-1.8Zm0,.979v3.326h2.012a1.937,1.937,0,0,0,1.342-.441,1.546,1.546,0,0,0,.493-1.216q0-1.67-1.817-1.669Z"/>
    <path id="Trazado_112149" data-name="Trazado 112149" d="M203.774,132.97a3.4,3.4,0,0,1-1.082,2.263,3.548,3.548,0,0,1-2.422.8,3.259,3.259,0,0,1-2.625-1.174,4.727,4.727,0,0,1-.986-3.143v-.889a5.256,5.256,0,0,1,.46-2.265,3.44,3.44,0,0,1,1.3-1.5,3.638,3.638,0,0,1,1.956-.524,3.338,3.338,0,0,1,2.361.823,3.44,3.44,0,0,1,1.035,2.275h-1.225a2.659,2.659,0,0,0-.689-1.6,2.086,2.086,0,0,0-1.482-.5,2.182,2.182,0,0,0-1.832.864,3.967,3.967,0,0,0-.663,2.459v.9a4.072,4.072,0,0,0,.629,2.4,2.029,2.029,0,0,0,1.758.889,2.354,2.354,0,0,0,1.559-.46,2.561,2.561,0,0,0,.72-1.6Z"/>
    <path id="Trazado_112150" data-name="Trazado 112150" d="M204.942,132.4a4.048,4.048,0,0,1,.4-1.814,2.951,2.951,0,0,1,1.1-1.244,3,3,0,0,1,1.616-.439,2.9,2.9,0,0,1,2.269.972,3.735,3.735,0,0,1,.866,2.583v.083a4.091,4.091,0,0,1-.384,1.8,2.909,2.909,0,0,1-1.1,1.241,3.043,3.043,0,0,1-1.641.444,2.892,2.892,0,0,1-2.262-.97,3.716,3.716,0,0,1-.867-2.572Zm1.18.141a2.938,2.938,0,0,0,.53,1.834,1.8,1.8,0,0,0,2.841-.01,3.208,3.208,0,0,0,.527-1.965,2.931,2.931,0,0,0-.537-1.831,1.7,1.7,0,0,0-1.424-.7,1.687,1.687,0,0,0-1.4.693,3.188,3.188,0,0,0-.533,1.98"/>
    <path id="Trazado_112151" data-name="Trazado 112151" d="M218.469,132.546a4.1,4.1,0,0,1-.718,2.525,2.3,2.3,0,0,1-1.941.959,2.52,2.52,0,0,1-1.969-.793v3.307h-1.174v-9.509h1.072l.058.762a2.418,2.418,0,0,1,1.993-.889,2.344,2.344,0,0,1,1.958.933,4.156,4.156,0,0,1,.721,2.6Zm-1.175-.134a3.039,3.039,0,0,0-.494-1.835,1.6,1.6,0,0,0-1.36-.672,1.726,1.726,0,0,0-1.6.945v3.282a1.728,1.728,0,0,0,1.613.939,1.584,1.584,0,0,0,1.342-.669,3.313,3.313,0,0,0,.5-1.99"/>
    <path id="Trazado_112152" data-name="Trazado 112152" d="M224.2,135.9a2.488,2.488,0,0,1-.165-.724,2.619,2.619,0,0,1-1.955.85,2.424,2.424,0,0,1-1.666-.574,1.859,1.859,0,0,1-.651-1.457,1.941,1.941,0,0,1,.816-1.666,3.852,3.852,0,0,1,2.295-.594h1.143V131.2a1.313,1.313,0,0,0-.37-.981,1.477,1.477,0,0,0-1.084-.364,1.715,1.715,0,0,0-1.054.316.939.939,0,0,0-.426.769H219.9a1.614,1.614,0,0,1,.365-.993,2.482,2.482,0,0,1,.99-.759,3.319,3.319,0,0,1,1.374-.28,2.717,2.717,0,0,1,1.86.594,2.14,2.14,0,0,1,.7,1.634V134.3a3.858,3.858,0,0,0,.242,1.5v.1Zm-1.949-.9a2.068,2.068,0,0,0,1.048-.286,1.743,1.743,0,0,0,.718-.743V132.57H223.1q-2.158,0-2.158,1.263a1.069,1.069,0,0,0,.368.863,1.409,1.409,0,0,0,.945.312"/>
    <path id="Trazado_112153" data-name="Trazado 112153" d="M200.53,149.9h-1.18v-7.826l-2.368.869V141.88l3.364-1.264h.184Z"/>
    <path id="Trazado_112158" data-name="Trazado 112158" d="M200.53,149.9h-1.18v-7.826l-2.368.869V141.88l3.364-1.264h.184Z" transform="translate(33 -13.978)"/>
    <path id="Trazado_112154" data-name="Trazado 112154" d="M209.767,145.961a5.387,5.387,0,0,1-.7,3.066,2.928,2.928,0,0,1-4.393.022,5.092,5.092,0,0,1-.736-2.929v-1.569a5.249,5.249,0,0,1,.7-3.027,2.981,2.981,0,0,1,4.4-.035,5.069,5.069,0,0,1,.724,2.949Zm-1.175-1.606a4.308,4.308,0,0,0-.418-2.174,1.442,1.442,0,0,0-1.327-.682,1.422,1.422,0,0,0-1.314.679,4.2,4.2,0,0,0-.425,2.088v1.879a4.37,4.37,0,0,0,.434,2.212,1.439,1.439,0,0,0,1.318.714,1.421,1.421,0,0,0,1.292-.672,4.217,4.217,0,0,0,.44-2.121Z"/>
    <path id="Trazado_112155" data-name="Trazado 112155" d="M196.747,160.151a9.81,9.81,0,0,1,.385-2.754,7.986,7.986,0,0,1,1.145-2.4,4.881,4.881,0,0,1,1.581-1.524l.241.776a5.049,5.049,0,0,0-1.52,2.17,9.4,9.4,0,0,0-.65,3.269l-.007.539a9.46,9.46,0,0,0,.9,4.254,5.094,5.094,0,0,0,1.282,1.688l-.241.717a5.041,5.041,0,0,1-1.613-1.574,8.827,8.827,0,0,1-1.5-5.161"/>
    <path id="Trazado_112156" data-name="Trazado 112156" d="M204.974,163.9h-1.18v-7.826l-2.368.869V155.88l3.364-1.264h.184Z"/>
    <path id="Trazado_112157" data-name="Trazado 112157" d="M211.246,160.215a9.8,9.8,0,0,1-.372,2.713,8.01,8.01,0,0,1-1.136,2.4,4.979,4.979,0,0,1-1.6,1.562l-.247-.718a5.105,5.105,0,0,0,1.571-2.326,10.048,10.048,0,0,0,.6-3.5v-.2a10.418,10.418,0,0,0-.279-2.48,8.332,8.332,0,0,0-.777-2.053,4.727,4.727,0,0,0-1.12-1.415l.247-.718a4.975,4.975,0,0,1,1.6,1.549,8.042,8.042,0,0,1,1.137,2.393,10.041,10.041,0,0,1,.378,2.8"/>
  </g>
</svg>
